<svg id="svg" version="1.1" xmlns="http://www.w3.org/2000/svg" xmlns:xlink="http://www.w3.org/1999/xlink" width="400" height="398.9789406509253" viewBox="0, 0, 400,398.9789406509253"><g id="svgg"><path id="path1" d="M237.269 45.212 C 198.017 49.875,171.735 87.621,181.124 125.846 C 189.715 160.820,225.155 182.363,260.071 173.836 C 309.675 161.722,326.890 100.154,290.766 64.055 C 281.648 54.943,268.663 47.745,261.327 47.736 C 259.431 47.734,259.471 48.020,261.710 50.494 C 265.174 54.320,263.748 58.889,259.372 57.985 C 253.320 56.735,250.716 53.059,252.882 48.827 C 254.000 46.642,253.848 46.255,251.585 45.522 C 250.034 45.020,240.603 44.816,237.269 45.212 M277.727 62.230 C 285.241 66.555,299.058 89.083,298.008 95.297 C 297.311 99.419,294.516 97.995,291.906 92.191 C 290.097 88.167,289.086 86.440,285.310 80.919 C 281.898 75.931,280.399 74.144,277.150 71.191 C 271.468 66.028,270.642 62.781,274.665 61.427 C 275.301 61.213,276.514 61.531,277.727 62.230 M241.353 199.520 C 205.250 201.883,170.345 225.366,146.231 263.515 C 136.387 279.088,127.297 298.774,124.697 310.147 C 124.232 312.183,123.213 316.031,122.434 318.698 C 117.310 336.230,114.053 354.955,113.686 368.985 C 113.544 374.401,113.511 374.683,112.752 376.899 C 111.128 381.639,111.721 384.928,114.344 385.731 C 115.670 386.137,374.286 386.393,377.293 385.991 C 381.830 385.385,382.149 384.388,381.371 373.213 C 375.186 284.355,325.732 212.494,262.795 200.913 C 256.593 199.772,247.014 199.150,241.353 199.520 M282.195 215.148 C 283.804 215.909,294.425 222.474,298.787 225.404 C 308.648 232.026,324.081 248.001,330.290 258.012 C 333.663 263.450,340.242 279.205,340.674 282.877 C 341.073 286.271,338.870 287.958,336.844 285.810 C 335.981 284.895,335.729 284.337,332.729 276.707 C 327.833 264.255,323.501 258.094,310.554 245.168 C 302.716 237.342,300.340 235.510,288.205 227.939 C 277.038 220.973,276.452 220.454,276.452 217.530 C 276.452 214.647,278.949 213.611,282.195 215.148 M128.415 313.985 C 129.257 314.435,129.027 316.092,127.401 321.285 C 122.954 335.495,120.840 345.040,117.940 364.008 C 117.800 364.920,117.508 367.275,117.289 369.241 C 116.631 375.176,116.364 376.014,115.268 375.593 C 114.704 375.377,114.571 374.259,114.877 372.299 C 115.030 371.319,115.258 369.541,115.384 368.347 C 115.510 367.154,115.917 364.110,116.288 361.583 C 116.659 359.056,117.112 355.954,117.294 354.690 C 119.787 337.418,125.110 315.567,127.177 314.119 C 127.852 313.646,127.794 313.653,128.415 313.985 M161.408 373.567 C 164.302 374.599,164.634 377.593,162.020 379.090 L 160.944 379.706 144.990 379.706 C 129.771 379.706,128.991 379.684,128.049 379.216 C 125.301 377.853,125.575 374.624,128.526 373.581 C 130.004 373.058,159.946 373.046,161.408 373.567 " stroke="none" fill="#ec9c04" fill-rule="evenodd"></path><path id="path2" d="M145.884 12.930 C 94.230 18.483,66.954 76.066,95.601 119.081 C 109.885 140.528,136.613 152.695,161.327 149.000 C 166.860 148.173,167.326 147.844,167.326 144.772 L 167.326 142.809 164.605 137.199 C 148.703 104.412,154.355 69.908,179.888 43.886 C 186.455 37.194,186.599 36.633,182.355 34.310 C 178.104 31.982,176.466 30.136,177.250 28.554 C 178.362 26.310,184.765 29.684,186.398 33.376 C 187.976 36.944,195.009 33.411,195.070 29.019 C 195.117 25.552,180.554 17.644,168.680 14.689 C 162.373 13.120,151.743 12.300,145.884 12.930 M162.352 21.084 C 165.144 21.913,166.335 24.311,164.598 25.603 C 163.144 26.684,158.388 25.971,157.138 24.485 C 155.047 22.000,158.298 19.880,162.352 21.084 M149.202 167.348 C 148.641 167.404,146.918 167.569,145.373 167.717 C 81.448 173.805,27.363 243.837,17.636 333.121 C 15.492 352.806,15.798 357.317,19.400 359.101 L 20.804 359.796 51.760 359.864 C 86.119 359.939,83.307 360.079,85.155 358.200 C 86.853 356.474,87.438 354.768,88.574 348.237 C 102.150 270.207,143.938 211.227,200.553 190.189 C 209.019 187.043,210.741 184.823,206.706 182.255 C 191.472 172.561,165.251 165.764,149.202 167.348 M73.899 343.357 C 76.984 344.198,76.761 347.430,73.573 348.107 C 71.824 348.478,41.864 348.354,40.783 347.971 C 38.186 347.052,38.146 344.372,40.715 343.460 C 42.026 342.995,72.227 342.901,73.899 343.357 " stroke="none" fill="#9cc42c" fill-rule="evenodd"></path><path id="path3" d="M0.000 199.489 L 0.000 398.979 200.000 398.979 L 400.000 398.979 400.000 199.489 L 400.000 0.000 200.000 0.000 L 0.000 0.000 0.000 199.489 M161.327 3.970 C 175.911 5.363,187.121 9.690,199.013 18.519 C 204.815 22.827,206.403 24.752,206.197 27.230 C 206.001 29.599,205.190 30.476,200.128 33.794 C 186.073 43.006,179.526 49.108,172.643 59.408 C 157.182 82.548,156.121 114.663,170.048 137.971 C 174.146 144.829,174.511 145.364,175.013 145.243 C 175.106 145.221,175.284 145.355,175.408 145.543 C 175.853 146.217,175.420 144.612,174.604 142.565 C 167.049 123.622,165.869 105.153,171.130 88.194 C 188.304 32.833,255.769 15.439,298.679 55.309 C 335.072 89.124,328.542 149.494,285.593 176.289 C 278.046 180.997,270.834 183.868,261.008 186.076 C 255.284 187.362,255.750 187.846,264.199 189.392 C 273.639 191.119,278.004 192.271,284.748 194.817 C 286.994 195.665,289.579 196.638,290.491 196.980 C 300.359 200.669,315.037 210.092,325.846 219.675 C 364.517 253.964,390.173 312.418,393.619 374.091 C 393.768 376.758,394.011 380.721,394.158 382.897 C 394.726 391.304,394.729 391.482,394.306 392.775 C 393.731 394.534,391.825 396.462,390.110 397.021 C 387.910 397.737,105.263 397.690,103.604 396.973 C 100.908 395.807,99.464 393.153,99.631 389.667 C 100.457 372.465,101.274 362.954,102.899 351.627 C 114.945 267.677,165.633 201.731,227.094 190.048 C 236.139 188.329,237.378 187.649,233.379 186.599 C 227.480 185.050,225.232 185.151,222.631 187.080 C 220.477 188.676,219.645 189.034,216.645 189.651 C 215.352 189.917,213.146 190.553,211.742 191.065 C 210.338 191.576,206.835 192.776,203.957 193.730 C 148.871 211.996,105.619 272.689,92.797 349.713 C 91.035 360.295,89.576 365.630,87.989 367.285 C 85.681 369.693,87.602 369.582,47.479 369.645 L 12.125 369.701 10.685 369.018 C 7.380 367.453,5.997 364.760,6.210 360.306 C 7.463 334.141,9.169 319.511,12.923 302.744 C 29.453 228.923,74.429 174.295,129.900 160.662 C 138.327 158.591,138.385 158.433,131.461 156.351 C 108.695 149.505,91.222 134.639,81.630 113.955 C 60.999 69.471,86.076 17.129,133.654 5.366 C 140.620 3.644,151.930 3.073,161.327 3.970 M177.473 150.027 C 177.297 150.088,177.154 150.377,177.154 150.669 C 177.154 153.204,175.425 155.466,172.661 156.549 C 168.809 158.057,169.068 158.401,175.116 159.794 C 177.571 160.360,180.709 161.172,182.090 161.600 C 186.107 162.843,187.236 162.330,185.641 159.987 C 180.296 152.135,178.324 149.730,177.473 150.027 " stroke="none" fill="#fbfbf5" fill-rule="evenodd"></path><path id="path4" d="M237.396 38.563 C 189.335 43.822,160.022 92.552,177.906 137.460 C 181.403 146.241,190.987 160.138,195.567 163.068 C 196.040 163.370,197.460 164.537,198.724 165.660 C 199.987 166.783,201.159 167.703,201.327 167.705 C 201.496 167.707,201.726 167.853,201.838 168.029 C 202.029 168.328,202.876 168.918,205.169 170.348 C 205.696 170.677,206.873 171.412,207.786 171.983 C 208.698 172.554,210.249 173.418,211.232 173.903 C 212.214 174.389,213.705 175.146,214.543 175.587 C 215.382 176.027,216.157 176.388,216.267 176.388 C 216.377 176.388,217.062 176.675,217.790 177.026 C 218.517 177.377,219.218 177.664,219.346 177.664 C 219.474 177.664,219.940 177.824,220.383 178.020 C 222.048 178.755,228.457 180.616,230.121 180.846 C 230.402 180.885,230.804 180.986,231.015 181.070 C 233.104 181.902,247.032 182.551,251.308 182.015 C 252.572 181.857,254.008 181.681,254.499 181.623 C 275.860 179.128,296.840 164.687,307.710 144.996 C 319.854 122.999,319.413 94.524,306.605 73.580 C 305.897 72.422,305.399 71.471,305.499 71.466 C 305.598 71.462,305.479 71.342,305.233 71.198 C 304.987 71.055,304.786 70.772,304.786 70.568 C 304.786 70.364,304.671 70.198,304.531 70.198 C 304.391 70.198,304.276 70.026,304.276 69.815 C 304.276 69.604,304.161 69.432,304.020 69.432 C 303.880 69.432,303.765 69.308,303.765 69.157 C 303.765 68.422,298.517 62.207,294.915 58.678 C 279.965 44.031,257.911 36.318,237.396 38.563 M251.585 45.522 C 253.848 46.255,254.000 46.642,252.882 48.827 C 250.716 53.059,253.320 56.735,259.372 57.985 C 263.748 58.889,265.174 54.320,261.710 50.494 C 259.471 48.020,259.431 47.734,261.327 47.736 C 270.378 47.747,287.906 58.958,296.315 70.115 C 329.324 113.909,299.145 175.490,244.671 175.494 C 222.301 175.496,202.560 165.023,190.301 146.650 C 164.366 107.780,186.162 55.263,232.036 46.092 C 238.228 44.854,248.588 44.552,251.585 45.522 M274.665 61.427 C 270.642 62.781,271.468 66.028,277.150 71.191 C 280.399 74.144,281.898 75.931,285.310 80.919 C 289.086 86.440,290.097 88.167,291.906 92.191 C 294.155 97.194,295.642 98.510,297.238 96.914 C 299.988 94.164,294.927 82.455,285.635 70.070 C 281.673 64.790,276.585 60.781,274.665 61.427 M241.098 192.886 C 168.456 198.837,110.937 276.230,105.192 375.750 C 105.050 378.207,104.799 382.524,104.634 385.343 C 104.306 390.947,104.376 391.422,105.680 392.384 C 106.298 392.841,110.619 392.855,246.103 392.855 C 380.652 392.854,387.492 392.827,387.492 392.295 C 387.492 392.164,387.599 392.123,387.730 392.204 C 388.015 392.380,388.804 391.329,388.615 391.024 C 388.542 390.907,388.576 390.810,388.689 390.810 C 388.930 390.810,388.938 388.056,388.699 387.492 C 388.610 387.281,388.413 384.352,388.263 380.983 C 384.994 307.854,354.643 244.468,307.722 212.777 C 306.318 211.829,305.099 210.940,305.013 210.801 C 304.927 210.663,304.787 210.588,304.702 210.636 C 304.617 210.683,304.314 210.521,304.029 210.277 C 303.743 210.033,303.510 209.911,303.510 210.006 C 303.510 210.101,303.273 209.925,302.984 209.615 C 302.695 209.305,302.350 209.117,302.218 209.199 C 302.086 209.281,301.978 209.226,301.978 209.077 C 301.978 208.928,301.806 208.807,301.595 208.807 C 301.385 208.807,301.213 208.685,301.213 208.536 C 301.213 208.388,301.098 208.337,300.957 208.424 C 300.817 208.511,300.702 208.485,300.702 208.366 C 300.702 208.248,300.357 207.947,299.936 207.699 C 299.515 207.450,299.170 207.318,299.170 207.406 C 299.170 207.495,298.978 207.374,298.742 207.138 C 297.372 205.769,284.703 200.228,277.856 198.005 C 266.153 194.205,250.908 192.082,241.098 192.886 M256.796 200.001 C 322.469 208.146,374.961 281.133,381.371 373.213 C 382.149 384.388,381.830 385.385,377.293 385.991 C 374.286 386.393,115.670 386.137,114.344 385.731 C 111.721 384.928,111.128 381.639,112.752 376.899 C 113.511 374.683,113.544 374.401,113.686 368.985 C 114.053 354.955,117.310 336.230,122.434 318.698 C 123.213 316.031,124.232 312.183,124.697 310.147 C 127.297 298.774,136.387 279.088,146.231 263.515 C 174.028 219.539,216.697 195.028,256.796 200.001 M278.082 214.673 C 276.495 215.314,275.946 217.791,276.954 219.766 C 277.728 221.283,278.897 222.133,288.205 227.939 C 300.340 235.510,302.716 237.342,310.554 245.168 C 323.501 258.094,327.833 264.255,332.729 276.707 C 335.729 284.337,335.981 284.895,336.844 285.810 C 338.171 287.216,339.971 286.932,340.534 285.226 C 341.048 283.668,340.620 281.758,338.469 276.021 C 331.879 258.441,328.204 252.870,313.484 238.136 C 304.317 228.960,302.910 227.861,289.981 219.781 C 281.497 214.479,280.074 213.868,278.082 214.673 M127.177 314.119 C 126.058 314.903,124.783 318.811,122.273 329.150 C 120.136 337.954,118.494 346.376,117.294 354.690 C 117.112 355.954,116.659 359.056,116.288 361.583 C 115.917 364.110,115.510 367.154,115.384 368.347 C 115.258 369.541,115.030 371.319,114.877 372.299 C 114.571 374.259,114.704 375.377,115.268 375.593 C 116.364 376.014,116.631 375.176,117.289 369.241 C 117.508 367.275,117.800 364.920,117.940 364.008 C 120.840 345.040,122.954 335.495,127.401 321.285 C 129.027 316.092,129.257 314.435,128.415 313.985 C 127.794 313.653,127.852 313.646,127.177 314.119 M128.526 373.581 C 125.575 374.624,125.301 377.853,128.049 379.216 C 128.991 379.684,129.771 379.706,144.990 379.706 L 160.944 379.706 162.020 379.090 C 164.634 377.593,164.302 374.599,161.408 373.567 C 159.946 373.046,130.004 373.058,128.526 373.581 " stroke="none" fill="#faedd5" fill-rule="evenodd"></path><path id="path5" d="M145.884 5.394 C 115.002 8.354,89.800 28.402,80.144 57.690 C 68.500 93.009,84.850 132.204,118.219 148.965 C 126.280 153.014,130.832 154.388,145.624 157.239 C 152.149 158.496,152.052 158.540,136.184 161.461 C 67.984 174.017,14.631 251.214,9.074 345.373 C 8.863 348.953,8.547 353.778,8.373 356.094 C 7.801 363.686,8.460 365.730,11.964 367.231 C 13.059 367.700,81.634 367.771,84.087 367.306 C 86.672 366.816,87.810 365.308,89.083 360.689 C 90.505 355.528,90.613 355.039,91.525 349.623 C 104.637 271.771,147.538 211.578,203.513 192.499 C 205.563 191.800,208.827 190.599,210.767 189.830 C 212.707 189.060,215.238 188.179,216.390 187.872 C 218.445 187.325,220.084 186.466,221.985 184.939 C 222.909 184.197,223.021 184.174,225.568 184.186 L 228.197 184.198 224.947 183.356 C 219.784 182.018,220.329 182.018,220.481 183.362 C 220.720 185.485,219.508 186.510,215.328 187.722 C 214.084 188.083,211.505 188.995,209.597 189.750 C 207.688 190.505,204.231 191.786,201.914 192.598 C 146.895 211.884,104.588 271.566,91.261 348.696 C 89.522 358.764,87.982 364.056,86.338 365.617 C 84.790 367.087,85.976 367.042,47.959 367.085 L 13.037 367.125 11.885 366.568 C 8.813 365.081,8.413 363.639,8.940 355.967 C 9.085 353.861,9.376 349.209,9.588 345.629 C 14.918 255.487,64.102 180.311,128.653 163.640 C 149.540 158.246,165.592 158.816,186.854 165.707 C 191.347 167.163,193.271 167.738,195.278 168.226 L 196.171 168.443 195.405 167.804 C 194.984 167.453,193.153 165.708,191.336 163.927 C 189.520 162.146,188.346 161.076,188.729 161.549 C 191.872 165.434,190.605 166.197,184.222 164.262 C 179.503 162.831,175.362 161.899,168.988 160.833 C 158.272 159.041,156.085 158.571,156.506 158.150 C 156.637 158.019,159.843 157.287,167.709 155.592 C 174.697 154.086,176.383 151.846,173.658 147.687 C 173.296 147.135,172.345 145.412,171.544 143.858 C 170.744 142.305,169.104 139.138,167.900 136.822 C 149.831 102.061,160.594 58.387,192.391 37.447 C 194.189 36.263,196.292 34.782,197.064 34.157 C 197.837 33.531,199.330 32.437,200.383 31.725 C 205.867 28.020,205.571 26.211,198.596 20.774 C 184.079 9.460,164.147 3.644,145.884 5.394 M159.541 5.985 C 174.935 7.567,187.808 12.822,199.820 22.429 C 204.481 26.157,204.644 28.280,200.487 31.131 C 199.377 31.892,197.549 33.222,196.426 34.086 C 195.303 34.951,193.063 36.518,191.449 37.570 C 186.421 40.845,178.640 48.427,174.093 54.483 C 155.902 78.713,153.468 110.739,167.778 137.588 C 168.639 139.202,170.009 141.844,170.822 143.459 C 171.636 145.073,172.704 147.122,173.196 148.011 C 175.775 152.672,173.989 154.031,162.731 155.975 C 136.678 160.476,107.278 147.717,90.946 124.825 C 53.671 72.573,95.881 -0.557,159.541 5.985 M242.438 34.641 C 242.754 34.702,243.271 34.702,243.586 34.641 C 243.902 34.580,243.644 34.530,243.012 34.530 C 242.380 34.530,242.122 34.580,242.438 34.641 M245.756 34.641 C 246.072 34.702,246.589 34.702,246.905 34.641 C 247.221 34.580,246.962 34.530,246.331 34.530 C 245.699 34.530,245.440 34.580,245.756 34.641 M298.293 56.909 C 305.095 64.188,308.921 69.544,312.435 76.707 C 335.132 122.967,307.200 176.478,255.803 185.201 C 254.625 185.401,253.591 185.635,253.506 185.721 C 252.470 186.767,267.113 183.188,272.423 181.098 C 322.687 161.313,337.048 95.840,299.435 57.946 C 297.815 56.314,297.302 55.847,298.293 56.909 M243.969 186.532 C 244.706 186.583,245.913 186.583,246.650 186.532 C 247.387 186.480,246.784 186.438,245.310 186.438 C 243.835 186.438,243.232 186.480,243.969 186.532 M274.801 193.188 C 275.159 193.502,277.241 194.063,277.413 193.891 C 277.493 193.811,277.453 193.745,277.324 193.743 C 277.195 193.742,276.519 193.567,275.822 193.356 C 275.124 193.144,274.665 193.069,274.801 193.188 M278.749 194.414 C 287.440 197.559,287.688 197.661,294.455 200.884 C 348.236 226.494,387.075 296.186,391.693 375.367 C 391.906 379.017,392.198 383.612,392.342 385.578 C 392.801 391.839,392.686 392.605,390.999 394.536 L 389.917 395.774 390.971 394.933 C 393.053 393.273,393.233 392.126,392.662 384.174 C 392.496 381.857,392.238 377.779,392.089 375.112 C 387.769 297.603,349.755 228.447,296.745 201.658 C 290.734 198.620,281.093 194.680,278.366 194.148 C 277.923 194.061,278.084 194.173,278.749 194.414 M161.960 227.505 L 159.668 229.866 162.029 227.574 C 163.328 226.313,164.391 225.251,164.391 225.213 C 164.391 225.027,164.089 225.312,161.960 227.505 " stroke="none" fill="#ece6c5" fill-rule="evenodd"></path><path id="path6" d="M148.309 3.596 C 142.785 3.865,136.802 4.587,133.654 5.366 C 86.076 17.129,60.999 69.471,81.630 113.955 C 91.222 134.639,108.695 149.505,131.461 156.351 C 138.385 158.433,138.327 158.591,129.900 160.662 C 74.429 174.295,29.453 228.923,12.923 302.744 C 9.169 319.511,7.463 334.141,6.210 360.306 C 5.997 364.760,7.380 367.453,10.685 369.018 L 12.125 369.701 47.479 369.645 C 87.602 369.582,85.681 369.693,87.989 367.285 C 89.576 365.630,91.035 360.295,92.797 349.713 C 105.619 272.689,148.871 211.996,203.957 193.730 C 206.835 192.776,210.338 191.576,211.742 191.065 C 213.146 190.553,215.352 189.917,216.645 189.651 C 219.645 189.034,220.477 188.676,222.631 187.080 C 225.232 185.151,227.480 185.050,233.379 186.599 C 237.378 187.649,236.139 188.329,227.094 190.048 C 165.633 201.731,114.945 267.677,102.899 351.627 C 101.274 362.954,100.457 372.465,99.631 389.667 C 99.464 393.153,100.908 395.807,103.604 396.973 C 105.263 397.690,387.910 397.737,390.110 397.021 C 391.825 396.462,393.731 394.534,394.306 392.775 C 394.729 391.482,394.726 391.304,394.158 382.897 C 394.011 380.721,393.768 376.758,393.619 374.091 C 390.173 312.418,364.517 253.964,325.846 219.675 C 315.037 210.092,300.359 200.669,290.491 196.980 C 289.579 196.638,286.994 195.665,284.748 194.817 C 278.004 192.271,273.639 191.119,264.199 189.392 C 255.750 187.846,255.284 187.362,261.008 186.076 C 269.040 184.272,273.452 182.736,279.634 179.593 C 327.301 155.360,337.155 91.060,298.679 55.309 C 255.769 15.439,188.304 32.833,171.130 88.194 C 165.869 105.153,167.049 123.622,174.604 142.565 C 175.420 144.612,175.853 146.217,175.408 145.543 C 175.284 145.355,175.106 145.221,175.013 145.243 C 174.511 145.364,174.146 144.829,170.048 137.971 C 156.121 114.663,157.182 82.548,172.643 59.408 C 179.526 49.108,186.073 43.006,200.128 33.794 C 205.190 30.476,206.001 29.599,206.197 27.230 C 206.352 25.365,205.849 24.397,203.645 22.318 C 195.969 15.077,183.107 8.250,172.206 5.632 C 165.560 4.036,155.999 3.222,148.309 3.596 M158.519 5.368 C 174.844 6.820,189.218 12.752,201.473 23.095 C 205.314 26.337,205.030 28.586,200.383 31.725 C 199.330 32.437,197.837 33.531,197.064 34.157 C 196.292 34.782,194.189 36.263,192.391 37.447 C 160.594 58.387,149.831 102.061,167.900 136.822 C 169.104 139.138,170.744 142.305,171.544 143.858 C 172.345 145.412,173.296 147.135,173.658 147.687 C 176.383 151.846,174.697 154.086,167.709 155.592 C 159.843 157.287,156.637 158.019,156.506 158.150 C 156.085 158.571,158.272 159.041,168.988 160.833 C 175.362 161.899,179.503 162.831,184.222 164.262 C 191.241 166.389,191.983 165.530,187.674 160.266 C 163.270 130.456,162.545 91.601,185.853 62.675 C 223.127 16.419,297.496 29.797,316.814 86.233 C 331.881 130.252,303.247 177.427,256.669 185.324 C 247.038 186.957,244.416 186.938,233.312 185.154 C 225.569 183.911,223.314 183.868,221.983 184.939 C 220.091 186.462,218.447 187.325,216.390 187.872 C 215.238 188.179,212.707 189.060,210.767 189.830 C 208.827 190.599,205.563 191.800,203.513 192.499 C 147.538 211.578,104.637 271.771,91.525 349.623 C 90.613 355.039,90.505 355.528,89.083 360.689 C 87.810 365.308,86.672 366.816,84.087 367.306 C 81.634 367.771,13.059 367.700,11.964 367.231 C 8.460 365.730,7.801 363.686,8.373 356.094 C 8.547 353.778,8.863 348.953,9.074 345.373 C 14.631 251.214,67.984 174.017,136.184 161.461 C 152.052 158.540,152.149 158.496,145.624 157.239 C 143.380 156.806,139.859 156.113,137.800 155.699 C 90.009 146.073,63.424 95.330,82.791 50.702 C 95.615 21.149,126.704 2.539,158.519 5.368 M179.387 151.326 C 180.276 152.380,183.543 156.905,185.641 159.987 C 187.236 162.330,186.107 162.843,182.090 161.600 C 180.709 161.172,177.571 160.360,175.116 159.794 C 169.068 158.401,168.809 158.057,172.661 156.549 C 175.425 155.466,177.154 153.204,177.154 150.669 C 177.154 149.476,178.050 149.739,179.387 151.326 M251.946 188.876 C 270.153 191.277,280.029 193.886,292.526 199.597 C 347.591 224.760,387.644 295.368,392.089 375.112 C 392.238 377.779,392.496 381.857,392.662 384.174 C 393.296 393.004,392.850 394.515,389.148 396.061 C 387.848 396.604,105.637 396.629,104.342 396.086 C 100.618 394.526,100.403 393.481,101.165 380.600 C 105.858 301.213,137.786 237.684,188.754 206.318 C 207.407 194.839,236.425 186.829,251.946 188.876 " stroke="none" fill="#eeedd7" fill-rule="evenodd"></path><path id="path7" d="M240.715 34.744 C 175.942 38.022,145.252 116.994,190.745 163.326 C 194.594 167.246,198.453 170.357,197.447 168.729 C 197.360 168.589,197.411 168.475,197.560 168.475 C 198.717 168.475,197.191 166.138,193.257 161.889 C 176.167 143.425,169.388 122.903,172.707 99.681 C 180.183 47.371,240.464 20.320,284.553 49.490 C 328.371 78.481,328.558 141.963,284.912 171.047 C 268.413 182.041,249.071 185.486,227.846 181.211 C 223.917 180.419,223.335 180.341,221.723 180.392 C 219.401 180.465,218.790 181.872,220.883 182.327 C 221.191 182.394,223.223 182.909,225.399 183.471 C 234.963 185.943,245.178 186.917,251.436 185.954 C 280.011 181.554,300.323 167.711,312.058 144.638 C 338.394 92.856,298.761 31.806,240.715 34.744 M241.481 188.801 C 241.130 188.868,237.426 189.488,233.251 190.178 C 205.221 194.811,183.430 206.310,161.951 227.805 C 126.049 263.733,104.318 318.109,101.345 379.451 C 101.202 382.399,100.953 386.133,100.792 387.747 C 100.338 392.285,101.318 394.623,104.258 396.018 C 105.606 396.658,387.415 396.657,389.013 396.018 C 392.187 394.748,392.860 392.638,392.342 385.578 C 392.198 383.612,391.906 379.017,391.693 375.367 C 387.723 307.302,358.837 246.184,315.252 213.630 C 306.875 207.373,300.421 203.600,289.215 198.410 C 287.010 197.389,280.469 194.983,277.601 194.138 C 276.337 193.766,275.073 193.354,274.793 193.223 C 273.824 192.771,267.952 191.459,264.103 190.834 C 261.980 190.489,258.347 189.897,256.031 189.519 C 251.972 188.857,243.396 188.433,241.481 188.801 M256.031 192.628 C 280.916 195.588,303.271 205.881,323.038 223.480 C 360.735 257.045,385.228 313.401,388.881 374.984 C 389.093 378.564,389.398 383.416,389.557 385.766 C 390.061 393.192,389.220 394.159,382.725 393.621 C 378.447 393.267,114.475 393.277,110.530 393.631 C 104.351 394.187,103.347 393.079,103.865 386.274 C 104.023 384.206,104.268 380.160,104.411 377.281 C 108.254 299.747,145.578 231.031,198.341 204.352 C 217.331 194.751,238.206 190.508,256.031 192.628 " stroke="none" fill="#f4dcbc" fill-rule="evenodd"></path><path id="path8" d="M144.990 6.005 C 84.552 12.133,55.744 83.402,94.899 129.930 C 111.336 149.462,138.983 160.077,162.731 155.975 C 173.989 154.031,175.775 152.672,173.196 148.011 C 172.704 147.122,171.636 145.073,170.822 143.459 C 170.009 141.844,168.639 139.202,167.778 137.588 C 153.468 110.739,155.902 78.713,174.093 54.483 C 178.640 48.427,186.421 40.845,191.449 37.570 C 193.063 36.518,195.303 34.951,196.426 34.086 C 197.549 33.222,199.377 31.892,200.487 31.131 C 205.423 27.746,204.571 25.650,195.660 19.275 C 181.443 9.101,162.745 4.205,144.990 6.005 M160.689 9.583 C 174.032 11.146,186.863 16.402,196.833 24.391 C 199.542 26.561,199.592 27.254,197.242 30.054 C 194.773 32.995,192.812 34.660,190.542 35.741 C 187.803 37.046,177.989 46.580,173.729 52.074 C 154.311 77.117,151.376 108.847,165.817 137.603 C 168.289 142.525,168.302 142.556,169.151 145.745 C 170.558 151.026,170.311 151.282,162.731 152.388 C 120.308 158.581,81.937 126.427,80.490 83.472 C 79.009 39.533,117.064 4.473,160.689 9.583 M148.819 159.955 C 148.468 160.021,145.597 160.475,142.438 160.965 C 130.657 162.791,124.775 164.336,115.124 168.143 C 56.955 191.087,14.505 262.478,9.588 345.629 C 9.376 349.209,9.085 353.861,8.940 355.967 C 8.413 363.639,8.813 365.081,11.885 366.568 L 13.037 367.125 47.959 367.085 C 85.976 367.042,84.790 367.087,86.338 365.617 C 87.982 364.056,89.522 358.764,91.261 348.696 C 104.588 271.566,146.895 211.884,201.914 192.598 C 204.231 191.786,207.688 190.505,209.597 189.750 C 211.505 188.995,214.084 188.083,215.328 187.722 C 219.198 186.600,220.553 185.569,220.545 183.751 C 220.533 181.035,218.266 180.660,215.854 182.975 C 215.277 183.529,213.829 184.555,212.636 185.256 C 211.442 185.957,209.834 186.962,209.062 187.489 C 207.348 188.661,206.478 189.044,201.276 190.922 C 145.147 211.183,102.648 271.145,89.453 348.692 C 88.083 356.743,85.824 362.067,83.327 363.131 C 81.969 363.710,14.280 363.714,13.398 363.135 C 12.042 362.247,12.021 360.424,13.168 343.586 C 18.385 267.044,55.655 200.727,107.849 175.114 C 119.991 169.155,129.942 166.222,145.246 164.091 C 148.482 163.640,160.373 163.639,163.625 164.089 C 174.429 165.583,178.275 166.474,188.641 169.880 C 195.252 172.052,196.663 172.329,197.524 171.627 C 198.550 170.789,197.689 168.893,196.093 168.475 C 194.100 167.953,193.574 167.794,187.747 165.951 C 178.583 163.052,176.224 162.504,166.050 160.917 C 160.372 160.031,151.154 159.517,148.819 159.955 " stroke="none" fill="#d4e4bc" fill-rule="evenodd"></path><path id="path0" d="M143.093 9.709 C 106.191 14.596,79.239 46.352,80.490 83.472 C 81.937 126.427,120.308 158.581,162.731 152.388 C 170.311 151.282,170.558 151.026,169.151 145.745 C 168.302 142.556,168.289 142.525,165.817 137.603 C 151.376 108.847,154.311 77.117,173.729 52.074 C 177.989 46.580,187.803 37.046,190.542 35.741 C 192.812 34.660,194.773 32.995,197.242 30.054 C 199.592 27.254,199.542 26.561,196.833 24.391 C 182.308 12.752,162.003 7.205,143.093 9.709 M162.476 13.372 C 176.107 15.554,195.129 24.686,195.070 29.019 C 195.009 33.411,187.976 36.944,186.398 33.376 C 184.765 29.684,178.362 26.310,177.250 28.554 C 176.466 30.136,178.104 31.982,182.355 34.310 C 186.599 36.633,186.455 37.194,179.888 43.886 C 154.355 69.908,148.703 104.412,164.605 137.199 L 167.326 142.809 167.326 144.772 C 167.326 147.844,166.860 148.173,161.327 149.000 C 136.613 152.695,109.885 140.528,95.601 119.081 C 66.954 76.066,94.230 18.483,145.884 12.930 C 148.342 12.665,160.002 12.976,162.476 13.372 M158.106 21.043 C 155.588 22.139,156.189 24.802,159.148 25.662 C 162.619 26.671,165.203 26.043,165.364 24.151 C 165.562 21.816,160.908 19.823,158.106 21.043 M237.013 37.923 C 187.308 43.586,157.980 95.055,178.520 140.577 C 181.950 148.179,186.034 154.085,193.257 161.889 C 197.147 166.091,198.716 168.475,197.592 168.475 C 197.326 168.475,197.444 169.373,197.851 170.443 C 198.674 172.608,196.549 172.478,188.641 169.880 C 178.275 166.474,174.429 165.583,163.625 164.089 C 160.373 163.639,148.482 163.640,145.246 164.091 C 129.942 166.222,119.991 169.155,107.849 175.114 C 55.655 200.727,18.385 267.044,13.168 343.586 C 12.021 360.424,12.042 362.247,13.398 363.135 C 14.280 363.714,81.969 363.710,83.327 363.131 C 85.824 362.067,88.083 356.743,89.453 348.692 C 102.648 271.145,145.147 211.183,201.276 190.922 C 206.614 188.995,207.344 188.668,209.317 187.325 C 210.230 186.704,211.899 185.659,213.026 185.002 C 214.154 184.345,215.417 183.449,215.834 183.011 C 216.746 182.052,217.729 181.509,218.690 181.433 C 219.080 181.402,219.573 181.167,219.785 180.909 C 220.070 180.563,220.568 180.429,221.699 180.393 C 223.335 180.341,223.910 180.418,227.846 181.211 C 243.408 184.345,258.152 183.336,271.091 178.249 C 304.149 165.254,322.918 130.970,316.130 95.980 C 309.080 59.640,273.778 33.735,237.013 37.923 M255.378 39.036 C 270.880 41.542,284.158 48.139,294.915 58.678 C 298.517 62.207,303.765 68.422,303.765 69.157 C 303.765 69.308,303.880 69.432,304.020 69.432 C 304.161 69.432,304.276 69.604,304.276 69.815 C 304.276 70.026,304.391 70.198,304.531 70.198 C 304.671 70.198,304.786 70.364,304.786 70.568 C 304.786 70.772,304.987 71.055,305.233 71.198 C 305.479 71.342,305.598 71.462,305.499 71.466 C 305.399 71.471,305.897 72.422,306.605 73.580 C 319.413 94.524,319.854 122.999,307.710 144.996 C 296.840 164.687,275.860 179.128,254.499 181.623 C 254.008 181.681,252.572 181.857,251.308 182.015 C 247.032 182.551,233.104 181.902,231.015 181.070 C 230.804 180.986,230.402 180.885,230.121 180.846 C 228.457 180.616,222.048 178.755,220.383 178.020 C 219.940 177.824,219.474 177.664,219.346 177.664 C 219.218 177.664,218.517 177.377,217.790 177.026 C 217.062 176.675,216.377 176.388,216.267 176.388 C 216.157 176.388,215.382 176.027,214.543 175.587 C 213.705 175.146,212.214 174.389,211.232 173.903 C 210.249 173.418,208.698 172.554,207.786 171.983 C 206.873 171.412,205.696 170.677,205.169 170.348 C 202.876 168.918,202.029 168.328,201.838 168.029 C 201.726 167.853,201.496 167.707,201.327 167.705 C 201.159 167.703,199.987 166.783,198.724 165.660 C 197.460 164.537,196.040 163.370,195.567 163.068 C 194.396 162.319,189.852 157.249,187.143 153.669 C 164.940 124.334,168.606 82.499,195.568 57.521 C 211.561 42.704,234.401 35.645,255.378 39.036 M163.752 167.701 C 178.412 169.425,195.805 175.319,206.706 182.255 C 210.741 184.823,209.019 187.043,200.553 190.189 C 143.938 211.227,102.150 270.207,88.574 348.237 C 87.438 354.768,86.853 356.474,85.155 358.200 C 83.307 360.079,86.119 359.939,51.760 359.864 L 20.804 359.796 19.400 359.101 C 15.798 357.317,15.492 352.806,17.636 333.121 C 27.363 243.837,81.448 173.805,145.373 167.717 C 146.918 167.569,148.641 167.404,149.202 167.348 C 151.006 167.170,161.378 167.421,163.752 167.701 M241.481 192.223 C 169.072 196.540,109.374 277.139,104.411 377.281 C 104.268 380.160,104.023 384.206,103.865 386.274 C 103.347 393.079,104.351 394.187,110.530 393.631 C 114.475 393.277,378.447 393.267,382.725 393.621 C 389.220 394.159,390.061 393.192,389.557 385.766 C 389.398 383.416,389.093 378.564,388.881 374.984 C 384.692 304.368,352.971 240.993,306.828 211.052 C 286.691 197.985,262.370 190.978,241.481 192.223 M258.093 193.595 C 268.334 195.010,275.956 196.999,285.258 200.682 C 289.487 202.356,298.069 206.466,298.742 207.138 C 298.978 207.374,299.170 207.495,299.170 207.406 C 299.170 207.318,299.515 207.450,299.936 207.699 C 300.357 207.947,300.702 208.248,300.702 208.366 C 300.702 208.485,300.817 208.511,300.957 208.424 C 301.098 208.337,301.213 208.388,301.213 208.536 C 301.213 208.685,301.385 208.807,301.595 208.807 C 301.806 208.807,301.978 208.928,301.978 209.077 C 301.978 209.226,302.086 209.281,302.218 209.199 C 302.350 209.117,302.695 209.305,302.984 209.615 C 303.273 209.925,303.510 210.101,303.510 210.006 C 303.510 209.911,303.743 210.033,304.029 210.277 C 304.314 210.521,304.617 210.683,304.702 210.636 C 304.787 210.588,304.927 210.663,305.013 210.801 C 305.099 210.940,306.318 211.829,307.722 212.777 C 354.643 244.468,384.994 307.854,388.263 380.983 C 388.413 384.352,388.610 387.281,388.699 387.492 C 388.938 388.056,388.930 390.810,388.689 390.810 C 388.576 390.810,388.542 390.907,388.615 391.024 C 388.804 391.329,388.015 392.380,387.730 392.204 C 387.599 392.123,387.492 392.164,387.492 392.295 C 387.492 392.827,380.652 392.854,246.103 392.855 C 110.619 392.855,106.298 392.841,105.680 392.384 C 104.376 391.422,104.306 390.947,104.634 385.343 C 104.799 382.524,105.050 378.207,105.192 375.750 C 110.757 279.338,165.267 202.882,235.039 193.625 C 243.389 192.517,250.229 192.508,258.093 193.595 M40.715 343.460 C 38.146 344.372,38.186 347.052,40.783 347.971 C 41.864 348.354,71.824 348.478,73.573 348.107 C 76.761 347.430,76.984 344.198,73.899 343.357 C 72.227 342.901,42.026 342.995,40.715 343.460 " stroke="none" fill="#dbc679" fill-rule="evenodd"></path><path id="path1" d="M237.269 45.212 C 198.017 49.875,171.735 87.621,181.124 125.846 C 189.715 160.820,225.155 182.363,260.071 173.836 C 309.675 161.722,326.890 100.154,290.766 64.055 C 281.648 54.943,268.663 47.745,261.327 47.736 C 259.431 47.734,259.471 48.020,261.710 50.494 C 265.174 54.320,263.748 58.889,259.372 57.985 C 253.320 56.735,250.716 53.059,252.882 48.827 C 254.000 46.642,253.848 46.255,251.585 45.522 C 250.034 45.020,240.603 44.816,237.269 45.212 M277.727 62.230 C 285.241 66.555,299.058 89.083,298.008 95.297 C 297.311 99.419,294.516 97.995,291.906 92.191 C 290.097 88.167,289.086 86.440,285.310 80.919 C 281.898 75.931,280.399 74.144,277.150 71.191 C 271.468 66.028,270.642 62.781,274.665 61.427 C 275.301 61.213,276.514 61.531,277.727 62.230 M241.353 199.520 C 205.250 201.883,170.345 225.366,146.231 263.515 C 136.387 279.088,127.297 298.774,124.697 310.147 C 124.232 312.183,123.213 316.031,122.434 318.698 C 117.310 336.230,114.053 354.955,113.686 368.985 C 113.544 374.401,113.511 374.683,112.752 376.899 C 111.128 381.639,111.721 384.928,114.344 385.731 C 115.670 386.137,374.286 386.393,377.293 385.991 C 381.830 385.385,382.149 384.388,381.371 373.213 C 375.186 284.355,325.732 212.494,262.795 200.913 C 256.593 199.772,247.014 199.150,241.353 199.520 M282.195 215.148 C 283.804 215.909,294.425 222.474,298.787 225.404 C 308.648 232.026,324.081 248.001,330.290 258.012 C 333.663 263.450,340.242 279.205,340.674 282.877 C 341.073 286.271,338.870 287.958,336.844 285.810 C 335.981 284.895,335.729 284.337,332.729 276.707 C 327.833 264.255,323.501 258.094,310.554 245.168 C 302.716 237.342,300.340 235.510,288.205 227.939 C 277.038 220.973,276.452 220.454,276.452 217.530 C 276.452 214.647,278.949 213.611,282.195 215.148 M128.415 313.985 C 129.257 314.435,129.027 316.092,127.401 321.285 C 122.954 335.495,120.840 345.040,117.940 364.008 C 117.800 364.920,117.508 367.275,117.289 369.241 C 116.631 375.176,116.364 376.014,115.268 375.593 C 114.704 375.377,114.571 374.259,114.877 372.299 C 115.030 371.319,115.258 369.541,115.384 368.347 C 115.510 367.154,115.917 364.110,116.288 361.583 C 116.659 359.056,117.112 355.954,117.294 354.690 C 119.787 337.418,125.110 315.567,127.177 314.119 C 127.852 313.646,127.794 313.653,128.415 313.985 M161.408 373.567 C 164.302 374.599,164.634 377.593,162.020 379.090 L 160.944 379.706 144.990 379.706 C 129.771 379.706,128.991 379.684,128.049 379.216 C 125.301 377.853,125.575 374.624,128.526 373.581 C 130.004 373.058,159.946 373.046,161.408 373.567 " stroke="none" fill="#ec9c04" fill-rule="evenodd"></path><path id="path2" d="M145.884 12.930 C 94.230 18.483,66.954 76.066,95.601 119.081 C 109.885 140.528,136.613 152.695,161.327 149.000 C 166.860 148.173,167.326 147.844,167.326 144.772 L 167.326 142.809 164.605 137.199 C 148.703 104.412,154.355 69.908,179.888 43.886 C 186.455 37.194,186.599 36.633,182.355 34.310 C 178.104 31.982,176.466 30.136,177.250 28.554 C 178.362 26.310,184.765 29.684,186.398 33.376 C 187.976 36.944,195.009 33.411,195.070 29.019 C 195.117 25.552,180.554 17.644,168.680 14.689 C 162.373 13.120,151.743 12.300,145.884 12.930 M162.352 21.084 C 165.144 21.913,166.335 24.311,164.598 25.603 C 163.144 26.684,158.388 25.971,157.138 24.485 C 155.047 22.000,158.298 19.880,162.352 21.084 M149.202 167.348 C 148.641 167.404,146.918 167.569,145.373 167.717 C 81.448 173.805,27.363 243.837,17.636 333.121 C 15.492 352.806,15.798 357.317,19.400 359.101 L 20.804 359.796 51.760 359.864 C 86.119 359.939,83.307 360.079,85.155 358.200 C 86.853 356.474,87.438 354.768,88.574 348.237 C 102.150 270.207,143.938 211.227,200.553 190.189 C 209.019 187.043,210.741 184.823,206.706 182.255 C 191.472 172.561,165.251 165.764,149.202 167.348 M73.899 343.357 C 76.984 344.198,76.761 347.430,73.573 348.107 C 71.824 348.478,41.864 348.354,40.783 347.971 C 38.186 347.052,38.146 344.372,40.715 343.460 C 42.026 342.995,72.227 342.901,73.899 343.357 " stroke="none" fill="#9cc42c" fill-rule="evenodd"></path><path id="path3" d="M0.000 199.489 L 0.000 398.979 200.000 398.979 L 400.000 398.979 400.000 199.489 L 400.000 0.000 200.000 0.000 L 0.000 0.000 0.000 199.489 M161.327 3.970 C 175.911 5.363,187.121 9.690,199.013 18.519 C 204.815 22.827,206.403 24.752,206.197 27.230 C 206.001 29.599,205.190 30.476,200.128 33.794 C 186.073 43.006,179.526 49.108,172.643 59.408 C 157.182 82.548,156.121 114.663,170.048 137.971 C 174.146 144.829,174.511 145.364,175.013 145.243 C 175.106 145.221,175.284 145.355,175.408 145.543 C 175.853 146.217,175.420 144.612,174.604 142.565 C 167.049 123.622,165.869 105.153,171.130 88.194 C 188.304 32.833,255.769 15.439,298.679 55.309 C 335.072 89.124,328.542 149.494,285.593 176.289 C 278.046 180.997,270.834 183.868,261.008 186.076 C 255.284 187.362,255.750 187.846,264.199 189.392 C 273.639 191.119,278.004 192.271,284.748 194.817 C 286.994 195.665,289.579 196.638,290.491 196.980 C 300.359 200.669,315.037 210.092,325.846 219.675 C 364.517 253.964,390.173 312.418,393.619 374.091 C 393.768 376.758,394.011 380.721,394.158 382.897 C 394.726 391.304,394.729 391.482,394.306 392.775 C 393.731 394.534,391.825 396.462,390.110 397.021 C 387.910 397.737,105.263 397.690,103.604 396.973 C 100.908 395.807,99.464 393.153,99.631 389.667 C 100.457 372.465,101.274 362.954,102.899 351.627 C 114.945 267.677,165.633 201.731,227.094 190.048 C 236.139 188.329,237.378 187.649,233.379 186.599 C 227.480 185.050,225.232 185.151,222.631 187.080 C 220.477 188.676,219.645 189.034,216.645 189.651 C 215.352 189.917,213.146 190.553,211.742 191.065 C 210.338 191.576,206.835 192.776,203.957 193.730 C 148.871 211.996,105.619 272.689,92.797 349.713 C 91.035 360.295,89.576 365.630,87.989 367.285 C 85.681 369.693,87.602 369.582,47.479 369.645 L 12.125 369.701 10.685 369.018 C 7.380 367.453,5.997 364.760,6.210 360.306 C 7.463 334.141,9.169 319.511,12.923 302.744 C 29.453 228.923,74.429 174.295,129.900 160.662 C 138.327 158.591,138.385 158.433,131.461 156.351 C 108.695 149.505,91.222 134.639,81.630 113.955 C 60.999 69.471,86.076 17.129,133.654 5.366 C 140.620 3.644,151.930 3.073,161.327 3.970 M177.473 150.027 C 177.297 150.088,177.154 150.377,177.154 150.669 C 177.154 153.204,175.425 155.466,172.661 156.549 C 168.809 158.057,169.068 158.401,175.116 159.794 C 177.571 160.360,180.709 161.172,182.090 161.600 C 186.107 162.843,187.236 162.330,185.641 159.987 C 180.296 152.135,178.324 149.730,177.473 150.027 " stroke="none" fill="#fbfbf5" fill-rule="evenodd"></path><path id="path4" d="M237.396 38.563 C 189.335 43.822,160.022 92.552,177.906 137.460 C 181.403 146.241,190.987 160.138,195.567 163.068 C 196.040 163.370,197.460 164.537,198.724 165.660 C 199.987 166.783,201.159 167.703,201.327 167.705 C 201.496 167.707,201.726 167.853,201.838 168.029 C 202.029 168.328,202.876 168.918,205.169 170.348 C 205.696 170.677,206.873 171.412,207.786 171.983 C 208.698 172.554,210.249 173.418,211.232 173.903 C 212.214 174.389,213.705 175.146,214.543 175.587 C 215.382 176.027,216.157 176.388,216.267 176.388 C 216.377 176.388,217.062 176.675,217.790 177.026 C 218.517 177.377,219.218 177.664,219.346 177.664 C 219.474 177.664,219.940 177.824,220.383 178.020 C 222.048 178.755,228.457 180.616,230.121 180.846 C 230.402 180.885,230.804 180.986,231.015 181.070 C 233.104 181.902,247.032 182.551,251.308 182.015 C 252.572 181.857,254.008 181.681,254.499 181.623 C 275.860 179.128,296.840 164.687,307.710 144.996 C 319.854 122.999,319.413 94.524,306.605 73.580 C 305.897 72.422,305.399 71.471,305.499 71.466 C 305.598 71.462,305.479 71.342,305.233 71.198 C 304.987 71.055,304.786 70.772,304.786 70.568 C 304.786 70.364,304.671 70.198,304.531 70.198 C 304.391 70.198,304.276 70.026,304.276 69.815 C 304.276 69.604,304.161 69.432,304.020 69.432 C 303.880 69.432,303.765 69.308,303.765 69.157 C 303.765 68.422,298.517 62.207,294.915 58.678 C 279.965 44.031,257.911 36.318,237.396 38.563 M251.585 45.522 C 253.848 46.255,254.000 46.642,252.882 48.827 C 250.716 53.059,253.320 56.735,259.372 57.985 C 263.748 58.889,265.174 54.320,261.710 50.494 C 259.471 48.020,259.431 47.734,261.327 47.736 C 270.378 47.747,287.906 58.958,296.315 70.115 C 329.324 113.909,299.145 175.490,244.671 175.494 C 222.301 175.496,202.560 165.023,190.301 146.650 C 164.366 107.780,186.162 55.263,232.036 46.092 C 238.228 44.854,248.588 44.552,251.585 45.522 M274.665 61.427 C 270.642 62.781,271.468 66.028,277.150 71.191 C 280.399 74.144,281.898 75.931,285.310 80.919 C 289.086 86.440,290.097 88.167,291.906 92.191 C 294.155 97.194,295.642 98.510,297.238 96.914 C 299.988 94.164,294.927 82.455,285.635 70.070 C 281.673 64.790,276.585 60.781,274.665 61.427 M241.098 192.886 C 168.456 198.837,110.937 276.230,105.192 375.750 C 105.050 378.207,104.799 382.524,104.634 385.343 C 104.306 390.947,104.376 391.422,105.680 392.384 C 106.298 392.841,110.619 392.855,246.103 392.855 C 380.652 392.854,387.492 392.827,387.492 392.295 C 387.492 392.164,387.599 392.123,387.730 392.204 C 388.015 392.380,388.804 391.329,388.615 391.024 C 388.542 390.907,388.576 390.810,388.689 390.810 C 388.930 390.810,388.938 388.056,388.699 387.492 C 388.610 387.281,388.413 384.352,388.263 380.983 C 384.994 307.854,354.643 244.468,307.722 212.777 C 306.318 211.829,305.099 210.940,305.013 210.801 C 304.927 210.663,304.787 210.588,304.702 210.636 C 304.617 210.683,304.314 210.521,304.029 210.277 C 303.743 210.033,303.510 209.911,303.510 210.006 C 303.510 210.101,303.273 209.925,302.984 209.615 C 302.695 209.305,302.350 209.117,302.218 209.199 C 302.086 209.281,301.978 209.226,301.978 209.077 C 301.978 208.928,301.806 208.807,301.595 208.807 C 301.385 208.807,301.213 208.685,301.213 208.536 C 301.213 208.388,301.098 208.337,300.957 208.424 C 300.817 208.511,300.702 208.485,300.702 208.366 C 300.702 208.248,300.357 207.947,299.936 207.699 C 299.515 207.450,299.170 207.318,299.170 207.406 C 299.170 207.495,298.978 207.374,298.742 207.138 C 297.372 205.769,284.703 200.228,277.856 198.005 C 266.153 194.205,250.908 192.082,241.098 192.886 M256.796 200.001 C 322.469 208.146,374.961 281.133,381.371 373.213 C 382.149 384.388,381.830 385.385,377.293 385.991 C 374.286 386.393,115.670 386.137,114.344 385.731 C 111.721 384.928,111.128 381.639,112.752 376.899 C 113.511 374.683,113.544 374.401,113.686 368.985 C 114.053 354.955,117.310 336.230,122.434 318.698 C 123.213 316.031,124.232 312.183,124.697 310.147 C 127.297 298.774,136.387 279.088,146.231 263.515 C 174.028 219.539,216.697 195.028,256.796 200.001 M278.082 214.673 C 276.495 215.314,275.946 217.791,276.954 219.766 C 277.728 221.283,278.897 222.133,288.205 227.939 C 300.340 235.510,302.716 237.342,310.554 245.168 C 323.501 258.094,327.833 264.255,332.729 276.707 C 335.729 284.337,335.981 284.895,336.844 285.810 C 338.171 287.216,339.971 286.932,340.534 285.226 C 341.048 283.668,340.620 281.758,338.469 276.021 C 331.879 258.441,328.204 252.870,313.484 238.136 C 304.317 228.960,302.910 227.861,289.981 219.781 C 281.497 214.479,280.074 213.868,278.082 214.673 M127.177 314.119 C 126.058 314.903,124.783 318.811,122.273 329.150 C 120.136 337.954,118.494 346.376,117.294 354.690 C 117.112 355.954,116.659 359.056,116.288 361.583 C 115.917 364.110,115.510 367.154,115.384 368.347 C 115.258 369.541,115.030 371.319,114.877 372.299 C 114.571 374.259,114.704 375.377,115.268 375.593 C 116.364 376.014,116.631 375.176,117.289 369.241 C 117.508 367.275,117.800 364.920,117.940 364.008 C 120.840 345.040,122.954 335.495,127.401 321.285 C 129.027 316.092,129.257 314.435,128.415 313.985 C 127.794 313.653,127.852 313.646,127.177 314.119 M128.526 373.581 C 125.575 374.624,125.301 377.853,128.049 379.216 C 128.991 379.684,129.771 379.706,144.990 379.706 L 160.944 379.706 162.020 379.090 C 164.634 377.593,164.302 374.599,161.408 373.567 C 159.946 373.046,130.004 373.058,128.526 373.581 " stroke="none" fill="#faedd5" fill-rule="evenodd"></path><path id="path5" d="M145.884 5.394 C 115.002 8.354,89.800 28.402,80.144 57.690 C 68.500 93.009,84.850 132.204,118.219 148.965 C 126.280 153.014,130.832 154.388,145.624 157.239 C 152.149 158.496,152.052 158.540,136.184 161.461 C 67.984 174.017,14.631 251.214,9.074 345.373 C 8.863 348.953,8.547 353.778,8.373 356.094 C 7.801 363.686,8.460 365.730,11.964 367.231 C 13.059 367.700,81.634 367.771,84.087 367.306 C 86.672 366.816,87.810 365.308,89.083 360.689 C 90.505 355.528,90.613 355.039,91.525 349.623 C 104.637 271.771,147.538 211.578,203.513 192.499 C 205.563 191.800,208.827 190.599,210.767 189.830 C 212.707 189.060,215.238 188.179,216.390 187.872 C 218.445 187.325,220.084 186.466,221.985 184.939 C 222.909 184.197,223.021 184.174,225.568 184.186 L 228.197 184.198 224.947 183.356 C 219.784 182.018,220.329 182.018,220.481 183.362 C 220.720 185.485,219.508 186.510,215.328 187.722 C 214.084 188.083,211.505 188.995,209.597 189.750 C 207.688 190.505,204.231 191.786,201.914 192.598 C 146.895 211.884,104.588 271.566,91.261 348.696 C 89.522 358.764,87.982 364.056,86.338 365.617 C 84.790 367.087,85.976 367.042,47.959 367.085 L 13.037 367.125 11.885 366.568 C 8.813 365.081,8.413 363.639,8.940 355.967 C 9.085 353.861,9.376 349.209,9.588 345.629 C 14.918 255.487,64.102 180.311,128.653 163.640 C 149.540 158.246,165.592 158.816,186.854 165.707 C 191.347 167.163,193.271 167.738,195.278 168.226 L 196.171 168.443 195.405 167.804 C 194.984 167.453,193.153 165.708,191.336 163.927 C 189.520 162.146,188.346 161.076,188.729 161.549 C 191.872 165.434,190.605 166.197,184.222 164.262 C 179.503 162.831,175.362 161.899,168.988 160.833 C 158.272 159.041,156.085 158.571,156.506 158.150 C 156.637 158.019,159.843 157.287,167.709 155.592 C 174.697 154.086,176.383 151.846,173.658 147.687 C 173.296 147.135,172.345 145.412,171.544 143.858 C 170.744 142.305,169.104 139.138,167.900 136.822 C 149.831 102.061,160.594 58.387,192.391 37.447 C 194.189 36.263,196.292 34.782,197.064 34.157 C 197.837 33.531,199.330 32.437,200.383 31.725 C 205.867 28.020,205.571 26.211,198.596 20.774 C 184.079 9.460,164.147 3.644,145.884 5.394 M159.541 5.985 C 174.935 7.567,187.808 12.822,199.820 22.429 C 204.481 26.157,204.644 28.280,200.487 31.131 C 199.377 31.892,197.549 33.222,196.426 34.086 C 195.303 34.951,193.063 36.518,191.449 37.570 C 186.421 40.845,178.640 48.427,174.093 54.483 C 155.902 78.713,153.468 110.739,167.778 137.588 C 168.639 139.202,170.009 141.844,170.822 143.459 C 171.636 145.073,172.704 147.122,173.196 148.011 C 175.775 152.672,173.989 154.031,162.731 155.975 C 136.678 160.476,107.278 147.717,90.946 124.825 C 53.671 72.573,95.881 -0.557,159.541 5.985 M242.438 34.641 C 242.754 34.702,243.271 34.702,243.586 34.641 C 243.902 34.580,243.644 34.530,243.012 34.530 C 242.380 34.530,242.122 34.580,242.438 34.641 M245.756 34.641 C 246.072 34.702,246.589 34.702,246.905 34.641 C 247.221 34.580,246.962 34.530,246.331 34.530 C 245.699 34.530,245.440 34.580,245.756 34.641 M298.293 56.909 C 305.095 64.188,308.921 69.544,312.435 76.707 C 335.132 122.967,307.200 176.478,255.803 185.201 C 254.625 185.401,253.591 185.635,253.506 185.721 C 252.470 186.767,267.113 183.188,272.423 181.098 C 322.687 161.313,337.048 95.840,299.435 57.946 C 297.815 56.314,297.302 55.847,298.293 56.909 M243.969 186.532 C 244.706 186.583,245.913 186.583,246.650 186.532 C 247.387 186.480,246.784 186.438,245.310 186.438 C 243.835 186.438,243.232 186.480,243.969 186.532 M274.801 193.188 C 275.159 193.502,277.241 194.063,277.413 193.891 C 277.493 193.811,277.453 193.745,277.324 193.743 C 277.195 193.742,276.519 193.567,275.822 193.356 C 275.124 193.144,274.665 193.069,274.801 193.188 M278.749 194.414 C 287.440 197.559,287.688 197.661,294.455 200.884 C 348.236 226.494,387.075 296.186,391.693 375.367 C 391.906 379.017,392.198 383.612,392.342 385.578 C 392.801 391.839,392.686 392.605,390.999 394.536 L 389.917 395.774 390.971 394.933 C 393.053 393.273,393.233 392.126,392.662 384.174 C 392.496 381.857,392.238 377.779,392.089 375.112 C 387.769 297.603,349.755 228.447,296.745 201.658 C 290.734 198.620,281.093 194.680,278.366 194.148 C 277.923 194.061,278.084 194.173,278.749 194.414 M161.960 227.505 L 159.668 229.866 162.029 227.574 C 163.328 226.313,164.391 225.251,164.391 225.213 C 164.391 225.027,164.089 225.312,161.960 227.505 " stroke="none" fill="#ece6c5" fill-rule="evenodd"></path><path id="path6" d="M148.309 3.596 C 142.785 3.865,136.802 4.587,133.654 5.366 C 86.076 17.129,60.999 69.471,81.630 113.955 C 91.222 134.639,108.695 149.505,131.461 156.351 C 138.385 158.433,138.327 158.591,129.900 160.662 C 74.429 174.295,29.453 228.923,12.923 302.744 C 9.169 319.511,7.463 334.141,6.210 360.306 C 5.997 364.760,7.380 367.453,10.685 369.018 L 12.125 369.701 47.479 369.645 C 87.602 369.582,85.681 369.693,87.989 367.285 C 89.576 365.630,91.035 360.295,92.797 349.713 C 105.619 272.689,148.871 211.996,203.957 193.730 C 206.835 192.776,210.338 191.576,211.742 191.065 C 213.146 190.553,215.352 189.917,216.645 189.651 C 219.645 189.034,220.477 188.676,222.631 187.080 C 225.232 185.151,227.480 185.050,233.379 186.599 C 237.378 187.649,236.139 188.329,227.094 190.048 C 165.633 201.731,114.945 267.677,102.899 351.627 C 101.274 362.954,100.457 372.465,99.631 389.667 C 99.464 393.153,100.908 395.807,103.604 396.973 C 105.263 397.690,387.910 397.737,390.110 397.021 C 391.825 396.462,393.731 394.534,394.306 392.775 C 394.729 391.482,394.726 391.304,394.158 382.897 C 394.011 380.721,393.768 376.758,393.619 374.091 C 390.173 312.418,364.517 253.964,325.846 219.675 C 315.037 210.092,300.359 200.669,290.491 196.980 C 289.579 196.638,286.994 195.665,284.748 194.817 C 278.004 192.271,273.639 191.119,264.199 189.392 C 255.750 187.846,255.284 187.362,261.008 186.076 C 269.040 184.272,273.452 182.736,279.634 179.593 C 327.301 155.360,337.155 91.060,298.679 55.309 C 255.769 15.439,188.304 32.833,171.130 88.194 C 165.869 105.153,167.049 123.622,174.604 142.565 C 175.420 144.612,175.853 146.217,175.408 145.543 C 175.284 145.355,175.106 145.221,175.013 145.243 C 174.511 145.364,174.146 144.829,170.048 137.971 C 156.121 114.663,157.182 82.548,172.643 59.408 C 179.526 49.108,186.073 43.006,200.128 33.794 C 205.190 30.476,206.001 29.599,206.197 27.230 C 206.352 25.365,205.849 24.397,203.645 22.318 C 195.969 15.077,183.107 8.250,172.206 5.632 C 165.560 4.036,155.999 3.222,148.309 3.596 M158.519 5.368 C 174.844 6.820,189.218 12.752,201.473 23.095 C 205.314 26.337,205.030 28.586,200.383 31.725 C 199.330 32.437,197.837 33.531,197.064 34.157 C 196.292 34.782,194.189 36.263,192.391 37.447 C 160.594 58.387,149.831 102.061,167.900 136.822 C 169.104 139.138,170.744 142.305,171.544 143.858 C 172.345 145.412,173.296 147.135,173.658 147.687 C 176.383 151.846,174.697 154.086,167.709 155.592 C 159.843 157.287,156.637 158.019,156.506 158.150 C 156.085 158.571,158.272 159.041,168.988 160.833 C 175.362 161.899,179.503 162.831,184.222 164.262 C 191.241 166.389,191.983 165.530,187.674 160.266 C 163.270 130.456,162.545 91.601,185.853 62.675 C 223.127 16.419,297.496 29.797,316.814 86.233 C 331.881 130.252,303.247 177.427,256.669 185.324 C 247.038 186.957,244.416 186.938,233.312 185.154 C 225.569 183.911,223.314 183.868,221.983 184.939 C 220.091 186.462,218.447 187.325,216.390 187.872 C 215.238 188.179,212.707 189.060,210.767 189.830 C 208.827 190.599,205.563 191.800,203.513 192.499 C 147.538 211.578,104.637 271.771,91.525 349.623 C 90.613 355.039,90.505 355.528,89.083 360.689 C 87.810 365.308,86.672 366.816,84.087 367.306 C 81.634 367.771,13.059 367.700,11.964 367.231 C 8.460 365.730,7.801 363.686,8.373 356.094 C 8.547 353.778,8.863 348.953,9.074 345.373 C 14.631 251.214,67.984 174.017,136.184 161.461 C 152.052 158.540,152.149 158.496,145.624 157.239 C 143.380 156.806,139.859 156.113,137.800 155.699 C 90.009 146.073,63.424 95.330,82.791 50.702 C 95.615 21.149,126.704 2.539,158.519 5.368 M179.387 151.326 C 180.276 152.380,183.543 156.905,185.641 159.987 C 187.236 162.330,186.107 162.843,182.090 161.600 C 180.709 161.172,177.571 160.360,175.116 159.794 C 169.068 158.401,168.809 158.057,172.661 156.549 C 175.425 155.466,177.154 153.204,177.154 150.669 C 177.154 149.476,178.050 149.739,179.387 151.326 M251.946 188.876 C 270.153 191.277,280.029 193.886,292.526 199.597 C 347.591 224.760,387.644 295.368,392.089 375.112 C 392.238 377.779,392.496 381.857,392.662 384.174 C 393.296 393.004,392.850 394.515,389.148 396.061 C 387.848 396.604,105.637 396.629,104.342 396.086 C 100.618 394.526,100.403 393.481,101.165 380.600 C 105.858 301.213,137.786 237.684,188.754 206.318 C 207.407 194.839,236.425 186.829,251.946 188.876 " stroke="none" fill="#eeedd7" fill-rule="evenodd"></path><path id="path7" d="M240.715 34.744 C 175.942 38.022,145.252 116.994,190.745 163.326 C 194.594 167.246,198.453 170.357,197.447 168.729 C 197.360 168.589,197.411 168.475,197.560 168.475 C 198.717 168.475,197.191 166.138,193.257 161.889 C 176.167 143.425,169.388 122.903,172.707 99.681 C 180.183 47.371,240.464 20.320,284.553 49.490 C 328.371 78.481,328.558 141.963,284.912 171.047 C 268.413 182.041,249.071 185.486,227.846 181.211 C 223.917 180.419,223.335 180.341,221.723 180.392 C 219.401 180.465,218.790 181.872,220.883 182.327 C 221.191 182.394,223.223 182.909,225.399 183.471 C 234.963 185.943,245.178 186.917,251.436 185.954 C 280.011 181.554,300.323 167.711,312.058 144.638 C 338.394 92.856,298.761 31.806,240.715 34.744 M241.481 188.801 C 241.130 188.868,237.426 189.488,233.251 190.178 C 205.221 194.811,183.430 206.310,161.951 227.805 C 126.049 263.733,104.318 318.109,101.345 379.451 C 101.202 382.399,100.953 386.133,100.792 387.747 C 100.338 392.285,101.318 394.623,104.258 396.018 C 105.606 396.658,387.415 396.657,389.013 396.018 C 392.187 394.748,392.860 392.638,392.342 385.578 C 392.198 383.612,391.906 379.017,391.693 375.367 C 387.723 307.302,358.837 246.184,315.252 213.630 C 306.875 207.373,300.421 203.600,289.215 198.410 C 287.010 197.389,280.469 194.983,277.601 194.138 C 276.337 193.766,275.073 193.354,274.793 193.223 C 273.824 192.771,267.952 191.459,264.103 190.834 C 261.980 190.489,258.347 189.897,256.031 189.519 C 251.972 188.857,243.396 188.433,241.481 188.801 M256.031 192.628 C 280.916 195.588,303.271 205.881,323.038 223.480 C 360.735 257.045,385.228 313.401,388.881 374.984 C 389.093 378.564,389.398 383.416,389.557 385.766 C 390.061 393.192,389.220 394.159,382.725 393.621 C 378.447 393.267,114.475 393.277,110.530 393.631 C 104.351 394.187,103.347 393.079,103.865 386.274 C 104.023 384.206,104.268 380.160,104.411 377.281 C 108.254 299.747,145.578 231.031,198.341 204.352 C 217.331 194.751,238.206 190.508,256.031 192.628 " stroke="none" fill="#f4dcbc" fill-rule="evenodd"></path><path id="path8" d="M144.990 6.005 C 84.552 12.133,55.744 83.402,94.899 129.930 C 111.336 149.462,138.983 160.077,162.731 155.975 C 173.989 154.031,175.775 152.672,173.196 148.011 C 172.704 147.122,171.636 145.073,170.822 143.459 C 170.009 141.844,168.639 139.202,167.778 137.588 C 153.468 110.739,155.902 78.713,174.093 54.483 C 178.640 48.427,186.421 40.845,191.449 37.570 C 193.063 36.518,195.303 34.951,196.426 34.086 C 197.549 33.222,199.377 31.892,200.487 31.131 C 205.423 27.746,204.571 25.650,195.660 19.275 C 181.443 9.101,162.745 4.205,144.990 6.005 M160.689 9.583 C 174.032 11.146,186.863 16.402,196.833 24.391 C 199.542 26.561,199.592 27.254,197.242 30.054 C 194.773 32.995,192.812 34.660,190.542 35.741 C 187.803 37.046,177.989 46.580,173.729 52.074 C 154.311 77.117,151.376 108.847,165.817 137.603 C 168.289 142.525,168.302 142.556,169.151 145.745 C 170.558 151.026,170.311 151.282,162.731 152.388 C 120.308 158.581,81.937 126.427,80.490 83.472 C 79.009 39.533,117.064 4.473,160.689 9.583 M148.819 159.955 C 148.468 160.021,145.597 160.475,142.438 160.965 C 130.657 162.791,124.775 164.336,115.124 168.143 C 56.955 191.087,14.505 262.478,9.588 345.629 C 9.376 349.209,9.085 353.861,8.940 355.967 C 8.413 363.639,8.813 365.081,11.885 366.568 L 13.037 367.125 47.959 367.085 C 85.976 367.042,84.790 367.087,86.338 365.617 C 87.982 364.056,89.522 358.764,91.261 348.696 C 104.588 271.566,146.895 211.884,201.914 192.598 C 204.231 191.786,207.688 190.505,209.597 189.750 C 211.505 188.995,214.084 188.083,215.328 187.722 C 219.198 186.600,220.553 185.569,220.545 183.751 C 220.533 181.035,218.266 180.660,215.854 182.975 C 215.277 183.529,213.829 184.555,212.636 185.256 C 211.442 185.957,209.834 186.962,209.062 187.489 C 207.348 188.661,206.478 189.044,201.276 190.922 C 145.147 211.183,102.648 271.145,89.453 348.692 C 88.083 356.743,85.824 362.067,83.327 363.131 C 81.969 363.710,14.280 363.714,13.398 363.135 C 12.042 362.247,12.021 360.424,13.168 343.586 C 18.385 267.044,55.655 200.727,107.849 175.114 C 119.991 169.155,129.942 166.222,145.246 164.091 C 148.482 163.640,160.373 163.639,163.625 164.089 C 174.429 165.583,178.275 166.474,188.641 169.880 C 195.252 172.052,196.663 172.329,197.524 171.627 C 198.550 170.789,197.689 168.893,196.093 168.475 C 194.100 167.953,193.574 167.794,187.747 165.951 C 178.583 163.052,176.224 162.504,166.050 160.917 C 160.372 160.031,151.154 159.517,148.819 159.955 " stroke="none" fill="#d4e4bc" fill-rule="evenodd"></path></g></svg>