<svg id="svg" version="1.1" xmlns="http://www.w3.org/2000/svg" xmlns:xlink="http://www.w3.org/1999/xlink" width="400" height="397.96048438495853" viewBox="0, 0, 400,397.96048438495853"><g id="svgg"><path id="path0" d="M177.460 93.157 C 177.123 93.516,176.473 93.880,176.017 93.966 C 174.495 94.251,174.036 94.946,174.218 96.686 C 174.356 98.013,174.281 98.417,173.604 99.958 C 172.282 102.971,172.330 99.014,172.400 199.244 L 172.467 294.073 173.295 296.397 C 173.821 297.874,174.124 299.201,174.124 300.034 C 174.124 301.483,174.598 301.887,176.692 302.220 C 177.193 302.299,177.849 302.593,178.149 302.873 C 178.832 303.509,370.440 303.693,371.455 303.059 C 371.734 302.884,372.162 302.225,372.406 301.594 C 373.005 300.042,373.105 96.199,372.508 94.510 C 371.998 93.070,371.263 92.695,369.474 92.961 C 367.757 93.217,181.561 92.941,179.477 92.679 C 178.187 92.517,178.025 92.556,177.460 93.157 M276.661 147.276 C 277.623 148.143,277.639 149.091,277.570 198.343 C 277.505 243.744,277.477 246.445,277.051 247.224 C 276.311 248.577,274.621 248.698,273.703 247.464 L 273.168 246.744 273.093 198.515 C 273.052 171.990,273.090 149.781,273.179 149.162 C 273.489 146.981,275.266 146.019,276.661 147.276 " stroke="none" fill="#9bc12f" fill-rule="evenodd"></path><path id="path1" d="M61.408 18.777 C 60.865 19.431,60.757 376.401,61.299 377.699 C 62.007 379.393,61.067 379.984,77.857 367.303 C 100.624 350.107,105.126 346.709,120.841 334.861 C 129.184 328.572,139.509 320.779,143.786 317.545 C 148.062 314.311,154.678 309.312,158.488 306.438 C 162.298 303.563,165.682 300.870,166.009 300.452 L 166.603 299.694 166.678 198.986 C 166.730 128.665,166.671 97.997,166.482 97.343 C 166.140 96.157,166.530 96.474,150.797 84.623 C 137.647 74.718,119.408 60.960,95.053 42.575 C 59.503 15.738,62.293 17.711,61.408 18.777 M127.080 138.909 C 150.314 150.422,153.245 233.259,131.190 255.068 C 111.882 274.162,92.795 229.562,98.933 179.693 C 102.599 149.901,114.491 132.671,127.080 138.909 M120.301 142.343 C 103.181 147.097,96.090 207.030,108.762 239.867 C 118.755 265.761,134.148 256.721,140.080 221.474 C 146.401 183.909,134.992 138.264,120.301 142.343 " stroke="none" fill="#ab2c04" fill-rule="evenodd"></path><path id="path2" d="M53.155 0.856 C 52.176 1.309,51.366 2.192,50.897 3.318 C 50.401 4.511,49.960 390.016,50.452 392.367 C 51.242 396.138,55.818 397.871,58.451 395.396 C 58.979 394.900,61.846 392.727,83.493 376.415 C 87.980 373.034,94.232 368.318,97.387 365.936 C 100.542 363.553,106.909 358.749,111.536 355.261 C 116.163 351.773,121.555 347.697,123.518 346.205 C 125.481 344.712,130.873 340.639,135.500 337.153 C 143.156 331.385,148.825 327.111,166.093 314.086 C 169.318 311.653,173.104 308.803,174.506 307.752 C 177.268 305.683,178.967 304.178,178.967 303.802 C 178.967 303.336,177.549 302.356,176.673 302.217 C 174.599 301.887,174.124 301.480,174.124 300.034 C 174.124 299.201,173.821 297.874,173.295 296.397 L 172.467 294.073 172.400 199.244 C 172.330 99.014,172.282 102.971,173.604 99.958 C 174.281 98.417,174.356 98.013,174.218 96.686 C 174.037 94.955,174.490 94.259,175.994 93.962 C 176.438 93.875,177.187 93.451,177.660 93.022 C 178.694 92.082,179.267 92.685,172.594 87.691 C 169.720 85.540,164.844 81.873,161.759 79.542 C 158.674 77.212,152.594 72.623,148.247 69.345 C 143.901 66.067,138.279 61.821,135.755 59.908 C 133.231 57.996,126.979 53.280,121.861 49.428 C 116.743 45.576,109.975 40.474,106.820 38.089 C 103.665 35.704,97.068 30.726,92.161 27.026 C 87.253 23.327,80.943 18.564,78.139 16.443 C 64.697 6.273,58.551 1.614,57.975 1.155 C 57.170 0.513,54.284 0.334,53.155 0.856 M72.842 11.746 C 73.153 12.071,73.473 12.272,73.551 12.194 C 73.629 12.115,73.374 11.850,72.984 11.604 L 72.275 11.156 72.842 11.746 M63.046 15.972 C 63.495 16.204,67.304 18.993,71.511 22.171 C 75.717 25.349,92.524 38.031,108.859 50.354 C 143.496 76.484,153.561 84.084,160.301 89.197 C 168.679 95.552,168.303 95.361,168.767 93.488 C 169.418 90.861,170.565 89.954,172.031 90.908 C 173.286 91.725,173.433 92.106,173.746 95.347 C 173.821 96.119,173.942 97.051,174.016 97.420 C 174.125 97.963,173.899 98.377,172.833 99.587 C 172.109 100.410,171.400 101.370,171.259 101.721 C 171.117 102.071,170.899 102.588,170.773 102.868 C 170.417 103.667,170.622 293.327,170.981 294.526 C 171.139 295.056,171.719 296.088,172.270 296.820 C 174.992 300.441,173.122 304.478,169.706 302.355 C 168.240 301.443,168.520 301.336,164.956 304.173 C 163.758 305.126,152.911 313.339,140.850 322.424 C 128.790 331.509,113.150 343.301,106.095 348.630 C 58.591 384.507,62.835 381.394,61.454 381.381 C 60.327 381.371,59.771 380.961,59.276 379.778 C 58.684 378.362,58.690 18.572,59.282 17.136 C 59.955 15.504,61.320 15.082,63.046 15.972 M87.373 22.708 C 87.685 23.033,88.004 23.235,88.082 23.156 C 88.161 23.078,87.906 22.812,87.516 22.566 L 86.807 22.118 87.373 22.708 M136.648 59.908 C 137.906 60.935,139.707 62.202,139.707 62.059 C 139.707 61.870,139.022 61.185,138.833 61.185 C 138.753 61.185,138.458 60.985,138.177 60.739 C 137.093 59.790,136.720 59.526,136.371 59.458 C 136.173 59.420,136.297 59.622,136.648 59.908 M155.952 74.461 C 156.264 74.786,156.583 74.987,156.661 74.909 C 156.740 74.830,156.485 74.565,156.095 74.319 L 155.386 73.871 155.952 74.461 M175.781 89.404 C 176.723 90.265,178.516 91.546,178.203 91.134 C 177.992 90.857,177.648 90.485,177.438 90.307 C 176.984 89.923,175.410 89.065,175.781 89.404 M49.584 286.807 C 49.584 343.665,49.614 366.925,49.649 338.496 C 49.685 310.067,49.685 263.547,49.649 235.118 C 49.614 206.689,49.584 229.949,49.584 286.807 M173.717 309.026 L 173.231 309.575 173.932 309.124 C 174.655 308.659,174.792 308.477,174.418 308.477 C 174.300 308.477,173.984 308.724,173.717 309.026 M159.582 319.712 L 158.700 320.496 159.615 319.841 C 160.118 319.481,160.624 319.272,160.739 319.377 C 160.854 319.481,160.866 319.423,160.765 319.248 C 160.528 318.836,160.603 318.807,159.582 319.712 M144.654 330.951 L 144.168 331.500 144.869 331.049 C 145.592 330.584,145.729 330.402,145.355 330.402 C 145.237 330.402,144.921 330.649,144.654 330.951 M116.635 352.071 C 116.381 352.352,116.253 352.581,116.351 352.581 C 116.449 352.581,116.775 352.352,117.076 352.071 C 117.377 351.791,117.505 351.562,117.360 351.562 C 117.215 351.562,116.889 351.791,116.635 352.071 M74.570 383.803 C 74.149 384.148,73.948 384.434,74.124 384.440 C 74.299 384.445,74.442 384.334,74.442 384.194 C 74.442 384.054,74.602 383.939,74.797 383.939 C 74.993 383.939,75.219 383.767,75.299 383.556 C 75.490 383.059,75.470 383.066,74.570 383.803 " stroke="none" fill="#c26b4a" fill-rule="evenodd"></path><path id="path3" d="M118.659 138.172 C 101.774 143.684,92.609 190.260,100.850 228.681 C 110.134 271.969,136.587 268.704,144.270 223.321 C 151.811 178.780,137.725 131.948,118.659 138.172 M125.119 142.902 C 137.808 148.635,145.520 189.144,140.080 221.474 C 133.215 262.263,114.277 266.329,105.436 228.911 C 96.070 189.271,108.410 135.350,125.119 142.902 M274.088 147.288 C 272.976 148.400,273.012 146.517,273.093 198.515 L 273.168 246.744 273.703 247.464 C 274.621 248.698,276.311 248.577,277.051 247.224 C 277.596 246.227,277.900 151.551,277.366 148.977 C 276.908 146.765,275.392 145.984,274.088 147.288 " stroke="none" fill="#171513" fill-rule="evenodd"></path><path id="path4" d="M47.816 0.567 C 47.597 0.878,47.422 1.251,47.426 1.395 C 47.431 1.539,47.553 1.454,47.697 1.206 C 47.842 0.957,48.043 0.805,48.145 0.868 C 48.246 0.931,48.329 0.761,48.329 0.491 C 48.329 -0.128,48.299 -0.124,47.816 0.567 M62.599 0.237 C 62.518 0.368,62.586 0.558,62.750 0.659 C 62.937 0.774,62.981 0.733,62.867 0.549 C 62.608 0.131,63.103 0.183,63.459 0.613 C 63.687 0.886,63.682 0.995,63.440 1.076 C 63.234 1.144,63.279 1.241,63.570 1.352 C 63.837 1.455,63.954 1.422,63.861 1.272 C 63.621 0.884,64.144 0.973,64.479 1.377 C 64.706 1.651,64.702 1.760,64.459 1.840 C 64.254 1.909,64.299 2.006,64.590 2.117 C 64.857 2.220,64.973 2.187,64.880 2.037 C 64.641 1.649,65.163 1.738,65.499 2.142 C 65.726 2.416,65.721 2.525,65.479 2.605 C 65.273 2.674,65.319 2.771,65.609 2.882 C 65.876 2.985,65.993 2.952,65.900 2.801 C 65.660 2.414,66.183 2.503,66.519 2.907 C 66.746 3.181,66.741 3.289,66.499 3.370 C 66.293 3.439,66.339 3.535,66.629 3.647 C 66.896 3.749,67.013 3.717,66.920 3.566 C 66.834 3.428,66.871 3.314,67.003 3.314 C 67.281 3.314,67.770 3.855,67.771 4.164 C 67.771 4.281,67.857 4.453,67.961 4.546 C 68.065 4.640,68.068 4.573,67.967 4.398 C 67.866 4.222,67.891 4.079,68.023 4.079 C 68.280 4.079,68.737 4.557,68.876 4.971 C 68.923 5.112,69.133 5.226,69.344 5.227 C 69.554 5.227,69.726 5.361,69.726 5.524 C 69.726 5.687,69.830 5.917,69.958 6.034 C 70.093 6.157,70.113 6.112,70.007 5.927 C 69.723 5.434,70.232 5.551,70.722 6.092 C 70.962 6.358,71.066 6.626,70.952 6.688 C 70.839 6.749,70.904 6.759,71.097 6.710 C 71.520 6.601,72.194 7.112,72.013 7.405 C 71.943 7.519,72.019 7.696,72.183 7.797 C 72.370 7.913,72.413 7.871,72.300 7.688 C 72.200 7.526,72.225 7.393,72.357 7.393 C 72.633 7.393,73.104 7.913,73.167 8.286 C 73.191 8.426,73.276 8.598,73.357 8.668 C 73.438 8.738,73.422 8.652,73.321 8.477 C 73.220 8.301,73.245 8.158,73.376 8.158 C 73.652 8.158,74.124 8.677,74.187 9.050 C 74.211 9.191,74.296 9.363,74.377 9.433 C 74.458 9.503,74.442 9.417,74.341 9.242 C 74.055 8.745,74.398 8.863,75.349 9.589 C 75.829 9.955,76.164 10.348,76.093 10.463 C 76.022 10.578,76.098 10.755,76.262 10.857 C 76.449 10.972,76.492 10.931,76.379 10.747 C 76.279 10.585,76.312 10.453,76.452 10.453 C 76.707 10.453,77.108 10.940,77.115 11.260 C 77.117 11.353,77.224 11.525,77.351 11.642 C 77.486 11.766,77.506 11.721,77.400 11.536 C 77.149 11.100,77.623 11.132,77.991 11.575 C 78.218 11.849,78.213 11.957,77.971 12.038 C 77.765 12.107,77.811 12.203,78.101 12.315 C 78.368 12.417,78.485 12.385,78.392 12.234 C 78.123 11.799,78.523 11.958,79.423 12.644 C 79.900 13.007,80.265 13.438,80.234 13.600 C 80.204 13.762,80.408 13.894,80.688 13.895 C 80.969 13.895,81.198 14.029,81.198 14.192 C 81.198 14.355,81.303 14.585,81.430 14.702 C 81.565 14.825,81.586 14.780,81.479 14.595 C 81.199 14.109,81.701 14.216,82.179 14.743 C 82.411 15.000,82.515 15.305,82.410 15.422 C 82.304 15.538,82.366 15.547,82.548 15.443 C 82.917 15.230,83.687 15.747,83.486 16.072 C 83.415 16.187,83.491 16.364,83.655 16.465 C 83.842 16.581,83.886 16.539,83.772 16.356 C 83.672 16.194,83.697 16.061,83.829 16.061 C 84.107 16.061,84.596 16.602,84.597 16.911 C 84.597 17.028,84.683 17.200,84.787 17.293 C 84.891 17.387,84.894 17.320,84.793 17.145 C 84.692 16.969,84.717 16.826,84.849 16.826 C 85.127 16.826,85.616 17.367,85.617 17.676 C 85.617 17.793,85.702 17.965,85.807 18.058 C 85.911 18.152,85.914 18.085,85.813 17.909 C 85.712 17.734,85.737 17.591,85.868 17.591 C 86.143 17.591,86.849 18.379,86.722 18.544 C 86.675 18.604,86.722 18.730,86.827 18.823 C 86.931 18.917,86.934 18.850,86.833 18.674 C 86.732 18.499,86.757 18.356,86.888 18.356 C 87.166 18.356,87.656 18.897,87.656 19.205 C 87.656 19.322,87.742 19.494,87.846 19.588 C 87.951 19.681,87.953 19.614,87.852 19.439 C 87.752 19.264,87.777 19.120,87.908 19.120 C 88.183 19.120,88.889 19.909,88.761 20.073 C 88.715 20.133,88.762 20.259,88.866 20.353 C 88.970 20.446,88.973 20.379,88.872 20.204 C 88.586 19.707,88.929 19.825,89.881 20.551 C 90.361 20.917,90.695 21.311,90.624 21.426 C 90.553 21.541,90.630 21.718,90.794 21.819 C 90.980 21.934,91.024 21.893,90.910 21.709 C 90.810 21.547,90.843 21.415,90.983 21.415 C 91.239 21.415,91.639 21.903,91.647 22.222 C 91.649 22.316,91.755 22.488,91.883 22.605 C 92.018 22.728,92.038 22.684,91.931 22.498 C 91.831 22.323,91.863 22.180,92.003 22.180 C 92.258 22.180,92.659 22.668,92.667 22.987 C 92.669 23.081,92.775 23.253,92.903 23.369 C 93.037 23.493,93.058 23.448,92.951 23.263 C 92.646 22.733,93.052 22.901,94.119 23.746 C 94.896 24.361,95.053 24.604,94.793 24.790 C 94.549 24.965,94.588 24.989,94.935 24.876 C 95.603 24.658,97.331 25.964,96.839 26.316 C 96.585 26.497,96.620 26.521,96.973 26.406 C 97.612 26.198,98.317 26.750,97.845 27.089 C 97.612 27.257,97.655 27.281,97.993 27.171 C 98.505 27.004,99.251 27.453,99.037 27.800 C 98.966 27.914,99.043 28.091,99.207 28.193 C 99.393 28.308,99.437 28.267,99.323 28.083 C 99.223 27.921,99.256 27.788,99.396 27.788 C 99.652 27.788,100.052 28.276,100.060 28.596 C 100.062 28.689,100.168 28.861,100.296 28.978 C 100.431 29.102,100.451 29.057,100.345 28.872 C 100.244 28.697,100.269 28.553,100.400 28.553 C 100.675 28.553,101.381 29.342,101.253 29.506 C 101.207 29.566,101.254 29.692,101.358 29.785 C 101.462 29.879,101.465 29.812,101.364 29.637 C 101.114 29.201,101.587 29.232,101.955 29.676 C 102.182 29.949,102.178 30.058,101.936 30.139 C 101.730 30.207,101.775 30.304,102.066 30.416 C 102.333 30.518,102.450 30.486,102.356 30.335 C 102.271 30.196,102.308 30.083,102.439 30.083 C 102.718 30.083,103.207 30.624,103.208 30.933 C 103.208 31.050,103.293 31.222,103.398 31.315 C 103.502 31.409,103.505 31.342,103.404 31.166 C 103.303 30.991,103.328 30.848,103.459 30.848 C 103.734 30.848,104.440 31.636,104.313 31.800 C 104.266 31.861,104.313 31.986,104.417 32.080 C 104.522 32.173,104.524 32.106,104.424 31.931 C 104.144 31.445,104.646 31.552,105.124 32.079 C 105.356 32.336,105.460 32.641,105.354 32.758 C 105.249 32.874,105.311 32.883,105.492 32.779 C 105.854 32.570,106.633 33.080,106.437 33.397 C 106.370 33.506,106.512 33.579,106.752 33.559 C 106.993 33.540,107.193 33.658,107.196 33.822 C 107.199 33.986,107.306 34.215,107.434 34.332 C 107.569 34.455,107.589 34.411,107.483 34.226 C 107.382 34.050,107.407 33.907,107.538 33.907 C 107.819 33.907,108.325 34.469,108.264 34.714 C 108.241 34.808,108.326 34.980,108.454 35.097 C 108.589 35.220,108.609 35.176,108.503 34.990 C 108.223 34.505,108.725 34.611,109.203 35.139 C 109.435 35.395,109.539 35.701,109.433 35.817 C 109.328 35.933,109.390 35.943,109.571 35.838 C 110.054 35.560,110.777 36.205,110.337 36.522 C 110.104 36.689,110.147 36.714,110.485 36.603 C 111.124 36.395,111.829 36.947,111.357 37.286 C 111.123 37.454,111.167 37.478,111.505 37.368 C 112.144 37.160,112.848 37.712,112.377 38.051 C 112.143 38.219,112.187 38.243,112.524 38.133 C 113.036 37.966,113.783 38.416,113.569 38.762 C 113.498 38.877,113.574 39.054,113.738 39.155 C 113.925 39.270,113.968 39.229,113.855 39.045 C 113.596 38.626,114.091 38.679,114.447 39.108 C 114.674 39.382,114.670 39.491,114.428 39.572 C 114.222 39.640,114.267 39.737,114.558 39.848 C 114.825 39.951,114.942 39.918,114.848 39.768 C 114.763 39.629,114.800 39.516,114.931 39.516 C 115.273 39.516,115.803 40.209,115.562 40.341 C 115.451 40.402,115.518 40.411,115.711 40.362 C 116.271 40.218,116.866 40.816,116.456 41.111 C 116.222 41.278,116.266 41.302,116.603 41.192 C 117.242 40.984,117.947 41.536,117.475 41.875 C 117.242 42.043,117.285 42.067,117.623 41.957 C 118.197 41.770,118.982 42.306,118.538 42.581 C 118.343 42.701,118.385 42.811,118.666 42.919 C 118.910 43.012,119.018 42.974,118.927 42.827 C 118.688 42.439,119.211 42.528,119.546 42.933 C 119.773 43.206,119.769 43.315,119.526 43.396 C 119.320 43.464,119.366 43.561,119.656 43.672 C 119.923 43.775,120.040 43.742,119.947 43.592 C 119.708 43.204,120.230 43.293,120.566 43.697 C 120.793 43.971,120.788 44.080,120.546 44.160 C 120.340 44.229,120.386 44.326,120.676 44.437 C 120.943 44.540,121.060 44.507,120.967 44.357 C 120.698 43.921,121.098 44.080,121.997 44.766 C 122.474 45.130,122.840 45.560,122.809 45.722 C 122.778 45.884,122.983 46.017,123.263 46.017 C 123.544 46.017,123.773 46.151,123.773 46.314 C 123.773 46.478,123.878 46.707,124.005 46.824 C 124.140 46.947,124.160 46.903,124.054 46.718 C 123.770 46.224,124.280 46.342,124.769 46.882 C 125.010 47.148,125.113 47.416,125.000 47.478 C 124.886 47.540,124.951 47.550,125.144 47.500 C 125.567 47.391,126.241 47.902,126.061 48.195 C 125.990 48.309,126.066 48.486,126.230 48.588 C 126.417 48.703,126.460 48.662,126.347 48.478 C 126.247 48.316,126.272 48.184,126.404 48.184 C 126.678 48.184,127.385 48.972,127.257 49.136 C 127.211 49.197,127.258 49.322,127.362 49.416 C 127.466 49.509,127.469 49.442,127.368 49.267 C 127.117 48.832,127.591 48.863,127.959 49.306 C 128.186 49.580,128.182 49.688,127.939 49.769 C 127.733 49.838,127.779 49.934,128.069 50.046 C 128.336 50.148,128.453 50.116,128.360 49.965 C 128.275 49.827,128.319 49.713,128.459 49.713 C 128.715 49.713,129.116 50.201,129.123 50.521 C 129.125 50.614,129.231 50.786,129.359 50.903 C 129.494 51.026,129.514 50.982,129.408 50.797 C 129.307 50.621,129.339 50.478,129.479 50.478 C 129.734 50.478,130.135 50.966,130.143 51.285 C 130.145 51.379,130.251 51.551,130.379 51.668 C 130.514 51.791,130.534 51.747,130.427 51.562 C 130.326 51.386,130.359 51.243,130.499 51.243 C 130.754 51.243,131.155 51.731,131.162 52.050 C 131.165 52.144,131.271 52.316,131.398 52.433 C 131.533 52.556,131.554 52.511,131.447 52.326 C 131.161 51.830,131.504 51.948,132.456 52.673 C 132.936 53.040,133.270 53.433,133.199 53.548 C 133.128 53.663,133.204 53.840,133.369 53.941 C 133.555 54.057,133.599 54.015,133.485 53.832 C 133.385 53.670,133.418 53.537,133.558 53.537 C 133.813 53.537,134.214 54.025,134.222 54.345 C 134.224 54.438,134.330 54.610,134.458 54.727 C 134.593 54.850,134.613 54.806,134.506 54.621 C 134.256 54.185,134.729 54.216,135.097 54.660 C 135.325 54.933,135.320 55.042,135.078 55.123 C 134.872 55.191,134.917 55.288,135.208 55.400 C 135.475 55.502,135.592 55.470,135.499 55.319 C 135.285 54.974,135.714 55.000,136.067 55.353 C 136.224 55.510,136.292 55.797,136.218 55.990 C 136.144 56.184,136.217 56.342,136.380 56.342 C 136.544 56.342,136.607 56.227,136.520 56.087 C 136.433 55.946,136.466 55.832,136.593 55.832 C 136.939 55.832,137.730 56.782,137.492 56.911 C 137.378 56.972,137.443 56.982,137.636 56.933 C 138.059 56.824,138.733 57.335,138.553 57.628 C 138.482 57.742,138.558 57.919,138.722 58.020 C 138.909 58.136,138.952 58.094,138.839 57.911 C 138.514 57.385,138.937 57.596,140.352 58.665 C 141.116 59.241,141.683 59.807,141.612 59.922 C 141.541 60.037,141.617 60.213,141.782 60.315 C 141.968 60.430,142.012 60.389,141.898 60.205 C 141.798 60.043,141.824 59.911,141.955 59.911 C 142.233 59.911,142.955 60.722,142.766 60.821 C 142.696 60.858,142.743 60.984,142.871 61.100 C 143.006 61.224,143.026 61.179,142.919 60.994 C 142.819 60.819,142.843 60.676,142.975 60.676 C 143.251 60.676,143.723 61.195,143.785 61.568 C 143.809 61.708,143.895 61.880,143.975 61.950 C 144.056 62.020,144.040 61.934,143.939 61.759 C 143.689 61.324,144.162 61.355,144.530 61.798 C 144.757 62.072,144.753 62.180,144.510 62.261 C 144.305 62.330,144.350 62.426,144.641 62.538 C 144.908 62.640,145.024 62.608,144.931 62.457 C 144.692 62.069,145.214 62.159,145.550 62.563 C 145.777 62.837,145.772 62.945,145.530 63.026 C 145.324 63.095,145.370 63.191,145.660 63.303 C 145.927 63.405,146.044 63.373,145.951 63.222 C 145.711 62.834,146.234 62.924,146.570 63.328 C 146.797 63.601,146.792 63.710,146.550 63.791 C 146.344 63.859,146.390 63.956,146.680 64.068 C 146.947 64.170,147.064 64.138,146.971 63.987 C 146.731 63.599,147.254 63.688,147.589 64.092 C 147.817 64.366,147.812 64.475,147.570 64.556 C 147.364 64.624,147.409 64.721,147.700 64.832 C 147.967 64.935,148.084 64.902,147.991 64.752 C 147.777 64.407,148.206 64.433,148.559 64.786 C 148.716 64.943,148.784 65.230,148.710 65.423 C 148.636 65.616,148.709 65.774,148.872 65.774 C 149.036 65.774,149.099 65.660,149.012 65.519 C 148.925 65.379,148.958 65.264,149.085 65.264 C 149.431 65.264,150.222 66.214,149.984 66.344 C 149.870 66.405,149.935 66.415,150.128 66.366 C 150.592 66.246,151.218 66.780,151.009 67.117 C 150.912 67.275,150.969 67.306,151.151 67.194 C 151.498 66.980,152.261 67.507,152.064 67.825 C 151.994 67.940,152.070 68.117,152.234 68.218 C 152.421 68.333,152.464 68.292,152.351 68.108 C 152.251 67.946,152.276 67.814,152.408 67.814 C 152.689 67.814,153.194 68.376,153.133 68.621 C 153.110 68.715,153.196 68.887,153.323 69.004 C 153.458 69.127,153.478 69.083,153.372 68.897 C 153.271 68.722,153.296 68.579,153.427 68.579 C 153.708 68.579,154.214 69.141,154.153 69.386 C 154.130 69.479,154.215 69.652,154.343 69.768 C 154.478 69.892,154.498 69.847,154.392 69.662 C 154.291 69.487,154.316 69.344,154.447 69.344 C 154.725 69.344,155.447 70.154,155.258 70.254 C 155.188 70.291,155.235 70.416,155.363 70.533 C 155.498 70.657,155.518 70.612,155.411 70.427 C 155.311 70.252,155.335 70.108,155.467 70.108 C 155.745 70.108,156.467 70.919,156.278 71.019 C 156.208 71.055,156.255 71.181,156.382 71.298 C 156.517 71.421,156.538 71.377,156.431 71.192 C 156.330 71.017,156.355 70.873,156.487 70.873 C 156.768 70.873,157.273 71.435,157.212 71.680 C 157.189 71.774,157.275 71.946,157.402 72.063 C 157.537 72.186,157.557 72.142,157.451 71.957 C 157.138 71.413,157.522 71.598,158.963 72.686 C 159.727 73.263,160.294 73.829,160.223 73.943 C 160.152 74.058,160.228 74.235,160.392 74.337 C 160.579 74.452,160.622 74.411,160.509 74.227 C 160.409 74.065,160.434 73.932,160.566 73.932 C 160.843 73.932,161.566 74.743,161.377 74.843 C 161.307 74.880,161.354 75.005,161.481 75.122 C 161.616 75.246,161.637 75.201,161.530 75.016 C 161.250 74.530,161.752 74.636,162.230 75.164 C 162.462 75.421,162.566 75.726,162.461 75.842 C 162.355 75.959,162.417 75.968,162.599 75.863 C 162.960 75.655,163.740 76.165,163.544 76.482 C 163.477 76.590,163.618 76.663,163.859 76.644 C 164.099 76.625,164.299 76.781,164.303 76.992 C 164.307 77.202,164.539 77.374,164.819 77.374 C 165.099 77.375,165.328 77.508,165.328 77.672 C 165.328 77.835,165.433 78.065,165.560 78.181 C 165.695 78.305,165.716 78.260,165.609 78.075 C 165.325 77.582,165.835 77.699,166.324 78.240 C 166.565 78.506,166.669 78.774,166.555 78.836 C 166.441 78.897,166.506 78.907,166.699 78.858 C 167.247 78.717,167.860 79.313,167.444 79.583 C 167.225 79.725,167.326 79.776,167.743 79.733 C 168.160 79.690,168.376 79.798,168.381 80.051 C 168.385 80.261,168.618 80.434,168.898 80.434 C 169.178 80.434,169.407 80.568,169.407 80.731 C 169.407 80.895,169.512 81.124,169.639 81.241 C 169.774 81.364,169.795 81.320,169.688 81.134 C 169.404 80.641,169.914 80.759,170.403 81.299 C 170.644 81.565,170.748 81.833,170.634 81.895 C 170.520 81.956,170.585 81.966,170.778 81.917 C 171.275 81.789,171.941 82.373,171.565 82.606 C 171.370 82.726,171.412 82.836,171.694 82.944 C 171.937 83.038,172.046 83.000,171.955 82.852 C 171.869 82.714,171.914 82.600,172.054 82.600 C 172.309 82.600,172.710 83.088,172.718 83.408 C 172.720 83.501,172.826 83.673,172.954 83.790 C 173.088 83.914,173.109 83.869,173.002 83.684 C 172.752 83.248,173.225 83.280,173.593 83.723 C 173.820 83.997,173.816 84.105,173.574 84.186 C 173.368 84.255,173.413 84.351,173.704 84.463 C 173.971 84.565,174.088 84.533,173.994 84.382 C 173.725 83.946,174.126 84.106,175.030 84.796 C 175.510 85.162,175.845 85.555,175.774 85.670 C 175.703 85.785,175.779 85.962,175.943 86.064 C 176.130 86.179,176.174 86.138,176.060 85.954 C 175.960 85.792,175.993 85.660,176.133 85.660 C 176.388 85.660,176.789 86.147,176.797 86.467 C 176.799 86.560,176.905 86.733,177.033 86.849 C 177.167 86.973,177.188 86.928,177.081 86.743 C 176.802 86.257,177.304 86.363,177.781 86.891 C 178.014 87.148,178.117 87.453,178.012 87.570 C 177.907 87.686,177.969 87.695,178.150 87.591 C 178.528 87.373,179.287 87.899,179.079 88.235 C 179.003 88.358,179.138 88.383,179.378 88.290 C 179.619 88.198,179.758 88.228,179.687 88.357 C 179.537 88.631,180.386 89.510,180.597 89.299 C 180.676 89.220,180.898 89.288,181.092 89.448 C 181.509 89.794,366.919 89.716,368.360 89.369 C 368.958 89.225,369.173 89.245,369.056 89.434 C 368.954 89.598,369.091 89.692,369.395 89.670 C 369.675 89.648,369.966 89.471,370.041 89.274 C 370.139 89.019,370.050 88.966,369.729 89.088 C 369.388 89.218,369.351 89.187,369.574 88.963 C 369.787 88.748,369.998 88.741,370.339 88.940 C 370.598 89.090,370.666 89.217,370.491 89.221 C 370.315 89.225,370.172 89.317,370.172 89.424 C 370.172 89.696,371.752 89.660,372.191 89.378 C 372.468 89.200,372.514 89.248,372.385 89.583 C 372.286 89.842,372.320 89.957,372.469 89.864 C 372.608 89.779,372.721 89.837,372.721 89.994 C 372.721 90.150,372.848 90.200,373.004 90.104 C 373.200 89.983,373.181 89.864,372.940 89.711 C 372.653 89.529,372.652 89.491,372.937 89.488 C 373.125 89.486,373.339 89.713,373.412 89.994 C 373.486 90.274,373.654 90.504,373.786 90.504 C 373.918 90.504,373.944 90.360,373.843 90.185 C 373.742 90.010,373.966 90.145,374.340 90.487 C 374.773 90.881,374.919 91.170,374.742 91.280 C 374.577 91.382,374.707 91.525,375.058 91.630 C 375.631 91.801,375.635 91.816,375.143 92.030 C 374.661 92.240,374.665 92.253,375.222 92.270 C 375.546 92.280,375.740 92.403,375.653 92.543 C 375.567 92.683,375.617 92.798,375.766 92.798 C 375.914 92.798,376.036 92.909,376.036 93.045 C 376.036 93.181,375.835 93.235,375.590 93.164 C 375.344 93.094,375.402 93.173,375.717 93.339 C 376.033 93.505,376.291 93.745,376.291 93.872 C 376.291 93.999,376.184 94.037,376.053 93.956 C 375.923 93.875,375.733 93.944,375.632 94.108 C 375.523 94.283,375.557 94.338,375.712 94.242 C 376.151 93.971,376.690 94.796,376.316 95.167 C 376.073 95.408,376.042 95.378,376.175 95.029 C 376.269 94.783,376.228 94.583,376.086 94.583 C 375.764 94.583,375.851 95.326,376.200 95.559 C 376.527 95.778,376.844 96.622,376.599 96.622 C 376.497 96.622,376.253 96.880,376.056 97.196 C 375.729 97.721,375.734 97.740,376.123 97.419 C 376.519 97.092,376.543 103.898,376.483 198.311 C 376.447 253.995,376.501 299.554,376.601 299.554 C 376.702 299.554,376.715 299.736,376.630 299.958 C 376.505 300.283,376.433 300.295,376.259 300.021 C 376.086 299.749,376.043 299.757,376.043 300.064 C 376.043 300.274,376.150 300.614,376.280 300.820 C 376.430 301.058,376.416 301.315,376.240 301.527 C 376.088 301.711,376.035 301.933,376.123 302.020 C 376.211 302.108,376.084 302.344,375.841 302.543 C 375.597 302.743,375.542 302.833,375.717 302.744 C 375.892 302.656,376.036 302.705,376.036 302.853 C 376.036 303.002,375.914 303.123,375.766 303.123 C 375.617 303.123,375.567 303.238,375.653 303.378 C 375.740 303.518,375.683 303.633,375.526 303.633 C 375.369 303.633,375.309 303.743,375.392 303.878 C 375.475 304.012,375.119 304.591,374.601 305.165 C 373.907 305.933,373.604 306.120,373.449 305.876 C 373.294 305.632,373.238 305.666,373.235 306.006 C 373.233 306.260,373.117 306.396,372.976 306.310 C 372.836 306.223,372.721 306.274,372.721 306.422 C 372.721 306.571,372.610 306.692,372.475 306.692 C 372.339 306.692,372.285 306.491,372.355 306.246 C 372.425 306.001,372.347 306.058,372.181 306.373 C 372.015 306.689,371.775 306.947,371.648 306.947 C 371.521 306.947,371.495 306.821,371.590 306.667 C 371.716 306.463,371.620 306.463,371.239 306.667 C 370.588 307.015,370.349 307.024,370.554 306.692 C 370.641 306.552,370.597 306.437,370.457 306.437 C 370.096 306.437,369.862 306.886,370.171 306.989 C 370.414 307.070,304.408 307.024,219.694 306.883 C 198.556 306.848,181.377 306.858,181.518 306.905 C 182.066 307.088,181.448 307.452,180.800 307.329 C 180.423 307.257,180.265 307.269,180.449 307.354 C 180.711 307.476,180.689 307.614,180.346 307.993 C 179.893 308.494,179.328 308.670,179.603 308.225 C 179.694 308.078,179.587 308.039,179.348 308.130 C 179.123 308.217,178.993 308.431,179.060 308.606 C 179.188 308.939,178.769 309.496,178.392 309.496 C 178.271 309.496,178.254 309.364,178.354 309.202 C 178.468 309.018,178.424 308.977,178.238 309.092 C 178.074 309.194,177.997 309.371,178.068 309.485 C 178.139 309.600,177.573 310.166,176.809 310.743 C 175.368 311.831,174.984 312.016,175.297 311.472 C 175.403 311.287,175.383 311.243,175.248 311.366 C 175.120 311.483,175.014 311.655,175.012 311.748 C 175.010 311.842,174.917 312.062,174.806 312.237 C 174.542 312.653,174.037 312.653,174.277 312.237 C 174.383 312.052,174.363 312.007,174.228 312.131 C 174.101 312.248,173.994 312.420,173.992 312.513 C 173.990 312.607,173.897 312.827,173.786 313.002 C 173.522 313.418,173.018 313.418,173.257 313.002 C 173.364 312.817,173.343 312.772,173.208 312.896 C 173.081 313.013,172.975 313.185,172.973 313.278 C 172.965 313.598,172.564 314.085,172.309 314.085 C 172.169 314.085,172.136 313.953,172.236 313.791 C 172.350 313.607,172.306 313.566,172.119 313.681 C 171.955 313.783,171.879 313.959,171.950 314.074 C 172.164 314.420,171.417 314.870,170.905 314.703 C 170.568 314.593,170.524 314.617,170.758 314.785 C 171.230 315.124,170.525 315.676,169.886 315.468 C 169.540 315.355,169.501 315.379,169.745 315.554 C 170.005 315.740,169.848 315.983,169.071 316.598 C 168.056 317.402,167.585 317.619,167.876 317.148 C 167.969 316.997,167.852 316.964,167.585 317.067 C 167.295 317.178,167.249 317.275,167.455 317.344 C 167.697 317.424,167.702 317.533,167.475 317.807 C 167.139 318.211,166.616 318.300,166.856 317.912 C 166.949 317.762,166.832 317.729,166.565 317.832 C 166.275 317.943,166.229 318.040,166.435 318.109 C 166.677 318.189,166.682 318.298,166.455 318.572 C 166.099 319.001,165.604 319.054,165.862 318.635 C 165.979 318.447,165.932 318.410,165.733 318.533 C 165.562 318.639,165.486 318.789,165.564 318.868 C 165.742 319.046,165.221 319.694,164.900 319.694 C 164.768 319.694,164.743 319.562,164.843 319.400 C 164.956 319.216,164.913 319.175,164.726 319.290 C 164.562 319.391,164.488 319.572,164.562 319.692 C 164.759 320.010,163.218 321.034,162.869 320.818 C 162.693 320.710,162.641 320.746,162.741 320.907 C 162.833 321.057,162.461 321.533,161.915 321.966 C 160.885 322.782,160.449 322.968,160.764 322.459 C 160.880 322.271,160.833 322.234,160.634 322.357 C 160.463 322.463,160.387 322.613,160.465 322.692 C 160.644 322.870,160.123 323.518,159.801 323.518 C 159.669 323.518,159.644 323.386,159.744 323.224 C 159.860 323.036,159.813 322.999,159.615 323.122 C 159.443 323.228,159.367 323.378,159.445 323.457 C 159.624 323.635,159.103 324.283,158.781 324.283 C 158.650 324.283,158.624 324.151,158.724 323.989 C 158.840 323.801,158.794 323.764,158.595 323.887 C 158.424 323.993,158.347 324.143,158.426 324.221 C 158.604 324.400,158.083 325.048,157.761 325.048 C 157.630 325.048,157.604 324.915,157.704 324.753 C 157.818 324.570,157.774 324.528,157.588 324.644 C 157.424 324.745,157.347 324.922,157.418 325.037 C 157.632 325.383,156.886 325.832,156.374 325.665 C 156.036 325.555,155.993 325.579,156.226 325.747 C 156.698 326.086,155.993 326.639,155.354 326.430 C 155.008 326.318,154.969 326.341,155.214 326.517 C 155.473 326.703,155.317 326.945,154.540 327.560 C 153.525 328.364,153.053 328.581,153.344 328.110 C 153.437 327.959,153.321 327.927,153.054 328.029 C 152.763 328.141,152.718 328.237,152.923 328.306 C 153.166 328.387,153.170 328.495,152.943 328.769 C 152.608 329.173,152.085 329.263,152.325 328.875 C 152.418 328.724,152.301 328.692,152.034 328.794 C 151.743 328.906,151.698 329.002,151.904 329.071 C 152.146 329.152,152.151 329.260,151.923 329.534 C 151.588 329.938,151.065 330.027,151.305 329.640 C 151.398 329.489,151.281 329.457,151.014 329.559 C 150.723 329.670,150.678 329.767,150.884 329.836 C 151.126 329.916,151.131 330.025,150.904 330.299 C 150.568 330.703,150.045 330.792,150.285 330.404 C 150.378 330.254,150.261 330.221,149.994 330.324 C 149.704 330.435,149.658 330.532,149.864 330.601 C 150.106 330.681,150.111 330.790,149.884 331.064 C 149.528 331.493,149.033 331.546,149.291 331.127 C 149.405 330.943,149.361 330.902,149.175 331.017 C 149.011 331.119,148.934 331.295,149.005 331.410 C 149.076 331.525,148.509 332.091,147.746 332.667 C 146.305 333.755,145.921 333.941,146.234 333.397 C 146.340 333.212,146.320 333.167,146.185 333.291 C 146.057 333.408,145.951 333.580,145.949 333.673 C 145.942 333.993,145.541 334.481,145.285 334.481 C 145.145 334.481,145.113 334.337,145.214 334.162 C 145.320 333.977,145.300 333.932,145.165 334.056 C 145.038 334.173,144.931 334.345,144.929 334.438 C 144.922 334.758,144.521 335.245,144.266 335.245 C 144.125 335.245,144.093 335.113,144.193 334.951 C 144.306 334.767,144.262 334.726,144.076 334.841 C 143.912 334.943,143.836 335.119,143.906 335.234 C 144.103 335.552,143.340 336.080,142.993 335.865 C 142.806 335.750,142.754 335.784,142.859 335.954 C 143.116 336.370,141.402 337.582,140.824 337.393 C 140.485 337.283,140.442 337.307,140.675 337.475 C 141.085 337.769,140.490 338.367,139.930 338.223 C 139.737 338.174,139.672 338.184,139.786 338.245 C 140.024 338.375,139.233 339.324,138.887 339.324 C 138.761 339.324,138.727 339.211,138.813 339.072 C 138.906 338.922,138.789 338.889,138.522 338.992 C 138.231 339.103,138.186 339.200,138.392 339.269 C 138.634 339.349,138.639 339.458,138.412 339.732 C 138.076 340.136,137.553 340.225,137.793 339.837 C 137.886 339.687,137.769 339.654,137.502 339.757 C 137.212 339.868,137.166 339.965,137.372 340.033 C 137.614 340.114,137.619 340.223,137.392 340.496 C 137.056 340.901,136.534 340.990,136.773 340.602 C 136.864 340.455,136.756 340.417,136.512 340.510 C 136.231 340.618,136.189 340.728,136.383 340.848 C 136.828 341.123,136.043 341.659,135.469 341.472 C 135.114 341.356,135.080 341.380,135.336 341.563 C 135.732 341.845,135.317 342.237,134.609 342.249 C 134.399 342.253,134.227 342.428,134.226 342.638 C 134.226 342.850,133.998 343.021,133.716 343.021 C 133.436 343.021,133.205 343.136,133.203 343.276 C 133.196 343.668,132.823 344.168,132.538 344.168 C 132.398 344.168,132.366 344.025,132.467 343.850 C 132.573 343.664,132.553 343.620,132.418 343.743 C 132.291 343.860,132.183 344.090,132.179 344.253 C 132.176 344.417,131.889 344.522,131.542 344.486 C 131.124 344.443,131.023 344.494,131.242 344.636 C 131.658 344.906,131.046 345.502,130.498 345.362 C 130.305 345.312,130.237 345.321,130.348 345.382 C 130.589 345.514,130.060 346.208,129.718 346.208 C 129.587 346.208,129.562 346.064,129.663 345.889 C 129.769 345.704,129.749 345.659,129.614 345.783 C 129.486 345.900,129.380 346.072,129.378 346.165 C 129.371 346.485,128.970 346.973,128.714 346.973 C 128.574 346.973,128.541 346.840,128.641 346.678 C 128.755 346.494,128.711 346.453,128.525 346.568 C 128.361 346.670,128.284 346.847,128.355 346.961 C 128.556 347.287,127.786 347.804,127.417 347.591 C 127.236 347.486,127.174 347.496,127.279 347.612 C 127.385 347.728,127.281 348.034,127.048 348.290 C 126.571 348.818,126.069 348.924,126.348 348.438 C 126.455 348.253,126.434 348.209,126.300 348.332 C 126.172 348.449,126.068 348.678,126.068 348.842 C 126.068 349.005,125.838 349.139,125.558 349.139 C 125.278 349.139,125.046 349.312,125.042 349.522 C 125.039 349.732,124.839 349.889,124.598 349.869 C 124.358 349.850,124.216 349.923,124.283 350.032 C 124.479 350.349,123.700 350.859,123.338 350.650 C 123.157 350.546,123.095 350.555,123.200 350.671 C 123.306 350.788,123.202 351.093,122.969 351.350 C 122.505 351.862,121.977 351.992,122.268 351.522 C 122.384 351.334,122.337 351.297,122.138 351.420 C 121.967 351.526,121.891 351.677,121.969 351.755 C 122.148 351.933,121.627 352.581,121.305 352.581 C 121.174 352.581,121.148 352.449,121.248 352.287 C 121.362 352.103,121.318 352.062,121.131 352.177 C 120.967 352.279,120.891 352.455,120.962 352.570 C 121.033 352.685,120.235 353.423,119.189 354.210 C 117.289 355.640,116.827 355.900,117.169 355.346 C 117.285 355.158,117.239 355.121,117.040 355.244 C 116.868 355.350,116.792 355.501,116.871 355.579 C 117.049 355.757,116.528 356.405,116.206 356.405 C 116.075 356.405,116.049 356.273,116.149 356.111 C 116.266 355.923,116.219 355.886,116.020 356.009 C 115.849 356.115,115.773 356.265,115.851 356.344 C 116.029 356.522,115.508 357.170,115.186 357.170 C 115.055 357.170,115.029 357.038,115.130 356.876 C 115.243 356.692,115.199 356.651,115.013 356.766 C 114.849 356.867,114.772 357.044,114.843 357.159 C 115.057 357.505,114.311 357.955,113.799 357.788 C 113.461 357.678,113.418 357.702,113.651 357.870 C 114.123 358.209,113.418 358.761,112.779 358.553 C 112.442 358.443,112.398 358.467,112.632 358.635 C 113.063 358.945,112.350 359.604,111.890 359.320 C 111.709 359.208,111.651 359.239,111.749 359.396 C 111.976 359.764,111.250 360.316,110.846 360.083 C 110.665 359.978,110.603 359.988,110.708 360.104 C 110.813 360.220,110.710 360.526,110.477 360.782 C 110.036 361.270,109.479 361.434,109.750 360.997 C 109.843 360.846,109.726 360.814,109.459 360.917 C 109.168 361.028,109.123 361.125,109.329 361.193 C 109.571 361.274,109.576 361.383,109.348 361.656 C 109.013 362.061,108.490 362.150,108.730 361.762 C 108.823 361.611,108.706 361.579,108.439 361.681 C 108.149 361.793,108.103 361.889,108.309 361.958 C 108.551 362.039,108.556 362.147,108.329 362.421 C 107.993 362.825,107.470 362.915,107.710 362.527 C 107.803 362.376,107.686 362.344,107.419 362.446 C 107.129 362.558,107.083 362.654,107.289 362.723 C 107.532 362.804,107.536 362.912,107.309 363.186 C 106.941 363.629,106.467 363.661,106.718 363.225 C 106.825 363.040,106.804 362.995,106.669 363.119 C 106.542 363.236,106.435 363.408,106.433 363.501 C 106.426 363.821,106.025 364.308,105.770 364.308 C 105.630 364.308,105.597 364.165,105.698 363.990 C 105.805 363.805,105.784 363.760,105.650 363.884 C 105.522 364.000,105.416 364.173,105.414 364.266 C 105.406 364.586,105.005 365.073,104.750 365.073 C 104.610 365.073,104.577 364.941,104.677 364.779 C 104.791 364.595,104.747 364.554,104.560 364.669 C 104.396 364.771,104.320 364.947,104.391 365.062 C 104.605 365.408,103.858 365.858,103.347 365.691 C 103.009 365.581,102.965 365.605,103.199 365.773 C 103.609 366.068,103.014 366.665,102.454 366.522 C 102.261 366.472,102.196 366.482,102.310 366.544 C 102.548 366.673,101.757 367.623,101.411 367.623 C 101.285 367.623,101.252 367.508,101.338 367.368 C 101.425 367.228,101.362 367.113,101.199 367.113 C 101.035 367.113,100.962 367.271,101.036 367.464 C 101.110 367.657,101.042 367.944,100.885 368.102 C 100.532 368.455,100.104 368.480,100.317 368.135 C 100.410 367.985,100.293 367.952,100.026 368.055 C 99.736 368.166,99.690 368.263,99.896 368.332 C 100.138 368.412,100.143 368.521,99.916 368.795 C 99.580 369.199,99.057 369.288,99.297 368.900 C 99.390 368.750,99.273 368.717,99.006 368.820 C 98.716 368.931,98.670 369.028,98.876 369.096 C 99.119 369.177,99.123 369.286,98.896 369.560 C 98.540 369.989,98.045 370.042,98.304 369.623 C 98.417 369.439,98.373 369.398,98.187 369.513 C 98.023 369.614,97.947 369.791,98.018 369.906 C 98.089 370.021,97.754 370.415,97.274 370.781 C 96.341 371.493,95.969 371.629,96.264 371.152 C 96.380 370.964,96.334 370.928,96.135 371.051 C 95.963 371.156,95.887 371.307,95.966 371.385 C 96.144 371.563,95.623 372.212,95.301 372.212 C 95.170 372.212,95.144 372.079,95.244 371.917 C 95.358 371.733,95.314 371.692,95.128 371.807 C 94.963 371.909,94.887 372.086,94.958 372.201 C 95.029 372.316,94.695 372.709,94.215 373.076 C 93.311 373.765,92.909 373.925,93.179 373.489 C 93.270 373.342,93.161 373.304,92.917 373.397 C 92.636 373.505,92.594 373.615,92.789 373.735 C 93.233 374.010,92.448 374.546,91.874 374.359 C 91.536 374.249,91.493 374.273,91.727 374.441 C 92.198 374.780,91.493 375.332,90.854 375.124 C 90.517 375.014,90.473 375.038,90.707 375.206 C 91.117 375.500,90.522 376.098,89.962 375.954 C 89.769 375.905,89.704 375.915,89.818 375.976 C 89.932 376.038,89.828 376.306,89.587 376.572 C 89.098 377.113,88.588 377.230,88.872 376.737 C 88.979 376.552,88.958 376.507,88.824 376.631 C 88.696 376.747,88.591 376.977,88.591 377.140 C 88.591 377.303,88.362 377.437,88.082 377.438 C 87.801 377.438,87.597 377.570,87.627 377.732 C 87.658 377.894,87.293 378.325,86.816 378.688 C 85.917 379.374,85.516 379.533,85.785 379.098 C 85.878 378.947,85.762 378.915,85.495 379.017 C 85.204 379.129,85.159 379.225,85.365 379.294 C 85.607 379.375,85.611 379.483,85.384 379.757 C 85.049 380.161,84.526 380.250,84.766 379.863 C 84.859 379.712,84.742 379.680,84.475 379.782 C 84.184 379.894,84.139 379.990,84.345 380.059 C 84.587 380.140,84.592 380.248,84.364 380.522 C 84.029 380.926,83.506 381.015,83.746 380.628 C 83.839 380.477,83.722 380.444,83.455 380.547 C 83.165 380.658,83.119 380.755,83.325 380.824 C 83.567 380.904,83.572 381.013,83.345 381.287 C 82.977 381.730,82.503 381.761,82.754 381.326 C 82.860 381.141,82.840 381.096,82.705 381.219 C 82.577 381.336,82.473 381.566,82.473 381.729 C 82.473 381.892,82.243 382.026,81.963 382.026 C 81.683 382.027,81.478 382.159,81.509 382.321 C 81.539 382.483,81.174 382.914,80.697 383.277 C 79.769 383.985,79.399 384.121,79.693 383.644 C 79.809 383.456,79.762 383.420,79.564 383.543 C 79.392 383.648,79.316 383.799,79.394 383.877 C 79.573 384.056,79.052 384.704,78.730 384.704 C 78.599 384.704,78.573 384.571,78.673 384.409 C 78.787 384.225,78.743 384.184,78.557 384.299 C 78.392 384.401,78.316 384.578,78.387 384.693 C 78.458 384.807,77.891 385.373,77.127 385.950 C 75.712 387.019,75.289 387.229,75.614 386.704 C 75.727 386.520,75.684 386.479,75.497 386.594 C 75.333 386.695,75.257 386.872,75.328 386.987 C 75.542 387.333,74.795 387.783,74.283 387.616 C 73.937 387.503,73.898 387.527,74.143 387.702 C 74.402 387.888,74.246 388.131,73.469 388.746 C 72.454 389.550,71.982 389.767,72.274 389.295 C 72.367 389.145,72.250 389.112,71.983 389.215 C 71.692 389.326,71.647 389.423,71.853 389.492 C 72.095 389.572,72.100 389.681,71.872 389.955 C 71.537 390.359,71.014 390.448,71.254 390.060 C 71.347 389.910,71.230 389.877,70.963 389.980 C 70.672 390.091,70.627 390.188,70.833 390.256 C 71.075 390.337,71.080 390.446,70.853 390.720 C 70.517 391.124,69.994 391.213,70.234 390.825 C 70.327 390.674,70.210 390.642,69.943 390.744 C 69.653 390.856,69.607 390.953,69.813 391.021 C 70.055 391.102,70.060 391.211,69.833 391.484 C 69.497 391.888,68.975 391.978,69.214 391.590 C 69.307 391.439,69.190 391.407,68.924 391.509 C 68.633 391.621,68.588 391.717,68.793 391.786 C 69.036 391.867,69.040 391.975,68.813 392.249 C 68.478 392.653,67.955 392.743,68.194 392.355 C 68.288 392.204,68.171 392.172,67.904 392.274 C 67.613 392.386,67.568 392.482,67.774 392.551 C 68.016 392.632,68.020 392.740,67.793 393.014 C 67.458 393.418,66.935 393.507,67.175 393.120 C 67.268 392.969,67.151 392.936,66.884 393.039 C 66.593 393.150,66.548 393.247,66.754 393.316 C 66.996 393.396,67.001 393.505,66.774 393.779 C 66.417 394.208,65.922 394.261,66.181 393.842 C 66.297 393.654,66.251 393.617,66.052 393.740 C 65.881 393.846,65.804 393.997,65.883 394.075 C 66.061 394.253,65.540 394.901,65.218 394.901 C 65.087 394.901,65.061 394.769,65.161 394.607 C 65.278 394.419,65.231 394.382,65.032 394.505 C 64.861 394.611,64.785 394.761,64.863 394.840 C 65.041 395.018,64.520 395.666,64.198 395.666 C 64.067 395.666,64.042 395.523,64.143 395.347 C 64.244 395.172,64.241 395.105,64.137 395.199 C 64.033 395.292,63.947 395.464,63.947 395.581 C 63.946 395.890,63.457 396.431,63.179 396.431 C 63.047 396.431,63.022 396.298,63.122 396.137 C 63.235 395.953,63.192 395.911,63.005 396.027 C 62.841 396.128,62.765 396.305,62.836 396.420 C 63.037 396.745,62.266 397.262,61.898 397.049 C 61.716 396.945,61.653 396.953,61.757 397.068 C 61.861 397.182,61.803 397.452,61.629 397.667 C 61.105 398.315,61.685 397.901,68.324 392.890 C 71.759 390.296,78.700 385.064,83.748 381.262 C 93.480 373.933,104.533 365.579,116.129 356.788 C 120.013 353.843,123.494 351.210,123.865 350.935 C 125.713 349.567,140.217 338.656,146.845 333.648 C 150.982 330.523,158.553 324.805,163.671 320.942 C 168.789 317.079,174.617 312.665,176.621 311.134 C 178.626 309.602,180.576 308.149,180.955 307.904 C 181.608 307.483,186.678 307.459,275.844 307.453 C 374.920 307.446,372.123 307.477,373.821 306.365 C 374.794 305.727,375.733 304.376,376.364 302.704 L 376.928 301.211 376.928 198.088 L 376.928 94.965 376.325 93.308 C 375.499 91.036,374.692 90.053,373.004 89.262 L 371.574 88.591 276.019 88.526 C 204.662 88.477,180.510 88.533,180.644 88.750 C 180.747 88.917,180.692 88.996,180.513 88.937 C 180.343 88.880,180.221 88.737,180.242 88.618 C 180.262 88.500,179.991 88.216,179.638 87.987 C 179.286 87.759,177.586 86.492,175.860 85.172 C 172.979 82.969,166.896 78.377,145.570 62.304 C 141.294 59.081,135.902 55.010,133.588 53.257 C 124.373 46.274,117.423 41.026,106.947 33.140 C 100.918 28.602,93.461 22.980,90.376 20.649 C 87.291 18.317,81.727 14.116,78.011 11.313 C 74.296 8.510,69.413 4.818,67.161 3.108 C 62.927 -0.105,62.843 -0.158,62.599 0.237 M47.054 2.018 C 46.396 3.140,46.375 10.192,46.449 199.368 L 46.526 393.765 47.349 395.435 C 47.801 396.354,48.432 397.323,48.751 397.590 C 49.070 397.856,49.187 397.911,49.012 397.712 C 48.412 397.028,48.693 396.851,49.395 397.470 L 50.096 398.088 49.488 397.398 C 49.154 397.019,48.753 396.732,48.596 396.761 C 48.439 396.790,48.327 396.614,48.346 396.370 C 48.365 396.126,48.285 395.986,48.168 396.058 C 47.942 396.198,47.419 395.390,47.419 394.903 C 47.419 394.745,47.551 394.698,47.713 394.798 C 47.897 394.912,47.938 394.868,47.823 394.682 C 47.721 394.517,47.532 394.449,47.401 394.530 C 47.271 394.610,47.164 394.491,47.164 394.264 C 47.164 394.037,47.259 393.910,47.375 393.982 C 47.625 394.136,47.594 393.207,47.341 392.954 C 47.140 392.753,47.164 250.494,47.390 106.055 C 47.476 50.880,47.471 5.621,47.378 5.481 C 47.286 5.341,47.239 4.800,47.275 4.280 C 47.310 3.759,47.242 3.393,47.124 3.466 C 47.006 3.539,46.909 3.478,46.909 3.329 C 46.909 3.181,47.110 3.050,47.355 3.039 C 47.622 3.027,47.673 2.967,47.482 2.890 C 47.307 2.820,47.164 2.650,47.164 2.513 C 47.164 2.376,47.267 2.328,47.392 2.405 C 47.518 2.483,47.679 2.394,47.750 2.208 C 47.874 1.884,47.235 1.710,47.054 2.018 M46.845 339.919 C 46.809 368.827,46.780 345.099,46.780 287.189 C 46.780 229.280,46.809 205.628,46.845 234.629 C 46.881 263.630,46.881 311.011,46.845 339.919 " stroke="none" fill="#ddd5bc" fill-rule="evenodd"></path><path id="path5" d="M48.537 0.184 C 48.619 0.265,48.487 0.495,48.243 0.695 C 48.000 0.894,47.943 0.986,48.117 0.898 C 48.324 0.793,48.381 0.873,48.281 1.133 C 48.198 1.349,48.029 1.464,47.905 1.387 C 47.781 1.311,47.755 1.445,47.847 1.686 C 47.970 2.006,47.925 2.067,47.678 1.914 C 47.442 1.769,47.400 1.804,47.539 2.029 C 47.656 2.217,47.592 2.444,47.388 2.574 C 47.161 2.717,47.143 2.798,47.337 2.800 C 47.554 2.803,47.573 3.031,47.404 3.620 C 47.245 4.174,47.260 4.491,47.451 4.609 C 47.642 4.727,47.620 4.819,47.384 4.899 C 47.138 4.982,47.111 5.121,47.291 5.376 C 47.461 5.616,47.494 39.333,47.390 106.055 C 47.164 250.494,47.140 392.753,47.341 392.954 C 47.596 393.209,47.623 394.136,47.376 394.136 C 47.259 394.136,47.164 394.251,47.164 394.391 C 47.164 394.532,47.250 394.633,47.355 394.616 C 47.859 394.537,48.018 394.679,47.674 394.901 C 47.341 395.116,47.346 395.149,47.708 395.152 C 47.937 395.154,48.184 395.386,48.258 395.666 C 48.346 396.005,48.292 396.121,48.096 396.010 C 47.934 395.919,48.209 396.234,48.708 396.711 C 49.207 397.188,49.322 397.349,48.963 397.068 L 48.311 396.558 48.923 397.253 L 49.535 397.948 55.407 397.935 L 61.278 397.923 62.657 396.521 C 63.430 395.736,64.186 395.177,64.377 395.250 C 64.564 395.322,64.869 395.187,65.055 394.950 C 65.365 394.554,65.351 394.550,64.882 394.901 C 64.406 395.258,64.396 395.253,64.732 394.826 C 64.929 394.574,65.237 394.424,65.414 394.492 C 65.592 394.560,65.889 394.422,66.074 394.185 C 66.384 393.789,66.371 393.785,65.902 394.136 C 65.426 394.493,65.416 394.488,65.751 394.061 C 65.949 393.809,66.256 393.659,66.434 393.727 C 66.612 393.795,66.909 393.657,67.094 393.420 C 67.397 393.033,67.386 393.025,66.985 393.339 C 66.740 393.531,66.539 393.572,66.539 393.430 C 66.539 393.123,67.263 392.806,67.553 392.986 C 67.665 393.055,67.913 392.912,68.104 392.668 C 68.418 392.266,68.409 392.258,68.005 392.574 C 67.760 392.767,67.559 392.808,67.559 392.665 C 67.559 392.358,68.282 392.041,68.573 392.221 C 68.685 392.290,68.932 392.147,69.123 391.903 C 69.438 391.502,69.429 391.493,69.025 391.809 C 68.779 392.002,68.579 392.043,68.579 391.900 C 68.579 391.594,69.302 391.276,69.593 391.456 C 69.704 391.525,69.952 391.382,70.143 391.138 C 70.458 390.737,70.448 390.728,70.045 391.045 C 69.799 391.237,69.598 391.278,69.598 391.136 C 69.598 390.829,70.322 390.512,70.612 390.691 C 70.724 390.760,70.972 390.617,71.163 390.373 C 71.477 389.972,71.468 389.963,71.064 390.280 C 70.772 390.509,70.618 390.531,70.618 390.344 C 70.618 390.071,70.771 390.012,71.633 389.954 C 71.841 389.940,72.242 389.561,72.525 389.111 C 72.808 388.661,73.140 388.288,73.263 388.283 C 73.385 388.277,73.328 388.474,73.135 388.719 C 72.820 389.121,72.828 389.131,73.221 388.823 C 73.461 388.635,73.727 388.263,73.812 387.995 C 73.897 387.727,74.088 387.508,74.236 387.508 C 74.404 387.508,74.383 387.675,74.181 387.954 C 74.004 388.199,74.248 387.993,74.724 387.495 C 75.200 386.997,75.475 386.773,75.335 386.998 C 75.194 387.223,75.469 386.999,75.945 386.501 C 76.422 386.003,76.708 385.773,76.583 385.990 C 76.457 386.207,76.568 386.150,76.829 385.863 C 77.090 385.576,77.377 385.341,77.467 385.341 C 77.556 385.341,77.602 385.259,77.568 385.159 C 77.535 385.059,77.660 385.035,77.846 385.107 C 78.032 385.178,78.347 385.031,78.544 384.779 C 78.872 384.362,78.864 384.352,78.458 384.671 C 78.212 384.864,78.011 384.963,78.011 384.893 C 78.011 384.822,78.442 384.443,78.967 384.049 C 79.640 383.547,79.810 383.485,79.541 383.841 C 79.331 384.120,79.548 383.940,80.024 383.442 C 80.501 382.944,80.787 382.713,80.662 382.929 C 80.536 383.145,80.732 382.984,81.096 382.571 C 81.460 382.159,81.878 381.895,82.023 381.985 C 82.169 382.075,82.444 381.949,82.635 381.705 C 82.957 381.295,82.945 381.290,82.473 381.644 C 81.997 382.001,81.987 381.996,82.323 381.569 C 82.520 381.317,82.827 381.167,83.005 381.235 C 83.183 381.303,83.480 381.165,83.665 380.928 C 83.968 380.541,83.957 380.533,83.556 380.847 C 83.311 381.039,83.110 381.080,83.110 380.938 C 83.110 380.631,83.834 380.314,84.124 380.493 C 84.236 380.563,84.484 380.419,84.675 380.176 C 84.989 379.774,84.980 379.766,84.576 380.082 C 84.284 380.311,84.130 380.333,84.130 380.146 C 84.130 379.877,84.269 379.822,85.106 379.755 C 85.292 379.741,85.751 379.381,86.126 378.956 C 86.500 378.531,86.750 378.307,86.679 378.460 C 86.609 378.612,86.809 378.444,87.123 378.087 C 87.437 377.730,87.894 377.438,88.138 377.437 C 88.382 377.437,88.813 377.069,89.096 376.619 C 89.380 376.169,89.711 375.796,89.834 375.791 C 89.956 375.785,89.899 375.982,89.706 376.227 C 89.391 376.629,89.399 376.639,89.793 376.331 C 90.032 376.143,90.298 375.771,90.383 375.503 C 90.468 375.235,90.659 375.016,90.807 375.016 C 90.965 375.016,90.931 375.200,90.726 375.462 C 90.411 375.864,90.419 375.875,90.812 375.567 C 91.052 375.379,91.318 375.006,91.403 374.738 C 91.488 374.470,91.679 374.251,91.827 374.251 C 91.991 374.251,92.009 374.379,91.873 374.582 C 91.751 374.764,91.851 374.694,92.097 374.426 C 92.342 374.159,92.547 374.038,92.553 374.159 C 92.558 374.280,92.976 373.920,93.482 373.359 C 93.988 372.798,94.299 372.516,94.174 372.731 C 94.048 372.947,94.232 372.828,94.583 372.467 C 94.933 372.105,95.105 371.986,94.965 372.202 C 94.566 372.816,95.540 372.074,96.595 370.959 C 97.072 370.456,97.358 370.221,97.233 370.437 C 97.107 370.653,97.291 370.534,97.642 370.172 C 97.992 369.811,98.164 369.687,98.024 369.897 C 97.883 370.110,98.138 370.021,98.598 369.699 C 99.054 369.379,99.426 369.054,99.426 368.976 C 99.426 368.899,99.254 368.978,99.044 369.152 C 98.780 369.372,98.662 369.381,98.662 369.184 C 98.662 368.911,98.815 368.852,99.676 368.794 C 99.884 368.780,100.286 368.401,100.569 367.951 C 100.852 367.501,101.184 367.128,101.306 367.123 C 101.428 367.117,101.371 367.314,101.178 367.559 C 100.863 367.961,100.872 367.971,101.265 367.663 C 101.505 367.475,101.771 367.103,101.856 366.835 C 101.941 366.567,102.131 366.348,102.279 366.348 C 102.437 366.348,102.404 366.532,102.198 366.794 C 101.883 367.196,101.891 367.207,102.285 366.899 C 102.525 366.711,102.790 366.338,102.875 366.070 C 102.960 365.802,103.151 365.583,103.299 365.583 C 103.461 365.583,103.433 365.761,103.228 366.029 C 103.042 366.275,103.364 365.977,103.946 365.367 C 104.527 364.757,105.117 364.329,105.256 364.415 C 105.396 364.501,105.593 364.437,105.694 364.273 C 105.817 364.075,105.758 364.037,105.521 364.161 C 105.324 364.263,105.380 364.169,105.646 363.953 C 105.912 363.737,106.220 363.616,106.330 363.683 C 106.440 363.751,106.612 363.673,106.714 363.508 C 106.837 363.309,106.787 363.279,106.565 363.416 C 106.337 363.557,106.292 363.523,106.424 363.311 C 106.530 363.139,106.768 363.057,106.954 363.129 C 107.140 363.200,107.444 363.064,107.630 362.827 C 107.933 362.440,107.922 362.432,107.521 362.746 C 107.275 362.939,107.075 362.980,107.075 362.837 C 107.075 362.530,107.798 362.213,108.088 362.393 C 108.200 362.462,108.448 362.319,108.639 362.075 C 108.954 361.674,108.944 361.665,108.540 361.982 C 108.248 362.211,108.094 362.233,108.094 362.045 C 108.094 361.777,108.233 361.721,109.070 361.655 C 109.256 361.640,109.715 361.280,110.090 360.855 C 110.465 360.430,110.714 360.206,110.644 360.357 C 110.574 360.508,110.803 360.336,111.154 359.975 C 111.504 359.613,111.676 359.494,111.536 359.710 C 111.316 360.049,111.340 360.056,111.717 359.760 C 111.957 359.572,112.223 359.199,112.308 358.932 C 112.393 358.664,112.584 358.445,112.732 358.445 C 112.889 358.445,112.856 358.629,112.651 358.891 C 112.335 359.293,112.344 359.303,112.737 358.995 C 112.977 358.808,113.243 358.435,113.328 358.167 C 113.413 357.899,113.603 357.680,113.751 357.680 C 113.919 357.680,113.899 357.848,113.697 358.126 C 113.519 358.372,113.772 358.123,114.259 357.574 C 114.746 357.025,115.266 356.651,115.415 356.743 C 115.563 356.835,115.841 356.710,116.032 356.466 C 116.335 356.081,116.328 356.056,115.985 356.278 C 115.769 356.418,115.809 356.333,116.076 356.088 C 116.342 355.843,116.655 355.702,116.771 355.774 C 116.887 355.845,117.065 355.769,117.166 355.605 C 117.291 355.404,117.235 355.373,116.993 355.511 C 116.721 355.666,116.704 355.640,116.920 355.405 C 117.077 355.235,117.400 355.067,117.639 355.032 C 117.877 354.997,118.322 354.684,118.628 354.336 C 118.934 353.989,119.127 353.830,119.057 353.983 C 118.987 354.137,119.101 354.079,119.312 353.855 C 119.522 353.630,119.809 353.396,119.949 353.333 C 120.089 353.270,120.177 353.137,120.143 353.037 C 120.110 352.936,120.235 352.913,120.421 352.984 C 120.607 353.056,120.921 352.908,121.119 352.657 C 121.447 352.239,121.439 352.230,121.033 352.549 C 120.787 352.741,120.586 352.841,120.586 352.770 C 120.586 352.700,121.017 352.320,121.542 351.927 C 122.215 351.425,122.385 351.363,122.116 351.719 C 121.906 351.997,122.123 351.818,122.599 351.320 C 123.075 350.822,123.362 350.591,123.237 350.807 C 123.111 351.022,123.295 350.903,123.646 350.542 C 123.996 350.180,124.226 350.008,124.156 350.159 C 124.085 350.310,124.326 350.097,124.691 349.684 C 125.055 349.272,125.474 349.009,125.622 349.101 C 125.770 349.192,126.217 348.889,126.617 348.427 C 127.016 347.965,127.232 347.764,127.098 347.981 C 126.963 348.198,127.329 347.876,127.910 347.266 C 128.492 346.657,129.081 346.228,129.221 346.314 C 129.360 346.401,129.557 346.337,129.658 346.173 C 129.781 345.974,129.732 345.943,129.509 346.080 C 129.282 346.221,129.237 346.187,129.368 345.975 C 129.474 345.803,129.727 345.727,129.931 345.805 C 130.164 345.894,130.462 345.665,130.734 345.187 C 130.972 344.769,131.266 344.426,131.389 344.425 C 131.515 344.424,131.515 344.565,131.389 344.752 C 131.266 344.933,131.453 344.785,131.804 344.423 C 132.154 344.062,132.384 343.890,132.314 344.041 C 132.243 344.192,132.484 343.978,132.849 343.566 C 133.213 343.153,133.630 342.889,133.776 342.979 C 133.921 343.069,134.197 342.943,134.388 342.700 C 134.690 342.314,134.684 342.289,134.341 342.511 C 134.124 342.651,134.165 342.566,134.431 342.321 C 134.698 342.077,135.011 341.935,135.127 342.007 C 135.243 342.079,135.500 341.907,135.697 341.625 C 135.894 341.343,136.115 341.172,136.188 341.244 C 136.261 341.317,136.480 341.173,136.675 340.924 C 136.998 340.513,136.989 340.503,136.584 340.822 C 136.338 341.014,136.138 341.055,136.138 340.913 C 136.138 340.606,136.861 340.288,137.152 340.468 C 137.263 340.537,137.511 340.394,137.702 340.150 C 138.017 339.749,138.007 339.740,137.604 340.057 C 137.312 340.286,137.157 340.308,137.157 340.120 C 137.157 339.848,137.310 339.789,138.172 339.731 C 138.380 339.717,138.781 339.338,139.065 338.888 C 139.348 338.438,139.679 338.065,139.802 338.060 C 139.924 338.054,139.867 338.250,139.674 338.496 C 139.359 338.898,139.367 338.908,139.761 338.600 C 140.001 338.412,140.266 338.040,140.351 337.772 C 140.436 337.504,140.627 337.285,140.775 337.285 C 140.940 337.285,140.958 337.413,140.822 337.616 C 140.699 337.797,140.800 337.727,141.045 337.460 C 141.291 337.192,141.494 337.072,141.498 337.193 C 141.502 337.314,141.818 337.064,142.199 336.638 C 142.581 336.211,142.783 336.039,142.649 336.255 C 142.514 336.471,142.880 336.149,143.461 335.539 C 144.043 334.929,144.633 334.501,144.772 334.587 C 144.911 334.673,145.108 334.609,145.210 334.445 C 145.325 334.259,145.284 334.215,145.100 334.329 C 144.479 334.712,144.844 334.294,145.634 333.715 C 146.090 333.381,146.348 333.278,146.208 333.486 C 146.068 333.693,146.240 333.567,146.590 333.206 C 146.941 332.844,147.170 332.673,147.100 332.826 C 147.030 332.978,147.167 332.891,147.405 332.633 C 147.643 332.375,147.930 332.140,148.042 332.111 C 148.155 332.082,148.220 331.977,148.187 331.877 C 148.153 331.776,148.278 331.753,148.464 331.824 C 148.651 331.896,148.965 331.748,149.162 331.497 C 149.498 331.069,149.488 331.064,149.012 331.421 C 148.536 331.778,148.526 331.773,148.862 331.346 C 149.059 331.094,149.367 330.944,149.544 331.012 C 149.722 331.080,150.019 330.942,150.204 330.705 C 150.508 330.318,150.497 330.310,150.096 330.624 C 149.850 330.816,149.649 330.857,149.649 330.715 C 149.649 330.408,150.373 330.091,150.663 330.270 C 150.775 330.339,151.023 330.196,151.214 329.953 C 151.528 329.551,151.519 329.543,151.115 329.859 C 150.870 330.052,150.669 330.093,150.669 329.950 C 150.669 329.643,151.393 329.326,151.683 329.506 C 151.795 329.575,152.043 329.432,152.234 329.188 C 152.548 328.787,152.539 328.778,152.135 329.094 C 151.843 329.323,151.689 329.345,151.689 329.158 C 151.689 328.886,151.842 328.827,152.704 328.769 C 152.911 328.755,153.313 328.375,153.596 327.925 C 153.879 327.475,154.211 327.103,154.333 327.097 C 154.456 327.092,154.398 327.288,154.206 327.533 C 153.890 327.936,153.899 327.946,154.292 327.638 C 154.532 327.450,154.798 327.077,154.883 326.809 C 154.968 326.542,155.159 326.322,155.307 326.322 C 155.464 326.322,155.431 326.507,155.226 326.769 C 154.910 327.171,154.919 327.181,155.312 326.873 C 155.552 326.685,155.818 326.312,155.903 326.045 C 155.988 325.777,156.178 325.558,156.326 325.558 C 156.488 325.558,156.460 325.735,156.256 326.004 C 156.069 326.249,156.392 325.951,156.973 325.341 C 157.555 324.732,158.144 324.303,158.284 324.390 C 158.423 324.476,158.620 324.412,158.722 324.248 C 158.844 324.050,158.785 324.012,158.548 324.135 C 158.351 324.237,158.408 324.144,158.674 323.928 C 158.940 323.711,159.247 323.590,159.357 323.658 C 159.467 323.726,159.640 323.647,159.741 323.483 C 159.857 323.297,159.815 323.253,159.631 323.366 C 159.011 323.750,159.375 323.331,160.166 322.753 C 160.829 322.267,160.918 322.245,160.612 322.641 C 160.260 323.096,160.264 323.109,160.666 322.794 C 160.906 322.606,161.172 322.233,161.257 321.966 C 161.341 321.698,161.532 321.479,161.680 321.479 C 161.845 321.479,161.863 321.606,161.727 321.807 C 161.604 321.988,161.791 321.840,162.141 321.479 C 162.492 321.117,162.721 320.945,162.651 321.096 C 162.581 321.247,162.811 321.075,163.161 320.714 C 163.512 320.352,163.741 320.180,163.671 320.331 C 163.601 320.483,163.830 320.310,164.181 319.949 C 164.532 319.588,164.704 319.464,164.563 319.674 C 164.422 319.887,164.677 319.798,165.137 319.476 C 165.593 319.156,165.966 318.831,165.966 318.753 C 165.966 318.675,165.765 318.769,165.519 318.962 C 165.113 319.281,165.105 319.271,165.433 318.854 C 165.631 318.602,165.938 318.452,166.115 318.520 C 166.293 318.588,166.590 318.450,166.775 318.213 C 167.079 317.826,167.068 317.817,166.667 318.132 C 166.375 318.361,166.221 318.383,166.221 318.196 C 166.221 317.923,166.374 317.864,167.235 317.806 C 167.443 317.792,167.844 317.413,168.128 316.963 C 168.411 316.513,168.743 316.140,168.865 316.135 C 168.987 316.129,168.930 316.326,168.737 316.571 C 168.422 316.973,168.431 316.984,168.824 316.676 C 169.064 316.488,169.330 316.115,169.415 315.847 C 169.500 315.579,169.690 315.360,169.838 315.360 C 169.996 315.360,169.962 315.544,169.757 315.806 C 169.442 316.208,169.450 316.219,169.844 315.911 C 170.083 315.723,170.349 315.350,170.434 315.082 C 170.519 314.814,170.710 314.595,170.858 314.595 C 171.020 314.595,170.992 314.773,170.787 315.041 C 170.601 315.287,170.923 314.989,171.505 314.379 C 172.086 313.769,172.676 313.341,172.815 313.427 C 172.955 313.513,173.152 313.450,173.253 313.285 C 173.377 313.086,173.319 313.051,173.080 313.182 C 172.883 313.289,173.066 313.081,173.486 312.720 C 173.907 312.358,174.388 312.110,174.556 312.168 C 174.723 312.226,175.182 311.902,175.576 311.447 C 175.969 310.993,176.233 310.746,176.163 310.899 C 176.093 311.052,176.230 310.966,176.468 310.708 C 176.706 310.450,176.993 310.233,177.105 310.225 C 177.218 310.217,177.283 310.111,177.250 309.990 C 177.216 309.869,177.341 309.828,177.528 309.900 C 177.714 309.971,178.028 309.824,178.226 309.572 C 178.561 309.145,178.551 309.140,178.075 309.496 C 177.599 309.853,177.589 309.848,177.925 309.421 C 178.123 309.169,178.433 309.020,178.614 309.090 C 178.795 309.159,179.237 308.849,179.597 308.400 C 179.956 307.952,180.374 307.434,180.526 307.250 C 180.729 307.004,180.699 306.801,180.412 306.484 C 180.198 306.248,179.900 305.732,179.751 305.338 C 179.583 304.897,179.365 304.692,179.184 304.804 C 179.007 304.913,178.958 304.875,179.060 304.710 C 179.389 304.176,178.776 304.160,178.300 304.690 C 178.036 304.984,176.501 306.223,174.888 307.442 C 168.645 312.163,148.016 327.724,135.500 337.153 C 130.873 340.639,125.481 344.712,123.518 346.205 C 121.555 347.697,116.163 351.773,111.536 355.261 C 106.909 358.749,100.542 363.553,97.387 365.936 C 94.232 368.318,87.980 373.034,83.493 376.415 C 61.846 392.727,58.979 394.900,58.451 395.396 C 55.818 397.871,51.242 396.138,50.452 392.367 C 49.891 389.685,50.404 4.475,50.971 3.178 C 52.061 0.685,55.988 -0.434,58.002 1.175 C 58.554 1.616,64.660 6.246,78.139 16.443 C 80.943 18.564,87.253 23.327,92.161 27.026 C 97.068 30.726,103.665 35.704,106.820 38.089 C 109.975 40.474,116.743 45.576,121.861 49.428 C 126.979 53.280,133.231 57.996,135.755 59.908 C 138.279 61.820,143.614 65.851,147.610 68.865 C 151.606 71.880,158.662 77.205,163.289 80.699 C 176.346 90.561,178.312 92.009,178.453 91.867 C 178.588 91.733,177.651 90.833,176.290 89.790 L 175.526 89.204 176.296 89.575 C 176.719 89.779,177.382 90.262,177.768 90.648 C 178.442 91.322,179.519 90.935,179.056 90.186 C 178.990 90.078,179.117 89.920,179.340 89.835 C 179.675 89.706,179.689 89.609,179.420 89.278 C 179.169 88.967,179.167 88.919,179.414 89.067 C 179.858 89.334,179.812 88.914,179.331 88.322 C 179.110 88.049,179.005 87.999,179.098 88.209 C 179.190 88.419,178.940 88.243,178.543 87.817 C 178.145 87.391,177.923 87.218,178.049 87.434 C 178.174 87.650,177.887 87.415,177.411 86.912 C 176.356 85.798,175.382 85.055,175.781 85.670 C 175.921 85.885,175.749 85.766,175.398 85.405 C 175.048 85.043,174.818 84.872,174.888 85.024 C 174.959 85.176,174.694 84.928,174.301 84.474 C 173.908 84.019,173.432 83.706,173.243 83.778 C 173.055 83.851,172.814 83.770,172.708 83.598 C 172.574 83.382,172.625 83.350,172.873 83.494 C 173.085 83.617,173.145 83.607,173.019 83.470 C 172.902 83.342,172.730 83.232,172.636 83.225 C 172.108 83.186,171.319 82.783,171.319 82.552 C 171.319 82.394,171.504 82.428,171.765 82.633 C 172.171 82.951,172.179 82.942,171.857 82.530 C 171.661 82.282,171.446 82.133,171.379 82.201 C 171.311 82.269,171.069 82.122,170.842 81.876 C 170.614 81.630,170.527 81.578,170.649 81.760 C 170.776 81.948,170.776 82.086,170.649 82.081 C 170.527 82.075,170.195 81.703,169.912 81.253 C 169.629 80.803,169.198 80.434,168.954 80.434 C 168.710 80.434,168.253 80.141,167.939 79.784 C 167.625 79.427,167.468 79.283,167.590 79.465 C 167.726 79.668,167.708 79.796,167.544 79.796 C 167.396 79.796,167.205 79.577,167.120 79.309 C 167.035 79.041,166.769 78.669,166.529 78.481 C 166.136 78.173,166.128 78.183,166.443 78.585 C 166.635 78.830,166.693 79.027,166.570 79.021 C 166.448 79.016,166.116 78.643,165.833 78.193 C 165.550 77.743,165.119 77.375,164.875 77.375 C 164.631 77.374,164.174 77.082,163.860 76.725 C 163.546 76.368,163.346 76.200,163.416 76.352 C 163.486 76.505,163.257 76.333,162.906 75.972 C 162.556 75.610,162.372 75.491,162.497 75.707 C 162.623 75.923,162.336 75.692,161.860 75.194 C 161.384 74.696,161.166 74.516,161.377 74.795 C 161.646 75.151,161.475 75.089,160.803 74.587 C 160.277 74.194,159.847 73.814,159.847 73.743 C 159.847 73.673,160.048 73.773,160.293 73.965 C 160.700 74.284,160.708 74.275,160.380 73.857 C 160.182 73.605,159.868 73.458,159.682 73.529 C 159.496 73.601,159.371 73.577,159.404 73.477 C 159.437 73.377,159.372 73.271,159.260 73.243 C 159.147 73.214,158.860 72.979,158.622 72.721 C 158.384 72.463,158.247 72.376,158.317 72.528 C 158.388 72.680,158.158 72.509,157.808 72.148 C 157.457 71.786,157.285 71.660,157.425 71.868 C 157.565 72.076,157.307 71.972,156.851 71.639 C 156.061 71.060,155.697 70.641,156.317 71.025 C 156.501 71.139,156.542 71.095,156.427 70.908 C 156.326 70.744,156.153 70.665,156.043 70.733 C 155.933 70.801,155.625 70.680,155.359 70.464 C 155.093 70.247,155.037 70.154,155.234 70.256 C 155.471 70.379,155.530 70.342,155.407 70.144 C 155.306 69.979,155.133 69.901,155.023 69.969 C 154.913 70.036,154.606 69.915,154.340 69.699 C 154.074 69.483,154.017 69.389,154.214 69.491 C 154.451 69.615,154.510 69.577,154.388 69.379 C 154.286 69.215,154.113 69.136,154.003 69.204 C 153.894 69.272,153.586 69.150,153.320 68.934 C 153.054 68.718,152.997 68.624,153.194 68.727 C 153.432 68.850,153.490 68.812,153.368 68.614 C 153.266 68.450,153.069 68.386,152.930 68.472 C 152.791 68.558,152.201 68.130,151.620 67.520 C 151.038 66.911,150.673 66.588,150.807 66.804 C 150.942 67.020,150.765 66.901,150.414 66.539 C 150.064 66.178,149.877 66.030,149.999 66.211 C 150.135 66.412,150.117 66.539,149.953 66.539 C 149.805 66.539,149.614 66.320,149.529 66.052 C 149.444 65.785,149.178 65.412,148.939 65.224 C 148.545 64.916,148.537 64.926,148.852 65.328 C 149.045 65.574,149.102 65.770,148.980 65.765 C 148.857 65.759,148.526 65.387,148.242 64.937 C 147.959 64.486,147.558 64.107,147.350 64.093 C 146.488 64.035,146.335 63.976,146.335 63.704 C 146.335 63.516,146.489 63.538,146.781 63.767 C 147.185 64.084,147.194 64.075,146.880 63.674 C 146.689 63.430,146.441 63.287,146.329 63.356 C 146.039 63.536,145.315 63.218,145.315 62.912 C 145.315 62.769,145.516 62.810,145.762 63.003 C 146.165 63.319,146.175 63.310,145.860 62.909 C 145.669 62.665,145.421 62.522,145.310 62.591 C 145.019 62.771,144.296 62.454,144.296 62.147 C 144.296 62.004,144.496 62.045,144.742 62.238 C 145.143 62.552,145.154 62.544,144.851 62.157 C 144.665 61.920,144.361 61.784,144.175 61.855 C 143.990 61.927,143.751 61.845,143.645 61.673 C 143.513 61.461,143.558 61.427,143.786 61.568 C 144.008 61.705,144.058 61.675,143.935 61.476 C 143.834 61.311,143.661 61.233,143.551 61.301 C 143.441 61.369,143.133 61.247,142.867 61.031 C 142.601 60.815,142.545 60.721,142.742 60.824 C 142.979 60.947,143.038 60.909,142.915 60.711 C 142.814 60.547,142.636 60.471,142.520 60.543 C 142.404 60.614,142.091 60.473,141.825 60.228 C 141.558 59.983,141.489 59.883,141.671 60.006 C 142.404 60.499,141.942 59.904,141.173 59.364 C 140.713 59.042,140.458 58.953,140.599 59.166 C 140.739 59.376,140.567 59.252,140.217 58.891 C 139.866 58.530,139.682 58.410,139.808 58.626 C 139.933 58.842,139.646 58.611,139.170 58.113 C 138.694 57.615,138.419 57.391,138.560 57.616 C 138.700 57.841,138.425 57.618,137.949 57.120 C 137.473 56.622,137.229 56.415,137.406 56.660 C 137.608 56.939,137.629 57.106,137.461 57.106 C 137.313 57.106,137.122 56.887,137.037 56.620 C 136.952 56.352,136.686 55.979,136.446 55.791 C 136.053 55.483,136.045 55.493,136.360 55.895 C 136.553 56.141,136.610 56.337,136.488 56.332 C 136.365 56.326,136.030 55.954,135.742 55.503 C 135.455 55.053,135.040 54.715,134.820 54.752 C 134.601 54.789,134.262 54.616,134.068 54.369 C 133.748 53.961,133.757 53.952,134.162 54.270 C 134.407 54.462,134.608 54.556,134.608 54.478 C 134.608 54.400,134.235 54.075,133.779 53.756 C 133.319 53.433,133.064 53.345,133.206 53.557 C 133.346 53.768,133.174 53.644,132.823 53.282 C 132.473 52.921,132.243 52.749,132.314 52.901 C 132.384 53.053,132.119 52.806,131.726 52.351 C 131.333 51.897,130.874 51.573,130.706 51.633 C 130.539 51.692,130.053 51.428,129.627 51.046 C 129.201 50.663,129.029 50.465,129.244 50.605 C 129.582 50.825,129.590 50.800,129.299 50.429 C 129.114 50.192,128.821 50.053,128.648 50.119 C 128.475 50.185,127.996 49.936,127.583 49.564 C 127.170 49.193,126.994 48.977,127.190 49.085 C 127.430 49.217,127.488 49.184,127.364 48.984 C 127.263 48.819,127.066 48.756,126.926 48.842 C 126.787 48.928,126.197 48.500,125.616 47.890 C 125.034 47.280,124.711 46.982,124.898 47.228 C 125.085 47.473,125.138 47.669,125.015 47.664 C 124.893 47.658,124.561 47.286,124.278 46.836 C 123.995 46.386,123.564 46.017,123.320 46.017 C 123.076 46.017,122.619 45.724,122.305 45.367 C 121.991 45.010,121.791 44.842,121.861 44.995 C 121.931 45.147,121.682 44.924,121.307 44.499 C 120.933 44.074,120.474 43.714,120.288 43.699 C 119.451 43.633,119.312 43.577,119.312 43.308 C 119.312 43.121,119.466 43.143,119.758 43.372 C 120.162 43.689,120.171 43.680,119.856 43.279 C 119.665 43.035,119.417 42.892,119.306 42.961 C 119.015 43.140,118.292 42.823,118.292 42.516 C 118.292 42.374,118.493 42.415,118.738 42.607 C 119.144 42.926,119.152 42.916,118.829 42.505 C 118.634 42.256,118.419 42.108,118.351 42.175 C 118.284 42.243,118.042 42.097,117.814 41.851 C 117.586 41.605,117.500 41.552,117.622 41.734 C 117.758 41.937,117.740 42.065,117.575 42.065 C 117.428 42.065,117.237 41.846,117.152 41.578 C 117.067 41.310,116.801 40.938,116.561 40.750 C 116.168 40.442,116.159 40.452,116.475 40.854 C 116.667 41.099,116.725 41.299,116.602 41.299 C 116.480 41.298,116.180 40.946,115.936 40.517 C 115.692 40.088,115.387 39.803,115.258 39.882 C 114.943 40.077,114.213 39.780,114.213 39.457 C 114.213 39.315,114.414 39.356,114.659 39.548 C 115.063 39.865,115.072 39.856,114.758 39.455 C 114.566 39.211,114.289 39.086,114.140 39.178 C 113.992 39.270,113.472 38.896,112.985 38.347 C 112.498 37.798,112.245 37.549,112.422 37.795 C 112.624 38.073,112.645 38.241,112.477 38.241 C 112.329 38.241,112.138 38.022,112.053 37.754 C 111.968 37.486,111.702 37.113,111.462 36.926 C 111.069 36.618,111.061 36.628,111.376 37.030 C 111.581 37.292,111.615 37.476,111.457 37.476 C 111.309 37.476,111.118 37.257,111.033 36.989 C 110.948 36.721,110.683 36.349,110.443 36.161 C 110.049 35.853,110.041 35.863,110.356 36.265 C 110.562 36.527,110.595 36.711,110.437 36.711 C 110.289 36.711,110.099 36.492,110.014 36.224 C 109.929 35.957,109.663 35.584,109.423 35.396 C 109.024 35.083,109.017 35.098,109.342 35.564 C 109.538 35.844,109.309 35.663,108.833 35.160 C 107.777 34.045,106.803 33.302,107.202 33.917 C 107.342 34.133,107.170 34.013,106.820 33.652 C 106.469 33.291,106.240 33.118,106.310 33.270 C 106.380 33.421,106.150 33.249,105.800 32.887 C 105.449 32.526,105.265 32.407,105.391 32.622 C 105.516 32.838,105.230 32.607,104.754 32.109 C 104.277 31.611,104.060 31.432,104.270 31.710 C 104.539 32.066,104.369 32.004,103.697 31.502 C 103.171 31.109,102.741 30.729,102.741 30.659 C 102.741 30.588,102.941 30.688,103.187 30.880 C 103.590 31.197,103.600 31.188,103.285 30.787 C 103.094 30.543,102.846 30.400,102.735 30.469 C 102.444 30.648,101.721 30.331,101.721 30.024 C 101.721 29.882,101.922 29.923,102.167 30.115 C 102.568 30.430,102.579 30.422,102.276 30.034 C 102.090 29.797,101.793 29.659,101.616 29.727 C 101.438 29.795,101.131 29.645,100.933 29.393 C 100.598 28.966,100.608 28.961,101.083 29.318 C 101.552 29.670,101.566 29.666,101.256 29.269 C 101.071 29.032,100.768 28.896,100.583 28.967 C 100.399 29.038,99.633 28.488,98.881 27.745 C 98.129 27.003,97.672 26.594,97.864 26.837 C 98.069 27.095,98.103 27.279,97.945 27.279 C 97.797 27.279,97.607 27.059,97.522 26.792 C 97.437 26.524,97.171 26.151,96.931 25.963 C 96.538 25.655,96.529 25.665,96.844 26.068 C 97.050 26.329,97.083 26.514,96.925 26.514 C 96.777 26.514,96.587 26.295,96.502 26.027 C 96.417 25.759,96.151 25.386,95.911 25.198 C 95.518 24.890,95.509 24.901,95.825 25.303 C 96.030 25.565,96.063 25.749,95.906 25.749 C 95.758 25.749,95.567 25.530,95.482 25.262 C 95.397 24.994,95.131 24.621,94.891 24.433 C 94.498 24.125,94.490 24.136,94.805 24.538 C 95.010 24.800,95.044 24.984,94.886 24.984 C 94.738 24.984,94.547 24.765,94.462 24.497 C 94.377 24.229,94.112 23.857,93.872 23.669 C 93.478 23.361,93.470 23.371,93.785 23.773 C 93.991 24.035,94.024 24.219,93.866 24.219 C 93.718 24.219,93.529 24.005,93.446 23.743 C 93.363 23.481,93.040 23.051,92.728 22.787 L 92.161 22.307 92.670 22.928 C 93.146 23.507,93.116 23.500,92.224 22.834 C 91.699 22.441,91.268 22.061,91.268 21.991 C 91.268 21.920,91.440 22.005,91.651 22.180 C 91.861 22.354,92.033 22.434,92.033 22.356 C 92.033 22.278,91.660 21.953,91.205 21.633 C 90.744 21.311,90.489 21.222,90.631 21.435 C 90.771 21.645,90.599 21.521,90.249 21.160 C 89.898 20.798,89.669 20.627,89.739 20.779 C 89.809 20.931,89.544 20.683,89.151 20.229 C 88.758 19.774,88.299 19.450,88.131 19.508 C 87.964 19.566,87.482 19.318,87.062 18.957 C 86.641 18.595,86.458 18.387,86.655 18.495 C 86.895 18.625,86.952 18.591,86.829 18.391 C 86.727 18.227,86.549 18.151,86.433 18.223 C 86.317 18.294,86.005 18.153,85.738 17.908 C 85.471 17.664,85.431 17.578,85.648 17.718 C 85.987 17.938,85.995 17.914,85.705 17.542 C 85.519 17.305,85.217 17.169,85.032 17.240 C 84.848 17.311,84.082 16.761,83.330 16.018 C 82.578 15.275,82.078 14.843,82.218 15.057 C 82.358 15.271,82.146 15.069,81.747 14.607 C 81.348 14.145,80.901 13.842,80.753 13.933 C 80.605 14.025,80.186 13.762,79.821 13.350 C 79.457 12.937,79.216 12.724,79.286 12.876 C 79.356 13.028,79.092 12.780,78.699 12.326 C 78.305 11.871,77.836 11.556,77.656 11.625 C 77.476 11.694,77.167 11.544,76.969 11.293 C 76.641 10.875,76.649 10.866,77.055 11.185 C 77.301 11.377,77.502 11.471,77.502 11.393 C 77.502 11.316,77.129 10.991,76.673 10.671 C 76.213 10.348,75.958 10.260,76.099 10.472 C 76.240 10.683,76.068 10.559,75.717 10.198 C 75.366 9.836,75.137 9.664,75.207 9.815 C 75.277 9.966,75.048 9.794,74.697 9.433 C 74.347 9.071,74.175 8.945,74.315 9.153 C 74.455 9.360,74.197 9.257,73.741 8.924 C 72.951 8.345,72.586 7.926,73.207 8.310 C 73.391 8.423,73.432 8.380,73.317 8.193 C 73.215 8.029,73.018 7.965,72.879 8.051 C 72.740 8.138,72.150 7.709,71.569 7.100 C 70.987 6.490,70.664 6.192,70.851 6.437 C 71.038 6.683,71.090 6.879,70.968 6.874 C 70.846 6.868,70.514 6.496,70.231 6.046 C 69.948 5.595,69.516 5.227,69.272 5.227 C 69.028 5.226,68.572 4.934,68.258 4.577 C 67.943 4.220,67.744 4.052,67.814 4.204 C 67.884 4.357,67.635 4.134,67.260 3.708 C 66.885 3.283,66.427 2.924,66.240 2.909 C 65.404 2.843,65.264 2.787,65.264 2.518 C 65.264 2.331,65.419 2.353,65.711 2.582 C 66.114 2.899,66.124 2.890,65.809 2.488 C 65.618 2.245,65.370 2.102,65.259 2.171 C 64.968 2.350,64.245 2.033,64.245 1.726 C 64.245 1.584,64.446 1.625,64.691 1.817 C 65.095 2.134,65.104 2.125,64.789 1.724 C 64.598 1.480,64.351 1.337,64.239 1.406 C 63.948 1.585,63.225 1.268,63.225 0.961 C 63.225 0.819,63.426 0.860,63.671 1.052 C 64.072 1.367,64.083 1.358,63.780 0.971 C 63.594 0.734,63.291 0.599,63.105 0.670 C 62.919 0.741,62.680 0.659,62.574 0.488 C 62.443 0.275,62.488 0.242,62.715 0.382 C 62.927 0.513,62.987 0.489,62.880 0.316 C 62.767 0.132,60.361 0.042,55.550 0.039 C 51.612 0.037,48.456 0.102,48.537 0.184 M73.551 12.194 C 73.473 12.272,73.153 12.071,72.842 11.746 L 72.275 11.156 72.984 11.604 C 73.374 11.850,73.629 12.115,73.551 12.194 M88.082 23.156 C 88.004 23.235,87.685 23.033,87.373 22.708 L 86.807 22.118 87.516 22.566 C 87.906 22.812,88.161 23.078,88.082 23.156 M137.200 59.911 C 137.457 60.121,137.897 60.494,138.177 60.739 C 138.458 60.985,138.753 61.185,138.833 61.185 C 139.022 61.185,139.707 61.870,139.707 62.059 C 139.707 62.139,139.162 61.805,138.496 61.316 C 136.608 59.932,135.979 59.382,136.371 59.458 C 136.570 59.497,136.943 59.700,137.200 59.911 M156.661 74.909 C 156.583 74.987,156.264 74.786,155.952 74.461 L 155.386 73.871 156.095 74.319 C 156.485 74.565,156.740 74.830,156.661 74.909 M46.780 287.189 C 46.780 345.099,46.809 368.827,46.845 339.919 C 46.881 311.011,46.881 263.630,46.845 234.629 C 46.809 205.628,46.780 229.280,46.780 287.189 M49.649 338.496 C 49.614 366.925,49.584 343.665,49.584 286.807 C 49.584 229.949,49.614 206.689,49.649 235.118 C 49.685 263.547,49.685 310.067,49.649 338.496 M174.634 308.575 C 174.634 308.629,174.318 308.876,173.932 309.124 L 173.231 309.575 173.717 309.026 C 174.147 308.540,174.634 308.300,174.634 308.575 M160.765 319.248 C 160.866 319.423,160.854 319.481,160.739 319.377 C 160.624 319.272,160.118 319.481,159.615 319.841 L 158.700 320.496 159.582 319.712 C 160.603 318.807,160.528 318.836,160.765 319.248 M145.570 330.500 C 145.570 330.554,145.255 330.801,144.869 331.049 L 144.168 331.500 144.654 330.951 C 145.084 330.465,145.570 330.225,145.570 330.500 M117.076 352.071 C 116.775 352.352,116.449 352.581,116.351 352.581 C 116.253 352.581,116.381 352.352,116.635 352.071 C 116.889 351.791,117.215 351.562,117.360 351.562 C 117.505 351.562,117.377 351.791,117.076 352.071 M75.299 383.556 C 75.219 383.767,74.993 383.939,74.797 383.939 C 74.602 383.939,74.442 384.054,74.442 384.194 C 74.442 384.334,74.299 384.445,74.124 384.440 C 73.948 384.434,74.149 384.148,74.570 383.803 C 75.470 383.066,75.490 383.059,75.299 383.556 " stroke="none" fill="#d1876f" fill-rule="evenodd"></path><path id="path6" d="M179.740 88.925 C 179.735 89.124,179.603 89.181,179.414 89.067 C 179.167 88.919,179.169 88.967,179.420 89.278 C 179.690 89.610,179.672 89.707,179.320 89.842 C 179.086 89.932,178.964 90.075,179.049 90.161 C 179.135 90.246,179.036 90.555,178.831 90.849 C 178.081 91.919,178.335 92.473,179.669 92.678 C 181.374 92.940,367.984 93.227,369.517 92.969 C 371.123 92.700,371.855 93.027,372.416 94.264 C 372.821 95.157,372.853 101.908,372.914 197.444 C 372.985 308.594,373.070 301.539,371.648 302.864 C 371.096 303.378,371.021 303.378,275.350 303.382 C 214.886 303.384,179.464 303.476,179.222 303.630 C 178.909 303.829,178.898 303.955,179.159 304.327 C 179.335 304.576,179.595 305.052,179.738 305.384 C 180.088 306.198,180.940 307.260,181.048 307.016 C 181.095 306.908,223.697 306.877,275.717 306.947 C 354.177 307.053,370.424 307.017,371.029 306.735 C 371.463 306.533,371.689 306.507,371.587 306.671 C 371.493 306.823,371.530 306.947,371.669 306.947 C 371.809 306.947,372.004 306.689,372.105 306.373 C 372.281 305.818,372.293 305.816,372.486 306.310 C 372.596 306.590,372.694 306.669,372.704 306.486 C 372.713 306.302,372.836 306.223,372.976 306.310 C 373.117 306.396,373.240 306.260,373.251 306.006 C 373.263 305.733,373.325 305.676,373.401 305.867 C 373.537 306.204,375.171 304.703,375.069 304.334 C 375.040 304.229,375.137 304.143,375.286 304.143 C 375.434 304.143,375.485 304.028,375.398 303.888 C 375.312 303.748,375.369 303.633,375.526 303.633 C 375.683 303.633,375.740 303.518,375.653 303.378 C 375.567 303.238,375.646 303.121,375.829 303.119 C 376.076 303.116,376.065 303.053,375.788 302.878 C 375.466 302.674,375.475 302.617,375.850 302.473 C 376.091 302.380,376.221 302.197,376.140 302.065 C 376.058 301.934,376.110 301.684,376.254 301.510 C 376.419 301.311,376.429 301.055,376.280 300.820 C 376.150 300.614,376.043 300.274,376.043 300.064 C 376.043 299.724,376.071 299.724,376.290 300.064 C 376.448 300.310,376.538 264.194,376.542 198.757 C 376.547 102.943,376.522 97.088,376.113 97.419 C 375.703 97.749,375.703 97.733,376.112 97.139 C 376.614 96.409,376.676 95.688,376.249 95.546 C 375.877 95.422,375.734 94.583,376.086 94.583 C 376.228 94.583,376.269 94.783,376.175 95.029 C 376.042 95.378,376.073 95.408,376.316 95.167 C 376.693 94.793,376.159 93.989,375.688 94.222 C 375.529 94.301,375.598 94.202,375.842 94.002 C 376.258 93.661,376.250 93.620,375.714 93.338 C 375.400 93.172,375.344 93.094,375.590 93.164 C 375.835 93.235,376.036 93.181,376.036 93.045 C 376.036 92.909,375.914 92.798,375.766 92.798 C 375.617 92.798,375.567 92.683,375.653 92.543 C 375.740 92.403,375.546 92.280,375.222 92.270 C 374.671 92.253,374.666 92.239,375.143 92.053 C 375.630 91.863,375.625 91.845,375.046 91.661 C 374.666 91.540,374.548 91.400,374.730 91.287 C 374.924 91.167,374.794 90.900,374.340 90.487 C 373.966 90.145,373.742 90.010,373.843 90.185 C 373.944 90.360,373.905 90.504,373.756 90.504 C 373.608 90.504,373.486 90.377,373.486 90.221 C 373.486 90.066,373.314 90.005,373.104 90.086 C 372.894 90.167,372.721 90.115,372.721 89.971 C 372.721 89.826,372.608 89.779,372.469 89.864 C 372.320 89.957,372.286 89.842,372.385 89.583 C 372.514 89.248,372.468 89.200,372.191 89.378 C 371.770 89.648,370.172 89.701,370.172 89.445 C 370.172 89.349,370.310 89.225,370.478 89.169 C 370.670 89.105,370.624 89.006,370.353 88.902 C 370.117 88.812,369.935 88.819,369.950 88.919 C 370.025 89.422,369.870 89.634,369.402 89.669 C 369.093 89.692,368.954 89.598,369.056 89.434 C 369.173 89.245,368.958 89.225,368.360 89.369 C 366.973 89.703,181.510 89.796,181.109 89.462 C 180.925 89.310,180.662 89.255,180.524 89.340 C 180.386 89.425,180.155 89.291,180.011 89.043 C 179.850 88.768,179.745 88.722,179.740 88.925 " stroke="none" fill="#abbc73" fill-rule="evenodd"></path><path id="path7" d="M60.095 15.870 C 59.863 16.045,59.497 16.615,59.282 17.136 C 58.690 18.572,58.684 378.362,59.276 379.778 C 59.771 380.961,60.327 381.371,61.454 381.381 C 62.835 381.394,58.591 384.507,106.095 348.630 C 113.150 343.301,128.790 331.509,140.850 322.424 C 152.911 313.339,163.758 305.126,164.956 304.173 C 168.520 301.336,168.240 301.443,169.706 302.355 C 173.122 304.478,174.992 300.441,172.270 296.820 C 171.719 296.088,171.139 295.056,170.981 294.526 C 170.622 293.327,170.417 103.667,170.773 102.868 C 170.899 102.588,171.117 102.071,171.259 101.721 C 171.400 101.370,172.109 100.410,172.833 99.587 C 173.899 98.377,174.125 97.963,174.016 97.420 C 173.942 97.051,173.821 96.119,173.746 95.347 C 173.433 92.106,173.286 91.725,172.031 90.908 C 170.565 89.954,169.418 90.861,168.767 93.488 C 168.303 95.361,168.679 95.552,160.301 89.197 C 153.561 84.084,143.496 76.484,108.859 50.354 C 92.524 38.031,75.717 25.349,71.511 22.171 C 62.284 15.201,61.533 14.786,60.095 15.870 M72.327 25.430 C 77.490 29.321,87.716 37.036,95.053 42.575 C 119.408 60.960,137.647 74.718,150.797 84.623 C 166.530 96.474,166.140 96.157,166.482 97.343 C 166.671 97.997,166.730 128.665,166.678 198.986 L 166.603 299.694 166.009 300.452 C 165.682 300.870,162.298 303.563,158.488 306.438 C 154.678 309.312,148.062 314.311,143.786 317.545 C 139.509 320.779,129.184 328.572,120.841 334.861 C 105.126 346.709,100.624 350.107,77.857 367.303 C 61.067 379.984,62.007 379.393,61.299 377.699 C 60.757 376.401,60.865 19.431,61.408 18.777 C 62.161 17.870,62.872 18.304,72.327 25.430 " stroke="none" fill="#bc543c" fill-rule="evenodd"></path></g></svg>