<svg id="svg" version="1.1" xmlns="http://www.w3.org/2000/svg" xmlns:xlink="http://www.w3.org/1999/xlink" width="400" height="401.02367242482404" viewBox="0, 0, 400,401.02367242482404"><g id="svgg"><path id="path0" d="M7.230 78.319 C 6.913 78.446,6.654 78.488,6.654 78.411 C 6.654 78.098,5.369 79.826,5.126 80.467 C 4.595 81.862,4.778 281.724,5.311 282.784 C 5.557 283.274,6.149 283.936,6.628 284.256 L 7.497 284.837 136.676 284.837 L 265.855 284.837 266.581 285.848 C 266.980 286.404,268.070 288.045,269.003 289.495 C 273.544 296.548,280.032 306.576,282.133 309.789 C 284.300 313.103,286.714 316.838,292.642 326.049 C 302.646 341.593,305.108 345.225,306.022 345.790 C 306.904 346.335,308.637 346.644,308.637 346.257 C 308.637 346.022,309.980 345.384,310.301 345.466 C 310.441 345.502,310.482 345.457,310.390 345.366 C 310.299 345.274,311.587 343.105,313.253 340.546 C 314.918 337.987,317.581 333.877,319.170 331.414 C 320.759 328.951,323.107 325.323,324.387 323.353 C 325.668 321.382,327.793 318.100,329.112 316.059 C 331.682 312.078,334.662 307.479,337.733 302.751 C 338.784 301.132,341.804 296.468,344.443 292.386 L 349.241 284.965 371.101 284.837 C 395.577 284.694,393.973 284.827,394.789 282.873 C 395.397 281.418,395.299 81.066,394.689 79.846 C 394.429 79.325,393.868 78.769,393.346 78.515 C 392.332 78.022,8.454 77.827,7.230 78.319 M395.519 139.475 C 395.519 171.497,395.549 184.597,395.585 168.586 C 395.622 152.575,395.622 126.376,395.585 110.365 C 395.549 94.354,395.519 107.454,395.519 139.475 M388.100 181.446 L 388.100 277.799 367.115 277.927 L 346.129 278.055 345.322 278.631 C 344.878 278.948,344.194 279.754,343.804 280.422 C 343.413 281.091,342.271 282.905,341.265 284.453 C 337.834 289.737,336.532 291.746,335.091 293.986 C 334.298 295.218,333.278 296.801,332.825 297.505 C 332.372 298.209,331.029 300.282,329.841 302.111 C 328.654 303.941,327.284 306.062,326.797 306.825 C 326.310 307.588,324.645 310.149,323.097 312.517 C 321.548 314.885,319.597 317.888,318.760 319.191 C 317.923 320.495,316.302 323.001,315.159 324.760 C 312.460 328.912,311.087 331.033,309.321 333.781 C 307.571 336.503,307.711 336.497,306.061 333.909 C 305.321 332.748,303.889 330.531,302.880 328.983 C 301.871 327.434,300.151 324.786,299.058 323.097 C 297.965 321.408,295.671 317.869,293.961 315.234 C 292.250 312.598,290.087 309.259,289.154 307.812 C 288.221 306.366,286.712 304.031,285.802 302.623 C 284.891 301.216,282.845 298.049,281.255 295.585 C 277.673 290.038,275.441 286.601,273.687 283.931 C 272.944 282.799,272.136 281.359,271.893 280.732 C 271.404 279.473,270.904 278.800,270.124 278.351 C 269.737 278.128,237.669 278.023,140.755 277.927 L 11.900 277.799 11.836 181.589 C 11.785 104.790,11.836 85.338,12.092 85.176 C 12.268 85.064,96.942 85.000,200.256 85.033 L 388.100 85.093 388.100 181.446 M129.414 96.431 L 128.727 97.149 128.727 121.232 L 128.727 145.316 129.514 145.979 L 130.302 146.641 151.919 146.641 L 173.536 146.641 174.164 146.013 C 175.157 145.020,174.970 142.937,173.839 142.385 C 173.589 142.262,164.402 142.105,153.423 142.035 L 133.461 141.907 133.396 121.118 L 133.330 100.329 153.401 100.260 L 173.471 100.192 174.132 99.572 C 175.032 98.726,175.047 97.225,174.164 96.342 L 173.536 95.713 151.819 95.713 L 130.102 95.713 129.414 96.431 M23.013 96.717 C 21.836 97.894,22.068 99.429,23.539 100.189 C 24.169 100.515,25.867 100.576,34.280 100.576 L 44.274 100.576 44.274 122.162 C 44.274 143.170,44.287 143.763,44.771 144.321 C 45.552 145.221,47.075 145.313,48.002 144.515 L 48.752 143.870 48.752 122.223 L 48.752 100.576 61.625 100.576 C 75.704 100.576,75.624 100.584,76.242 99.092 C 76.639 98.135,76.373 97.116,75.561 96.477 C 74.926 95.978,74.460 95.969,49.338 95.969 L 23.761 95.969 23.013 96.717 M83.324 97.269 L 82.662 98.056 82.663 120.621 L 82.664 143.186 83.239 143.892 C 84.386 145.302,85.159 145.361,102.488 145.361 L 118.195 145.361 118.982 144.699 C 119.984 143.856,120.051 142.646,119.152 141.601 L 118.535 140.883 102.965 140.755 L 87.396 140.627 87.328 133.013 L 87.260 125.400 94.750 125.394 C 101.459 125.389,102.296 125.342,102.785 124.946 C 104.024 123.943,104.162 122.363,103.094 121.396 C 102.616 120.963,101.906 120.910,94.983 120.793 L 87.396 120.665 87.396 110.813 L 87.396 100.960 103.222 100.832 L 119.047 100.704 119.562 100.068 C 120.226 99.247,120.059 97.590,119.246 96.932 C 118.727 96.511,117.520 96.481,101.338 96.481 L 83.987 96.481 83.324 97.269 M314.365 97.652 C 312.942 98.358,312.988 97.507,312.988 123.128 L 312.988 146.936 313.736 147.684 L 314.484 148.433 336.065 148.427 C 356.126 148.422,357.684 148.390,358.191 147.979 C 359.431 146.975,359.568 145.395,358.500 144.428 C 358.002 143.977,356.987 143.948,337.849 143.826 L 317.722 143.698 317.722 122.841 L 317.722 101.983 337.869 101.855 C 357.598 101.730,358.026 101.717,358.528 101.215 C 359.446 100.296,359.468 99.226,358.588 98.241 L 357.816 97.377 336.489 97.316 C 317.678 97.263,315.069 97.303,314.365 97.652 M207.188 98.548 C 206.284 99.623,206.341 100.443,207.396 101.497 L 208.266 102.367 218.396 102.367 L 228.526 102.367 228.595 124.015 L 228.663 145.662 229.411 146.306 C 230.357 147.119,231.705 146.986,232.566 145.996 L 233.141 145.333 233.141 123.850 L 233.141 102.367 246.008 102.367 C 259.816 102.367,259.427 102.401,260.453 101.099 C 261.084 100.298,260.554 98.279,259.617 97.920 C 259.390 97.832,247.649 97.761,233.527 97.761 L 207.851 97.761 207.188 98.548 M267.892 98.758 L 267.051 99.510 266.974 121.732 C 266.924 136.289,266.988 144.264,267.158 144.854 C 267.807 147.092,268.758 147.199,287.184 147.104 L 302.710 147.025 303.370 146.405 C 304.271 145.559,304.286 144.058,303.403 143.175 L 302.774 142.546 287.152 142.546 L 271.529 142.546 271.529 134.869 L 271.529 127.191 278.835 127.191 C 286.766 127.191,287.255 127.115,287.858 125.791 C 288.314 124.789,288.234 124.243,287.504 123.376 L 286.845 122.592 279.251 122.525 L 271.657 122.457 271.657 112.604 L 271.657 102.751 287.483 102.623 L 303.308 102.495 303.798 101.891 C 304.480 101.048,304.425 99.741,303.669 98.863 L 303.052 98.145 285.893 98.075 L 268.734 98.006 267.892 98.758 M235.128 184.662 C 233.575 185.504,233.653 183.955,233.654 213.999 C 233.655 244.587,233.547 242.705,235.343 243.388 C 235.771 243.551,244.951 243.617,260.956 243.574 L 285.903 243.506 286.649 242.670 C 287.717 241.475,287.675 240.279,286.526 239.130 L 285.656 238.260 262.340 238.260 L 239.025 238.260 239.090 214.012 L 239.155 189.763 262.529 189.635 L 285.903 189.507 286.649 188.672 C 287.820 187.361,287.453 185.468,285.869 184.649 C 284.747 184.069,236.198 184.081,235.128 184.662 M112.732 184.689 C 110.423 185.197,109.564 186.626,110.448 188.489 C 111.219 190.114,111.499 190.147,124.253 190.147 L 135.637 190.147 135.637 215.125 L 135.637 240.102 136.507 240.972 C 137.812 242.278,139.539 242.076,140.499 240.505 C 141.004 239.680,141.011 239.286,140.947 214.907 L 140.883 190.147 155.670 190.147 C 167.738 190.147,170.615 190.082,171.312 189.790 C 173.823 188.741,173.497 185.383,170.825 184.766 C 169.821 184.534,113.774 184.460,112.732 184.689 M182.086 185.388 C 180.129 186.251,180.294 183.672,180.294 213.318 L 180.294 239.762 181.023 240.522 C 182.523 242.088,183.228 242.136,203.668 242.048 L 221.923 241.971 222.670 241.135 C 223.759 239.916,223.702 238.718,222.503 237.586 L 221.589 236.724 203.561 236.724 L 185.534 236.724 185.601 227.831 L 185.669 218.938 194.586 218.810 L 203.504 218.682 204.118 217.914 C 204.997 216.815,204.948 215.474,203.988 214.399 L 203.241 213.564 194.388 213.490 L 185.535 213.417 185.602 201.974 L 185.669 190.531 204.053 190.403 L 222.438 190.275 222.931 189.667 C 224.316 187.956,223.482 185.618,221.334 185.188 C 219.609 184.843,182.896 185.030,182.086 185.388 " stroke="none" fill="#181818" fill-rule="evenodd"></path><path id="path1" d="M0.000 178.887 C 0.000 249.350,0.086 284.837,0.256 284.837 C 0.426 284.837,0.512 249.350,0.512 178.887 C 0.512 108.424,0.426 72.937,0.256 72.937 C 0.086 72.937,0.000 108.424,0.000 178.887 M7.230 77.807 C 6.401 78.140,6.478 78.621,7.310 78.305 C 8.648 77.796,392.297 78.005,393.346 78.515 C 393.868 78.769,394.429 79.325,394.689 79.846 C 395.299 81.066,395.397 281.418,394.789 282.873 C 393.973 284.827,395.577 284.694,371.101 284.837 L 349.241 284.965 344.443 292.386 C 341.804 296.468,338.784 301.132,337.733 302.751 C 334.662 307.479,331.682 312.078,329.112 316.059 C 327.793 318.100,325.668 321.382,324.387 323.353 C 323.107 325.323,320.759 328.951,319.170 331.414 C 311.412 343.438,310.266 345.117,309.473 345.616 C 308.664 346.125,308.409 346.513,308.885 346.513 C 309.432 346.513,311.069 344.729,312.408 342.674 C 317.158 335.383,319.763 331.369,324.280 324.376 C 326.775 320.514,329.808 315.823,331.695 312.909 C 333.254 310.500,337.701 303.621,340.246 299.680 C 340.837 298.765,342.446 296.289,343.821 294.178 C 345.197 292.067,346.650 289.821,347.051 289.187 C 347.451 288.554,348.191 287.433,348.694 286.696 L 349.609 285.357 371.331 285.289 C 395.619 285.213,393.566 285.371,394.994 283.458 L 395.521 282.751 395.427 181.363 C 395.372 122.579,395.236 79.791,395.103 79.537 C 394.978 79.296,394.453 78.778,393.938 78.385 L 393.002 77.671 200.404 77.623 C 85.885 77.595,7.572 77.669,7.230 77.807 M5.515 78.961 C 4.283 80.290,4.325 76.363,4.404 182.106 L 4.479 282.701 5.168 283.605 C 5.547 284.102,6.255 284.698,6.742 284.929 C 7.559 285.316,17.582 285.349,136.754 285.349 L 265.881 285.349 266.187 285.921 C 266.452 286.417,269.173 290.652,274.564 298.962 C 282.976 311.929,287.077 318.258,290.570 323.665 C 291.824 325.604,293.333 327.940,293.924 328.855 C 294.516 329.770,295.555 331.382,296.234 332.438 C 296.913 333.493,298.293 335.624,299.301 337.172 C 300.309 338.720,301.879 341.139,302.789 342.546 C 304.419 345.066,305.766 346.513,306.482 346.513 C 307.039 346.513,306.926 346.349,305.963 345.753 C 305.120 345.232,302.387 341.189,292.642 326.049 C 286.714 316.838,284.300 313.103,282.133 309.789 C 280.032 306.576,273.544 296.548,269.003 289.495 C 268.070 288.045,266.980 286.404,266.581 285.848 L 265.855 284.837 136.676 284.837 L 7.497 284.837 6.628 284.256 C 6.149 283.936,5.557 283.274,5.311 282.784 C 4.769 281.707,4.596 81.862,5.135 80.439 C 5.286 80.043,5.651 79.460,5.947 79.144 C 6.243 78.828,6.414 78.498,6.328 78.411 C 6.241 78.325,5.875 78.572,5.515 78.961 M12.092 85.176 C 11.836 85.338,11.785 104.790,11.836 181.589 L 11.900 277.799 140.755 277.927 C 237.669 278.023,269.737 278.128,270.124 278.351 C 270.904 278.800,271.404 279.473,271.893 280.732 C 272.136 281.359,272.944 282.799,273.687 283.931 C 275.441 286.601,277.673 290.038,281.255 295.585 C 282.845 298.049,284.891 301.216,285.802 302.623 C 286.712 304.031,288.221 306.366,289.154 307.812 C 290.087 309.259,292.250 312.598,293.961 315.234 C 295.671 317.869,297.965 321.408,299.058 323.097 C 300.151 324.786,301.871 327.434,302.880 328.983 C 303.889 330.531,305.321 332.748,306.061 333.909 C 307.711 336.497,307.571 336.503,309.321 333.781 C 311.087 331.033,312.460 328.912,315.159 324.760 C 316.302 323.001,317.923 320.495,318.760 319.191 C 319.597 317.888,321.548 314.885,323.097 312.517 C 324.645 310.149,326.310 307.588,326.797 306.825 C 327.284 306.062,328.654 303.941,329.841 302.111 C 331.029 300.282,332.372 298.209,332.825 297.505 C 333.278 296.801,334.298 295.218,335.091 293.986 C 336.532 291.746,337.834 289.737,341.265 284.453 C 342.271 282.905,343.413 281.091,343.804 280.422 C 344.194 279.754,344.878 278.948,345.322 278.631 L 346.129 278.055 367.115 277.927 L 388.100 277.799 388.100 181.446 L 388.100 85.093 200.256 85.033 C 96.942 85.000,12.268 85.064,12.092 85.176 M174.164 96.342 C 175.047 97.225,175.032 98.726,174.132 99.572 L 173.471 100.192 153.401 100.260 L 133.330 100.329 133.396 121.118 L 133.461 141.907 153.423 142.035 C 164.402 142.105,173.589 142.262,173.839 142.385 C 174.970 142.937,175.157 145.020,174.164 146.013 L 173.536 146.641 151.919 146.641 L 130.302 146.641 129.514 145.979 L 128.727 145.316 128.727 121.232 L 128.727 97.149 129.414 96.431 L 130.102 95.713 151.819 95.713 L 173.536 95.713 174.164 96.342 M75.561 96.477 C 76.373 97.116,76.639 98.135,76.242 99.092 C 75.624 100.584,75.704 100.576,61.625 100.576 L 48.752 100.576 48.752 122.223 L 48.752 143.870 48.002 144.515 C 47.075 145.313,45.552 145.221,44.771 144.321 C 44.287 143.763,44.274 143.170,44.274 122.162 L 44.274 100.576 34.280 100.576 C 25.867 100.576,24.169 100.515,23.539 100.189 C 22.068 99.429,21.836 97.894,23.013 96.717 L 23.761 95.969 49.338 95.969 C 74.460 95.969,74.926 95.978,75.561 96.477 M119.246 96.932 C 120.059 97.590,120.226 99.247,119.562 100.068 L 119.047 100.704 103.222 100.832 L 87.396 100.960 87.396 110.813 L 87.396 120.665 94.983 120.793 C 101.906 120.910,102.616 120.963,103.094 121.396 C 104.162 122.363,104.024 123.943,102.785 124.946 C 102.296 125.342,101.459 125.389,94.750 125.394 L 87.260 125.400 87.328 133.013 L 87.396 140.627 102.965 140.755 L 118.535 140.883 119.152 141.601 C 120.051 142.646,119.984 143.856,118.982 144.699 L 118.195 145.361 102.488 145.361 C 85.159 145.361,84.386 145.302,83.239 143.892 L 82.664 143.186 82.663 120.621 L 82.662 98.056 83.324 97.269 L 83.987 96.481 101.338 96.481 C 117.520 96.481,118.727 96.511,119.246 96.932 M358.588 98.241 C 359.468 99.226,359.446 100.296,358.528 101.215 C 358.026 101.717,357.598 101.730,337.869 101.855 L 317.722 101.983 317.722 122.841 L 317.722 143.698 337.849 143.826 C 356.987 143.948,358.002 143.977,358.500 144.428 C 359.568 145.395,359.431 146.975,358.191 147.979 C 357.684 148.390,356.126 148.422,336.065 148.427 L 314.484 148.433 313.736 147.684 L 312.988 146.936 312.988 123.128 C 312.988 105.939,313.068 99.143,313.278 98.684 C 313.950 97.208,313.225 97.250,336.489 97.316 L 357.816 97.377 358.588 98.241 M259.617 97.920 C 260.554 98.279,261.084 100.298,260.453 101.099 C 259.427 102.401,259.816 102.367,246.008 102.367 L 233.141 102.367 233.141 123.850 L 233.141 145.333 232.566 145.996 C 231.705 146.986,230.357 147.119,229.411 146.306 L 228.663 145.662 228.595 124.015 L 228.526 102.367 218.396 102.367 L 208.266 102.367 207.396 101.497 C 206.341 100.443,206.284 99.623,207.188 98.548 L 207.851 97.761 233.527 97.761 C 247.649 97.761,259.390 97.832,259.617 97.920 M303.669 98.863 C 304.425 99.741,304.480 101.048,303.798 101.891 L 303.308 102.495 287.483 102.623 L 271.657 102.751 271.657 112.604 L 271.657 122.457 279.251 122.525 L 286.845 122.592 287.504 123.376 C 288.234 124.243,288.314 124.789,287.858 125.791 C 287.255 127.115,286.766 127.191,278.835 127.191 L 271.529 127.191 271.529 134.869 L 271.529 142.546 287.152 142.546 L 302.774 142.546 303.403 143.175 C 304.286 144.058,304.271 145.559,303.370 146.405 L 302.710 147.025 287.184 147.104 C 268.758 147.199,267.807 147.092,267.158 144.854 C 266.988 144.264,266.924 136.289,266.974 121.732 L 267.051 99.510 267.892 98.758 L 268.734 98.006 285.893 98.075 L 303.052 98.145 303.669 98.863 M285.869 184.649 C 287.453 185.468,287.820 187.361,286.649 188.672 L 285.903 189.507 262.529 189.635 L 239.155 189.763 239.090 214.012 L 239.025 238.260 262.340 238.260 L 285.656 238.260 286.526 239.130 C 287.675 240.279,287.717 241.475,286.649 242.670 L 285.903 243.506 260.956 243.574 C 244.951 243.617,235.771 243.551,235.343 243.388 C 233.547 242.705,233.655 244.587,233.654 213.999 C 233.653 183.955,233.575 185.504,235.128 184.662 C 236.198 184.081,284.747 184.069,285.869 184.649 M170.825 184.766 C 173.497 185.383,173.823 188.741,171.312 189.790 C 170.615 190.082,167.738 190.147,155.670 190.147 L 140.883 190.147 140.947 214.907 C 141.011 239.286,141.004 239.680,140.499 240.505 C 139.539 242.076,137.812 242.278,136.507 240.972 L 135.637 240.102 135.637 215.125 L 135.637 190.147 124.253 190.147 C 111.499 190.147,111.219 190.114,110.448 188.489 C 109.564 186.626,110.423 185.197,112.732 184.689 C 113.774 184.460,169.821 184.534,170.825 184.766 M221.334 185.188 C 223.482 185.618,224.316 187.956,222.931 189.667 L 222.438 190.275 204.053 190.403 L 185.669 190.531 185.602 201.974 L 185.535 213.417 194.388 213.490 L 203.241 213.564 203.988 214.399 C 204.948 215.474,204.997 216.815,204.118 217.914 L 203.504 218.682 194.586 218.810 L 185.669 218.938 185.601 227.831 L 185.534 236.724 203.561 236.724 L 221.589 236.724 222.503 237.586 C 223.702 238.718,223.759 239.916,222.670 241.135 L 221.923 241.971 203.668 242.048 C 183.228 242.136,182.523 242.088,181.023 240.522 L 180.294 239.762 180.294 213.318 C 180.294 183.672,180.129 186.251,182.086 185.388 C 182.896 185.030,219.609 184.843,221.334 185.188 M307.358 346.513 C 307.358 346.654,307.530 346.769,307.742 346.769 C 307.953 346.769,308.125 346.654,308.125 346.513 C 308.125 346.372,307.953 346.257,307.742 346.257 C 307.530 346.257,307.358 346.372,307.358 346.513 " stroke="none" fill="#fbfbfb" fill-rule="evenodd"></path></g></svg>