<svg id="svg" version="1.1" xmlns="http://www.w3.org/2000/svg" xmlns:xlink="http://www.w3.org/1999/xlink" width="400" height="395.1715374841169" viewBox="0, 0, 400,395.1715374841169"><g id="svgg"><path id="path0" d="M96.315 114.870 C 95.826 114.982,93.882 115.210,91.995 115.376 C 90.108 115.542,88.450 115.764,88.310 115.868 C 88.170 115.973,87.027 116.204,85.769 116.382 C 84.511 116.561,83.367 116.791,83.227 116.894 C 83.088 116.997,82.230 117.222,81.321 117.395 C 80.413 117.568,79.555 117.796,79.416 117.902 C 79.276 118.008,78.447 118.241,77.573 118.421 C 76.699 118.601,75.985 118.847,75.985 118.967 C 75.985 119.088,75.803 119.187,75.581 119.187 C 75.005 119.187,70.619 120.720,70.020 121.131 C 69.744 121.319,69.375 121.474,69.200 121.474 C 68.435 121.474,58.898 126.400,56.431 128.071 C 56.074 128.312,55.267 128.842,54.638 129.248 C 54.009 129.654,53.437 130.049,53.367 130.127 C 53.297 130.205,52.783 130.545,52.224 130.883 C 50.849 131.713,45.112 136.357,42.869 138.454 C 35.184 145.639,29.527 153.165,24.020 163.532 C 23.033 165.390,20.839 170.481,20.839 170.912 C 20.839 171.116,20.738 171.283,20.615 171.283 C 20.491 171.283,20.254 171.825,20.088 172.487 C 19.921 173.149,19.696 173.807,19.589 173.948 C 19.481 174.090,19.243 174.778,19.060 175.476 C 18.877 176.175,18.643 176.861,18.540 177.001 C 18.438 177.141,18.208 177.942,18.030 178.780 C 17.851 179.619,17.625 180.419,17.526 180.559 C 17.428 180.699,17.210 181.614,17.042 182.592 C 16.873 183.571,16.637 184.600,16.517 184.879 C 14.571 189.411,14.099 206.727,15.622 217.662 C 15.896 219.629,17.240 225.896,17.530 226.557 C 17.652 226.836,17.890 227.694,18.058 228.463 C 18.226 229.231,18.451 229.975,18.556 230.114 C 18.662 230.254,18.894 231.026,19.072 231.830 C 19.249 232.633,19.477 233.291,19.577 233.291 C 19.677 233.291,19.827 233.634,19.911 234.053 C 19.995 234.473,20.295 235.324,20.578 235.945 C 20.861 236.567,21.093 237.150,21.093 237.241 C 21.093 238.309,26.151 247.967,28.939 252.224 C 33.920 259.827,43.923 270.771,48.519 273.645 C 48.879 273.870,49.346 274.202,49.555 274.383 C 51.155 275.761,54.771 278.248,57.052 279.537 C 57.891 280.011,58.634 280.463,58.704 280.542 C 59.164 281.063,69.408 286.133,70.051 286.159 C 70.170 286.163,70.724 286.388,71.283 286.658 C 71.842 286.928,72.481 287.153,72.702 287.158 C 72.924 287.163,73.190 287.252,73.295 287.357 C 73.400 287.462,73.562 287.558,73.655 287.570 C 73.748 287.582,73.996 287.659,74.206 287.741 C 74.693 287.932,76.580 288.538,76.747 288.557 C 76.817 288.565,76.989 288.646,77.130 288.736 C 77.271 288.826,77.843 288.982,78.401 289.082 C 78.959 289.183,79.530 289.348,79.670 289.449 C 79.809 289.549,80.667 289.773,81.576 289.946 C 82.484 290.120,83.456 290.360,83.736 290.482 C 84.482 290.806,88.596 291.475,92.376 291.888 C 94.193 292.087,96.454 292.364,97.400 292.503 C 98.346 292.643,101.117 292.757,103.558 292.757 C 105.999 292.757,108.770 292.643,109.716 292.503 C 110.662 292.364,112.922 292.089,114.740 291.893 C 119.567 291.371,128.383 289.477,130.750 288.453 C 131.029 288.332,132.001 287.974,132.910 287.658 C 155.526 279.785,175.024 261.990,184.473 240.597 C 184.766 239.933,185.235 238.882,185.515 238.260 C 185.794 237.639,186.023 237.061,186.023 236.976 C 186.023 236.891,186.243 236.337,186.513 235.746 C 186.782 235.155,187.084 234.332,187.183 233.917 C 187.282 233.503,187.454 233.048,187.564 232.906 C 187.674 232.765,187.903 232.079,188.074 231.382 C 188.244 230.685,188.469 230.000,188.573 229.860 C 188.677 229.720,188.908 228.920,189.086 228.081 C 189.265 227.243,189.491 226.442,189.589 226.302 C 189.687 226.163,189.906 225.248,190.074 224.269 C 190.242 223.291,190.476 222.262,190.593 221.982 C 190.845 221.380,191.408 218.135,191.387 217.408 C 191.379 217.128,191.479 216.557,191.609 216.137 C 192.646 212.796,192.642 193.900,191.603 191.105 C 191.474 190.756,191.376 190.241,191.386 189.962 C 191.420 189.066,189.989 181.989,189.587 181.067 C 189.466 180.788,189.296 180.216,189.210 179.797 C 188.993 178.737,187.815 174.874,187.428 173.952 C 187.252 173.532,186.784 172.274,186.389 171.156 C 185.994 170.038,185.594 169.066,185.502 168.996 C 185.410 168.926,185.192 168.434,185.019 167.903 C 184.626 166.698,181.315 160.203,180.135 158.323 C 177.133 153.538,176.253 152.236,174.387 149.809 C 174.280 149.670,173.796 149.041,173.311 148.412 C 169.948 144.045,163.881 137.936,159.238 134.240 C 157.456 132.822,154.659 130.718,153.844 130.183 C 151.999 128.971,151.404 128.588,149.936 127.671 C 148.122 126.538,144.997 124.809,142.821 123.735 C 140.528 122.604,138.027 121.474,137.812 121.472 C 137.702 121.472,137.308 121.313,136.937 121.119 C 136.566 120.926,135.823 120.625,135.285 120.452 C 134.747 120.279,134.192 120.046,134.050 119.935 C 133.908 119.824,133.222 119.593,132.525 119.423 C 131.828 119.253,131.144 119.031,131.004 118.929 C 130.864 118.828,130.121 118.601,129.352 118.424 C 128.583 118.248,127.840 118.021,127.700 117.921 C 127.560 117.820,126.703 117.596,125.794 117.423 C 124.886 117.250,123.914 117.005,123.634 116.879 C 122.924 116.558,119.140 115.914,115.375 115.473 C 113.628 115.269,111.562 114.992,110.785 114.857 C 109.105 114.566,97.591 114.576,96.315 114.870 " stroke="none" fill="#6a1d0d" fill-rule="evenodd"></path><path id="path1" d="M293.011 115.659 C 292.382 115.784,290.610 116.049,289.072 116.249 C 285.339 116.734,278.596 118.138,277.382 118.683 C 277.103 118.809,276.360 119.035,275.731 119.187 C 275.102 119.338,274.358 119.560,274.079 119.679 C 273.799 119.799,272.656 120.210,271.537 120.592 C 269.566 121.267,268.999 121.491,266.582 122.551 C 250.676 129.525,236.351 141.595,227.445 155.527 C 227.311 155.737,226.937 156.309,226.613 156.798 C 225.671 158.223,223.053 162.879,222.183 164.676 C 220.614 167.916,219.568 170.274,219.560 170.586 C 219.555 170.760,219.384 171.124,219.179 171.395 C 218.973 171.667,218.806 172.050,218.806 172.247 C 218.806 172.443,218.638 172.965,218.434 173.405 C 217.927 174.497,216.518 178.918,216.518 179.418 C 216.518 179.640,216.415 179.931,216.289 180.064 C 216.163 180.196,215.869 181.163,215.635 182.211 C 214.519 187.220,214.161 189.185,213.831 192.122 C 213.634 193.869,213.358 195.934,213.217 196.712 C 212.887 198.529,212.882 210.328,213.211 211.750 C 213.349 212.346,213.626 214.320,213.827 216.137 C 214.231 219.788,214.901 223.738,215.250 224.524 C 215.374 224.803,215.608 225.718,215.770 226.557 C 215.933 227.395,216.148 228.196,216.250 228.335 C 216.351 228.475,216.580 229.276,216.759 230.114 C 216.937 230.953,217.171 231.753,217.278 231.893 C 217.385 232.033,217.553 232.433,217.651 232.783 C 217.917 233.731,218.804 236.073,219.345 237.258 C 219.607 237.832,219.822 238.382,219.822 238.479 C 219.822 239.011,222.632 244.766,224.485 248.030 C 231.188 259.836,241.155 270.583,252.224 277.943 C 254.934 279.746,262.325 284.117,262.662 284.117 C 262.733 284.117,263.558 284.466,264.496 284.893 C 265.434 285.319,266.429 285.772,266.709 285.898 C 266.989 286.024,267.903 286.401,268.742 286.736 C 269.581 287.071,270.496 287.438,270.775 287.552 C 271.055 287.665,271.341 287.778,271.410 287.802 C 271.480 287.826,271.709 287.913,271.919 287.995 C 272.416 288.189,275.891 289.282,278.124 289.947 C 279.091 290.235,280.142 290.470,280.460 290.470 C 280.777 290.470,281.098 290.568,281.172 290.688 C 281.246 290.808,282.196 291.045,283.284 291.215 C 284.371 291.384,285.604 291.631,286.023 291.763 C 286.804 292.008,292.340 292.710,295.299 292.939 C 303.184 293.549,316.456 292.477,322.490 290.744 C 322.980 290.603,324.466 290.188,325.794 289.822 C 345.208 284.459,362.589 272.185,374.418 255.483 C 378.078 250.315,382.381 242.425,384.304 237.357 C 385.470 234.283,385.592 233.954,385.624 233.799 C 385.638 233.729,385.720 233.558,385.806 233.418 C 385.893 233.278,386.047 232.764,386.149 232.274 C 386.252 231.785,386.427 231.271,386.539 231.131 C 386.651 230.991,386.755 230.762,386.771 230.623 C 386.831 230.095,387.324 228.315,387.545 227.827 C 387.672 227.548,387.955 226.461,388.173 225.413 C 388.392 224.365,388.633 223.278,388.709 222.999 C 388.784 222.719,389.014 221.518,389.219 220.330 C 389.423 219.142,389.647 217.884,389.716 217.535 C 390.892 211.565,390.861 192.209,389.672 190.286 C 389.605 190.176,389.337 188.915,389.077 187.483 C 388.433 183.933,387.822 181.170,387.545 180.559 C 387.356 180.141,386.984 178.896,386.636 177.510 C 386.601 177.370,386.328 176.569,386.030 175.731 C 385.733 174.892,385.369 173.806,385.221 173.316 C 385.074 172.827,384.866 172.313,384.759 172.173 C 384.652 172.033,384.420 171.461,384.244 170.902 C 384.068 170.343,383.780 169.600,383.603 169.250 C 383.427 168.901,382.569 167.128,381.698 165.311 C 374.835 151.007,362.862 137.511,349.809 129.366 C 348.831 128.755,347.604 127.988,347.083 127.660 C 346.562 127.333,346.074 127.065,345.998 127.065 C 345.922 127.065,345.405 126.777,344.848 126.426 C 343.241 125.411,336.760 122.238,336.288 122.235 C 336.177 122.234,335.783 122.075,335.412 121.881 C 335.041 121.688,334.298 121.388,333.760 121.215 C 333.223 121.041,332.668 120.820,332.529 120.722 C 332.389 120.625,331.245 120.224,329.987 119.832 C 328.729 119.439,327.071 118.918,326.302 118.672 C 325.534 118.427,324.390 118.143,323.761 118.042 C 323.132 117.940,322.503 117.785,322.363 117.696 C 321.968 117.445,317.920 116.695,313.723 116.094 C 309.550 115.497,295.331 115.198,293.011 115.659 " stroke="none" fill="#9cc42c" fill-rule="evenodd"></path><path id="path2" d="M295.299 107.908 C 280.286 108.973,264.394 114.153,251.683 122.122 C 226.311 138.029,209.538 165.419,206.989 195.108 C 206.890 196.261,206.735 197.205,206.644 197.204 C 206.442 197.204,206.424 211.005,206.626 211.182 C 206.706 211.252,206.964 213.081,207.200 215.248 C 210.257 243.315,225.070 267.949,248.793 284.419 C 250.461 285.577,253.838 287.675,254.034 287.675 C 254.092 287.675,254.566 287.944,255.088 288.273 C 257.937 290.071,264.339 293.052,269.250 294.868 C 275.581 297.208,283.194 299.054,290.025 299.906 C 291.388 300.076,292.503 300.286,292.503 300.373 C 292.503 300.581,310.889 300.579,311.055 300.371 C 311.125 300.283,312.668 300.016,314.485 299.778 C 331.014 297.609,347.756 290.499,360.593 280.198 C 415.243 236.343,407.210 150.985,345.362 118.357 C 338.473 114.722,328.930 111.320,321.220 109.748 C 313.646 108.205,302.380 107.405,295.299 107.908 M313.723 116.094 C 317.920 116.695,321.968 117.445,322.363 117.696 C 322.503 117.785,323.132 117.940,323.761 118.042 C 324.390 118.143,325.534 118.427,326.302 118.672 C 327.071 118.918,328.729 119.439,329.987 119.832 C 331.245 120.224,332.389 120.625,332.529 120.722 C 332.668 120.820,333.223 121.041,333.760 121.215 C 334.298 121.388,335.041 121.688,335.412 121.881 C 335.783 122.075,336.177 122.234,336.288 122.235 C 336.760 122.238,343.241 125.411,344.848 126.426 C 345.405 126.777,345.922 127.065,345.998 127.065 C 346.074 127.065,346.562 127.333,347.083 127.660 C 347.604 127.988,348.831 128.755,349.809 129.366 C 362.862 137.511,374.835 151.007,381.698 165.311 C 382.569 167.128,383.427 168.901,383.603 169.250 C 383.780 169.600,384.068 170.343,384.244 170.902 C 384.420 171.461,384.652 172.033,384.759 172.173 C 384.866 172.313,385.074 172.827,385.221 173.316 C 385.369 173.806,385.733 174.892,386.030 175.731 C 386.328 176.569,386.601 177.370,386.636 177.510 C 386.984 178.896,387.356 180.141,387.545 180.559 C 387.822 181.170,388.433 183.933,389.077 187.483 C 389.337 188.915,389.605 190.176,389.672 190.286 C 390.861 192.209,390.892 211.565,389.716 217.535 C 389.647 217.884,389.423 219.142,389.219 220.330 C 389.014 221.518,388.784 222.719,388.709 222.999 C 388.633 223.278,388.392 224.365,388.173 225.413 C 387.955 226.461,387.672 227.548,387.545 227.827 C 387.324 228.315,386.831 230.095,386.771 230.623 C 386.755 230.762,386.651 230.991,386.539 231.131 C 386.427 231.271,386.252 231.785,386.149 232.274 C 386.047 232.764,385.893 233.278,385.806 233.418 C 385.720 233.558,385.638 233.729,385.624 233.799 C 385.609 233.869,385.513 234.155,385.409 234.435 C 375.229 261.808,353.236 282.242,325.794 289.822 C 324.466 290.188,322.980 290.603,322.490 290.744 C 316.456 292.477,303.184 293.549,295.299 292.939 C 292.340 292.710,286.804 292.008,286.023 291.763 C 285.604 291.631,284.371 291.384,283.284 291.215 C 282.196 291.045,281.246 290.808,281.172 290.688 C 281.098 290.568,280.777 290.470,280.460 290.470 C 280.142 290.470,279.091 290.235,278.124 289.947 C 275.891 289.282,272.416 288.189,271.919 287.995 C 271.709 287.913,271.480 287.826,271.410 287.802 C 271.341 287.778,271.055 287.665,270.775 287.552 C 270.496 287.438,269.581 287.071,268.742 286.736 C 267.903 286.401,266.989 286.024,266.709 285.898 C 266.429 285.772,265.434 285.319,264.496 284.893 C 263.558 284.466,262.733 284.117,262.662 284.117 C 262.325 284.117,254.934 279.746,252.224 277.943 C 239.637 269.574,228.489 256.791,221.927 243.202 C 220.612 240.478,219.822 238.706,219.822 238.479 C 219.822 238.382,219.607 237.832,219.345 237.258 C 218.804 236.073,217.917 233.731,217.651 232.783 C 217.553 232.433,217.385 232.033,217.278 231.893 C 217.171 231.753,216.937 230.953,216.759 230.114 C 216.580 229.276,216.351 228.475,216.250 228.335 C 216.148 228.196,215.933 227.395,215.770 226.557 C 215.608 225.718,215.374 224.803,215.250 224.524 C 214.901 223.738,214.231 219.788,213.827 216.137 C 213.626 214.320,213.349 212.346,213.211 211.750 C 212.882 210.328,212.887 198.529,213.217 196.712 C 213.358 195.934,213.634 193.869,213.831 192.122 C 214.161 189.185,214.519 187.220,215.635 182.211 C 215.869 181.163,216.163 180.196,216.289 180.064 C 216.415 179.931,216.518 179.640,216.518 179.418 C 216.518 178.918,217.927 174.497,218.434 173.405 C 218.638 172.965,218.806 172.443,218.806 172.247 C 218.806 172.050,218.973 171.667,219.179 171.395 C 219.384 171.124,219.555 170.760,219.560 170.586 C 219.568 170.274,220.614 167.916,222.183 164.676 C 223.053 162.879,225.671 158.223,226.613 156.798 C 226.937 156.309,227.311 155.737,227.445 155.527 C 236.351 141.595,250.676 129.525,266.582 122.551 C 268.999 121.491,269.566 121.267,271.537 120.592 C 272.656 120.210,273.799 119.799,274.079 119.679 C 274.358 119.560,275.102 119.338,275.731 119.187 C 276.360 119.035,277.103 118.809,277.382 118.683 C 278.596 118.138,285.339 116.734,289.072 116.249 C 290.610 116.049,292.382 115.784,293.011 115.659 C 295.331 115.198,309.550 115.497,313.723 116.094 " stroke="none" fill="#b4d364" fill-rule="evenodd"></path><path id="path3" d="M98.412 106.668 C 95.123 106.898,97.626 107.116,103.558 107.116 C 107.122 107.116,110.038 107.047,110.038 106.963 C 110.038 106.582,102.410 106.388,98.412 106.668 M90.886 107.382 C 89.508 107.570,88.316 107.787,88.239 107.864 C 87.870 108.234,88.581 108.238,91.112 107.883 C 92.625 107.671,94.300 107.497,94.835 107.497 C 95.369 107.497,95.807 107.382,95.807 107.243 C 95.807 106.909,93.984 106.960,90.886 107.382 M111.309 107.164 C 111.309 107.297,112.710 107.548,114.422 107.722 C 116.134 107.895,117.792 108.100,118.107 108.176 C 118.421 108.252,118.679 108.199,118.679 108.059 C 118.679 107.761,116.389 107.343,113.405 107.096 C 112.130 106.991,111.309 107.017,111.309 107.164 M294.282 107.417 C 259.519 111.039,231.158 130.363,216.193 160.623 C 213.799 165.462,212.457 168.698,210.946 173.271 C 208.235 181.474,205.344 197.205,206.548 197.205 C 206.691 197.205,206.890 196.261,206.989 195.108 C 208.651 175.750,216.546 156.769,229.212 141.678 C 251.696 114.890,286.745 102.727,321.220 109.749 C 324.731 110.464,328.051 111.387,332.529 112.892 C 376.930 127.819,403.968 174.388,395.573 221.478 C 388.239 262.616,355.180 294.517,314.422 299.786 C 310.771 300.258,309.725 300.820,313.024 300.536 C 319.032 300.021,332.700 296.582,336.389 294.658 C 336.782 294.453,337.200 294.285,337.319 294.284 C 337.533 294.282,337.876 294.139,340.534 292.938 C 358.783 284.692,373.621 271.450,384.072 254.081 C 385.890 251.059,390.343 242.101,390.343 241.464 C 390.343 241.354,390.572 240.791,390.851 240.212 C 391.131 239.634,391.360 239.006,391.360 238.818 C 391.360 238.629,391.461 238.367,391.585 238.234 C 391.933 237.862,394.038 231.002,394.911 227.397 C 398.696 211.761,398.507 194.404,394.383 178.946 C 393.548 175.813,391.830 170.415,391.585 170.152 C 391.461 170.020,391.360 169.757,391.360 169.568 C 391.360 169.380,391.131 168.752,390.851 168.174 C 390.572 167.595,390.343 167.032,390.343 166.923 C 390.343 166.686,389.439 164.651,387.915 161.458 C 381.280 147.558,369.683 133.884,356.685 124.636 C 352.183 121.432,345.873 117.829,340.788 115.560 C 340.019 115.217,338.848 114.692,338.186 114.393 C 337.523 114.094,336.831 113.850,336.648 113.850 C 336.465 113.850,336.206 113.750,336.074 113.627 C 335.779 113.355,330.577 111.598,327.446 110.713 C 325.431 110.143,323.071 109.583,319.187 108.753 C 317.929 108.484,313.409 107.860,310.038 107.489 C 308.015 107.267,296.241 107.213,294.282 107.417 M84.944 108.368 C 83.439 108.664,82.884 108.894,83.122 109.124 C 83.310 109.307,87.675 108.438,87.675 108.218 C 87.675 107.940,86.897 107.983,84.944 108.368 M119.441 108.204 C 119.441 108.346,120.213 108.594,121.156 108.756 C 122.100 108.919,123.129 109.114,123.443 109.191 C 123.758 109.268,124.015 109.218,124.015 109.079 C 124.015 108.809,122.589 108.403,120.648 108.122 C 119.889 108.012,119.441 108.043,119.441 108.204 M80.432 109.414 C 77.042 110.310,75.945 110.633,73.891 111.340 C 69.252 112.938,67.742 113.546,67.637 113.861 C 67.561 114.090,67.669 114.126,68.009 113.983 C 71.482 112.518,76.706 110.819,80.368 109.964 C 81.591 109.678,82.592 109.349,82.592 109.233 C 82.592 108.954,81.978 109.005,80.432 109.414 M124.524 109.238 C 124.524 109.378,125.178 109.630,125.978 109.796 C 126.778 109.962,127.579 110.154,127.757 110.222 C 127.935 110.291,128.081 110.238,128.081 110.106 C 128.081 109.869,126.981 109.484,125.349 109.150 C 124.852 109.048,124.524 109.083,124.524 109.238 M128.590 110.229 C 128.590 110.334,129.819 110.801,131.322 111.267 C 138.945 113.634,147.685 117.568,152.960 121.008 C 153.557 121.398,153.786 121.458,153.701 121.205 C 153.501 120.602,145.935 116.403,142.186 114.814 C 137.442 112.804,135.100 111.929,131.179 110.700 C 128.916 109.991,128.590 109.932,128.590 110.229 M66.328 114.166 C 62.901 115.686,58.958 117.686,58.958 117.904 C 58.958 118.053,60.187 117.564,61.690 116.818 C 63.193 116.071,65.079 115.199,65.883 114.880 C 66.687 114.561,67.344 114.198,67.344 114.075 C 67.344 113.792,67.128 113.811,66.328 114.166 M55.273 119.773 C 48.075 124.141,41.665 129.054,37.484 133.406 C 36.645 134.279,35.288 135.639,34.468 136.429 C 31.594 139.196,27.033 144.840,23.919 149.482 C 21.154 153.604,16.552 161.999,16.878 162.325 C 17.089 162.536,17.072 162.563,18.683 159.339 C 26.666 143.364,41.106 128.173,56.480 119.577 C 58.431 118.486,59.139 117.909,58.513 117.919 C 58.409 117.921,56.950 118.755,55.273 119.773 M154.003 121.431 C 154.003 121.547,154.603 122.029,155.337 122.501 C 171.675 133.011,185.119 149.636,192.269 168.170 C 192.659 169.184,193.072 170.013,193.186 170.013 C 193.489 170.013,193.470 169.940,192.534 167.525 C 185.637 149.752,172.586 133.578,156.235 122.543 C 154.210 121.177,154.003 121.073,154.003 121.431 M16.077 163.723 C 14.245 167.702,11.375 175.919,10.796 178.844 C 10.521 180.238,11.108 179.772,11.437 178.335 C 12.000 175.875,14.409 168.590,15.239 166.836 C 15.371 166.557,15.656 165.899,15.872 165.375 C 16.088 164.851,16.437 164.022,16.649 163.532 C 17.201 162.255,16.672 162.431,16.077 163.723 M193.139 170.379 C 193.139 170.441,193.419 171.270,193.763 172.222 C 194.106 173.173,194.511 174.438,194.662 175.032 C 194.899 175.962,195.426 176.552,195.426 175.887 C 195.426 175.647,194.305 172.139,193.854 170.966 C 193.631 170.385,193.139 169.982,193.139 170.379 M195.270 177.065 C 195.343 177.309,195.536 178.053,195.698 178.717 C 195.861 179.381,196.107 179.924,196.246 179.924 C 196.392 179.924,196.426 179.630,196.329 179.225 C 195.833 177.172,195.636 176.620,195.399 176.620 C 195.255 176.620,195.197 176.820,195.270 177.065 M10.185 181.131 C 10.046 181.655,9.852 182.587,9.756 183.203 C 9.490 184.888,10.068 184.297,10.420 182.524 C 10.579 181.723,10.765 180.867,10.835 180.623 C 10.905 180.378,10.844 180.178,10.700 180.178 C 10.557 180.178,10.325 180.607,10.185 181.131 M196.188 180.312 C 196.188 181.018,197.069 184.498,197.248 184.498 C 197.528 184.498,197.505 184.163,197.095 182.250 C 196.801 180.879,196.188 179.569,196.188 180.312 M9.191 185.959 C 8.746 188.075,8.567 190.089,8.824 190.089 C 8.958 190.089,9.209 189.088,9.382 187.865 C 9.555 186.642,9.753 185.442,9.821 185.197 C 9.889 184.952,9.833 184.752,9.695 184.752 C 9.558 184.752,9.331 185.295,9.191 185.959 M197.297 185.705 C 197.371 186.090,197.575 187.405,197.752 188.628 C 197.929 189.851,198.164 190.851,198.274 190.851 C 198.546 190.851,198.527 189.976,198.217 188.166 C 198.075 187.337,197.898 186.287,197.824 185.832 C 197.750 185.378,197.572 185.006,197.427 185.006 C 197.277 185.006,197.222 185.307,197.297 185.705 M8.293 191.931 C 7.340 198.736,7.610 215.611,8.688 216.645 C 8.871 216.821,8.904 216.468,8.795 215.502 C 7.950 207.981,7.945 199.623,8.781 192.186 C 8.961 190.583,8.514 190.350,8.293 191.931 M198.310 192.821 C 199.008 198.268,199.006 210.116,198.307 214.549 C 198.217 215.115,198.259 215.502,198.410 215.502 C 198.779 215.502,198.931 214.220,199.249 208.446 C 199.608 201.910,199.095 191.614,198.410 191.614 C 198.254 191.614,198.216 192.082,198.310 192.821 M206.214 198.241 C 205.914 198.726,206.022 210.190,206.329 210.497 C 206.531 210.698,206.607 209.013,206.607 204.371 C 206.607 198.162,206.575 197.657,206.214 198.241 M206.469 213.738 C 207.043 221.836,210.074 234.220,213.213 241.296 C 213.337 241.576,213.855 242.776,214.365 243.964 C 223.672 265.667,241.897 283.624,264.930 293.784 C 271.681 296.762,283.752 299.940,290.534 300.525 C 293.405 300.773,292.998 300.277,290.025 299.906 C 283.194 299.054,275.581 297.208,269.250 294.868 C 264.339 293.052,257.937 290.071,255.088 288.273 C 254.566 287.944,254.092 287.675,254.034 287.675 C 253.838 287.675,250.461 285.577,248.793 284.419 C 225.052 267.936,210.239 243.285,207.192 215.184 C 206.708 210.719,206.180 209.663,206.469 213.738 M197.644 219.120 C 197.265 221.796,197.256 222.397,197.601 222.052 C 197.767 221.886,198.473 217.671,198.474 216.836 C 198.477 215.282,198.003 216.585,197.644 219.120 M8.641 217.598 C 8.646 219.108,9.494 222.866,9.768 222.591 C 9.962 222.397,9.086 217.281,8.859 217.281 C 8.739 217.281,8.641 217.424,8.641 217.598 M196.697 224.333 C 196.538 225.137,196.350 225.994,196.280 226.239 C 196.211 226.483,196.271 226.684,196.415 226.684 C 196.677 226.684,197.023 225.619,197.344 223.825 C 197.629 222.238,197.017 222.718,196.697 224.333 M9.666 223.571 C 9.678 224.179,10.351 226.954,10.529 227.132 C 10.868 227.471,10.857 226.947,10.488 225.095 C 10.136 223.331,9.642 222.416,9.666 223.571 M195.725 228.399 C 195.147 230.621,194.373 233.138,193.263 236.404 C 192.658 238.186,192.259 239.644,192.378 239.644 C 192.800 239.644,196.434 228.789,196.441 227.510 C 196.444 226.755,196.014 227.290,195.725 228.399 M10.787 228.399 C 11.282 230.451,11.480 231.004,11.717 231.004 C 11.861 231.004,11.919 230.804,11.846 230.559 C 11.773 230.314,11.580 229.571,11.417 228.907 C 11.254 228.243,11.008 227.700,10.870 227.700 C 10.724 227.700,10.689 227.994,10.787 228.399 M11.690 231.716 C 11.690 231.965,13.199 236.420,13.966 238.437 C 14.272 239.241,14.640 239.898,14.785 239.898 C 14.935 239.898,14.970 239.708,14.867 239.454 C 14.228 237.888,12.927 234.206,12.577 232.973 C 12.230 231.751,11.690 230.986,11.690 231.716 M191.113 241.995 C 190.033 244.644,186.405 251.769,185.051 253.899 C 184.074 255.436,183.909 255.891,184.453 255.555 C 185.303 255.030,192.376 241.191,192.376 240.053 C 192.376 239.397,191.830 240.237,191.113 241.995 M14.740 240.326 C 14.740 240.685,17.180 245.981,18.641 248.793 C 21.873 255.012,26.976 262.685,29.984 265.847 C 30.545 266.436,31.004 267.020,31.004 267.143 C 31.004 267.638,40.988 277.316,43.837 279.584 C 50.030 284.511,62.279 292.062,62.966 291.375 C 63.159 291.182,63.327 291.282,59.460 289.278 C 44.312 281.424,31.129 269.021,22.225 254.245 C 19.736 250.115,16.047 242.815,15.392 240.724 C 15.230 240.206,14.740 239.907,14.740 240.326 M182.264 258.259 C 172.923 272.437,153.914 288.046,140.216 292.784 C 139.209 293.132,138.857 293.680,139.835 293.377 C 142.112 292.670,149.656 288.853,153.390 286.518 C 164.787 279.390,174.776 269.900,181.998 259.339 C 184.287 255.992,184.337 255.909,184.043 255.909 C 183.916 255.909,183.115 256.966,182.264 258.259 M63.278 291.496 C 63.278 291.807,65.040 292.605,65.254 292.391 C 65.455 292.190,65.286 292.065,64.218 291.618 C 63.630 291.373,63.278 291.327,63.278 291.496 M65.565 292.513 C 65.565 292.662,65.994 292.954,66.518 293.163 C 67.043 293.372,67.700 293.650,67.980 293.780 C 68.803 294.166,72.695 295.553,72.953 295.553 C 73.478 295.553,73.144 295.088,72.504 294.928 C 71.853 294.764,68.572 293.513,66.518 292.645 C 65.927 292.395,65.565 292.345,65.565 292.513 M137.802 293.718 C 136.831 294.091,136.364 294.536,136.945 294.536 C 137.424 294.536,139.009 293.753,139.009 293.516 C 139.009 293.378,138.980 293.274,138.945 293.284 C 138.910 293.295,138.396 293.490,137.802 293.718 M133.502 295.269 C 131.008 296.156,130.144 296.583,130.898 296.556 C 131.653 296.529,136.320 294.851,136.413 294.574 C 136.540 294.191,136.512 294.198,133.502 295.269 M73.443 295.506 C 73.443 296.511,87.996 299.774,94.727 300.278 C 98.771 300.581,97.377 299.995,92.948 299.530 C 86.203 298.822,78.303 297.109,73.786 295.376 C 73.597 295.303,73.443 295.362,73.443 295.506 M126.811 297.220 C 125.064 297.686,122.519 298.265,121.156 298.507 C 118.943 298.898,117.861 299.365,119.166 299.365 C 119.727 299.365,124.988 298.251,127.065 297.692 C 127.834 297.485,128.891 297.201,129.416 297.060 C 129.940 296.918,130.368 296.693,130.368 296.559 C 130.368 296.253,130.571 296.215,126.811 297.220 M113.659 299.570 C 111.668 299.781,110.038 300.067,110.038 300.204 C 110.038 300.644,117.738 299.829,118.285 299.331 C 118.578 299.063,118.294 299.078,113.659 299.570 M98.475 300.381 C 98.571 300.536,100.548 300.635,103.558 300.635 C 106.567 300.635,108.544 300.536,108.640 300.381 C 108.743 300.215,106.986 300.127,103.558 300.127 C 100.129 300.127,98.372 300.215,98.475 300.381 M293.291 300.762 C 293.450 300.922,296.671 301.017,301.906 301.017 C 307.141 301.017,310.362 300.922,310.521 300.762 C 310.690 300.593,307.819 300.508,301.906 300.508 C 295.993 300.508,293.122 300.593,293.291 300.762 " stroke="none" fill="#d4d1b2" fill-rule="evenodd"></path><path id="path4" d="M95.807 107.288 C 95.807 107.403,95.369 107.497,94.835 107.497 C 94.300 107.497,92.648 107.667,91.164 107.876 C 89.680 108.084,88.288 108.186,88.070 108.103 C 87.853 108.019,87.675 108.061,87.675 108.196 C 87.675 108.428,84.316 109.126,83.227 109.120 C 82.948 109.119,82.662 109.195,82.592 109.290 C 82.522 109.384,81.493 109.692,80.305 109.974 C 77.181 110.715,74.216 111.632,71.029 112.841 C 69.492 113.425,68.034 113.915,67.789 113.931 C 67.544 113.946,67.344 114.036,67.344 114.129 C 67.344 114.223,66.687 114.561,65.883 114.880 C 65.079 115.199,63.193 116.071,61.690 116.818 C 60.187 117.564,58.956 118.088,58.954 117.982 C 58.952 117.876,58.866 117.921,58.764 118.082 C 58.661 118.243,57.433 119.032,56.036 119.835 C 50.090 123.253,43.298 128.325,38.577 132.872 C 37.137 134.259,35.845 135.406,35.705 135.422 C 35.565 135.438,35.451 135.548,35.451 135.667 C 35.451 135.785,34.609 136.786,33.581 137.890 C 28.000 143.882,22.339 152.030,18.681 159.339 C 17.876 160.947,17.146 162.319,17.059 162.389 C 16.971 162.459,16.867 162.687,16.828 162.897 C 16.764 163.238,15.848 165.500,15.232 166.836 C 14.366 168.718,11.993 175.906,11.437 178.335 C 11.268 179.069,11.016 179.670,10.875 179.670 C 10.734 179.670,10.678 179.824,10.750 180.012 C 10.892 180.381,10.280 183.603,9.977 184.081 C 9.876 184.240,9.777 184.670,9.757 185.035 C 9.663 186.722,9.042 190.089,8.824 190.089 C 8.690 190.089,8.642 190.323,8.717 190.609 C 8.792 190.895,8.693 193.097,8.496 195.501 C 8.067 200.755,8.037 205.989,8.409 210.801 C 8.560 212.757,8.702 214.987,8.725 215.756 C 8.749 216.525,8.839 217.211,8.927 217.281 C 9.171 217.475,9.894 222.366,9.739 222.771 C 9.664 222.966,9.716 223.126,9.855 223.126 C 10.098 223.126,10.769 226.017,10.769 227.065 C 10.769 227.344,10.851 227.630,10.951 227.700 C 11.242 227.904,11.922 230.765,11.772 231.156 C 11.697 231.352,11.754 231.512,11.899 231.512 C 12.044 231.512,12.349 232.170,12.578 232.973 C 12.807 233.777,13.415 235.578,13.930 236.976 C 14.445 238.374,14.851 239.660,14.831 239.835 C 14.812 240.010,14.890 240.152,15.005 240.152 C 15.120 240.152,15.294 240.410,15.392 240.724 C 16.992 245.835,23.802 257.483,29.083 264.142 C 30.070 265.385,30.848 266.500,30.813 266.620 C 30.778 266.739,30.835 266.808,30.940 266.773 C 31.045 266.739,32.286 267.968,33.698 269.505 C 41.034 277.491,49.959 284.343,59.460 289.282 C 61.350 290.265,62.954 291.135,63.024 291.215 C 63.094 291.294,63.323 291.392,63.532 291.432 C 64.229 291.564,65.311 292.054,65.311 292.238 C 65.311 292.337,65.454 292.419,65.629 292.419 C 65.804 292.419,67.262 292.945,68.869 293.587 C 70.476 294.229,72.106 294.832,72.490 294.927 C 72.875 295.022,73.189 295.208,73.189 295.341 C 73.189 295.474,73.282 295.525,73.396 295.455 C 73.509 295.385,74.682 295.668,76.001 296.084 C 81.458 297.805,86.850 298.901,93.011 299.542 C 95.178 299.768,97.008 300.020,97.078 300.103 C 97.241 300.298,109.870 300.302,110.038 300.107 C 110.219 299.898,118.193 299.095,118.459 299.259 C 118.580 299.334,118.679 299.290,118.679 299.163 C 118.679 299.035,119.508 298.797,120.521 298.633 C 121.534 298.469,124.022 297.920,126.048 297.415 C 128.075 296.909,129.907 296.478,130.119 296.457 C 130.331 296.435,130.617 296.353,130.754 296.274 C 131.133 296.055,136.050 294.417,136.341 294.413 C 136.480 294.411,136.652 294.344,136.722 294.265 C 136.963 293.990,139.009 293.270,139.013 293.458 C 139.015 293.562,139.101 293.530,139.203 293.388 C 139.306 293.246,140.419 292.692,141.677 292.158 C 156.976 285.658,173.067 272.220,182.264 258.259 C 183.115 256.966,183.890 255.909,183.986 255.909 C 184.081 255.909,184.160 255.766,184.161 255.591 C 184.162 255.416,184.574 254.633,185.076 253.851 C 186.308 251.930,189.784 245.134,190.977 242.313 C 191.509 241.055,192.013 239.968,192.097 239.898 C 192.180 239.828,192.284 239.600,192.326 239.390 C 192.368 239.180,192.844 237.694,193.383 236.086 C 194.398 233.057,195.184 230.478,195.725 228.399 C 195.898 227.735,196.142 227.192,196.268 227.192 C 196.394 227.192,196.437 227.038,196.365 226.850 C 196.178 226.363,196.908 223.055,197.249 222.844 C 197.405 222.748,197.467 222.498,197.387 222.290 C 197.217 221.846,197.956 216.451,198.213 216.264 C 198.309 216.194,198.384 215.680,198.378 215.121 C 198.373 214.562,198.515 211.678,198.694 208.712 C 198.961 204.298,198.959 202.409,198.686 198.293 C 198.503 195.528,198.364 192.722,198.376 192.058 C 198.389 191.395,198.324 190.851,198.233 190.851 C 198.041 190.851,197.364 186.565,197.360 185.324 C 197.358 184.870,197.285 184.498,197.197 184.498 C 196.958 184.498,196.137 180.466,196.317 180.175 C 196.402 180.037,196.365 179.924,196.234 179.924 C 195.934 179.924,195.166 176.930,195.346 176.461 C 195.420 176.269,195.358 176.112,195.209 176.112 C 195.059 176.112,194.813 175.626,194.662 175.032 C 194.511 174.438,194.105 173.171,193.761 172.216 C 193.416 171.261,193.199 170.375,193.278 170.246 C 193.358 170.118,193.323 170.013,193.201 170.013 C 193.079 170.013,192.659 169.184,192.269 168.170 C 185.213 149.878,172.756 134.289,156.287 123.139 C 155.100 122.336,154.072 121.604,154.003 121.513 C 153.933 121.422,153.761 121.326,153.621 121.301 C 153.482 121.276,152.395 120.666,151.207 119.945 C 145.985 116.777,138.526 113.519,131.385 111.286 C 129.917 110.827,128.658 110.367,128.586 110.263 C 128.514 110.160,128.285 110.095,128.078 110.120 C 127.354 110.206,124.524 109.502,124.524 109.236 C 124.524 109.088,124.357 109.031,124.153 109.109 C 123.690 109.287,119.617 108.537,119.431 108.240 C 119.356 108.120,119.013 108.047,118.669 108.077 C 117.733 108.159,111.309 107.439,111.309 107.252 C 111.309 107.163,107.821 107.088,103.558 107.085 C 99.295 107.082,95.807 107.174,95.807 107.288 M110.785 114.857 C 111.562 114.992,113.628 115.269,115.375 115.473 C 119.140 115.914,122.924 116.558,123.634 116.879 C 123.914 117.005,124.886 117.250,125.794 117.423 C 126.703 117.596,127.560 117.820,127.700 117.921 C 127.840 118.021,128.583 118.248,129.352 118.424 C 130.121 118.601,130.864 118.828,131.004 118.929 C 131.144 119.031,131.828 119.253,132.525 119.423 C 133.222 119.593,133.908 119.824,134.050 119.935 C 134.192 120.046,134.747 120.279,135.285 120.452 C 135.823 120.625,136.566 120.926,136.937 121.119 C 137.308 121.313,137.702 121.472,137.812 121.472 C 138.027 121.474,140.528 122.604,142.821 123.735 C 144.997 124.809,148.122 126.538,149.936 127.671 C 151.404 128.588,151.999 128.971,153.844 130.183 C 154.659 130.718,157.456 132.822,159.238 134.240 C 163.881 137.936,169.948 144.045,173.311 148.412 C 173.796 149.041,174.280 149.670,174.387 149.809 C 176.253 152.236,177.133 153.538,180.135 158.323 C 181.315 160.203,184.626 166.698,185.019 167.903 C 185.192 168.434,185.410 168.926,185.502 168.996 C 185.594 169.066,185.994 170.038,186.389 171.156 C 186.784 172.274,187.252 173.532,187.428 173.952 C 187.815 174.874,188.993 178.737,189.210 179.797 C 189.296 180.216,189.466 180.788,189.587 181.067 C 189.989 181.989,191.420 189.066,191.386 189.962 C 191.376 190.241,191.474 190.756,191.603 191.105 C 192.642 193.900,192.646 212.796,191.609 216.137 C 191.479 216.557,191.379 217.128,191.387 217.408 C 191.408 218.135,190.845 221.380,190.593 221.982 C 190.476 222.262,190.242 223.291,190.074 224.269 C 189.906 225.248,189.687 226.163,189.589 226.302 C 189.491 226.442,189.265 227.243,189.086 228.081 C 188.908 228.920,188.677 229.720,188.573 229.860 C 188.469 230.000,188.244 230.685,188.074 231.382 C 187.903 232.079,187.674 232.765,187.564 232.906 C 187.454 233.048,187.282 233.503,187.183 233.917 C 187.084 234.332,186.782 235.155,186.513 235.746 C 186.243 236.337,186.023 236.891,186.023 236.976 C 186.023 237.061,185.794 237.639,185.515 238.260 C 185.235 238.882,184.766 239.933,184.473 240.597 C 175.024 261.990,155.526 279.785,132.910 287.658 C 132.001 287.974,131.029 288.332,130.750 288.453 C 128.383 289.477,119.567 291.371,114.740 291.893 C 112.922 292.089,110.662 292.364,109.716 292.503 C 108.770 292.643,105.999 292.757,103.558 292.757 C 101.117 292.757,98.346 292.643,97.400 292.503 C 96.454 292.364,94.193 292.087,92.376 291.888 C 88.596 291.475,84.482 290.806,83.736 290.482 C 83.456 290.360,82.484 290.120,81.576 289.946 C 80.667 289.773,79.809 289.549,79.670 289.449 C 79.530 289.348,78.959 289.183,78.401 289.082 C 77.843 288.982,77.271 288.826,77.130 288.736 C 76.989 288.646,76.817 288.565,76.747 288.557 C 76.580 288.538,74.693 287.932,74.206 287.741 C 73.996 287.659,73.748 287.582,73.655 287.570 C 73.562 287.558,73.400 287.462,73.295 287.357 C 73.190 287.252,72.924 287.163,72.702 287.158 C 72.481 287.153,71.842 286.928,71.283 286.658 C 70.724 286.388,70.170 286.163,70.051 286.159 C 69.408 286.133,59.164 281.063,58.704 280.542 C 58.634 280.463,57.891 280.011,57.052 279.537 C 54.771 278.248,51.155 275.761,49.555 274.383 C 49.346 274.202,48.879 273.870,48.519 273.645 C 43.923 270.771,33.920 259.827,28.939 252.224 C 26.151 247.967,21.093 238.309,21.093 237.241 C 21.093 237.150,20.861 236.567,20.578 235.945 C 20.295 235.324,19.995 234.473,19.911 234.053 C 19.827 233.634,19.677 233.291,19.577 233.291 C 19.477 233.291,19.249 232.633,19.072 231.830 C 18.894 231.026,18.662 230.254,18.556 230.114 C 18.451 229.975,18.226 229.231,18.058 228.463 C 17.890 227.694,17.652 226.836,17.530 226.557 C 17.240 225.896,15.896 219.629,15.622 217.662 C 14.295 208.136,14.294 198.795,15.620 189.454 C 15.901 187.476,16.320 185.339,16.517 184.879 C 16.637 184.600,16.873 183.571,17.042 182.592 C 17.210 181.614,17.428 180.699,17.526 180.559 C 17.625 180.419,17.851 179.619,18.030 178.780 C 18.208 177.942,18.438 177.141,18.540 177.001 C 18.643 176.861,18.877 176.175,19.060 175.476 C 19.243 174.778,19.481 174.090,19.589 173.948 C 19.696 173.807,19.921 173.149,20.088 172.487 C 20.254 171.825,20.491 171.283,20.615 171.283 C 20.738 171.283,20.839 171.116,20.839 170.912 C 20.839 170.481,23.033 165.390,24.020 163.532 C 29.527 153.165,35.184 145.639,42.869 138.454 C 45.112 136.357,50.849 131.713,52.224 130.883 C 52.783 130.545,53.297 130.205,53.367 130.127 C 53.437 130.049,54.009 129.654,54.638 129.248 C 55.267 128.842,56.074 128.312,56.431 128.071 C 58.898 126.400,68.435 121.474,69.200 121.474 C 69.375 121.474,69.744 121.319,70.020 121.131 C 70.619 120.720,75.005 119.187,75.581 119.187 C 75.803 119.187,75.985 119.088,75.985 118.967 C 75.985 118.847,76.699 118.601,77.573 118.421 C 78.447 118.241,79.276 118.008,79.416 117.902 C 79.555 117.796,80.413 117.568,81.321 117.395 C 82.230 117.222,83.088 116.997,83.227 116.894 C 83.367 116.791,84.511 116.561,85.769 116.382 C 87.027 116.204,88.170 115.973,88.310 115.868 C 88.450 115.764,90.108 115.542,91.995 115.376 C 93.882 115.210,95.826 114.982,96.315 114.870 C 97.591 114.576,109.105 114.566,110.785 114.857 " stroke="none" fill="#a87b6f" fill-rule="evenodd"></path></g></svg>