<svg id="svg" version="1.1" xmlns="http://www.w3.org/2000/svg" xmlns:xlink="http://www.w3.org/1999/xlink" width="400" height="411.1471160077771" viewBox="0, 0, 400,411.1471160077771"><g id="svgg"><path id="path0" d="M247.807 0.102 C 247.748 0.158,246.358 0.246,244.718 0.297 C 242.538 0.364,241.496 0.511,240.840 0.843 C 240.346 1.092,239.816 1.296,239.661 1.296 C 238.908 1.296,236.941 3.920,236.941 4.925 C 236.941 5.228,236.562 6.257,236.099 7.210 L 235.256 8.944 235.189 94.035 L 235.123 179.127 181.787 179.194 L 128.451 179.261 127.382 179.957 C 126.046 180.826,125.297 181.765,124.910 183.055 C 124.745 183.606,124.512 184.057,124.392 184.057 C 124.272 184.057,124.174 233.344,124.174 293.584 C 124.174 353.824,124.269 403.111,124.386 403.111 C 124.503 403.111,124.759 403.701,124.956 404.423 C 125.309 405.719,125.785 406.270,128.019 407.967 L 128.781 408.545 184.581 408.552 L 240.381 408.559 241.294 407.715 C 241.797 407.250,242.510 406.577,242.880 406.220 C 243.249 405.863,245.126 404.521,247.051 403.239 C 248.976 401.957,250.668 400.775,250.810 400.613 C 250.953 400.451,253.927 398.401,257.421 396.057 C 264.607 391.235,277.425 382.621,287.233 376.022 C 290.868 373.575,297.984 368.794,303.046 365.398 C 315.146 357.277,316.211 356.404,316.914 354.039 C 317.409 352.371,317.516 10.519,317.022 8.684 C 316.868 8.114,316.415 7.233,316.016 6.727 C 315.616 6.221,315.028 5.200,314.708 4.457 C 313.580 1.834,311.426 0.556,307.595 0.239 C 305.061 0.028,248.023 -0.102,247.807 0.102 M305.574 180.989 L 305.509 349.793 303.176 351.385 C 301.892 352.261,296.176 356.111,290.473 359.940 C 284.770 363.770,277.304 368.790,273.882 371.096 C 270.460 373.403,263.519 378.069,258.458 381.466 C 241.561 392.807,238.113 395.153,237.255 395.895 L 236.403 396.631 186.316 396.566 L 136.228 396.500 136.161 379.974 L 136.095 363.448 147.641 363.448 L 159.188 363.448 160.478 362.794 C 163.989 361.015,164.769 356.299,161.982 353.693 C 160.303 352.123,160.805 352.182,148.023 352.041 L 136.228 351.912 136.228 327.483 L 136.228 303.053 146.598 302.985 C 156.481 302.920,157.022 302.891,158.134 302.376 C 162.132 300.525,162.874 295.477,159.550 292.737 C 158.032 291.485,156.990 291.380,146.065 291.380 L 136.096 291.380 136.162 264.874 L 136.228 238.367 148.542 238.237 C 162.280 238.093,161.589 238.187,163.375 236.210 C 165.360 234.012,165.219 230.710,163.048 228.598 C 161.228 226.827,161.286 226.834,147.959 226.832 L 136.099 226.831 136.099 208.818 L 136.099 190.805 187.622 190.736 L 239.145 190.668 240.343 189.951 C 241.617 189.189,242.756 187.767,243.047 186.576 C 243.149 186.160,243.529 185.696,243.943 185.482 C 244.995 184.937,246.214 183.269,246.516 181.959 C 246.691 181.198,246.781 152.700,246.786 96.673 C 246.789 50.394,246.870 12.452,246.965 12.357 C 247.060 12.262,260.300 12.184,276.388 12.184 L 305.639 12.184 305.574 180.989 " stroke="none" fill="#3c5404" fill-rule="evenodd"></path><path id="path1" d="M242.023 0.216 C 241.900 0.415,247.106 0.336,247.699 0.131 C 247.842 0.081,246.653 0.032,245.057 0.020 C 243.462 0.009,242.096 0.097,242.023 0.216 M307.971 0.256 C 311.372 0.534,313.625 1.939,314.708 4.457 C 315.028 5.200,315.616 6.221,316.016 6.727 C 316.415 7.233,316.868 8.114,317.022 8.684 C 317.516 10.519,317.409 352.371,316.914 354.039 C 316.211 356.404,315.146 357.277,303.046 365.398 C 297.984 368.794,290.868 373.575,287.233 376.022 C 278.887 381.637,265.657 390.530,257.421 396.060 C 250.525 400.690,250.514 400.698,250.737 400.921 C 250.872 401.055,258.450 396.039,276.215 384.056 C 279.209 382.037,285.625 377.719,290.473 374.460 C 295.321 371.202,301.737 366.889,304.731 364.877 C 314.528 358.291,315.549 357.494,317.008 355.282 L 317.693 354.245 317.759 181.885 C 317.804 64.092,317.740 9.210,317.557 8.532 C 317.410 7.986,316.885 7.008,316.389 6.359 C 315.894 5.711,315.489 5.029,315.489 4.844 C 315.489 3.858,312.795 0.778,311.932 0.778 C 311.785 0.778,311.519 0.603,311.342 0.389 C 311.089 0.085,310.445 0.008,308.393 0.038 L 305.768 0.076 307.971 0.256 M236.336 5.098 C 236.241 5.193,236.163 5.496,236.163 5.771 C 236.163 6.046,235.935 6.593,235.655 6.985 C 234.611 8.451,234.621 7.663,234.614 94.295 L 234.608 178.609 181.509 178.676 L 128.410 178.743 127.143 179.527 C 125.721 180.405,124.520 181.949,124.273 183.215 C 124.042 184.402,124.545 184.276,124.910 183.055 C 125.297 181.765,126.046 180.826,127.382 179.957 L 128.451 179.261 181.787 179.194 L 235.123 179.127 235.189 94.035 L 235.256 8.944 236.099 7.210 C 237.071 5.210,237.178 4.256,236.336 5.098 M246.965 12.357 C 246.870 12.452,246.789 50.394,246.786 96.673 C 246.781 152.700,246.691 181.198,246.516 181.959 C 246.214 183.269,244.995 184.937,243.943 185.482 C 243.529 185.696,243.149 186.160,243.047 186.576 C 242.756 187.767,241.617 189.189,240.343 189.951 L 239.145 190.668 187.622 190.736 L 136.099 190.805 136.099 208.818 L 136.099 226.831 147.959 226.832 C 161.286 226.834,161.228 226.827,163.048 228.598 C 165.219 230.710,165.360 234.012,163.375 236.210 C 161.589 238.187,162.280 238.093,148.542 238.237 L 136.228 238.367 136.162 264.874 L 136.096 291.380 146.065 291.380 C 156.990 291.380,158.032 291.485,159.550 292.737 C 162.874 295.477,162.132 300.525,158.134 302.376 C 157.022 302.891,156.481 302.920,146.598 302.985 L 136.228 303.053 136.228 327.483 L 136.228 351.912 148.023 352.041 C 160.805 352.182,160.303 352.123,161.982 353.693 C 164.769 356.299,163.989 361.015,160.478 362.794 L 159.188 363.448 147.641 363.448 L 136.095 363.448 136.161 379.974 L 136.228 396.500 186.316 396.566 L 236.403 396.631 237.255 395.895 C 238.113 395.153,241.561 392.807,258.458 381.466 C 263.519 378.069,270.460 373.403,273.882 371.096 C 277.304 368.790,284.770 363.770,290.473 359.940 C 296.176 356.111,301.892 352.261,303.176 351.385 L 305.509 349.793 305.574 180.989 L 305.639 12.184 276.388 12.184 C 260.300 12.184,247.060 12.262,246.965 12.357 M305.055 181.246 L 304.990 349.531 298.769 353.714 C 295.347 356.015,289.164 360.177,285.029 362.963 C 280.894 365.749,273.545 370.694,268.697 373.951 C 259.863 379.886,250.233 386.364,248.919 387.257 C 248.533 387.519,247.168 388.433,245.885 389.289 C 240.765 392.701,237.563 394.905,237.054 395.367 C 236.535 395.838,235.017 395.852,186.568 395.852 L 136.617 395.852 136.617 379.909 L 136.617 363.966 147.872 363.966 C 160.613 363.966,160.479 363.985,162.510 361.893 C 165.559 358.752,164.609 354.154,160.467 352.000 C 159.303 351.395,159.269 351.393,147.959 351.314 L 136.617 351.234 136.617 327.418 L 136.617 303.601 146.922 303.516 C 158.289 303.422,158.105 303.447,160.073 301.719 C 163.535 298.679,162.666 293.512,158.339 291.417 C 157.226 290.878,156.889 290.862,146.905 290.862 L 136.617 290.862 136.617 264.938 L 136.617 239.015 147.976 239.015 C 161.287 239.015,161.277 239.016,163.457 236.836 C 166.568 233.725,165.715 228.897,161.702 226.893 C 160.548 226.317,160.449 226.312,148.578 226.312 L 136.617 226.312 136.617 208.817 L 136.617 191.321 187.881 191.253 L 239.145 191.186 240.215 190.614 C 241.493 189.930,243.322 187.927,243.556 186.956 C 243.650 186.566,244.186 185.919,244.776 185.483 C 245.374 185.041,246.150 184.101,246.570 183.308 L 247.310 181.911 247.310 97.437 L 247.310 12.962 276.215 12.962 L 305.120 12.962 305.055 181.246 M124.277 403.950 C 124.369 404.411,124.632 404.965,124.862 405.181 C 125.240 405.537,125.261 405.513,125.094 404.925 C 124.993 404.569,124.847 404.015,124.771 403.694 C 124.548 402.761,124.087 403.000,124.277 403.950 " stroke="none" fill="#c6ccb5" fill-rule="evenodd"></path></g></svg>