<svg id="svg" version="1.1" xmlns="http://www.w3.org/2000/svg" xmlns:xlink="http://www.w3.org/1999/xlink" width="400" height="393.65884590995563" viewBox="0, 0, 400,393.65884590995563"><g id="svgg"><path id="path8" d="M49.643 90.296 C 49.448 90.575,49.213 90.727,49.121 90.635 C 49.029 90.542,48.954 90.600,48.954 90.763 C 48.954 91.260,49.380 91.094,49.818 90.425 C 50.310 89.675,50.157 89.563,49.643 90.296 M48.193 193.659 C 48.193 260.368,48.278 293.976,48.446 293.976 C 48.615 293.976,48.700 260.368,48.700 193.659 C 48.700 126.950,48.615 93.342,48.446 93.342 C 48.278 93.342,48.193 126.950,48.193 193.659 M48.954 296.465 C 48.954 296.660,50.328 297.781,50.567 297.781 C 50.629 297.781,50.359 297.438,49.968 297.020 C 49.250 296.251,48.954 296.089,48.954 296.465 " stroke="none" fill="#d8a08c" fill-rule="evenodd"></path><path id="path0" d="M353.202 16.995 C 351.389 18.375,349.791 19.598,349.651 19.712 C 349.512 19.825,347.572 21.286,345.341 22.958 C 343.110 24.631,341.112 26.141,340.902 26.315 C 340.532 26.622,329.211 35.123,327.813 36.145 C 327.231 36.570,326.458 37.167,323.779 39.255 C 323.640 39.364,320.044 42.064,315.789 45.256 C 311.535 48.447,307.754 51.298,307.388 51.591 C 307.022 51.884,306.401 52.353,306.008 52.632 C 305.615 52.911,304.374 53.845,303.249 54.708 C 300.815 56.576,301.846 55.798,291.694 63.430 C 287.161 66.838,283.280 69.765,283.070 69.935 C 282.502 70.395,267.494 81.703,259.296 87.848 L 252.136 93.215 252.092 193.722 C 252.068 249.001,252.037 294.364,252.023 294.528 C 252.009 294.693,255.488 297.461,259.754 300.679 C 264.020 303.898,267.844 306.787,268.251 307.099 C 268.658 307.412,269.106 307.754,269.245 307.860 C 269.385 307.967,272.295 310.157,275.713 312.728 C 285.739 320.269,302.072 332.590,307.500 336.707 C 310.265 338.804,312.855 340.748,313.257 341.027 C 313.658 341.306,317.595 344.274,322.005 347.622 C 326.416 350.970,330.352 353.938,330.751 354.217 C 331.151 354.496,333.798 356.484,336.633 358.636 C 339.468 360.787,344.528 364.603,347.876 367.117 C 351.224 369.630,354.573 372.178,355.318 372.780 C 356.063 373.382,356.777 373.874,356.903 373.874 C 357.041 373.874,357.134 301.712,357.134 194.166 C 357.134 50.561,357.070 14.461,356.817 14.472 C 356.642 14.479,355.016 15.615,353.202 16.995 M240.812 89.731 C 239.413 90.665,239.684 94.355,241.257 95.785 C 243.554 97.875,245.855 97.683,249.218 95.122 C 250.955 93.799,251.615 93.144,251.611 92.748 C 251.603 91.902,250.704 90.117,250.133 89.811 C 249.556 89.502,241.262 89.431,240.812 89.731 M294.921 124.202 C 296.968 125.859,296.777 118.390,296.704 193.702 L 296.639 260.711 296.108 261.427 C 293.569 264.851,288.816 264.243,287.292 260.299 C 286.792 259.005,286.635 128.833,287.132 127.047 C 288.083 123.623,292.302 122.082,294.921 124.202 M242.439 291.583 C 240.700 292.456,239.899 293.923,240.000 296.049 L 240.076 297.654 244.838 297.723 C 250.143 297.800,250.348 297.751,251.118 296.243 C 251.835 294.836,251.909 294.928,247.778 292.089 C 245.772 290.710,244.429 290.583,242.439 291.583 " stroke="none" fill="#6c8b04" fill-rule="evenodd"></path><path id="path1" d="M102.557 95.561 C 127.924 95.597,169.357 95.597,194.631 95.561 C 219.905 95.526,199.150 95.496,148.510 95.496 C 97.869 95.496,77.191 95.526,102.557 95.561 M53.377 97.210 L 52.632 98.034 53.456 97.289 C 54.224 96.595,54.397 96.386,54.201 96.386 C 54.157 96.386,53.786 96.756,53.377 97.210 M52.156 99.059 C 52.069 99.285,52.026 141.950,52.060 193.870 L 52.123 288.269 52.250 193.532 C 52.386 92.544,52.392 98.442,52.156 99.059 M53.689 99.598 C 53.596 99.691,53.519 142.095,53.519 193.828 L 53.519 287.889 150.222 287.825 L 246.925 287.762 246.925 193.659 L 246.925 99.556 150.391 99.492 C 97.298 99.457,53.782 99.505,53.689 99.598 M155.739 131.992 C 161.574 132.994,163.753 133.590,169.014 135.619 C 172.869 137.106,175.964 138.682,180.706 141.573 C 188.898 146.567,198.283 156.884,202.784 165.843 C 204.079 168.422,206.214 173.319,206.214 173.711 C 206.214 173.861,206.376 174.359,206.574 174.817 C 210.153 183.115,211.011 198.783,208.487 209.765 C 204.312 227.938,192.097 243.906,175.904 252.361 C 147.567 267.156,115.204 260.099,94.507 234.613 C 92.188 231.757,88.570 225.630,86.874 221.687 C 86.364 220.501,85.797 219.188,85.614 218.770 C 85.431 218.351,85.205 217.724,85.111 217.375 C 85.017 217.026,84.841 216.512,84.721 216.233 C 83.716 213.905,82.266 207.475,81.921 203.814 C 81.776 202.274,81.547 200.317,81.412 199.463 C 81.100 197.491,81.100 194.797,81.411 192.027 C 81.545 190.832,81.787 188.599,81.948 187.064 C 82.307 183.654,84.120 175.650,84.706 174.889 C 84.814 174.750,84.983 174.293,85.083 173.874 C 85.183 173.456,85.417 172.771,85.604 172.353 C 85.791 171.934,86.415 170.507,86.991 169.182 C 90.460 161.202,97.796 151.436,103.961 146.590 C 104.571 146.112,105.200 145.606,105.359 145.466 C 111.294 140.278,122.764 134.642,130.881 132.926 C 131.649 132.764,132.735 132.515,133.295 132.374 C 137.254 131.375,150.801 131.144,155.739 131.992 M140.140 141.795 C 138.884 141.921,137.628 142.078,137.349 142.144 C 137.070 142.210,135.815 142.489,134.559 142.764 C 120.483 145.852,108.881 153.634,101.037 165.250 C 96.440 172.059,94.492 176.874,92.264 186.937 C 91.866 188.734,91.852 201.964,92.245 203.932 C 93.031 207.854,93.391 209.432,93.606 209.892 C 93.736 210.171,94.009 211.027,94.212 211.795 C 98.061 226.348,111.626 240.572,127.077 246.253 C 142.354 251.871,161.583 249.904,174.032 241.450 C 174.837 240.904,175.566 240.457,175.653 240.457 C 175.740 240.457,176.231 240.147,176.745 239.768 C 191.729 228.717,199.458 213.725,199.467 195.688 C 199.471 187.669,199.000 184.681,196.655 177.830 C 192.185 164.773,182.496 153.692,170.070 147.427 C 167.138 145.949,165.512 145.218,164.616 144.973 C 164.268 144.878,163.754 144.696,163.475 144.568 C 162.169 143.972,156.250 142.512,153.202 142.035 C 151.025 141.694,142.671 141.540,140.140 141.795 M53.519 290.298 C 53.993 290.786,54.437 291.186,54.507 291.186 C 54.576 291.186,54.246 290.786,53.773 290.298 C 53.300 289.810,52.855 289.410,52.786 289.410 C 52.716 289.410,53.046 289.810,53.519 290.298 M102.283 291.883 C 127.777 291.919,169.496 291.919,194.990 291.883 C 220.485 291.848,199.626 291.819,148.637 291.819 C 97.647 291.819,76.788 291.848,102.283 291.883 " stroke="none" fill="#d95526" fill-rule="evenodd"></path><path id="path2" d="M289.666 123.824 C 288.429 124.464,287.532 125.604,287.132 127.047 C 286.635 128.833,286.792 259.005,287.292 260.299 C 288.816 264.243,293.569 264.851,296.108 261.427 L 296.639 260.711 296.704 193.702 C 296.767 128.782,296.754 126.666,296.297 125.814 C 295.050 123.489,292.053 122.590,289.666 123.824 M140.266 131.659 C 139.639 131.781,137.812 132.050,136.208 132.258 C 126.074 133.572,115.233 138.063,107.419 144.183 C 106.861 144.620,106.119 145.164,105.770 145.392 C 101.213 148.372,93.016 158.067,89.437 164.708 C 66.214 207.799,97.059 259.653,145.847 259.544 C 152.302 259.529,162.009 258.164,164.117 256.974 C 164.331 256.853,164.902 256.671,165.386 256.569 C 165.869 256.466,166.607 256.232,167.026 256.047 C 167.445 255.862,168.586 255.405,169.562 255.030 C 183.400 249.727,196.548 237.578,203.039 224.096 C 204.908 220.214,205.453 219.011,205.453 218.770 C 205.453 218.672,205.615 218.233,205.813 217.794 C 206.936 215.294,208.488 209.339,208.983 205.635 C 209.118 204.628,209.302 203.519,209.394 203.171 C 209.485 202.822,209.612 199.968,209.676 196.829 C 210.092 176.475,201.225 157.685,185.363 145.303 C 181.992 142.671,181.652 142.427,179.467 141.072 C 176.430 139.189,174.328 138.132,169.309 135.964 C 166.968 134.952,162.559 133.597,160.178 133.158 C 159.341 133.004,158.307 132.769,157.881 132.637 C 155.278 131.830,142.931 131.144,140.266 131.659 M154.471 142.015 C 172.776 145.443,186.774 156.032,194.744 172.479 C 195.904 174.874,196.605 176.747,197.971 181.103 C 200.788 190.086,200.283 205.721,196.932 213.228 C 196.736 213.668,196.576 214.164,196.576 214.331 C 196.576 214.826,194.172 219.973,192.964 222.067 C 192.641 222.625,192.046 223.653,191.640 224.350 C 184.147 237.228,169.236 246.818,152.695 249.398 C 150.480 249.743,140.551 249.727,138.491 249.375 C 121.818 246.525,107.516 237.435,100.063 224.950 C 97.486 220.633,95.236 216.135,94.749 214.331 C 94.655 213.982,94.477 213.469,94.352 213.190 C 93.981 212.357,92.623 207.190,92.451 205.961 C 92.363 205.333,92.186 204.477,92.057 204.058 C 91.349 201.760,91.355 189.620,92.065 186.967 C 92.201 186.463,92.488 185.115,92.704 183.972 C 93.092 181.924,94.781 176.379,95.471 174.892 C 95.666 174.472,96.169 173.385,96.590 172.476 C 106.553 150.938,131.634 137.738,154.471 142.015 " stroke="none" fill="#151514" fill-rule="evenodd"></path><path id="path3" d="M351.554 5.705 C 347.438 8.833,343.541 11.769,342.894 12.228 C 342.247 12.687,339.907 14.437,337.694 16.117 C 335.482 17.796,329.677 22.183,324.794 25.864 C 319.911 29.546,313.177 34.629,309.829 37.159 C 306.481 39.689,299.746 44.768,294.864 48.446 C 289.981 52.124,282.790 57.545,278.884 60.494 C 269.516 67.567,258.855 75.601,249.334 82.765 C 245.079 85.966,241.343 88.828,241.032 89.125 L 240.467 89.664 245.014 89.585 C 250.154 89.495,250.407 89.560,251.126 91.143 C 251.922 92.897,251.827 93.118,249.524 94.874 C 248.373 95.751,247.326 96.562,247.198 96.674 C 247.060 96.795,247.269 97.430,247.705 98.218 L 248.446 99.556 248.513 192.898 C 248.585 293.363,248.657 288.090,247.187 290.015 L 246.347 291.116 247.904 292.179 C 251.863 294.881,251.832 294.843,251.118 296.243 C 250.343 297.761,250.135 297.810,244.793 297.728 L 240.004 297.654 240.473 298.312 C 241.103 299.195,241.792 299.742,251.490 307.044 C 267.608 319.182,277.400 326.564,281.928 329.992 C 284.439 331.894,291.401 337.144,297.400 341.660 C 303.399 346.176,310.818 351.770,313.887 354.091 C 316.956 356.412,322.720 360.763,326.696 363.760 C 330.672 366.756,337.235 371.706,341.281 374.758 C 345.327 377.811,350.691 381.849,353.202 383.731 C 355.713 385.614,358.178 387.518,358.680 387.961 C 361.251 390.234,364.451 390.012,366.426 387.422 L 367.153 386.469 367.153 194.166 L 367.153 1.863 366.442 0.931 L 365.732 0.000 362.384 0.009 L 359.036 0.017 351.554 5.705 M357.134 194.166 C 357.134 301.712,357.041 373.874,356.903 373.874 C 356.777 373.874,356.063 373.382,355.318 372.780 C 354.573 372.178,351.224 369.630,347.876 367.117 C 344.528 364.603,339.468 360.787,336.633 358.636 C 333.798 356.484,331.151 354.496,330.751 354.217 C 330.352 353.938,326.416 350.970,322.005 347.622 C 317.595 344.274,313.658 341.306,313.257 341.027 C 312.855 340.748,310.265 338.804,307.500 336.707 C 302.072 332.590,285.739 320.269,275.713 312.728 C 272.295 310.157,269.385 307.967,269.245 307.860 C 269.106 307.754,268.658 307.412,268.251 307.099 C 267.844 306.787,264.020 303.898,259.754 300.679 C 255.488 297.461,252.009 294.693,252.023 294.528 C 252.037 294.364,252.068 249.001,252.092 193.722 L 252.136 93.215 259.296 87.848 C 267.494 81.703,282.502 70.395,283.070 69.935 C 283.280 69.765,287.161 66.838,291.694 63.430 C 301.846 55.798,300.815 56.576,303.249 54.708 C 304.374 53.845,305.615 52.911,306.008 52.632 C 306.401 52.353,307.022 51.884,307.388 51.591 C 307.754 51.298,311.535 48.447,315.789 45.256 C 320.044 42.064,323.640 39.364,323.779 39.255 C 326.458 37.167,327.231 36.570,327.813 36.145 C 329.211 35.123,340.532 26.622,340.902 26.315 C 341.112 26.141,343.110 24.631,345.341 22.958 C 347.572 21.286,349.512 19.825,349.651 19.712 C 351.632 18.098,356.577 14.482,356.817 14.472 C 357.070 14.461,357.134 50.561,357.134 194.166 " stroke="none" fill="#93aa4a" fill-rule="evenodd"></path><path id="path4" d="M358.148 0.189 C 357.939 0.271,354.058 3.137,349.524 6.558 C 329.416 21.731,326.394 24.011,319.087 29.517 C 314.832 32.723,307.641 38.145,303.107 41.566 C 283.519 56.344,271.019 65.773,258.465 75.236 C 254.211 78.443,248.366 82.859,245.477 85.049 L 240.224 89.030 145.384 89.030 L 50.544 89.030 49.876 89.556 C 49.508 89.845,49.207 90.239,49.207 90.432 C 49.207 90.656,49.431 90.558,49.830 90.160 L 50.453 89.537 145.502 89.537 C 237.834 89.537,240.566 89.524,241.074 89.065 C 241.362 88.805,245.079 85.972,249.334 82.769 C 259.983 74.752,270.458 66.856,278.884 60.494 C 282.790 57.545,289.981 52.124,294.864 48.446 C 299.746 44.768,306.481 39.689,309.829 37.159 C 313.177 34.629,319.911 29.546,324.794 25.864 C 329.677 22.183,335.484 17.796,337.699 16.117 C 339.915 14.437,342.280 12.663,342.955 12.175 C 343.988 11.428,357.433 1.271,358.642 0.325 C 359.053 0.003,358.802 -0.067,358.148 0.189 M366.442 0.931 L 367.153 1.863 367.153 194.166 L 367.153 386.469 366.426 387.422 C 364.451 390.012,361.251 390.234,358.680 387.961 C 358.178 387.518,355.713 385.614,353.202 383.731 C 350.691 381.849,345.327 377.811,341.281 374.758 C 337.235 371.706,330.900 366.928,327.204 364.141 C 323.507 361.354,317.514 356.832,313.887 354.091 C 310.260 351.351,303.069 345.929,297.907 342.042 C 292.746 338.154,285.327 332.559,281.420 329.606 C 270.417 321.290,254.897 309.595,248.320 304.664 C 245.041 302.207,241.811 299.652,241.142 298.988 L 239.925 297.781 145.105 297.781 C 61.129 297.781,50.248 297.737,49.968 297.400 C 49.795 297.191,49.532 297.020,49.386 297.020 C 49.239 297.020,49.387 297.305,49.715 297.654 L 50.310 298.288 145.082 298.288 L 239.854 298.288 240.383 299.004 C 240.674 299.397,243.406 301.598,246.455 303.893 C 249.503 306.189,255.250 310.526,259.226 313.531 C 263.202 316.536,271.078 322.476,276.728 326.732 C 287.750 335.033,297.937 342.716,307.292 349.783 C 310.501 352.207,317.292 357.326,322.384 361.158 C 327.476 364.991,331.928 368.344,332.276 368.610 C 334.564 370.353,339.992 374.452,348.129 380.581 C 353.291 384.468,358.028 388.073,358.656 388.591 C 361.700 391.104,365.525 390.388,367.358 386.961 L 367.914 385.923 367.980 194.927 C 368.049 -5.616,368.092 1.945,366.898 0.657 C 365.977 -0.337,365.633 -0.130,366.442 0.931 M48.611 91.251 C 48.546 91.357,48.412 91.870,48.314 92.393 C 48.061 93.742,48.531 93.574,48.850 92.200 C 49.082 91.198,48.956 90.694,48.611 91.251 M48.314 294.925 C 48.513 295.982,48.639 296.259,48.922 296.259 C 49.028 296.259,48.995 295.745,48.850 295.117 C 48.531 293.744,48.061 293.575,48.314 294.925 " stroke="none" fill="#c9ca9b" fill-rule="evenodd"></path><path id="path5" d="M55.168 96.045 C 54.036 96.641,52.994 97.677,52.600 98.597 C 52.135 99.684,52.071 287.824,52.535 288.729 C 53.016 289.667,54.364 290.953,55.262 291.332 C 56.842 291.998,241.049 291.860,242.521 291.191 C 243.155 290.904,244.185 290.687,244.933 290.684 C 246.369 290.678,247.580 289.697,247.999 288.201 C 248.254 287.288,248.251 100.592,247.996 99.392 C 247.647 97.754,246.979 97.160,245.786 97.428 C 244.398 97.740,242.584 97.301,241.423 96.373 L 240.486 95.625 148.208 95.635 C 64.639 95.644,55.857 95.683,55.168 96.045 M246.925 193.659 L 246.925 287.762 150.222 287.825 L 53.519 287.889 53.519 193.828 C 53.519 142.095,53.596 99.691,53.689 99.598 C 53.782 99.505,97.298 99.457,150.391 99.492 L 246.925 99.556 246.925 193.659 M81.262 195.942 C 81.262 197.476,81.304 198.071,81.354 197.264 C 81.405 196.457,81.405 195.201,81.353 194.474 C 81.302 193.747,81.261 194.407,81.262 195.942 M91.647 195.561 C 91.647 196.468,91.693 196.839,91.750 196.386 C 91.806 195.932,91.806 195.190,91.750 194.737 C 91.693 194.283,91.647 194.654,91.647 195.561 M142.359 259.909 C 142.603 259.972,143.003 259.972,143.247 259.909 C 143.491 259.845,143.291 259.793,142.803 259.793 C 142.315 259.793,142.115 259.845,142.359 259.909 M148.193 259.909 C 148.437 259.972,148.836 259.972,149.081 259.909 C 149.325 259.845,149.125 259.793,148.637 259.793 C 148.148 259.793,147.949 259.845,148.193 259.909 " stroke="none" fill="#ac2c04" fill-rule="evenodd"></path><path id="path6" d="M239.990 90.436 C 238.353 94.030,241.879 98.306,245.761 97.433 C 246.548 97.257,246.842 97.296,247.184 97.622 C 247.587 98.007,247.593 97.998,247.284 97.482 C 246.982 96.979,246.806 96.943,245.277 97.071 C 241.494 97.388,238.573 93.597,240.223 90.513 C 240.374 90.231,240.450 89.953,240.391 89.895 C 240.333 89.836,240.153 90.080,239.990 90.436 M248.014 99.556 C 248.112 100.114,248.193 142.778,248.193 194.365 C 248.193 245.952,248.279 287.744,248.385 287.236 C 248.731 285.567,248.490 99.628,248.140 99.049 C 247.882 98.620,247.862 98.699,248.014 99.556 M137.986 131.674 C 135.259 131.990,135.187 132.155,137.857 131.973 C 140.191 131.814,142.266 131.420,140.647 131.443 C 140.228 131.450,139.031 131.553,137.986 131.674 M150.343 131.621 C 150.794 131.736,152.221 131.894,153.514 131.972 C 155.044 132.064,155.467 132.043,154.724 131.911 C 153.047 131.613,149.350 131.368,150.343 131.621 M134.242 132.324 C 134.486 132.388,134.886 132.388,135.130 132.324 C 135.374 132.261,135.174 132.208,134.686 132.208 C 134.198 132.208,133.998 132.261,134.242 132.324 M131.924 132.677 C 131.312 132.798,130.742 132.969,130.656 133.059 C 130.464 133.261,132.595 132.922,133.291 132.641 C 133.939 132.379,133.368 132.394,131.924 132.677 M157.531 132.497 C 157.725 132.702,161.583 133.492,161.721 133.354 C 161.819 133.256,160.712 132.986,158.275 132.516 C 157.787 132.421,157.452 132.413,157.531 132.497 M162.334 133.521 C 162.334 133.721,165.138 134.503,165.295 134.346 C 165.368 134.272,164.932 134.084,164.325 133.927 C 163.718 133.770,163.022 133.583,162.777 133.513 C 162.533 133.442,162.334 133.445,162.334 133.521 M126.823 133.981 C 126.335 134.126,126.055 134.289,126.202 134.343 C 126.348 134.397,126.919 134.276,127.470 134.074 C 128.618 133.654,128.152 133.586,126.823 133.981 M123.573 135.113 C 122.972 135.326,122.524 135.545,122.579 135.600 C 122.695 135.715,125.048 134.943,125.048 134.789 C 125.048 134.630,124.759 134.694,123.573 135.113 M166.646 134.897 C 166.855 135.026,167.311 135.208,167.660 135.302 C 168.101 135.420,168.178 135.400,167.914 135.236 C 167.705 135.107,167.248 134.925,166.899 134.832 C 166.458 134.714,166.381 134.734,166.646 134.897 M120.862 136.212 C 120.296 136.490,120.128 136.642,120.482 136.555 C 121.223 136.372,122.502 135.723,122.131 135.718 C 121.991 135.716,121.420 135.938,120.862 136.212 M169.311 135.901 C 169.449 136.023,170.133 136.358,170.831 136.646 C 171.528 136.933,172.527 137.353,173.050 137.579 C 173.573 137.805,174.001 137.930,174.001 137.857 C 174.001 137.706,171.603 136.601,170.072 136.047 C 169.515 135.845,169.173 135.780,169.311 135.901 M118.516 137.216 C 117.923 137.485,117.438 137.762,117.438 137.831 C 117.438 137.999,119.273 137.240,119.581 136.945 C 119.928 136.614,119.731 136.664,118.516 137.216 M115.282 138.830 C 112.457 140.381,111.738 140.826,109.448 142.436 C 107.200 144.017,105.281 145.558,106.024 145.185 C 106.233 145.080,106.861 144.633,107.419 144.191 C 109.903 142.224,115.921 138.491,116.608 138.491 C 116.769 138.491,116.971 138.377,117.058 138.237 C 117.323 137.808,116.867 137.960,115.282 138.830 M174.255 138.093 C 174.255 138.153,175.054 138.610,176.030 139.108 C 178.254 140.241,178.348 140.106,176.179 138.893 C 174.598 138.009,174.255 137.866,174.255 138.093 M178.440 140.398 C 178.719 140.625,179.176 140.923,179.455 141.060 L 179.962 141.309 179.455 140.896 C 179.176 140.669,178.719 140.371,178.440 140.234 L 177.933 139.985 178.440 140.398 M140.015 141.548 C 137.289 141.890,137.223 142.037,139.886 141.835 C 142.784 141.615,148.592 141.612,151.554 141.829 C 153.117 141.943,153.557 141.923,152.949 141.764 C 151.655 141.426,142.237 141.269,140.015 141.548 M180.089 141.376 C 180.089 141.436,180.460 141.720,180.913 142.009 C 181.367 142.297,182.023 142.720,182.372 142.949 C 182.846 143.260,182.814 143.195,182.245 142.690 C 181.492 142.022,180.089 141.167,180.089 141.376 M154.485 142.132 C 154.672 142.331,158.322 143.094,158.454 142.963 C 158.510 142.906,158.008 142.738,157.338 142.590 C 155.207 142.117,154.340 141.978,154.485 142.132 M133.976 142.546 C 133.515 142.655,133.059 142.824,132.961 142.923 C 132.775 143.110,134.361 142.861,135.447 142.531 L 136.081 142.339 135.447 142.343 C 135.098 142.346,134.436 142.437,133.976 142.546 M129.867 143.619 C 129.379 143.764,129.099 143.927,129.245 143.981 C 129.392 144.035,129.963 143.914,130.514 143.713 C 131.662 143.292,131.195 143.225,129.867 143.619 M161.192 143.820 C 162.029 144.094,162.828 144.311,162.968 144.303 C 163.374 144.280,161.511 143.642,160.549 143.475 C 160.066 143.391,160.355 143.547,161.192 143.820 M183.133 143.402 C 183.133 143.470,184.188 144.352,185.479 145.364 C 192.462 150.838,198.335 157.929,202.578 166.011 C 204.490 169.653,204.714 169.720,202.902 166.108 C 199.105 158.542,192.989 151.119,185.669 145.195 C 183.680 143.585,183.133 143.198,183.133 143.402 M126.617 144.752 C 126.015 144.964,125.568 145.183,125.623 145.238 C 125.739 145.354,128.091 144.581,128.091 144.428 C 128.091 144.269,127.803 144.332,126.617 144.752 M163.982 144.676 C 164.401 144.867,165.029 145.093,165.377 145.178 C 165.887 145.303,165.862 145.266,165.250 144.988 C 164.832 144.797,164.204 144.571,163.855 144.485 C 163.346 144.361,163.371 144.398,163.982 144.676 M124.058 145.734 C 123.584 145.939,123.259 146.172,123.337 146.249 C 123.414 146.327,123.917 146.159,124.453 145.876 C 125.584 145.279,125.322 145.185,124.058 145.734 M166.899 145.847 C 167.387 146.114,167.901 146.333,168.041 146.333 C 168.180 146.333,167.895 146.114,167.406 145.847 C 166.918 145.579,166.405 145.361,166.265 145.361 C 166.126 145.361,166.411 145.579,166.899 145.847 M102.967 147.467 C 99.419 150.511,91.780 159.290,92.678 159.290 C 92.732 159.290,93.521 158.286,94.431 157.058 C 96.049 154.877,100.851 149.410,101.171 149.385 C 101.359 149.371,105.441 145.590,105.259 145.599 C 105.191 145.602,104.160 146.443,102.967 147.467 M168.421 146.486 C 168.421 146.550,169.334 147.061,170.450 147.622 C 172.858 148.833,173.149 148.795,170.894 147.564 C 169.195 146.637,168.421 146.300,168.421 146.486 M120.193 147.695 C 119.128 148.282,117.987 148.963,117.657 149.208 C 117.327 149.452,117.857 149.228,118.833 148.709 C 121.560 147.262,122.663 146.613,122.384 146.620 C 122.245 146.623,121.259 147.107,120.193 147.695 M172.733 148.705 C 172.733 148.809,174.862 150.196,175.523 150.522 C 175.732 150.625,175.618 150.477,175.269 150.193 C 174.571 149.624,172.733 148.545,172.733 148.705 M114.883 150.945 C 108.238 155.510,102.458 161.853,98.325 169.116 C 97.023 171.405,96.323 173.010,97.018 172.114 C 97.228 171.843,97.400 171.524,97.400 171.405 C 97.400 171.038,99.691 167.141,101.167 164.997 C 104.839 159.663,110.387 154.134,115.219 150.993 C 116.708 150.025,117.162 149.651,116.849 149.651 C 116.804 149.651,115.920 150.234,114.883 150.945 M176.647 151.225 C 183.446 156.552,186.969 160.170,190.391 165.338 C 191.991 167.755,192.678 168.609,191.750 167.026 C 188.864 162.105,183.272 155.909,178.567 152.419 C 176.667 151.010,175.240 150.122,176.647 151.225 M91.616 160.621 C 90.766 161.867,90.230 162.841,90.394 162.841 C 90.457 162.841,90.889 162.242,91.354 161.509 C 91.820 160.777,92.292 160.035,92.403 159.860 C 92.942 159.019,92.259 159.679,91.616 160.621 M89.664 163.855 C 89.447 164.274,89.327 164.616,89.397 164.616 C 89.467 164.616,89.701 164.274,89.918 163.855 C 90.134 163.437,90.254 163.094,90.184 163.094 C 90.114 163.094,89.880 163.437,89.664 163.855 M87.652 167.724 C 86.913 169.293,86.237 170.862,86.150 171.211 C 85.996 171.825,86.259 171.313,88.040 167.533 C 89.212 165.048,89.284 164.870,89.131 164.870 C 89.056 164.870,88.390 166.154,87.652 167.724 M192.800 169.179 C 193.113 169.736,193.410 170.149,193.461 170.099 C 193.570 169.990,192.521 168.167,192.349 168.167 C 192.284 168.167,192.487 168.623,192.800 169.179 M204.196 169.214 C 204.173 169.550,204.982 171.260,205.106 171.136 C 205.178 171.064,205.005 170.567,204.722 170.030 C 204.439 169.494,204.203 169.127,204.196 169.214 M194.090 171.586 C 194.394 172.211,194.686 172.678,194.739 172.625 C 194.854 172.510,193.829 170.450,193.657 170.450 C 193.592 170.450,193.787 170.961,194.090 171.586 M205.358 171.972 C 205.596 172.927,206.173 174.181,206.175 173.748 C 206.176 173.538,205.957 172.911,205.689 172.353 C 205.420 171.795,205.272 171.623,205.358 171.972 M85.488 172.582 C 84.974 173.933,84.967 174.606,85.479 173.397 C 85.768 172.716,85.946 172.101,85.875 172.030 C 85.804 171.960,85.630 172.208,85.488 172.582 M96.020 173.624 C 95.472 174.935,95.545 175.083,96.161 173.914 C 96.444 173.378,96.617 172.880,96.546 172.809 C 96.474 172.737,96.237 173.104,96.020 173.624 M194.808 173.128 C 194.804 173.276,194.968 173.619,195.173 173.889 C 195.377 174.160,195.549 174.261,195.553 174.113 C 195.558 173.965,195.394 173.623,195.189 173.352 C 194.984 173.081,194.813 172.981,194.808 173.128 M195.690 175.016 C 196.014 176.088,196.801 177.948,196.816 177.676 C 196.834 177.337,195.883 174.743,195.667 174.540 C 195.574 174.453,195.584 174.667,195.690 175.016 M84.507 175.452 C 84.127 176.412,83.872 177.552,84.037 177.552 C 84.194 177.552,84.987 174.947,84.867 174.827 C 84.822 174.782,84.661 175.063,84.507 175.452 M206.488 174.945 C 206.477 175.115,206.753 176.128,207.102 177.196 C 207.451 178.265,207.737 179.267,207.738 179.424 C 207.738 179.580,207.861 180.147,208.010 180.683 C 208.460 182.304,208.549 181.540,208.112 179.803 C 207.606 177.792,206.515 174.528,206.488 174.945 M95.126 175.626 C 94.613 176.977,94.606 177.650,95.118 176.441 C 95.406 175.760,95.584 175.145,95.514 175.074 C 95.443 175.003,95.269 175.252,95.126 175.626 M197.001 178.694 C 197.085 179.112,197.303 179.797,197.488 180.216 L 197.823 180.977 197.672 180.216 C 197.589 179.797,197.370 179.112,197.186 178.694 L 196.850 177.933 197.001 178.694 M93.373 181.156 C 92.937 182.731,92.592 184.249,92.607 184.528 C 92.621 184.807,92.745 184.578,92.881 184.020 C 93.017 183.462,93.411 181.994,93.756 180.757 C 94.100 179.520,94.334 178.460,94.274 178.400 C 94.215 178.341,93.809 179.581,93.373 181.156 M83.215 179.855 C 82.846 181.577,83.045 181.775,83.450 180.089 C 83.621 179.376,83.702 178.734,83.630 178.663 C 83.558 178.591,83.371 179.127,83.215 179.855 M197.941 181.737 C 198.007 182.016,198.202 182.902,198.374 183.705 C 198.546 184.508,198.735 185.116,198.795 185.057 C 198.949 184.902,198.343 182.065,198.058 181.611 C 197.872 181.313,197.846 181.341,197.941 181.737 M82.185 185.010 C 82.016 186.198,81.928 187.317,81.988 187.497 C 82.048 187.678,82.235 186.755,82.403 185.447 C 82.571 184.138,82.660 183.019,82.600 182.959 C 82.540 182.900,82.353 183.822,82.185 185.010 M208.798 183.893 C 208.793 184.242,208.938 185.441,209.120 186.557 C 209.304 187.687,209.458 188.192,209.466 187.698 C 209.474 187.210,209.329 186.011,209.144 185.035 C 208.959 184.058,208.803 183.545,208.798 183.893 M91.975 187.254 C 91.889 187.568,91.768 189.252,91.708 190.996 L 91.597 194.166 91.816 191.376 C 91.936 189.841,92.101 188.158,92.183 187.635 C 92.348 186.587,92.223 186.357,91.975 187.254 M199.317 188.713 C 199.541 190.816,199.545 199.627,199.323 202.283 C 199.191 203.872,199.213 204.147,199.425 203.551 C 199.804 202.487,199.805 188.544,199.426 187.698 C 199.198 187.190,199.177 187.392,199.317 188.713 M81.738 188.840 C 81.741 189.398,81.793 189.596,81.853 189.280 C 81.914 188.965,81.912 188.508,81.848 188.266 C 81.785 188.023,81.735 188.282,81.738 188.840 M209.576 189.601 C 209.579 190.159,209.630 190.357,209.691 190.041 C 209.752 189.726,209.749 189.269,209.686 189.027 C 209.623 188.784,209.573 189.042,209.576 189.601 M81.525 195.561 C 81.525 198.003,81.563 199.001,81.609 197.781 C 81.656 196.560,81.656 194.562,81.609 193.342 C 81.563 192.121,81.525 193.120,81.525 195.561 M209.868 195.688 C 209.868 197.920,209.907 198.799,209.954 197.642 C 210.001 196.484,210.001 194.658,209.954 193.583 C 209.906 192.509,209.868 193.456,209.868 195.688 M91.382 195.561 C 91.382 196.189,91.431 196.446,91.492 196.132 C 91.552 195.818,91.552 195.304,91.492 194.990 C 91.431 194.677,91.382 194.933,91.382 195.561 M91.701 200.148 C 91.758 201.904,91.921 203.616,92.063 203.953 C 92.272 204.449,92.294 204.348,92.181 203.424 C 92.104 202.796,91.941 201.084,91.818 199.620 L 91.596 196.956 91.701 200.148 M209.576 201.522 C 209.579 202.080,209.630 202.278,209.691 201.963 C 209.752 201.647,209.749 201.191,209.686 200.948 C 209.623 200.706,209.573 200.964,209.576 201.522 M81.851 203.328 C 81.926 204.322,82.137 205.862,82.320 206.752 L 82.654 208.370 82.512 206.848 C 82.434 206.011,82.222 204.471,82.042 203.424 L 81.714 201.522 81.851 203.328 M209.171 204.104 C 208.933 205.365,208.710 207.736,208.830 207.736 C 208.995 207.736,209.571 203.653,209.427 203.508 C 209.360 203.442,209.246 203.710,209.171 204.104 M198.268 207.797 C 197.582 210.838,197.566 210.943,197.941 209.990 C 198.367 208.905,198.950 206.221,198.794 206.065 C 198.734 206.005,198.497 206.784,198.268 207.797 M92.608 206.722 C 92.599 206.931,92.749 207.673,92.944 208.370 C 93.138 209.068,93.304 209.467,93.314 209.258 C 93.324 209.049,93.173 208.307,92.979 207.609 C 92.785 206.912,92.618 206.512,92.608 206.722 M208.104 210.179 C 207.701 211.960,207.396 213.068,206.802 214.919 C 206.452 216.010,206.213 216.951,206.272 217.010 C 206.395 217.133,207.856 212.473,208.222 210.787 C 208.358 210.163,208.424 209.607,208.368 209.552 C 208.313 209.497,208.194 209.779,208.104 210.179 M83.120 210.653 C 83.202 211.211,83.359 211.896,83.470 212.175 L 83.671 212.682 83.668 212.175 C 83.666 211.896,83.509 211.211,83.318 210.653 L 82.973 209.639 83.120 210.653 M197.247 211.477 C 197.179 211.722,197.044 212.207,196.948 212.555 C 196.830 212.981,196.857 213.106,197.028 212.936 C 197.307 212.659,197.711 211.034,197.501 211.034 C 197.429 211.034,197.315 211.233,197.247 211.477 M93.973 212.048 C 94.074 212.536,94.249 213.036,94.363 213.157 C 94.477 213.279,94.475 212.956,94.359 212.440 C 94.087 211.233,93.730 210.872,93.973 212.048 M83.984 213.824 C 83.990 214.033,84.157 214.604,84.354 215.092 L 84.713 215.980 84.560 215.092 C 84.385 214.086,83.964 213.156,83.984 213.824 M94.731 214.130 C 94.931 215.133,95.365 216.197,95.514 216.048 C 95.584 215.978,95.406 215.362,95.118 214.681 C 94.829 214.000,94.655 213.752,94.731 214.130 M196.112 214.823 C 195.947 215.295,195.867 215.736,195.933 215.802 C 196.103 215.972,196.612 214.567,196.502 214.236 C 196.452 214.086,196.277 214.351,196.112 214.823 M95.636 216.432 C 95.614 216.819,96.395 218.465,96.534 218.325 C 96.612 218.247,96.444 217.745,96.161 217.208 C 95.879 216.672,95.642 216.323,95.636 216.432 M84.985 216.799 C 84.967 217.214,85.767 219.200,85.900 219.067 C 85.957 219.010,85.778 218.406,85.501 217.725 C 85.225 217.044,84.993 216.627,84.985 216.799 M194.347 219.033 C 193.761 220.214,193.337 221.179,193.404 221.179 C 193.573 221.179,195.615 217.090,195.502 216.978 C 195.452 216.927,194.932 217.852,194.347 219.033 M205.748 217.910 C 205.252 219.236,205.229 219.720,205.712 218.669 C 205.994 218.056,206.169 217.498,206.100 217.429 C 206.031 217.361,205.873 217.577,205.748 217.910 M96.893 219.243 C 96.893 219.413,98.784 222.817,100.063 224.952 C 103.877 231.313,113.105 239.929,119.214 242.832 C 120.296 243.346,119.984 243.125,117.087 241.326 C 109.306 236.494,103.364 230.232,98.393 221.629 C 97.568 220.200,96.893 219.127,96.893 219.243 M86.134 219.911 C 87.408 225.182,95.805 237.224,102.242 243.008 C 107.244 247.503,117.892 254.545,118.606 253.831 C 118.676 253.761,117.671 253.183,116.373 252.546 C 104.789 246.858,93.779 235.651,88.172 223.843 C 86.058 219.390,85.965 219.211,86.134 219.911 M204.706 220.511 C 204.340 221.473,203.475 223.361,202.628 225.048 C 202.225 225.850,201.961 226.506,202.041 226.506 C 202.267 226.506,205.250 220.131,205.096 219.977 C 205.021 219.902,204.846 220.142,204.706 220.511 M190.872 225.067 C 185.856 232.771,178.465 239.488,170.742 243.361 C 169.996 243.735,169.443 244.099,169.513 244.170 C 169.676 244.333,173.256 242.312,175.904 240.564 C 181.851 236.634,188.153 230.132,191.711 224.254 C 193.065 222.017,192.502 222.562,190.872 225.067 M201.249 227.560 C 196.661 236.464,185.307 247.318,175.284 252.383 C 172.419 253.831,171.906 254.249,174.331 253.162 C 181.832 249.796,191.101 242.109,196.991 234.369 C 199.205 231.460,202.024 227.051,201.809 226.835 C 201.741 226.768,201.489 227.094,201.249 227.560 M120.228 243.379 C 120.228 243.511,122.493 244.678,123.473 245.050 C 123.845 245.192,124.079 245.237,123.994 245.152 C 123.753 244.911,120.228 243.252,120.228 243.379 M167.406 245.022 C 166.918 245.290,166.590 245.513,166.678 245.519 C 166.940 245.536,168.675 244.772,168.675 244.638 C 168.675 244.417,168.310 244.527,167.406 245.022 M125.174 245.776 C 126.377 246.319,127.522 246.676,127.299 246.439 C 127.129 246.257,124.506 245.262,124.290 245.297 C 124.218 245.309,124.616 245.525,125.174 245.776 M164.616 246.127 C 163.849 246.444,162.676 246.854,162.009 247.039 C 161.343 247.224,160.852 247.430,160.920 247.498 C 161.066 247.644,164.980 246.378,165.885 245.891 C 166.877 245.357,166.155 245.492,164.616 246.127 M128.218 246.905 C 128.637 247.092,129.379 247.315,129.867 247.401 L 130.755 247.557 129.867 247.217 C 129.379 247.030,128.637 246.806,128.218 246.721 L 127.457 246.565 128.218 246.905 M158.275 248.082 C 156.891 248.481,156.808 248.533,157.755 248.407 C 158.897 248.256,161.007 247.589,160.304 247.601 C 160.095 247.605,159.182 247.821,158.275 248.082 M132.150 248.045 C 132.359 248.165,133.044 248.330,133.672 248.412 L 134.813 248.561 133.545 248.191 C 132.121 247.777,131.581 247.720,132.150 248.045 M136.873 249.067 C 137.169 249.192,138.367 249.354,139.536 249.428 C 141.315 249.541,141.434 249.527,140.266 249.344 C 137.687 248.939,136.298 248.826,136.873 249.067 M151.807 249.228 L 149.524 249.556 151.795 249.418 C 153.746 249.300,156.289 248.811,154.597 248.880 C 154.318 248.891,153.063 249.048,151.807 249.228 M144.271 249.776 C 145.149 249.826,146.518 249.825,147.315 249.775 C 148.112 249.725,147.394 249.684,145.720 249.685 C 144.046 249.685,143.394 249.726,144.271 249.776 M120.638 254.785 C 122.785 255.789,127.068 257.291,127.254 257.105 C 127.326 257.033,126.764 256.793,126.006 256.573 C 125.248 256.352,123.390 255.661,121.878 255.036 C 118.657 253.705,118.076 253.587,120.638 254.785 M170.815 254.513 C 170.109 254.834,169.082 255.241,168.532 255.417 C 167.983 255.593,167.422 255.840,167.287 255.965 C 167.151 256.091,167.664 255.977,168.428 255.710 C 170.080 255.135,172.713 253.944,172.353 253.935 C 172.213 253.932,171.521 254.192,170.815 254.513 M165.124 256.603 C 164.914 256.673,164.584 256.781,164.390 256.843 C 164.195 256.905,164.091 257.010,164.158 257.077 C 164.225 257.144,164.727 257.036,165.273 256.836 C 166.169 256.507,166.036 256.299,165.124 256.603 M128.979 257.676 C 129.757 258.008,131.335 258.278,130.881 258.002 C 130.672 257.874,130.044 257.700,129.486 257.614 C 128.825 257.513,128.649 257.535,128.979 257.676 M161.101 257.742 C 160.632 257.877,160.294 258.032,160.349 258.087 C 160.404 258.142,161.016 258.032,161.708 257.842 C 162.401 257.652,162.739 257.496,162.460 257.496 C 162.181 257.497,161.570 257.607,161.101 257.742 M155.612 258.842 C 154.635 259.016,154.179 259.168,154.597 259.180 C 155.016 259.193,156.100 259.050,157.007 258.864 C 159.090 258.437,157.987 258.419,155.612 258.842 M134.902 258.972 C 135.369 259.082,136.511 259.234,137.438 259.308 L 139.125 259.443 137.223 259.097 C 135.107 258.712,133.418 258.621,134.902 258.972 M152.505 259.401 C 152.749 259.465,153.148 259.465,153.393 259.401 C 153.637 259.337,153.437 259.285,152.949 259.285 C 152.460 259.285,152.261 259.337,152.505 259.401 M140.463 259.666 C 141.060 259.720,141.973 259.719,142.492 259.664 C 143.012 259.610,142.524 259.566,141.408 259.567 C 140.292 259.568,139.867 259.612,140.463 259.666 M149.075 259.663 C 149.525 259.719,150.324 259.720,150.850 259.665 C 151.377 259.610,151.008 259.564,150.032 259.563 C 149.055 259.562,148.625 259.607,149.075 259.663 M144.649 259.920 C 145.316 259.973,146.344 259.972,146.932 259.919 C 147.521 259.866,146.975 259.823,145.720 259.824 C 144.464 259.824,143.983 259.868,144.649 259.920 M247.812 288.598 C 247.812 289.535,246.233 290.679,244.933 290.684 C 241.712 290.698,239.650 292.781,239.736 295.934 L 239.775 297.400 239.926 295.751 C 240.201 292.728,242.045 291.045,245.265 290.877 C 246.627 290.807,248.585 289.083,247.985 288.484 C 247.890 288.389,247.812 288.440,247.812 288.598 " stroke="none" fill="#965321" fill-rule="evenodd"></path><path id="path7" d="M50.498 89.858 C 50.162 90.030,49.649 90.628,49.357 91.186 L 48.827 92.200 48.750 192.898 C 48.668 300.491,48.611 295.566,49.959 297.010 L 50.679 297.781 145.277 297.781 L 239.875 297.781 239.754 296.527 C 239.588 294.797,239.854 293.621,240.616 292.715 L 241.263 291.947 148.778 291.947 C 47.202 291.947,55.370 292.073,53.686 290.475 C 51.815 288.699,51.997 299.152,52.002 193.606 L 52.006 99.302 52.572 98.312 C 53.306 97.029,54.726 95.898,55.962 95.611 C 56.532 95.479,95.424 95.381,148.707 95.377 L 240.470 95.371 240.083 94.623 C 239.585 93.660,239.585 91.248,240.083 90.285 L 240.470 89.537 145.790 89.541 C 71.153 89.544,50.980 89.611,50.498 89.858 " stroke="none" fill="#cb735b" fill-rule="evenodd"></path><path id="path8" d="M49.643 90.296 C 49.448 90.575,49.213 90.727,49.121 90.635 C 49.029 90.542,48.954 90.600,48.954 90.763 C 48.954 91.260,49.380 91.094,49.818 90.425 C 50.310 89.675,50.157 89.563,49.643 90.296 M48.193 193.659 C 48.193 260.368,48.278 293.976,48.446 293.976 C 48.615 293.976,48.700 260.368,48.700 193.659 C 48.700 126.950,48.615 93.342,48.446 93.342 C 48.278 93.342,48.193 126.950,48.193 193.659 M48.954 296.465 C 48.954 296.660,50.328 297.781,50.567 297.781 C 50.629 297.781,50.359 297.438,49.968 297.020 C 49.250 296.251,48.954 296.089,48.954 296.465 " stroke="none" fill="#d8a08c" fill-rule="evenodd"></path><path id="path0" d="M353.202 16.995 C 351.389 18.375,349.791 19.598,349.651 19.712 C 349.512 19.825,347.572 21.286,345.341 22.958 C 343.110 24.631,341.112 26.141,340.902 26.315 C 340.532 26.622,329.211 35.123,327.813 36.145 C 327.231 36.570,326.458 37.167,323.779 39.255 C 323.640 39.364,320.044 42.064,315.789 45.256 C 311.535 48.447,307.754 51.298,307.388 51.591 C 307.022 51.884,306.401 52.353,306.008 52.632 C 305.615 52.911,304.374 53.845,303.249 54.708 C 300.815 56.576,301.846 55.798,291.694 63.430 C 287.161 66.838,283.280 69.765,283.070 69.935 C 282.502 70.395,267.494 81.703,259.296 87.848 L 252.136 93.215 252.092 193.722 C 252.068 249.001,252.037 294.364,252.023 294.528 C 252.009 294.693,255.488 297.461,259.754 300.679 C 264.020 303.898,267.844 306.787,268.251 307.099 C 268.658 307.412,269.106 307.754,269.245 307.860 C 269.385 307.967,272.295 310.157,275.713 312.728 C 285.739 320.269,302.072 332.590,307.500 336.707 C 310.265 338.804,312.855 340.748,313.257 341.027 C 313.658 341.306,317.595 344.274,322.005 347.622 C 326.416 350.970,330.352 353.938,330.751 354.217 C 331.151 354.496,333.798 356.484,336.633 358.636 C 339.468 360.787,344.528 364.603,347.876 367.117 C 351.224 369.630,354.573 372.178,355.318 372.780 C 356.063 373.382,356.777 373.874,356.903 373.874 C 357.041 373.874,357.134 301.712,357.134 194.166 C 357.134 50.561,357.070 14.461,356.817 14.472 C 356.642 14.479,355.016 15.615,353.202 16.995 M240.812 89.731 C 239.413 90.665,239.684 94.355,241.257 95.785 C 243.554 97.875,245.855 97.683,249.218 95.122 C 250.955 93.799,251.615 93.144,251.611 92.748 C 251.603 91.902,250.704 90.117,250.133 89.811 C 249.556 89.502,241.262 89.431,240.812 89.731 M294.921 124.202 C 296.968 125.859,296.777 118.390,296.704 193.702 L 296.639 260.711 296.108 261.427 C 293.569 264.851,288.816 264.243,287.292 260.299 C 286.792 259.005,286.635 128.833,287.132 127.047 C 288.083 123.623,292.302 122.082,294.921 124.202 M242.439 291.583 C 240.700 292.456,239.899 293.923,240.000 296.049 L 240.076 297.654 244.838 297.723 C 250.143 297.800,250.348 297.751,251.118 296.243 C 251.835 294.836,251.909 294.928,247.778 292.089 C 245.772 290.710,244.429 290.583,242.439 291.583 " stroke="none" fill="#6c8b04" fill-rule="evenodd"></path><path id="path1" d="M102.557 95.561 C 127.924 95.597,169.357 95.597,194.631 95.561 C 219.905 95.526,199.150 95.496,148.510 95.496 C 97.869 95.496,77.191 95.526,102.557 95.561 M53.377 97.210 L 52.632 98.034 53.456 97.289 C 54.224 96.595,54.397 96.386,54.201 96.386 C 54.157 96.386,53.786 96.756,53.377 97.210 M52.156 99.059 C 52.069 99.285,52.026 141.950,52.060 193.870 L 52.123 288.269 52.250 193.532 C 52.386 92.544,52.392 98.442,52.156 99.059 M53.689 99.598 C 53.596 99.691,53.519 142.095,53.519 193.828 L 53.519 287.889 150.222 287.825 L 246.925 287.762 246.925 193.659 L 246.925 99.556 150.391 99.492 C 97.298 99.457,53.782 99.505,53.689 99.598 M155.739 131.992 C 161.574 132.994,163.753 133.590,169.014 135.619 C 172.869 137.106,175.964 138.682,180.706 141.573 C 188.898 146.567,198.283 156.884,202.784 165.843 C 204.079 168.422,206.214 173.319,206.214 173.711 C 206.214 173.861,206.376 174.359,206.574 174.817 C 210.153 183.115,211.011 198.783,208.487 209.765 C 204.312 227.938,192.097 243.906,175.904 252.361 C 147.567 267.156,115.204 260.099,94.507 234.613 C 92.188 231.757,88.570 225.630,86.874 221.687 C 86.364 220.501,85.797 219.188,85.614 218.770 C 85.431 218.351,85.205 217.724,85.111 217.375 C 85.017 217.026,84.841 216.512,84.721 216.233 C 83.716 213.905,82.266 207.475,81.921 203.814 C 81.776 202.274,81.547 200.317,81.412 199.463 C 81.100 197.491,81.100 194.797,81.411 192.027 C 81.545 190.832,81.787 188.599,81.948 187.064 C 82.307 183.654,84.120 175.650,84.706 174.889 C 84.814 174.750,84.983 174.293,85.083 173.874 C 85.183 173.456,85.417 172.771,85.604 172.353 C 85.791 171.934,86.415 170.507,86.991 169.182 C 90.460 161.202,97.796 151.436,103.961 146.590 C 104.571 146.112,105.200 145.606,105.359 145.466 C 111.294 140.278,122.764 134.642,130.881 132.926 C 131.649 132.764,132.735 132.515,133.295 132.374 C 137.254 131.375,150.801 131.144,155.739 131.992 M140.140 141.795 C 138.884 141.921,137.628 142.078,137.349 142.144 C 137.070 142.210,135.815 142.489,134.559 142.764 C 120.483 145.852,108.881 153.634,101.037 165.250 C 96.440 172.059,94.492 176.874,92.264 186.937 C 91.866 188.734,91.852 201.964,92.245 203.932 C 93.031 207.854,93.391 209.432,93.606 209.892 C 93.736 210.171,94.009 211.027,94.212 211.795 C 98.061 226.348,111.626 240.572,127.077 246.253 C 142.354 251.871,161.583 249.904,174.032 241.450 C 174.837 240.904,175.566 240.457,175.653 240.457 C 175.740 240.457,176.231 240.147,176.745 239.768 C 191.729 228.717,199.458 213.725,199.467 195.688 C 199.471 187.669,199.000 184.681,196.655 177.830 C 192.185 164.773,182.496 153.692,170.070 147.427 C 167.138 145.949,165.512 145.218,164.616 144.973 C 164.268 144.878,163.754 144.696,163.475 144.568 C 162.169 143.972,156.250 142.512,153.202 142.035 C 151.025 141.694,142.671 141.540,140.140 141.795 M53.519 290.298 C 53.993 290.786,54.437 291.186,54.507 291.186 C 54.576 291.186,54.246 290.786,53.773 290.298 C 53.300 289.810,52.855 289.410,52.786 289.410 C 52.716 289.410,53.046 289.810,53.519 290.298 M102.283 291.883 C 127.777 291.919,169.496 291.919,194.990 291.883 C 220.485 291.848,199.626 291.819,148.637 291.819 C 97.647 291.819,76.788 291.848,102.283 291.883 " stroke="none" fill="#d95526" fill-rule="evenodd"></path><path id="path2" d="M289.666 123.824 C 288.429 124.464,287.532 125.604,287.132 127.047 C 286.635 128.833,286.792 259.005,287.292 260.299 C 288.816 264.243,293.569 264.851,296.108 261.427 L 296.639 260.711 296.704 193.702 C 296.767 128.782,296.754 126.666,296.297 125.814 C 295.050 123.489,292.053 122.590,289.666 123.824 M140.266 131.659 C 139.639 131.781,137.812 132.050,136.208 132.258 C 126.074 133.572,115.233 138.063,107.419 144.183 C 106.861 144.620,106.119 145.164,105.770 145.392 C 101.213 148.372,93.016 158.067,89.437 164.708 C 66.214 207.799,97.059 259.653,145.847 259.544 C 152.302 259.529,162.009 258.164,164.117 256.974 C 164.331 256.853,164.902 256.671,165.386 256.569 C 165.869 256.466,166.607 256.232,167.026 256.047 C 167.445 255.862,168.586 255.405,169.562 255.030 C 183.400 249.727,196.548 237.578,203.039 224.096 C 204.908 220.214,205.453 219.011,205.453 218.770 C 205.453 218.672,205.615 218.233,205.813 217.794 C 206.936 215.294,208.488 209.339,208.983 205.635 C 209.118 204.628,209.302 203.519,209.394 203.171 C 209.485 202.822,209.612 199.968,209.676 196.829 C 210.092 176.475,201.225 157.685,185.363 145.303 C 181.992 142.671,181.652 142.427,179.467 141.072 C 176.430 139.189,174.328 138.132,169.309 135.964 C 166.968 134.952,162.559 133.597,160.178 133.158 C 159.341 133.004,158.307 132.769,157.881 132.637 C 155.278 131.830,142.931 131.144,140.266 131.659 M154.471 142.015 C 172.776 145.443,186.774 156.032,194.744 172.479 C 195.904 174.874,196.605 176.747,197.971 181.103 C 200.788 190.086,200.283 205.721,196.932 213.228 C 196.736 213.668,196.576 214.164,196.576 214.331 C 196.576 214.826,194.172 219.973,192.964 222.067 C 192.641 222.625,192.046 223.653,191.640 224.350 C 184.147 237.228,169.236 246.818,152.695 249.398 C 150.480 249.743,140.551 249.727,138.491 249.375 C 121.818 246.525,107.516 237.435,100.063 224.950 C 97.486 220.633,95.236 216.135,94.749 214.331 C 94.655 213.982,94.477 213.469,94.352 213.190 C 93.981 212.357,92.623 207.190,92.451 205.961 C 92.363 205.333,92.186 204.477,92.057 204.058 C 91.349 201.760,91.355 189.620,92.065 186.967 C 92.201 186.463,92.488 185.115,92.704 183.972 C 93.092 181.924,94.781 176.379,95.471 174.892 C 95.666 174.472,96.169 173.385,96.590 172.476 C 106.553 150.938,131.634 137.738,154.471 142.015 " stroke="none" fill="#151514" fill-rule="evenodd"></path><path id="path3" d="M351.554 5.705 C 347.438 8.833,343.541 11.769,342.894 12.228 C 342.247 12.687,339.907 14.437,337.694 16.117 C 335.482 17.796,329.677 22.183,324.794 25.864 C 319.911 29.546,313.177 34.629,309.829 37.159 C 306.481 39.689,299.746 44.768,294.864 48.446 C 289.981 52.124,282.790 57.545,278.884 60.494 C 269.516 67.567,258.855 75.601,249.334 82.765 C 245.079 85.966,241.343 88.828,241.032 89.125 L 240.467 89.664 245.014 89.585 C 250.154 89.495,250.407 89.560,251.126 91.143 C 251.922 92.897,251.827 93.118,249.524 94.874 C 248.373 95.751,247.326 96.562,247.198 96.674 C 247.060 96.795,247.269 97.430,247.705 98.218 L 248.446 99.556 248.513 192.898 C 248.585 293.363,248.657 288.090,247.187 290.015 L 246.347 291.116 247.904 292.179 C 251.863 294.881,251.832 294.843,251.118 296.243 C 250.343 297.761,250.135 297.810,244.793 297.728 L 240.004 297.654 240.473 298.312 C 241.103 299.195,241.792 299.742,251.490 307.044 C 267.608 319.182,277.400 326.564,281.928 329.992 C 284.439 331.894,291.401 337.144,297.400 341.660 C 303.399 346.176,310.818 351.770,313.887 354.091 C 316.956 356.412,322.720 360.763,326.696 363.760 C 330.672 366.756,337.235 371.706,341.281 374.758 C 345.327 377.811,350.691 381.849,353.202 383.731 C 355.713 385.614,358.178 387.518,358.680 387.961 C 361.251 390.234,364.451 390.012,366.426 387.422 L 367.153 386.469 367.153 194.166 L 367.153 1.863 366.442 0.931 L 365.732 0.000 362.384 0.009 L 359.036 0.017 351.554 5.705 M357.134 194.166 C 357.134 301.712,357.041 373.874,356.903 373.874 C 356.777 373.874,356.063 373.382,355.318 372.780 C 354.573 372.178,351.224 369.630,347.876 367.117 C 344.528 364.603,339.468 360.787,336.633 358.636 C 333.798 356.484,331.151 354.496,330.751 354.217 C 330.352 353.938,326.416 350.970,322.005 347.622 C 317.595 344.274,313.658 341.306,313.257 341.027 C 312.855 340.748,310.265 338.804,307.500 336.707 C 302.072 332.590,285.739 320.269,275.713 312.728 C 272.295 310.157,269.385 307.967,269.245 307.860 C 269.106 307.754,268.658 307.412,268.251 307.099 C 267.844 306.787,264.020 303.898,259.754 300.679 C 255.488 297.461,252.009 294.693,252.023 294.528 C 252.037 294.364,252.068 249.001,252.092 193.722 L 252.136 93.215 259.296 87.848 C 267.494 81.703,282.502 70.395,283.070 69.935 C 283.280 69.765,287.161 66.838,291.694 63.430 C 301.846 55.798,300.815 56.576,303.249 54.708 C 304.374 53.845,305.615 52.911,306.008 52.632 C 306.401 52.353,307.022 51.884,307.388 51.591 C 307.754 51.298,311.535 48.447,315.789 45.256 C 320.044 42.064,323.640 39.364,323.779 39.255 C 326.458 37.167,327.231 36.570,327.813 36.145 C 329.211 35.123,340.532 26.622,340.902 26.315 C 341.112 26.141,343.110 24.631,345.341 22.958 C 347.572 21.286,349.512 19.825,349.651 19.712 C 351.632 18.098,356.577 14.482,356.817 14.472 C 357.070 14.461,357.134 50.561,357.134 194.166 " stroke="none" fill="#93aa4a" fill-rule="evenodd"></path><path id="path4" d="M358.148 0.189 C 357.939 0.271,354.058 3.137,349.524 6.558 C 329.416 21.731,326.394 24.011,319.087 29.517 C 314.832 32.723,307.641 38.145,303.107 41.566 C 283.519 56.344,271.019 65.773,258.465 75.236 C 254.211 78.443,248.366 82.859,245.477 85.049 L 240.224 89.030 145.384 89.030 L 50.544 89.030 49.876 89.556 C 49.508 89.845,49.207 90.239,49.207 90.432 C 49.207 90.656,49.431 90.558,49.830 90.160 L 50.453 89.537 145.502 89.537 C 237.834 89.537,240.566 89.524,241.074 89.065 C 241.362 88.805,245.079 85.972,249.334 82.769 C 259.983 74.752,270.458 66.856,278.884 60.494 C 282.790 57.545,289.981 52.124,294.864 48.446 C 299.746 44.768,306.481 39.689,309.829 37.159 C 313.177 34.629,319.911 29.546,324.794 25.864 C 329.677 22.183,335.484 17.796,337.699 16.117 C 339.915 14.437,342.280 12.663,342.955 12.175 C 343.988 11.428,357.433 1.271,358.642 0.325 C 359.053 0.003,358.802 -0.067,358.148 0.189 M366.442 0.931 L 367.153 1.863 367.153 194.166 L 367.153 386.469 366.426 387.422 C 364.451 390.012,361.251 390.234,358.680 387.961 C 358.178 387.518,355.713 385.614,353.202 383.731 C 350.691 381.849,345.327 377.811,341.281 374.758 C 337.235 371.706,330.900 366.928,327.204 364.141 C 323.507 361.354,317.514 356.832,313.887 354.091 C 310.260 351.351,303.069 345.929,297.907 342.042 C 292.746 338.154,285.327 332.559,281.420 329.606 C 270.417 321.290,254.897 309.595,248.320 304.664 C 245.041 302.207,241.811 299.652,241.142 298.988 L 239.925 297.781 145.105 297.781 C 61.129 297.781,50.248 297.737,49.968 297.400 C 49.795 297.191,49.532 297.020,49.386 297.020 C 49.239 297.020,49.387 297.305,49.715 297.654 L 50.310 298.288 145.082 298.288 L 239.854 298.288 240.383 299.004 C 240.674 299.397,243.406 301.598,246.455 303.893 C 249.503 306.189,255.250 310.526,259.226 313.531 C 263.202 316.536,271.078 322.476,276.728 326.732 C 287.750 335.033,297.937 342.716,307.292 349.783 C 310.501 352.207,317.292 357.326,322.384 361.158 C 327.476 364.991,331.928 368.344,332.276 368.610 C 334.564 370.353,339.992 374.452,348.129 380.581 C 353.291 384.468,358.028 388.073,358.656 388.591 C 361.700 391.104,365.525 390.388,367.358 386.961 L 367.914 385.923 367.980 194.927 C 368.049 -5.616,368.092 1.945,366.898 0.657 C 365.977 -0.337,365.633 -0.130,366.442 0.931 M48.611 91.251 C 48.546 91.357,48.412 91.870,48.314 92.393 C 48.061 93.742,48.531 93.574,48.850 92.200 C 49.082 91.198,48.956 90.694,48.611 91.251 M48.314 294.925 C 48.513 295.982,48.639 296.259,48.922 296.259 C 49.028 296.259,48.995 295.745,48.850 295.117 C 48.531 293.744,48.061 293.575,48.314 294.925 " stroke="none" fill="#c9ca9b" fill-rule="evenodd"></path><path id="path5" d="M55.168 96.045 C 54.036 96.641,52.994 97.677,52.600 98.597 C 52.135 99.684,52.071 287.824,52.535 288.729 C 53.016 289.667,54.364 290.953,55.262 291.332 C 56.842 291.998,241.049 291.860,242.521 291.191 C 243.155 290.904,244.185 290.687,244.933 290.684 C 246.369 290.678,247.580 289.697,247.999 288.201 C 248.254 287.288,248.251 100.592,247.996 99.392 C 247.647 97.754,246.979 97.160,245.786 97.428 C 244.398 97.740,242.584 97.301,241.423 96.373 L 240.486 95.625 148.208 95.635 C 64.639 95.644,55.857 95.683,55.168 96.045 M246.925 193.659 L 246.925 287.762 150.222 287.825 L 53.519 287.889 53.519 193.828 C 53.519 142.095,53.596 99.691,53.689 99.598 C 53.782 99.505,97.298 99.457,150.391 99.492 L 246.925 99.556 246.925 193.659 M81.262 195.942 C 81.262 197.476,81.304 198.071,81.354 197.264 C 81.405 196.457,81.405 195.201,81.353 194.474 C 81.302 193.747,81.261 194.407,81.262 195.942 M91.647 195.561 C 91.647 196.468,91.693 196.839,91.750 196.386 C 91.806 195.932,91.806 195.190,91.750 194.737 C 91.693 194.283,91.647 194.654,91.647 195.561 M142.359 259.909 C 142.603 259.972,143.003 259.972,143.247 259.909 C 143.491 259.845,143.291 259.793,142.803 259.793 C 142.315 259.793,142.115 259.845,142.359 259.909 M148.193 259.909 C 148.437 259.972,148.836 259.972,149.081 259.909 C 149.325 259.845,149.125 259.793,148.637 259.793 C 148.148 259.793,147.949 259.845,148.193 259.909 " stroke="none" fill="#ac2c04" fill-rule="evenodd"></path><path id="path6" d="M239.990 90.436 C 238.353 94.030,241.879 98.306,245.761 97.433 C 246.548 97.257,246.842 97.296,247.184 97.622 C 247.587 98.007,247.593 97.998,247.284 97.482 C 246.982 96.979,246.806 96.943,245.277 97.071 C 241.494 97.388,238.573 93.597,240.223 90.513 C 240.374 90.231,240.450 89.953,240.391 89.895 C 240.333 89.836,240.153 90.080,239.990 90.436 M248.014 99.556 C 248.112 100.114,248.193 142.778,248.193 194.365 C 248.193 245.952,248.279 287.744,248.385 287.236 C 248.731 285.567,248.490 99.628,248.140 99.049 C 247.882 98.620,247.862 98.699,248.014 99.556 M137.986 131.674 C 135.259 131.990,135.187 132.155,137.857 131.973 C 140.191 131.814,142.266 131.420,140.647 131.443 C 140.228 131.450,139.031 131.553,137.986 131.674 M150.343 131.621 C 150.794 131.736,152.221 131.894,153.514 131.972 C 155.044 132.064,155.467 132.043,154.724 131.911 C 153.047 131.613,149.350 131.368,150.343 131.621 M134.242 132.324 C 134.486 132.388,134.886 132.388,135.130 132.324 C 135.374 132.261,135.174 132.208,134.686 132.208 C 134.198 132.208,133.998 132.261,134.242 132.324 M131.924 132.677 C 131.312 132.798,130.742 132.969,130.656 133.059 C 130.464 133.261,132.595 132.922,133.291 132.641 C 133.939 132.379,133.368 132.394,131.924 132.677 M157.531 132.497 C 157.725 132.702,161.583 133.492,161.721 133.354 C 161.819 133.256,160.712 132.986,158.275 132.516 C 157.787 132.421,157.452 132.413,157.531 132.497 M162.334 133.521 C 162.334 133.721,165.138 134.503,165.295 134.346 C 165.368 134.272,164.932 134.084,164.325 133.927 C 163.718 133.770,163.022 133.583,162.777 133.513 C 162.533 133.442,162.334 133.445,162.334 133.521 M126.823 133.981 C 126.335 134.126,126.055 134.289,126.202 134.343 C 126.348 134.397,126.919 134.276,127.470 134.074 C 128.618 133.654,128.152 133.586,126.823 133.981 M123.573 135.113 C 122.972 135.326,122.524 135.545,122.579 135.600 C 122.695 135.715,125.048 134.943,125.048 134.789 C 125.048 134.630,124.759 134.694,123.573 135.113 M166.646 134.897 C 166.855 135.026,167.311 135.208,167.660 135.302 C 168.101 135.420,168.178 135.400,167.914 135.236 C 167.705 135.107,167.248 134.925,166.899 134.832 C 166.458 134.714,166.381 134.734,166.646 134.897 M120.862 136.212 C 120.296 136.490,120.128 136.642,120.482 136.555 C 121.223 136.372,122.502 135.723,122.131 135.718 C 121.991 135.716,121.420 135.938,120.862 136.212 M169.311 135.901 C 169.449 136.023,170.133 136.358,170.831 136.646 C 171.528 136.933,172.527 137.353,173.050 137.579 C 173.573 137.805,174.001 137.930,174.001 137.857 C 174.001 137.706,171.603 136.601,170.072 136.047 C 169.515 135.845,169.173 135.780,169.311 135.901 M118.516 137.216 C 117.923 137.485,117.438 137.762,117.438 137.831 C 117.438 137.999,119.273 137.240,119.581 136.945 C 119.928 136.614,119.731 136.664,118.516 137.216 M115.282 138.830 C 112.457 140.381,111.738 140.826,109.448 142.436 C 107.200 144.017,105.281 145.558,106.024 145.185 C 106.233 145.080,106.861 144.633,107.419 144.191 C 109.903 142.224,115.921 138.491,116.608 138.491 C 116.769 138.491,116.971 138.377,117.058 138.237 C 117.323 137.808,116.867 137.960,115.282 138.830 M174.255 138.093 C 174.255 138.153,175.054 138.610,176.030 139.108 C 178.254 140.241,178.348 140.106,176.179 138.893 C 174.598 138.009,174.255 137.866,174.255 138.093 M178.440 140.398 C 178.719 140.625,179.176 140.923,179.455 141.060 L 179.962 141.309 179.455 140.896 C 179.176 140.669,178.719 140.371,178.440 140.234 L 177.933 139.985 178.440 140.398 M140.015 141.548 C 137.289 141.890,137.223 142.037,139.886 141.835 C 142.784 141.615,148.592 141.612,151.554 141.829 C 153.117 141.943,153.557 141.923,152.949 141.764 C 151.655 141.426,142.237 141.269,140.015 141.548 M180.089 141.376 C 180.089 141.436,180.460 141.720,180.913 142.009 C 181.367 142.297,182.023 142.720,182.372 142.949 C 182.846 143.260,182.814 143.195,182.245 142.690 C 181.492 142.022,180.089 141.167,180.089 141.376 M154.485 142.132 C 154.672 142.331,158.322 143.094,158.454 142.963 C 158.510 142.906,158.008 142.738,157.338 142.590 C 155.207 142.117,154.340 141.978,154.485 142.132 M133.976 142.546 C 133.515 142.655,133.059 142.824,132.961 142.923 C 132.775 143.110,134.361 142.861,135.447 142.531 L 136.081 142.339 135.447 142.343 C 135.098 142.346,134.436 142.437,133.976 142.546 M129.867 143.619 C 129.379 143.764,129.099 143.927,129.245 143.981 C 129.392 144.035,129.963 143.914,130.514 143.713 C 131.662 143.292,131.195 143.225,129.867 143.619 M161.192 143.820 C 162.029 144.094,162.828 144.311,162.968 144.303 C 163.374 144.280,161.511 143.642,160.549 143.475 C 160.066 143.391,160.355 143.547,161.192 143.820 M183.133 143.402 C 183.133 143.470,184.188 144.352,185.479 145.364 C 192.462 150.838,198.335 157.929,202.578 166.011 C 204.490 169.653,204.714 169.720,202.902 166.108 C 199.105 158.542,192.989 151.119,185.669 145.195 C 183.680 143.585,183.133 143.198,183.133 143.402 M126.617 144.752 C 126.015 144.964,125.568 145.183,125.623 145.238 C 125.739 145.354,128.091 144.581,128.091 144.428 C 128.091 144.269,127.803 144.332,126.617 144.752 M163.982 144.676 C 164.401 144.867,165.029 145.093,165.377 145.178 C 165.887 145.303,165.862 145.266,165.250 144.988 C 164.832 144.797,164.204 144.571,163.855 144.485 C 163.346 144.361,163.371 144.398,163.982 144.676 M124.058 145.734 C 123.584 145.939,123.259 146.172,123.337 146.249 C 123.414 146.327,123.917 146.159,124.453 145.876 C 125.584 145.279,125.322 145.185,124.058 145.734 M166.899 145.847 C 167.387 146.114,167.901 146.333,168.041 146.333 C 168.180 146.333,167.895 146.114,167.406 145.847 C 166.918 145.579,166.405 145.361,166.265 145.361 C 166.126 145.361,166.411 145.579,166.899 145.847 M102.967 147.467 C 99.419 150.511,91.780 159.290,92.678 159.290 C 92.732 159.290,93.521 158.286,94.431 157.058 C 96.049 154.877,100.851 149.410,101.171 149.385 C 101.359 149.371,105.441 145.590,105.259 145.599 C 105.191 145.602,104.160 146.443,102.967 147.467 M168.421 146.486 C 168.421 146.550,169.334 147.061,170.450 147.622 C 172.858 148.833,173.149 148.795,170.894 147.564 C 169.195 146.637,168.421 146.300,168.421 146.486 M120.193 147.695 C 119.128 148.282,117.987 148.963,117.657 149.208 C 117.327 149.452,117.857 149.228,118.833 148.709 C 121.560 147.262,122.663 146.613,122.384 146.620 C 122.245 146.623,121.259 147.107,120.193 147.695 M172.733 148.705 C 172.733 148.809,174.862 150.196,175.523 150.522 C 175.732 150.625,175.618 150.477,175.269 150.193 C 174.571 149.624,172.733 148.545,172.733 148.705 M114.883 150.945 C 108.238 155.510,102.458 161.853,98.325 169.116 C 97.023 171.405,96.323 173.010,97.018 172.114 C 97.228 171.843,97.400 171.524,97.400 171.405 C 97.400 171.038,99.691 167.141,101.167 164.997 C 104.839 159.663,110.387 154.134,115.219 150.993 C 116.708 150.025,117.162 149.651,116.849 149.651 C 116.804 149.651,115.920 150.234,114.883 150.945 M176.647 151.225 C 183.446 156.552,186.969 160.170,190.391 165.338 C 191.991 167.755,192.678 168.609,191.750 167.026 C 188.864 162.105,183.272 155.909,178.567 152.419 C 176.667 151.010,175.240 150.122,176.647 151.225 M91.616 160.621 C 90.766 161.867,90.230 162.841,90.394 162.841 C 90.457 162.841,90.889 162.242,91.354 161.509 C 91.820 160.777,92.292 160.035,92.403 159.860 C 92.942 159.019,92.259 159.679,91.616 160.621 M89.664 163.855 C 89.447 164.274,89.327 164.616,89.397 164.616 C 89.467 164.616,89.701 164.274,89.918 163.855 C 90.134 163.437,90.254 163.094,90.184 163.094 C 90.114 163.094,89.880 163.437,89.664 163.855 M87.652 167.724 C 86.913 169.293,86.237 170.862,86.150 171.211 C 85.996 171.825,86.259 171.313,88.040 167.533 C 89.212 165.048,89.284 164.870,89.131 164.870 C 89.056 164.870,88.390 166.154,87.652 167.724 M192.800 169.179 C 193.113 169.736,193.410 170.149,193.461 170.099 C 193.570 169.990,192.521 168.167,192.349 168.167 C 192.284 168.167,192.487 168.623,192.800 169.179 M204.196 169.214 C 204.173 169.550,204.982 171.260,205.106 171.136 C 205.178 171.064,205.005 170.567,204.722 170.030 C 204.439 169.494,204.203 169.127,204.196 169.214 M194.090 171.586 C 194.394 172.211,194.686 172.678,194.739 172.625 C 194.854 172.510,193.829 170.450,193.657 170.450 C 193.592 170.450,193.787 170.961,194.090 171.586 M205.358 171.972 C 205.596 172.927,206.173 174.181,206.175 173.748 C 206.176 173.538,205.957 172.911,205.689 172.353 C 205.420 171.795,205.272 171.623,205.358 171.972 M85.488 172.582 C 84.974 173.933,84.967 174.606,85.479 173.397 C 85.768 172.716,85.946 172.101,85.875 172.030 C 85.804 171.960,85.630 172.208,85.488 172.582 M96.020 173.624 C 95.472 174.935,95.545 175.083,96.161 173.914 C 96.444 173.378,96.617 172.880,96.546 172.809 C 96.474 172.737,96.237 173.104,96.020 173.624 M194.808 173.128 C 194.804 173.276,194.968 173.619,195.173 173.889 C 195.377 174.160,195.549 174.261,195.553 174.113 C 195.558 173.965,195.394 173.623,195.189 173.352 C 194.984 173.081,194.813 172.981,194.808 173.128 M195.690 175.016 C 196.014 176.088,196.801 177.948,196.816 177.676 C 196.834 177.337,195.883 174.743,195.667 174.540 C 195.574 174.453,195.584 174.667,195.690 175.016 M84.507 175.452 C 84.127 176.412,83.872 177.552,84.037 177.552 C 84.194 177.552,84.987 174.947,84.867 174.827 C 84.822 174.782,84.661 175.063,84.507 175.452 M206.488 174.945 C 206.477 175.115,206.753 176.128,207.102 177.196 C 207.451 178.265,207.737 179.267,207.738 179.424 C 207.738 179.580,207.861 180.147,208.010 180.683 C 208.460 182.304,208.549 181.540,208.112 179.803 C 207.606 177.792,206.515 174.528,206.488 174.945 M95.126 175.626 C 94.613 176.977,94.606 177.650,95.118 176.441 C 95.406 175.760,95.584 175.145,95.514 175.074 C 95.443 175.003,95.269 175.252,95.126 175.626 M197.001 178.694 C 197.085 179.112,197.303 179.797,197.488 180.216 L 197.823 180.977 197.672 180.216 C 197.589 179.797,197.370 179.112,197.186 178.694 L 196.850 177.933 197.001 178.694 M93.373 181.156 C 92.937 182.731,92.592 184.249,92.607 184.528 C 92.621 184.807,92.745 184.578,92.881 184.020 C 93.017 183.462,93.411 181.994,93.756 180.757 C 94.100 179.520,94.334 178.460,94.274 178.400 C 94.215 178.341,93.809 179.581,93.373 181.156 M83.215 179.855 C 82.846 181.577,83.045 181.775,83.450 180.089 C 83.621 179.376,83.702 178.734,83.630 178.663 C 83.558 178.591,83.371 179.127,83.215 179.855 M197.941 181.737 C 198.007 182.016,198.202 182.902,198.374 183.705 C 198.546 184.508,198.735 185.116,198.795 185.057 C 198.949 184.902,198.343 182.065,198.058 181.611 C 197.872 181.313,197.846 181.341,197.941 181.737 M82.185 185.010 C 82.016 186.198,81.928 187.317,81.988 187.497 C 82.048 187.678,82.235 186.755,82.403 185.447 C 82.571 184.138,82.660 183.019,82.600 182.959 C 82.540 182.900,82.353 183.822,82.185 185.010 M208.798 183.893 C 208.793 184.242,208.938 185.441,209.120 186.557 C 209.304 187.687,209.458 188.192,209.466 187.698 C 209.474 187.210,209.329 186.011,209.144 185.035 C 208.959 184.058,208.803 183.545,208.798 183.893 M91.975 187.254 C 91.889 187.568,91.768 189.252,91.708 190.996 L 91.597 194.166 91.816 191.376 C 91.936 189.841,92.101 188.158,92.183 187.635 C 92.348 186.587,92.223 186.357,91.975 187.254 M199.317 188.713 C 199.541 190.816,199.545 199.627,199.323 202.283 C 199.191 203.872,199.213 204.147,199.425 203.551 C 199.804 202.487,199.805 188.544,199.426 187.698 C 199.198 187.190,199.177 187.392,199.317 188.713 M81.738 188.840 C 81.741 189.398,81.793 189.596,81.853 189.280 C 81.914 188.965,81.912 188.508,81.848 188.266 C 81.785 188.023,81.735 188.282,81.738 188.840 M209.576 189.601 C 209.579 190.159,209.630 190.357,209.691 190.041 C 209.752 189.726,209.749 189.269,209.686 189.027 C 209.623 188.784,209.573 189.042,209.576 189.601 M81.525 195.561 C 81.525 198.003,81.563 199.001,81.609 197.781 C 81.656 196.560,81.656 194.562,81.609 193.342 C 81.563 192.121,81.525 193.120,81.525 195.561 M209.868 195.688 C 209.868 197.920,209.907 198.799,209.954 197.642 C 210.001 196.484,210.001 194.658,209.954 193.583 C 209.906 192.509,209.868 193.456,209.868 195.688 M91.382 195.561 C 91.382 196.189,91.431 196.446,91.492 196.132 C 91.552 195.818,91.552 195.304,91.492 194.990 C 91.431 194.677,91.382 194.933,91.382 195.561 M91.701 200.148 C 91.758 201.904,91.921 203.616,92.063 203.953 C 92.272 204.449,92.294 204.348,92.181 203.424 C 92.104 202.796,91.941 201.084,91.818 199.620 L 91.596 196.956 91.701 200.148 M209.576 201.522 C 209.579 202.080,209.630 202.278,209.691 201.963 C 209.752 201.647,209.749 201.191,209.686 200.948 C 209.623 200.706,209.573 200.964,209.576 201.522 M81.851 203.328 C 81.926 204.322,82.137 205.862,82.320 206.752 L 82.654 208.370 82.512 206.848 C 82.434 206.011,82.222 204.471,82.042 203.424 L 81.714 201.522 81.851 203.328 M209.171 204.104 C 208.933 205.365,208.710 207.736,208.830 207.736 C 208.995 207.736,209.571 203.653,209.427 203.508 C 209.360 203.442,209.246 203.710,209.171 204.104 M198.268 207.797 C 197.582 210.838,197.566 210.943,197.941 209.990 C 198.367 208.905,198.950 206.221,198.794 206.065 C 198.734 206.005,198.497 206.784,198.268 207.797 M92.608 206.722 C 92.599 206.931,92.749 207.673,92.944 208.370 C 93.138 209.068,93.304 209.467,93.314 209.258 C 93.324 209.049,93.173 208.307,92.979 207.609 C 92.785 206.912,92.618 206.512,92.608 206.722 M208.104 210.179 C 207.701 211.960,207.396 213.068,206.802 214.919 C 206.452 216.010,206.213 216.951,206.272 217.010 C 206.395 217.133,207.856 212.473,208.222 210.787 C 208.358 210.163,208.424 209.607,208.368 209.552 C 208.313 209.497,208.194 209.779,208.104 210.179 M83.120 210.653 C 83.202 211.211,83.359 211.896,83.470 212.175 L 83.671 212.682 83.668 212.175 C 83.666 211.896,83.509 211.211,83.318 210.653 L 82.973 209.639 83.120 210.653 M197.247 211.477 C 197.179 211.722,197.044 212.207,196.948 212.555 C 196.830 212.981,196.857 213.106,197.028 212.936 C 197.307 212.659,197.711 211.034,197.501 211.034 C 197.429 211.034,197.315 211.233,197.247 211.477 M93.973 212.048 C 94.074 212.536,94.249 213.036,94.363 213.157 C 94.477 213.279,94.475 212.956,94.359 212.440 C 94.087 211.233,93.730 210.872,93.973 212.048 M83.984 213.824 C 83.990 214.033,84.157 214.604,84.354 215.092 L 84.713 215.980 84.560 215.092 C 84.385 214.086,83.964 213.156,83.984 213.824 M94.731 214.130 C 94.931 215.133,95.365 216.197,95.514 216.048 C 95.584 215.978,95.406 215.362,95.118 214.681 C 94.829 214.000,94.655 213.752,94.731 214.130 M196.112 214.823 C 195.947 215.295,195.867 215.736,195.933 215.802 C 196.103 215.972,196.612 214.567,196.502 214.236 C 196.452 214.086,196.277 214.351,196.112 214.823 M95.636 216.432 C 95.614 216.819,96.395 218.465,96.534 218.325 C 96.612 218.247,96.444 217.745,96.161 217.208 C 95.879 216.672,95.642 216.323,95.636 216.432 M84.985 216.799 C 84.967 217.214,85.767 219.200,85.900 219.067 C 85.957 219.010,85.778 218.406,85.501 217.725 C 85.225 217.044,84.993 216.627,84.985 216.799 M194.347 219.033 C 193.761 220.214,193.337 221.179,193.404 221.179 C 193.573 221.179,195.615 217.090,195.502 216.978 C 195.452 216.927,194.932 217.852,194.347 219.033 M205.748 217.910 C 205.252 219.236,205.229 219.720,205.712 218.669 C 205.994 218.056,206.169 217.498,206.100 217.429 C 206.031 217.361,205.873 217.577,205.748 217.910 M96.893 219.243 C 96.893 219.413,98.784 222.817,100.063 224.952 C 103.877 231.313,113.105 239.929,119.214 242.832 C 120.296 243.346,119.984 243.125,117.087 241.326 C 109.306 236.494,103.364 230.232,98.393 221.629 C 97.568 220.200,96.893 219.127,96.893 219.243 M86.134 219.911 C 87.408 225.182,95.805 237.224,102.242 243.008 C 107.244 247.503,117.892 254.545,118.606 253.831 C 118.676 253.761,117.671 253.183,116.373 252.546 C 104.789 246.858,93.779 235.651,88.172 223.843 C 86.058 219.390,85.965 219.211,86.134 219.911 M204.706 220.511 C 204.340 221.473,203.475 223.361,202.628 225.048 C 202.225 225.850,201.961 226.506,202.041 226.506 C 202.267 226.506,205.250 220.131,205.096 219.977 C 205.021 219.902,204.846 220.142,204.706 220.511 M190.872 225.067 C 185.856 232.771,178.465 239.488,170.742 243.361 C 169.996 243.735,169.443 244.099,169.513 244.170 C 169.676 244.333,173.256 242.312,175.904 240.564 C 181.851 236.634,188.153 230.132,191.711 224.254 C 193.065 222.017,192.502 222.562,190.872 225.067 M201.249 227.560 C 196.661 236.464,185.307 247.318,175.284 252.383 C 172.419 253.831,171.906 254.249,174.331 253.162 C 181.832 249.796,191.101 242.109,196.991 234.369 C 199.205 231.460,202.024 227.051,201.809 226.835 C 201.741 226.768,201.489 227.094,201.249 227.560 M120.228 243.379 C 120.228 243.511,122.493 244.678,123.473 245.050 C 123.845 245.192,124.079 245.237,123.994 245.152 C 123.753 244.911,120.228 243.252,120.228 243.379 M167.406 245.022 C 166.918 245.290,166.590 245.513,166.678 245.519 C 166.940 245.536,168.675 244.772,168.675 244.638 C 168.675 244.417,168.310 244.527,167.406 245.022 M125.174 245.776 C 126.377 246.319,127.522 246.676,127.299 246.439 C 127.129 246.257,124.506 245.262,124.290 245.297 C 124.218 245.309,124.616 245.525,125.174 245.776 M164.616 246.127 C 163.849 246.444,162.676 246.854,162.009 247.039 C 161.343 247.224,160.852 247.430,160.920 247.498 C 161.066 247.644,164.980 246.378,165.885 245.891 C 166.877 245.357,166.155 245.492,164.616 246.127 M128.218 246.905 C 128.637 247.092,129.379 247.315,129.867 247.401 L 130.755 247.557 129.867 247.217 C 129.379 247.030,128.637 246.806,128.218 246.721 L 127.457 246.565 128.218 246.905 M158.275 248.082 C 156.891 248.481,156.808 248.533,157.755 248.407 C 158.897 248.256,161.007 247.589,160.304 247.601 C 160.095 247.605,159.182 247.821,158.275 248.082 M132.150 248.045 C 132.359 248.165,133.044 248.330,133.672 248.412 L 134.813 248.561 133.545 248.191 C 132.121 247.777,131.581 247.720,132.150 248.045 M136.873 249.067 C 137.169 249.192,138.367 249.354,139.536 249.428 C 141.315 249.541,141.434 249.527,140.266 249.344 C 137.687 248.939,136.298 248.826,136.873 249.067 M151.807 249.228 L 149.524 249.556 151.795 249.418 C 153.746 249.300,156.289 248.811,154.597 248.880 C 154.318 248.891,153.063 249.048,151.807 249.228 M144.271 249.776 C 145.149 249.826,146.518 249.825,147.315 249.775 C 148.112 249.725,147.394 249.684,145.720 249.685 C 144.046 249.685,143.394 249.726,144.271 249.776 M120.638 254.785 C 122.785 255.789,127.068 257.291,127.254 257.105 C 127.326 257.033,126.764 256.793,126.006 256.573 C 125.248 256.352,123.390 255.661,121.878 255.036 C 118.657 253.705,118.076 253.587,120.638 254.785 M170.815 254.513 C 170.109 254.834,169.082 255.241,168.532 255.417 C 167.983 255.593,167.422 255.840,167.287 255.965 C 167.151 256.091,167.664 255.977,168.428 255.710 C 170.080 255.135,172.713 253.944,172.353 253.935 C 172.213 253.932,171.521 254.192,170.815 254.513 M165.124 256.603 C 164.914 256.673,164.584 256.781,164.390 256.843 C 164.195 256.905,164.091 257.010,164.158 257.077 C 164.225 257.144,164.727 257.036,165.273 256.836 C 166.169 256.507,166.036 256.299,165.124 256.603 M128.979 257.676 C 129.757 258.008,131.335 258.278,130.881 258.002 C 130.672 257.874,130.044 257.700,129.486 257.614 C 128.825 257.513,128.649 257.535,128.979 257.676 M161.101 257.742 C 160.632 257.877,160.294 258.032,160.349 258.087 C 160.404 258.142,161.016 258.032,161.708 257.842 C 162.401 257.652,162.739 257.496,162.460 257.496 C 162.181 257.497,161.570 257.607,161.101 257.742 M155.612 258.842 C 154.635 259.016,154.179 259.168,154.597 259.180 C 155.016 259.193,156.100 259.050,157.007 258.864 C 159.090 258.437,157.987 258.419,155.612 258.842 M134.902 258.972 C 135.369 259.082,136.511 259.234,137.438 259.308 L 139.125 259.443 137.223 259.097 C 135.107 258.712,133.418 258.621,134.902 258.972 M152.505 259.401 C 152.749 259.465,153.148 259.465,153.393 259.401 C 153.637 259.337,153.437 259.285,152.949 259.285 C 152.460 259.285,152.261 259.337,152.505 259.401 M140.463 259.666 C 141.060 259.720,141.973 259.719,142.492 259.664 C 143.012 259.610,142.524 259.566,141.408 259.567 C 140.292 259.568,139.867 259.612,140.463 259.666 M149.075 259.663 C 149.525 259.719,150.324 259.720,150.850 259.665 C 151.377 259.610,151.008 259.564,150.032 259.563 C 149.055 259.562,148.625 259.607,149.075 259.663 M144.649 259.920 C 145.316 259.973,146.344 259.972,146.932 259.919 C 147.521 259.866,146.975 259.823,145.720 259.824 C 144.464 259.824,143.983 259.868,144.649 259.920 M247.812 288.598 C 247.812 289.535,246.233 290.679,244.933 290.684 C 241.712 290.698,239.650 292.781,239.736 295.934 L 239.775 297.400 239.926 295.751 C 240.201 292.728,242.045 291.045,245.265 290.877 C 246.627 290.807,248.585 289.083,247.985 288.484 C 247.890 288.389,247.812 288.440,247.812 288.598 " stroke="none" fill="#965321" fill-rule="evenodd"></path><path id="path7" d="M50.498 89.858 C 50.162 90.030,49.649 90.628,49.357 91.186 L 48.827 92.200 48.750 192.898 C 48.668 300.491,48.611 295.566,49.959 297.010 L 50.679 297.781 145.277 297.781 L 239.875 297.781 239.754 296.527 C 239.588 294.797,239.854 293.621,240.616 292.715 L 241.263 291.947 148.778 291.947 C 47.202 291.947,55.370 292.073,53.686 290.475 C 51.815 288.699,51.997 299.152,52.002 193.606 L 52.006 99.302 52.572 98.312 C 53.306 97.029,54.726 95.898,55.962 95.611 C 56.532 95.479,95.424 95.381,148.707 95.377 L 240.470 95.371 240.083 94.623 C 239.585 93.660,239.585 91.248,240.083 90.285 L 240.470 89.537 145.790 89.541 C 71.153 89.544,50.980 89.611,50.498 89.858 " stroke="none" fill="#cb735b" fill-rule="evenodd"></path><path id="path8" d="M49.643 90.296 C 49.448 90.575,49.213 90.727,49.121 90.635 C 49.029 90.542,48.954 90.600,48.954 90.763 C 48.954 91.260,49.380 91.094,49.818 90.425 C 50.310 89.675,50.157 89.563,49.643 90.296 M48.193 193.659 C 48.193 260.368,48.278 293.976,48.446 293.976 C 48.615 293.976,48.700 260.368,48.700 193.659 C 48.700 126.950,48.615 93.342,48.446 93.342 C 48.278 93.342,48.193 126.950,48.193 193.659 M48.954 296.465 C 48.954 296.660,50.328 297.781,50.567 297.781 C 50.629 297.781,50.359 297.438,49.968 297.020 C 49.250 296.251,48.954 296.089,48.954 296.465 " stroke="none" fill="#d8a08c" fill-rule="evenodd"></path></g></svg>