<svg id="svg" version="1.1" xmlns="http://www.w3.org/2000/svg" xmlns:xlink="http://www.w3.org/1999/xlink" width="400" height="401.28040973111393" viewBox="0, 0, 400,401.28040973111393"><g id="svgg"><path id="path0" d="M261.571 0.336 C 261.225 1.237,261.571 2.945,262.100 2.945 C 262.820 2.945,262.881 0.187,262.163 0.049 C 261.916 0.001,261.650 0.130,261.571 0.336 M235.045 3.276 C 235.376 3.517,236.125 4.129,236.709 4.636 C 237.294 5.144,240.423 7.342,243.662 9.521 C 246.901 11.700,253.297 16.000,257.875 19.077 C 262.452 22.154,268.617 26.303,271.575 28.297 C 274.533 30.291,281.562 35.018,287.196 38.801 C 292.830 42.584,299.217 46.875,301.390 48.338 C 305.976 51.424,308.416 53.480,309.110 54.840 C 309.817 56.224,309.895 392.275,309.190 393.675 C 308.962 394.125,308.515 394.782,308.196 395.134 C 307.877 395.487,307.476 396.214,307.304 396.750 C 306.991 397.732,305.560 399.427,304.612 399.941 C 304.331 400.093,304.176 400.292,304.268 400.384 C 304.815 400.931,306.750 399.148,307.602 397.311 C 307.928 396.607,308.500 395.627,308.873 395.134 C 309.246 394.641,309.735 393.687,309.961 393.013 C 310.613 391.065,310.589 57.597,309.936 55.535 C 309.344 53.662,307.214 51.644,302.443 48.432 C 300.395 47.054,294.629 43.179,289.629 39.821 C 284.629 36.463,278.233 32.160,275.416 30.258 C 268.968 25.905,257.095 17.927,246.479 10.814 C 241.972 7.795,237.823 4.904,237.260 4.390 C 236.124 3.354,235.257 2.811,234.767 2.828 C 234.589 2.835,234.714 3.036,235.045 3.276 M123.667 3.656 C 123.191 3.976,122.454 4.754,122.028 5.384 L 121.255 6.530 121.180 114.085 C 121.126 192.399,121.183 221.907,121.390 222.624 C 121.751 223.873,123.508 225.801,124.840 226.409 C 125.821 226.858,128.041 226.878,177.398 226.883 L 228.933 226.889 228.999 309.795 L 229.065 392.702 229.674 393.854 C 230.009 394.488,230.499 395.629,230.762 396.390 C 231.497 398.511,234.147 401.302,234.787 400.629 C 234.880 400.532,234.736 400.322,234.468 400.162 C 232.825 399.185,231.242 397.142,231.242 395.999 C 231.242 395.760,230.925 395.035,230.538 394.389 L 229.834 393.214 229.706 309.859 L 229.577 226.504 177.593 226.376 L 125.608 226.248 124.436 225.559 C 123.791 225.180,122.927 224.373,122.515 223.767 L 121.767 222.663 121.702 114.959 L 121.637 7.255 122.233 6.124 C 122.560 5.502,123.303 4.648,123.883 4.225 C 125.476 3.064,125.286 2.564,123.667 3.656 M133.024 14.405 C 132.957 14.581,132.932 21.869,132.968 30.602 L 133.035 46.479 144.558 46.607 C 157.303 46.749,156.913 46.696,158.395 48.454 C 160.302 50.716,160.266 53.852,158.309 55.913 C 156.776 57.527,157.165 57.478,144.558 57.618 L 133.035 57.746 133.035 81.690 L 133.035 105.634 143.662 105.762 C 155.187 105.901,154.680 105.832,156.259 107.470 C 158.786 110.092,158.066 114.413,154.802 116.220 C 154.132 116.591,152.681 116.662,143.534 116.773 L 133.035 116.901 132.969 142.702 C 132.926 159.856,132.990 168.502,133.161 168.502 C 133.332 168.502,133.419 159.919,133.419 143.022 C 133.419 129.008,133.448 117.528,133.483 117.510 C 133.518 117.493,138.214 117.407,143.918 117.318 L 154.289 117.157 155.335 116.477 C 158.757 114.250,159.421 110.212,156.838 107.339 C 154.793 105.064,155.189 105.133,143.598 105.042 L 133.419 104.962 133.419 81.546 L 133.419 58.131 144.605 58.131 C 157.188 58.131,157.031 58.153,158.792 56.147 C 161.573 52.980,160.735 48.848,156.850 46.568 L 155.826 45.967 144.622 45.886 L 133.419 45.805 133.419 30.329 L 133.419 14.853 182.122 14.853 C 229.497 14.853,230.839 14.866,231.354 15.336 C 231.644 15.602,234.533 17.598,237.772 19.773 C 249.991 27.974,264.358 37.632,283.355 50.417 C 287.862 53.450,292.932 56.860,294.622 57.995 L 297.695 60.060 297.759 224.396 L 297.824 388.732 269.654 388.732 L 241.485 388.732 241.484 306.466 C 241.482 215.292,241.659 222.963,239.506 220.782 C 238.720 219.986,237.798 218.789,237.456 218.123 C 236.773 216.791,235.490 215.648,233.964 215.011 C 233.062 214.634,228.453 214.597,183.195 214.597 L 133.419 214.597 133.419 197.567 L 133.419 180.538 144.641 180.538 C 158.258 180.538,158.739 180.432,160.755 176.998 C 162.768 173.569,159.930 168.246,156.090 168.246 C 155.089 168.246,155.324 168.674,156.422 168.849 C 160.369 169.480,162.245 174.640,159.636 177.688 C 157.688 179.963,158.184 179.887,144.750 179.976 L 132.907 180.054 132.907 197.581 L 132.907 215.109 182.907 215.111 L 232.907 215.114 234.197 215.715 C 235.649 216.391,236.691 217.487,237.121 218.790 C 237.291 219.304,237.780 219.918,238.300 220.269 C 239.473 221.063,240.373 222.395,240.698 223.816 C 240.875 224.591,240.963 251.859,240.967 307.107 L 240.973 389.247 269.718 389.182 L 298.464 389.117 298.524 224.712 C 298.557 134.289,298.499 60.189,298.396 60.045 C 298.292 59.901,297.170 59.083,295.903 58.228 C 291.203 55.056,280.785 48.049,271.959 42.124 C 266.959 38.767,259.872 34.005,256.210 31.541 C 252.548 29.077,245.864 24.588,241.357 21.564 C 236.850 18.540,232.623 15.620,231.964 15.075 L 230.766 14.085 181.956 14.085 C 143.144 14.085,133.121 14.150,133.024 14.405 M315.400 400.456 C 315.115 400.916,315.445 400.964,320.260 401.157 C 324.567 401.330,325.866 401.195,325.007 400.664 C 324.528 400.368,315.574 400.174,315.400 400.456 M299.744 401.024 L 297.695 401.186 299.616 401.215 C 300.672 401.231,301.767 401.145,302.049 401.024 C 302.331 400.903,302.389 400.817,302.177 400.833 C 301.965 400.849,300.871 400.935,299.744 401.024 " stroke="none" fill="#d1bdb4" fill-rule="evenodd"></path><path id="path1" d="M158.899 2.550 C 139.056 2.633,125.715 2.785,125.491 2.929 C 125.108 3.175,124.915 3.326,123.515 4.470 C 123.069 4.835,122.463 5.629,122.170 6.235 L 121.637 7.337 121.702 115.000 L 121.767 222.663 122.515 223.767 C 122.927 224.373,123.791 225.180,124.436 225.559 L 125.608 226.248 177.593 226.376 L 229.577 226.504 229.706 309.859 L 229.834 393.214 230.538 394.389 C 230.925 395.035,231.242 395.760,231.242 395.999 C 231.242 397.193,232.356 398.594,234.754 400.414 C 235.749 401.169,234.910 401.150,268.246 401.151 C 303.563 401.153,303.111 401.164,304.266 400.274 C 305.851 399.054,306.991 397.732,307.304 396.750 C 307.476 396.214,307.877 395.487,308.196 395.134 C 308.515 394.782,308.962 394.125,309.190 393.675 C 309.895 392.275,309.817 56.224,309.110 54.840 C 308.416 53.480,305.976 51.424,301.390 48.338 C 299.217 46.875,292.830 42.584,287.196 38.801 C 281.562 35.018,274.533 30.291,271.575 28.297 C 266.156 24.644,254.542 16.835,243.662 9.528 C 240.423 7.352,237.369 5.209,236.876 4.765 C 233.878 2.064,239.110 2.212,158.899 2.550 M231.964 15.075 C 232.623 15.620,236.850 18.540,241.357 21.564 C 245.864 24.588,252.548 29.077,256.210 31.541 C 259.872 34.005,266.959 38.767,271.959 42.124 C 280.785 48.049,291.203 55.056,295.903 58.228 C 297.170 59.083,298.292 59.901,298.396 60.045 C 298.499 60.189,298.557 134.289,298.524 224.712 L 298.464 389.117 269.718 389.182 L 240.973 389.247 240.967 307.107 C 240.963 251.859,240.875 224.591,240.698 223.816 C 240.373 222.395,239.473 221.063,238.300 220.269 C 237.780 219.918,237.291 219.304,237.121 218.790 C 236.691 217.487,235.649 216.391,234.197 215.715 L 232.907 215.114 182.907 215.111 L 132.907 215.109 132.907 197.581 L 132.907 180.054 144.750 179.976 C 158.184 179.887,157.688 179.963,159.636 177.688 C 162.245 174.640,160.369 169.480,156.422 168.849 C 155.883 168.763,155.442 168.589,155.442 168.461 C 155.442 168.326,150.755 168.260,144.173 168.302 L 132.904 168.374 132.969 142.638 L 133.035 116.901 143.534 116.773 C 152.681 116.662,154.132 116.591,154.802 116.220 C 158.066 114.413,158.786 110.092,156.259 107.470 C 154.680 105.832,155.187 105.901,143.662 105.762 L 133.035 105.634 133.035 81.690 L 133.035 57.746 144.558 57.618 C 157.165 57.478,156.776 57.527,158.309 55.913 C 160.266 53.852,160.302 50.716,158.395 48.454 C 156.913 46.696,157.303 46.749,144.558 46.607 L 133.035 46.479 132.968 30.602 C 132.932 21.869,132.957 14.581,133.024 14.405 C 133.121 14.150,143.144 14.085,181.956 14.085 L 230.766 14.085 231.964 15.075 " stroke="none" fill="#641404" fill-rule="evenodd"></path></g></svg>