<svg id="svg" version="1.1" xmlns="http://www.w3.org/2000/svg" xmlns:xlink="http://www.w3.org/1999/xlink" width="400" height="406.44329896907215" viewBox="0, 0, 400,406.44329896907215"><g id="svgg"><path id="path0" d="M0.000 202.974 L 0.000 405.948 8.229 405.874 C 16.113 405.802,16.488 405.776,17.185 405.260 C 19.683 403.408,19.683 400.458,17.185 398.606 C 16.501 398.098,16.084 398.063,10.033 397.990 L 3.608 397.913 3.608 202.307 L 3.608 6.701 199.356 6.701 L 395.103 6.701 395.039 202.255 L 394.974 397.809 385.567 397.938 C 377.301 398.051,376.061 398.121,375.347 398.512 C 372.891 399.856,372.807 403.699,375.198 405.321 C 375.859 405.769,376.643 405.799,387.887 405.799 L 399.871 405.799 399.936 202.899 L 400.000 0.000 200.000 0.000 L 0.000 0.000 0.000 202.974 M170.361 72.550 L 170.361 101.804 199.615 101.804 L 228.868 101.804 228.803 72.616 L 228.737 43.428 199.549 43.362 L 170.361 43.297 170.361 72.550 M170.424 139.240 L 170.490 168.428 199.613 168.428 L 228.737 168.428 228.803 139.240 L 228.868 110.052 199.613 110.052 L 170.359 110.052 170.424 139.240 M169.229 176.180 C 169.143 176.405,169.072 197.687,169.072 223.475 L 169.072 270.361 132.618 270.361 C 111.518 270.361,96.105 270.458,96.022 270.591 C 95.944 270.717,97.527 272.718,99.540 275.037 C 105.529 281.937,108.491 285.340,110.051 287.113 C 110.861 288.035,113.135 290.653,115.105 292.931 C 117.074 295.209,122.511 301.472,127.186 306.848 C 131.861 312.225,139.566 321.089,144.308 326.546 C 149.050 332.004,154.045 337.745,155.409 339.304 C 156.772 340.863,161.303 346.075,165.478 350.885 C 169.652 355.696,173.995 360.689,175.129 361.983 C 176.263 363.276,177.829 365.075,178.608 365.981 C 179.388 366.887,181.749 369.606,183.854 372.023 C 185.960 374.440,189.146 378.099,190.934 380.155 C 198.025 388.308,199.063 389.445,199.333 389.357 C 199.557 389.284,208.803 378.809,215.411 371.144 C 216.078 370.370,218.194 367.935,220.114 365.732 C 222.033 363.529,226.770 358.073,230.641 353.608 C 234.512 349.143,238.749 344.272,240.056 342.784 C 241.363 341.295,244.390 337.816,246.781 335.052 C 249.173 332.287,252.650 328.286,254.507 326.160 C 256.365 324.034,264.078 315.161,271.646 306.443 C 279.214 297.726,286.824 288.969,288.555 286.985 C 290.287 285.000,293.413 281.405,295.501 278.995 C 297.589 276.585,299.659 274.207,300.100 273.709 C 301.986 271.583,302.577 270.844,302.577 270.610 C 302.577 270.451,289.051 270.361,265.207 270.361 L 227.836 270.361 227.771 223.131 L 227.706 175.902 198.546 175.837 C 172.122 175.777,169.371 175.809,169.229 176.180 " stroke="none" fill="#141414" fill-rule="evenodd"></path><path id="path1" d="M3.608 202.307 L 3.608 397.913 10.033 397.990 C 16.084 398.063,16.501 398.098,17.185 398.606 C 19.683 400.458,19.683 403.408,17.185 405.260 C 16.488 405.776,16.113 405.802,8.229 405.874 C 3.194 405.919,0.000 406.044,0.000 406.196 C 0.000 406.354,72.372 406.443,200.000 406.443 C 359.828 406.443,400.000 406.379,400.000 406.121 C 400.000 405.868,397.418 405.799,387.951 405.799 C 376.645 405.799,375.859 405.770,375.198 405.321 C 372.807 403.699,372.891 399.856,375.347 398.512 C 376.061 398.121,377.301 398.051,385.567 397.938 L 394.974 397.809 395.039 202.255 L 395.103 6.701 199.356 6.701 L 3.608 6.701 3.608 202.307 M228.803 72.616 L 228.868 101.804 199.615 101.804 L 170.361 101.804 170.361 72.550 L 170.361 43.297 199.549 43.362 L 228.737 43.428 228.803 72.616 M228.803 139.240 L 228.737 168.428 199.613 168.428 L 170.490 168.428 170.424 139.240 L 170.359 110.052 199.613 110.052 L 228.868 110.052 228.803 139.240 M227.771 223.131 L 227.836 270.361 265.207 270.361 C 289.051 270.361,302.577 270.451,302.577 270.610 C 302.577 270.844,301.986 271.583,300.100 273.709 C 299.659 274.207,297.589 276.585,295.501 278.995 C 293.413 281.405,290.287 285.000,288.555 286.985 C 286.824 288.969,279.214 297.726,271.646 306.443 C 264.078 315.161,256.365 324.034,254.507 326.160 C 252.650 328.286,249.173 332.287,246.781 335.052 C 244.390 337.816,241.363 341.295,240.056 342.784 C 238.749 344.272,234.512 349.143,230.641 353.608 C 226.770 358.073,222.033 363.529,220.114 365.732 C 218.194 367.935,216.078 370.370,215.411 371.144 C 208.803 378.809,199.557 389.284,199.333 389.357 C 199.063 389.445,198.025 388.308,190.934 380.155 C 189.146 378.099,185.960 374.440,183.854 372.023 C 181.749 369.606,179.388 366.887,178.608 365.981 C 177.829 365.075,176.263 363.276,175.129 361.983 C 173.995 360.689,169.652 355.696,165.478 350.885 C 161.303 346.075,156.772 340.863,155.409 339.304 C 154.045 337.745,149.050 332.004,144.308 326.546 C 139.566 321.089,131.861 312.225,127.186 306.848 C 122.511 301.472,117.074 295.209,115.105 292.931 C 113.135 290.653,110.861 288.035,110.051 287.113 C 108.491 285.340,105.529 281.937,99.540 275.037 C 97.527 272.718,95.944 270.717,96.022 270.591 C 96.105 270.458,111.518 270.361,132.618 270.361 L 169.072 270.361 169.072 223.475 C 169.072 197.687,169.143 176.405,169.229 176.180 C 169.371 175.809,172.122 175.777,198.546 175.837 L 227.706 175.902 227.771 223.131 " stroke="none" fill="#fbfbf4" fill-rule="evenodd"></path></g></svg>