<svg id="svg" version="1.1" xmlns="http://www.w3.org/2000/svg" xmlns:xlink="http://www.w3.org/1999/xlink" width="400" height="398.72367581365666" viewBox="0, 0, 400,398.72367581365666"><g id="svgg"><path id="path0" d="M211.295 17.804 L 239.694 17.871 239.694 34.752 L 239.694 51.633 238.481 51.476 C 237.579 51.360,237.384 51.388,237.721 51.585 C 237.970 51.731,238.544 51.814,238.997 51.771 L 239.821 51.691 239.821 34.716 L 239.821 17.741 211.359 17.739 L 182.897 17.738 211.295 17.804 M77.907 56.490 L 57.921 76.477 71.060 89.611 C 78.287 96.834,85.355 103.889,86.767 105.288 L 89.334 107.831 90.040 106.966 C 101.388 93.067,113.860 82.050,129.355 72.237 C 131.027 71.178,131.115 70.927,129.483 71.873 C 118.132 78.450,102.723 91.674,92.673 103.461 L 89.239 107.489 73.848 92.099 C 65.382 83.634,58.456 76.617,58.456 76.504 C 58.456 76.365,93.924 40.884,98.177 36.769 C 98.243 36.705,105.902 44.229,115.197 53.489 C 124.492 62.749,130.489 68.666,128.524 66.638 C 119.956 57.795,98.560 36.503,98.242 36.503 C 98.050 36.503,88.899 45.497,77.907 56.490 M204.595 48.987 C 203.893 49.070,206.477 49.138,210.338 49.138 C 214.199 49.138,216.669 49.065,215.826 48.975 C 213.937 48.773,206.332 48.781,204.595 48.987 M195.405 49.567 C 193.861 49.693,192.310 49.903,191.959 50.033 C 191.402 50.240,191.435 50.256,192.214 50.159 C 192.706 50.098,194.745 49.914,196.745 49.750 C 198.746 49.585,200.383 49.409,200.383 49.359 C 200.383 49.229,198.681 49.300,195.405 49.567 M220.315 49.369 C 220.373 49.426,221.972 49.602,223.867 49.760 C 225.763 49.917,227.773 50.101,228.334 50.168 C 229.057 50.254,229.206 50.224,228.845 50.065 C 228.193 49.779,220.053 49.115,220.315 49.369 M187.492 50.565 C 185.118 50.899,184.239 51.076,184.360 51.197 C 184.502 51.339,189.671 50.618,189.860 50.429 C 190.035 50.254,189.472 50.286,187.492 50.565 M230.540 50.408 C 230.650 50.518,235.852 51.308,236.462 51.308 C 237.372 51.308,236.058 50.995,233.801 50.674 C 230.938 50.267,230.351 50.220,230.540 50.408 M341.481 73.293 C 352.466 84.297,361.455 93.421,361.455 93.567 C 361.455 93.714,358.957 96.293,355.903 99.299 C 352.849 102.305,347.620 107.468,344.282 110.774 C 339.490 115.519,338.164 116.703,337.979 116.401 C 337.650 115.865,335.364 112.722,333.278 109.939 C 324.924 98.794,314.162 88.117,302.527 79.430 L 298.609 76.505 310.057 64.992 L 321.506 53.478 309.979 64.941 C 303.638 71.245,298.500 76.529,298.559 76.683 C 298.619 76.837,299.091 77.250,299.609 77.601 C 307.440 82.912,320.584 94.768,326.210 101.595 C 326.962 102.508,327.656 103.312,327.752 103.382 C 328.323 103.799,336.215 114.150,337.533 116.209 C 337.780 116.595,338.121 116.911,338.291 116.911 C 338.732 116.911,361.734 93.871,361.651 93.513 C 361.575 93.184,322.418 53.792,321.858 53.481 C 321.664 53.373,330.495 62.289,341.481 73.293 M197.703 55.903 C 194.757 56.152,188.449 56.875,187.620 57.060 C 187.269 57.138,185.718 57.419,184.174 57.685 C 180.782 58.268,177.228 59.008,174.474 59.704 C 173.350 59.988,171.685 60.403,170.772 60.626 C 169.860 60.849,168.653 61.190,168.092 61.383 C 167.530 61.576,165.348 62.276,163.242 62.939 C 161.136 63.601,159.298 64.227,159.158 64.329 C 159.017 64.432,158.443 64.656,157.881 64.829 C 156.133 65.365,151.677 67.194,147.798 68.966 C 143.913 70.742,136.456 74.674,134.102 76.189 C 133.658 76.474,132.634 77.109,131.824 77.601 C 130.251 78.556,126.296 81.150,124.825 82.192 C 116.810 87.865,112.318 91.641,105.536 98.403 C 99.783 104.139,94.308 110.408,91.005 115.043 C 86.889 120.816,84.057 125.198,81.185 130.238 C 79.292 133.559,74.030 144.174,74.025 144.679 C 74.024 144.780,73.865 145.168,73.670 145.540 C 73.476 145.913,73.174 146.659,73.000 147.199 C 72.826 147.739,72.599 148.296,72.495 148.437 C 72.391 148.577,72.162 149.151,71.985 149.713 C 71.808 150.274,71.586 150.849,71.491 150.989 C 71.397 151.130,70.708 153.140,69.960 155.456 C 69.212 157.773,68.509 159.898,68.397 160.179 C 68.079 160.978,66.945 165.173,66.741 166.305 C 66.640 166.867,66.486 167.441,66.400 167.581 C 66.223 167.869,65.573 170.855,64.816 174.856 C 64.537 176.331,64.262 177.766,64.206 178.047 C 64.008 179.037,63.268 183.929,63.184 184.812 C 63.137 185.303,62.889 187.888,62.632 190.555 C 61.830 198.898,62.072 212.522,63.181 221.442 C 63.279 222.233,64.016 227.077,64.210 228.207 C 64.679 230.942,65.285 234.016,65.418 234.333 C 65.506 234.544,65.748 235.578,65.955 236.631 C 66.449 239.132,67.532 243.261,68.265 245.437 C 68.454 245.999,68.984 247.664,69.442 249.138 C 69.900 250.613,70.373 251.928,70.492 252.061 C 70.611 252.195,70.708 252.462,70.708 252.656 C 70.708 252.850,70.996 253.746,71.347 254.647 C 71.698 255.548,72.281 257.061,72.644 258.009 C 73.007 258.957,73.535 260.249,73.817 260.881 C 74.100 261.512,74.483 262.374,74.669 262.795 C 76.893 267.832,80.920 275.457,84.306 281.047 C 92.384 294.377,104.664 308.246,117.731 318.798 C 117.912 318.944,118.462 319.395,118.953 319.800 C 119.445 320.205,121.053 321.410,122.527 322.479 C 124.001 323.548,125.322 324.513,125.463 324.623 C 125.749 324.849,128.383 326.588,131.078 328.331 C 133.265 329.745,136.322 331.589,136.479 331.589 C 136.542 331.589,137.765 332.256,139.197 333.071 C 141.575 334.425,147.008 337.161,149.840 338.432 C 152.699 339.715,153.396 340.013,153.542 340.013 C 153.627 340.013,154.179 340.228,154.768 340.490 C 156.791 341.392,159.245 342.310,159.633 342.310 C 159.846 342.310,160.086 342.416,160.167 342.546 C 160.247 342.675,160.684 342.860,161.139 342.956 C 161.594 343.051,162.310 343.278,162.731 343.459 C 163.153 343.640,164.531 344.095,165.795 344.470 C 167.058 344.845,168.551 345.306,169.113 345.495 C 169.675 345.684,170.766 345.972,171.538 346.135 C 172.310 346.298,173.172 346.532,173.452 346.655 C 174.306 347.029,181.337 348.507,185.578 349.205 C 187.192 349.470,188.743 349.751,189.024 349.828 C 189.601 349.988,196.138 350.709,199.234 350.955 C 203.100 351.261,222.079 351.139,223.995 350.796 C 224.978 350.619,227.332 350.312,229.228 350.112 C 231.123 349.912,233.937 349.518,235.482 349.236 C 237.026 348.953,239.324 348.536,240.587 348.307 C 241.851 348.079,243.057 347.823,243.267 347.739 C 243.478 347.655,244.512 347.382,245.565 347.134 C 249.853 346.122,250.815 345.870,251.181 345.666 C 251.391 345.548,252.195 345.305,252.967 345.124 C 253.740 344.944,254.486 344.712,254.627 344.609 C 254.767 344.507,255.227 344.345,255.648 344.250 C 256.521 344.053,262.640 341.918,263.855 341.386 C 264.297 341.192,264.757 341.030,264.876 341.025 C 264.995 341.020,265.552 340.795,266.114 340.523 C 266.675 340.252,267.217 340.026,267.319 340.021 C 267.420 340.017,268.109 339.738,268.850 339.403 C 269.591 339.068,270.772 338.536,271.474 338.222 C 276.199 336.105,283.716 332.107,287.683 329.602 C 288.456 329.114,289.489 328.462,289.981 328.152 C 314.029 312.992,333.036 291.136,344.879 265.029 C 345.308 264.081,345.759 263.121,345.879 262.895 C 346.284 262.138,348.897 255.412,349.440 253.733 C 349.735 252.821,350.074 251.898,350.195 251.683 C 350.315 251.468,350.498 250.893,350.601 250.406 C 350.704 249.920,350.942 249.177,351.130 248.756 C 351.318 248.334,351.658 247.301,351.886 246.458 C 352.114 245.616,352.530 244.123,352.812 243.140 C 354.367 237.720,356.097 229.041,356.756 223.357 C 356.960 221.602,357.233 219.699,357.363 219.128 C 358.208 215.419,358.213 191.063,357.370 188.258 C 357.243 187.837,356.972 185.941,356.766 184.046 C 356.245 179.240,355.179 173.444,353.833 168.092 C 352.808 164.014,352.387 162.471,352.234 162.221 C 352.148 162.080,351.932 161.334,351.755 160.562 C 351.578 159.789,351.353 159.043,351.256 158.902 C 351.158 158.762,350.934 158.130,350.758 157.498 C 350.189 155.459,347.140 147.273,346.147 145.118 C 346.017 144.837,345.493 143.689,344.982 142.565 C 334.617 119.792,318.028 99.208,298.277 84.616 C 295.656 82.680,288.771 78.042,287.396 77.288 C 286.814 76.968,286.152 76.591,285.926 76.448 C 282.281 74.160,272.947 69.362,268.794 67.642 C 267.741 67.206,266.650 66.745,266.369 66.617 C 264.455 65.747,256.470 62.845,254.754 62.396 C 254.544 62.341,253.567 62.056,252.585 61.762 C 248.235 60.462,247.095 60.147,245.054 59.680 C 238.723 58.232,233.839 57.343,229.228 56.798 C 227.473 56.591,225.348 56.292,224.505 56.133 C 222.697 55.792,201.202 55.607,197.703 55.903 M218.661 102.358 C 227.163 103.011,240.071 105.814,245.182 108.119 C 245.603 108.308,246.694 108.749,247.607 109.098 C 271.656 118.288,294.138 140.065,303.241 162.987 C 303.575 163.829,304.101 165.093,304.409 165.795 C 304.718 166.496,305.285 167.990,305.670 169.113 C 306.055 170.236,306.469 171.385,306.590 171.666 C 306.711 171.946,306.997 172.865,307.227 173.708 C 307.456 174.550,307.868 176.043,308.141 177.026 C 311.320 188.466,312.434 206.040,310.647 216.592 C 309.841 221.354,309.598 222.678,309.150 224.761 C 308.211 229.126,306.534 234.985,305.569 237.269 C 305.450 237.549,305.004 238.698,304.577 239.821 C 298.117 256.824,286.289 272.390,270.706 284.394 C 269.046 285.673,262.257 290.236,262.015 290.236 C 261.933 290.236,261.386 290.564,260.799 290.965 C 259.568 291.806,254.127 294.634,251.691 295.699 C 250.779 296.098,249.687 296.575,249.266 296.760 C 246.963 297.771,245.829 298.194,241.608 299.618 C 235.887 301.548,231.820 302.533,226.037 303.390 C 224.633 303.599,222.910 303.880,222.208 304.016 C 219.812 304.481,211.046 304.855,206.637 304.681 C 201.152 304.465,194.738 303.773,191.193 303.014 C 183.110 301.284,176.313 299.330,172.903 297.755 C 172.461 297.551,172.024 297.384,171.932 297.384 C 171.840 297.384,171.283 297.167,170.694 296.902 C 170.105 296.637,169.049 296.166,168.347 295.855 C 139.577 283.109,118.897 257.834,111.187 225.993 C 104.265 197.405,111.879 164.384,130.883 140.575 C 141.942 126.720,160.266 113.216,174.091 108.732 C 174.442 108.618,175.866 108.115,177.256 107.615 C 189.608 103.168,204.529 101.274,218.661 102.358 M203.701 108.389 C 140.237 112.983,99.605 174.802,120.421 235.099 C 120.784 236.152,121.162 237.128,121.261 237.269 C 121.359 237.409,121.586 237.983,121.765 238.545 C 122.900 242.109,127.082 250.051,130.854 255.807 C 142.468 273.530,161.511 287.974,181.110 293.925 C 182.374 294.309,183.695 294.725,184.046 294.851 C 184.866 295.143,187.417 295.773,190.172 296.363 C 205.169 299.578,219.468 299.298,234.529 295.494 C 236.835 294.912,242.073 293.235,244.416 292.328 C 247.585 291.103,248.744 290.590,252.435 288.781 C 272.711 278.845,288.227 262.683,297.356 241.991 C 297.820 240.938,298.352 239.732,298.538 239.311 C 304.192 226.485,306.778 204.742,304.398 190.045 C 303.086 181.946,300.479 172.265,298.418 167.837 C 298.287 167.556,297.763 166.350,297.254 165.156 C 288.417 144.448,269.098 125.060,248.756 116.487 C 247.913 116.132,246.879 115.686,246.458 115.495 C 245.615 115.113,242.899 114.086,240.714 113.322 C 238.344 112.493,233.395 111.136,230.377 110.486 C 227.543 109.875,222.886 109.083,220.166 108.749 C 217.983 108.481,206.039 108.220,203.701 108.389 M216.465 140.265 C 221.348 140.758,227.449 142.062,230.759 143.322 C 231.251 143.508,232.615 144.026,233.790 144.471 C 234.966 144.917,236.115 145.381,236.343 145.503 C 236.571 145.625,237.964 146.322,239.438 147.051 C 241.998 148.318,247.369 151.723,249.028 153.132 C 249.459 153.498,250.378 154.253,251.070 154.811 C 254.242 157.365,258.794 162.316,262.108 166.816 C 264.073 169.484,268.051 176.786,268.793 179.089 C 268.971 179.639,269.201 180.204,269.304 180.345 C 269.408 180.485,269.633 181.059,269.804 181.621 C 269.974 182.183,270.265 182.987,270.448 183.408 C 270.632 183.829,270.858 184.576,270.952 185.067 C 271.045 185.558,271.229 186.190,271.362 186.471 C 272.217 188.283,273.629 198.749,273.637 203.329 C 273.641 205.638,272.723 214.416,272.393 215.216 C 272.255 215.552,272.012 216.628,271.854 217.609 C 271.696 218.589,271.474 219.508,271.362 219.651 C 271.250 219.794,271.076 220.370,270.976 220.932 C 270.876 221.493,270.641 222.297,270.454 222.719 C 270.267 223.140,269.974 223.944,269.804 224.505 C 269.633 225.067,269.408 225.641,269.304 225.782 C 269.201 225.922,268.985 226.442,268.826 226.937 C 268.398 228.268,265.556 234.012,264.692 235.292 C 264.281 235.902,263.944 236.445,263.944 236.500 C 263.944 236.756,261.381 240.328,259.637 242.502 C 252.231 251.734,242.379 258.965,232.163 262.665 C 230.900 263.122,229.636 263.593,229.355 263.711 C 228.610 264.023,226.048 264.703,223.995 265.133 C 223.012 265.339,221.863 265.610,221.442 265.736 C 220.695 265.959,217.659 266.289,212.508 266.708 C 211.104 266.822,208.807 266.822,207.403 266.708 C 201.496 266.227,198.935 265.954,198.213 265.726 C 197.792 265.593,196.643 265.322,195.660 265.123 C 193.319 264.650,190.922 263.998,190.367 263.684 C 190.123 263.546,189.805 263.433,189.660 263.433 C 189.105 263.433,184.555 261.538,181.621 260.085 C 163.420 251.069,150.304 233.155,147.627 213.657 C 147.425 212.183,147.151 210.487,147.018 209.888 C 146.699 208.445,146.709 199.392,147.032 197.590 C 147.171 196.810,147.450 195.022,147.651 193.618 C 148.093 190.529,148.730 187.421,149.064 186.726 C 149.198 186.445,149.433 185.699,149.584 185.067 C 149.736 184.435,150.013 183.516,150.201 183.025 C 150.388 182.534,150.805 181.442,151.127 180.600 C 156.780 165.800,170.350 151.531,184.429 145.584 C 185.271 145.229,186.420 144.737,186.981 144.493 C 189.321 143.474,193.797 142.082,196.043 141.675 C 196.956 141.509,197.932 141.274,198.213 141.151 C 198.705 140.936,201.703 140.538,204.833 140.272 C 205.659 140.201,206.404 140.074,206.486 139.989 C 206.648 139.822,214.136 140.030,216.465 140.265 M358.932 161.900 C 358.954 162.332,358.991 162.364,359.078 162.029 C 359.188 161.610,360.156 161.583,374.875 161.583 L 390.555 161.583 390.555 189.789 L 390.555 217.996 377.254 217.996 L 363.953 217.996 364.090 215.635 C 364.191 213.891,364.171 213.607,364.012 214.550 C 363.894 215.252,363.787 216.372,363.775 217.039 L 363.752 218.251 377.283 218.251 L 390.813 218.251 390.748 189.853 L 390.683 161.455 374.793 161.389 L 358.902 161.324 358.932 161.900 M359.290 163.498 C 359.715 165.368,359.964 166.222,360.057 166.129 C 360.195 165.991,359.518 163.134,359.295 162.912 C 359.197 162.813,359.194 163.077,359.290 163.498 M13.019 192.214 C 13.019 207.798,13.105 220.549,13.210 220.549 C 13.315 220.549,13.401 207.798,13.401 192.214 C 13.401 176.631,13.315 163.880,13.210 163.880 C 13.105 163.880,13.019 176.631,13.019 192.214 M60.614 164.117 C 60.695 164.248,60.472 165.466,60.119 166.825 C 59.766 168.184,59.489 169.542,59.503 169.843 C 59.518 170.143,59.641 169.930,59.778 169.368 C 59.915 168.807,60.248 167.460,60.518 166.376 C 61.085 164.096,61.104 163.880,60.738 163.880 C 60.589 163.880,60.534 163.987,60.614 164.117 M360.213 166.816 C 360.186 167.235,360.875 170.277,361.032 170.435 C 361.112 170.515,361.108 170.135,361.022 169.591 C 360.851 168.506,360.239 166.407,360.213 166.816 M59.131 170.944 C 58.898 171.738,58.454 174.418,58.486 174.839 C 58.502 175.059,58.723 174.206,58.976 172.943 C 59.393 170.868,59.479 169.760,59.131 170.944 M361.285 171.857 C 361.363 172.173,361.505 173.063,361.602 173.835 C 361.698 174.608,361.879 175.412,362.004 175.622 C 362.148 175.865,362.176 175.633,362.081 174.984 C 361.787 172.998,361.417 171.283,361.282 171.283 C 361.206 171.283,361.208 171.541,361.285 171.857 M58.094 176.069 C 57.813 177.412,57.426 180.549,57.529 180.652 C 57.623 180.745,57.849 179.559,58.332 176.452 C 58.518 175.257,58.328 174.951,58.094 176.069 M362.225 176.792 C 362.239 177.468,363.005 182.362,363.114 182.471 C 363.312 182.670,363.272 182.202,362.851 179.399 C 362.523 177.213,362.208 175.900,362.225 176.792 M57.177 181.642 C 57.176 181.771,57.004 183.250,56.794 184.930 C 56.380 188.254,56.343 188.796,56.549 188.590 C 56.743 188.396,57.465 181.694,57.309 181.538 C 57.238 181.467,57.178 181.514,57.177 181.642 M363.387 184.939 C 363.452 185.641,363.618 187.405,363.757 188.859 C 363.895 190.313,364.008 191.739,364.008 192.029 C 364.008 192.318,364.072 192.490,364.151 192.411 C 364.347 192.215,363.788 185.337,363.500 184.410 C 363.313 183.808,363.291 183.911,363.387 184.939 M55.989 192.131 C 55.676 194.686,55.775 214.239,56.111 216.082 L 56.390 217.613 56.280 216.209 C 55.966 212.200,55.868 198.586,56.126 194.786 C 56.422 190.412,56.356 189.140,55.989 192.131 M364.391 202.808 C 364.391 207.160,364.467 210.147,364.560 209.445 C 364.653 208.743,364.729 205.756,364.729 202.808 C 364.729 199.860,364.653 196.873,364.560 196.171 C 364.467 195.469,364.391 198.456,364.391 202.808 M56.414 219.798 C 56.414 220.228,56.513 220.517,56.635 220.442 C 56.840 220.315,56.728 219.017,56.511 219.017 C 56.458 219.017,56.414 219.369,56.414 219.798 M353.159 288.435 C 357.932 293.270,362.843 298.248,364.072 299.498 C 365.301 300.747,366.249 301.863,366.178 301.977 C 365.930 302.379,326.709 341.418,326.468 341.502 C 326.193 341.599,307.849 323.327,307.849 322.956 C 307.849 322.825,308.450 322.215,309.184 321.601 C 315.261 316.520,328.385 303.284,327.864 302.763 C 327.799 302.698,327.377 303.098,326.925 303.652 C 323.439 307.930,314.685 316.642,309.381 321.113 C 308.328 322.001,307.414 322.773,307.350 322.829 C 307.180 322.977,326.049 341.800,326.369 341.800 C 326.704 341.800,366.560 302.167,366.560 301.834 C 366.560 301.701,361.592 296.654,355.520 290.618 C 345.517 280.673,345.295 280.468,353.159 288.435 M343.151 281.110 C 342.572 281.873,341.541 283.854,341.725 283.851 C 341.836 283.850,342.305 283.161,342.767 282.320 C 343.549 280.896,343.717 280.365,343.151 281.110 M64.518 295.668 C 57.534 302.683,51.819 308.494,51.819 308.583 C 51.819 308.825,91.736 348.692,91.978 348.692 C 92.093 348.692,97.428 343.450,103.834 337.044 L 115.480 325.396 114.479 324.600 C 113.929 324.162,112.558 323.036,111.432 322.099 C 110.307 321.161,109.337 320.444,109.277 320.504 C 109.217 320.564,109.216 320.651,109.275 320.697 C 109.333 320.744,110.661 321.819,112.226 323.087 L 115.070 325.391 103.483 336.977 L 91.895 348.562 71.984 328.653 C 61.033 317.703,52.103 308.659,52.138 308.555 C 52.485 307.529,77.515 283.122,77.808 283.524 C 77.992 283.776,78.681 284.847,79.339 285.904 C 83.956 293.317,90.591 301.871,97.540 309.366 C 100.758 312.837,108.737 320.448,108.943 320.243 C 108.994 320.191,108.483 319.661,107.805 319.064 C 104.609 316.252,94.277 305.567,91.777 302.489 C 90.238 300.593,88.916 298.985,88.841 298.915 C 87.951 298.093,80.804 287.844,78.472 284.046 C 78.063 283.380,77.613 282.852,77.473 282.875 C 77.332 282.897,71.503 288.654,64.518 295.668 M339.672 286.752 C 338.259 288.956,336.070 292.126,335.239 293.173 C 335.127 293.315,334.461 294.214,333.759 295.172 C 332.600 296.753,329.125 301.158,328.791 301.468 C 328.438 301.795,327.968 302.489,328.099 302.489 C 328.779 302.489,339.525 287.949,341.257 284.684 C 341.955 283.369,341.259 284.278,339.672 286.752 M173.007 370.836 C 173.043 380.488,173.126 388.530,173.191 388.706 C 173.285 388.960,179.099 389.013,201.588 388.961 L 229.866 388.896 229.866 372.708 C 229.866 359.793,229.800 356.507,229.541 356.454 C 229.362 356.418,229.333 356.446,229.477 356.518 C 229.651 356.604,229.738 361.994,229.738 372.708 L 229.738 388.768 201.532 388.768 L 173.325 388.768 173.325 371.174 C 173.325 354.632,173.352 353.572,173.772 353.462 C 174.074 353.383,174.013 353.336,173.580 353.316 L 172.942 353.286 173.007 370.836 M174.729 353.739 C 174.994 354.003,178.192 354.630,178.370 354.453 C 178.425 354.398,177.801 354.219,176.983 354.057 C 176.164 353.895,175.265 353.699,174.984 353.623 C 174.645 353.531,174.559 353.570,174.729 353.739 M179.451 354.770 C 179.662 354.902,180.408 355.086,181.110 355.179 C 181.812 355.272,182.731 355.406,183.153 355.477 C 183.682 355.566,183.800 355.534,183.535 355.373 C 183.325 355.245,182.521 355.061,181.749 354.965 C 180.976 354.868,180.057 354.731,179.706 354.660 C 179.240 354.565,179.171 354.595,179.451 354.770 M185.195 355.821 C 185.475 355.933,186.394 356.101,187.237 356.195 C 188.079 356.288,189.228 356.432,189.789 356.514 C 190.351 356.596,190.746 356.596,190.668 356.513 C 190.546 356.384,185.243 355.555,184.831 355.600 C 184.750 355.609,184.914 355.708,185.195 355.821 M192.597 356.826 C 193.378 357.167,202.682 357.798,202.372 357.488 C 202.297 357.413,200.526 357.242,198.437 357.108 C 196.348 356.975,194.065 356.807,193.363 356.735 C 192.517 356.647,192.259 356.678,192.597 356.826 M223.867 356.894 C 222.534 357.015,220.601 357.182,219.573 357.266 C 218.544 357.349,217.760 357.475,217.830 357.545 C 218.010 357.725,226.270 357.116,227.121 356.860 L 227.824 356.649 227.058 356.662 C 226.637 356.669,225.201 356.774,223.867 356.894 M208.880 357.815 C 209.692 357.866,210.956 357.865,211.688 357.814 C 212.420 357.763,211.755 357.721,210.211 357.722 C 208.666 357.722,208.067 357.764,208.880 357.815 " stroke="none" fill="#ccd3d3" fill-rule="evenodd"></path><path id="path1" d="M178.765 12.495 C 177.364 13.350,177.409 12.656,177.409 33.290 L 177.409 52.575 176.835 52.711 C 176.519 52.786,175.743 52.950,175.112 53.075 C 172.895 53.514,163.718 56.130,162.476 56.676 C 162.195 56.799,161.449 57.041,160.817 57.212 C 160.185 57.384,159.553 57.604,159.413 57.701 C 159.272 57.799,158.698 58.018,158.137 58.189 C 157.575 58.360,156.771 58.649,156.350 58.831 C 155.929 59.012,154.209 59.706,152.530 60.372 C 150.850 61.038,149.299 61.676,149.083 61.788 C 148.868 61.901,147.302 62.631,145.603 63.410 C 143.904 64.189,141.405 65.403,140.049 66.108 C 138.693 66.813,137.497 67.390,137.392 67.390 C 137.287 67.390,128.820 59.008,118.576 48.763 C 108.333 38.519,99.623 30.000,99.220 29.834 C 97.560 29.146,98.051 28.703,74.998 51.691 C 50.639 75.982,51.308 75.285,51.308 76.356 C 51.308 77.664,51.441 77.807,68.860 95.254 L 85.848 112.269 84.596 113.983 C 83.907 114.926,83.172 115.956,82.961 116.273 C 82.750 116.590,82.129 117.523,81.581 118.348 C 79.058 122.140,78.255 123.446,75.949 127.505 C 72.958 132.771,69.239 140.281,68.250 143.054 C 68.054 143.603,67.795 144.178,67.675 144.330 C 67.555 144.483,67.314 145.049,67.140 145.589 C 66.966 146.130,66.664 146.876,66.470 147.249 C 66.276 147.621,66.116 148.101,66.115 148.316 C 66.114 148.530,65.958 148.932,65.769 149.209 C 65.579 149.486,65.341 150.057,65.239 150.479 C 65.137 150.900,64.904 151.589,64.723 152.010 C 64.541 152.431,64.009 153.953,63.541 155.392 L 62.690 158.009 36.245 158.009 L 9.799 158.009 8.964 158.625 C 8.505 158.964,7.970 159.452,7.774 159.710 C 7.108 160.589,7.244 223.569,7.915 224.706 C 8.812 226.227,7.719 226.165,33.579 226.165 C 46.700 226.165,57.437 226.251,57.439 226.356 C 57.476 227.879,59.747 239.417,60.241 240.587 C 60.359 240.868,60.524 241.500,60.607 241.991 C 60.690 242.482,60.977 243.631,61.245 244.544 C 61.513 245.456,62.097 247.466,62.542 249.011 C 62.988 250.555,63.502 252.163,63.685 252.585 C 63.868 253.006,64.096 253.722,64.192 254.177 C 64.288 254.632,64.472 255.069,64.602 255.149 C 64.731 255.229,64.837 255.472,64.837 255.688 C 64.837 256.064,66.667 260.839,67.677 263.100 C 67.940 263.689,68.156 264.242,68.156 264.328 C 68.156 264.415,68.615 265.462,69.177 266.655 C 69.738 267.848,70.198 268.884,70.198 268.958 C 70.198 269.303,74.668 277.908,75.079 278.354 C 75.484 278.792,75.317 278.935,74.237 279.080 C 73.227 279.216,72.454 279.940,59.298 293.090 C 44.915 307.466,44.562 307.869,45.104 309.314 C 45.497 310.362,90.051 355.015,91.023 355.336 C 92.717 355.895,92.848 355.783,106.572 342.056 C 113.732 334.895,119.728 329.036,119.898 329.036 C 120.068 329.036,122.192 330.369,124.620 331.998 C 127.047 333.628,129.436 335.181,129.928 335.451 C 130.420 335.721,131.225 336.188,131.717 336.490 C 135.651 338.904,142.968 342.615,147.926 344.709 C 149.470 345.362,151.059 346.066,151.457 346.273 C 151.854 346.480,152.313 346.651,152.478 346.652 C 152.642 346.653,153.350 346.937,154.052 347.282 C 154.754 347.627,155.484 347.914,155.673 347.918 C 155.862 347.922,156.379 348.085,156.822 348.279 C 157.264 348.473,158.028 348.772,158.519 348.943 C 159.011 349.114,159.643 349.346,159.923 349.459 C 160.204 349.572,161.640 350.032,163.114 350.481 C 168.094 351.999,167.847 351.894,167.718 352.421 C 167.652 352.686,167.595 361.951,167.590 373.009 L 167.581 393.115 168.347 393.740 C 169.507 394.688,168.558 394.664,202.255 394.586 L 233.865 394.512 234.609 393.678 L 235.354 392.845 235.354 374.357 C 235.354 359.845,235.423 355.826,235.673 355.667 C 235.849 355.555,237.084 355.264,238.417 355.020 C 246.841 353.476,258.502 350.263,262.834 348.292 C 263.276 348.091,263.793 347.922,263.982 347.917 C 264.172 347.913,264.786 347.687,265.348 347.415 C 265.909 347.144,266.461 346.918,266.574 346.914 C 266.687 346.909,267.319 346.663,267.978 346.367 C 269.275 345.786,269.608 345.640,272.878 344.222 C 275.517 343.077,282.963 339.361,284.823 338.260 C 285.566 337.820,286.228 337.460,286.295 337.460 C 286.361 337.460,287.016 337.075,287.751 336.604 C 288.486 336.134,290.351 334.968,291.895 334.014 C 293.440 333.060,294.979 332.095,295.316 331.870 C 295.652 331.645,296.192 331.289,296.515 331.078 C 296.838 330.868,298.304 329.805,299.772 328.717 C 301.241 327.629,302.662 326.739,302.932 326.739 C 303.237 326.739,307.520 330.862,314.332 337.715 L 325.243 348.692 326.426 348.692 L 327.609 348.692 336.646 339.694 C 363.764 312.694,373.010 303.364,373.236 302.770 C 373.839 301.184,373.836 301.181,360.142 287.449 L 347.093 274.364 348.935 270.494 C 349.947 268.366,350.885 266.419,351.018 266.169 C 352.720 262.965,356.621 252.204,358.903 244.416 C 360.484 239.023,362.887 227.225,362.970 224.447 L 362.987 223.879 378.786 223.809 C 396.477 223.731,395.245 223.868,396.079 221.897 C 396.522 220.851,396.599 159.533,396.159 157.950 C 395.998 157.370,395.562 156.744,395.045 156.350 L 394.195 155.702 375.683 155.770 L 357.170 155.839 356.740 154.563 C 356.503 153.861,356.152 152.884,355.959 152.393 C 355.767 151.902,355.191 150.351,354.680 148.947 C 353.828 146.610,352.964 144.484,351.773 141.800 C 351.524 141.238,351.102 140.263,350.835 139.633 C 349.749 137.066,344.721 127.298,343.474 125.335 C 343.163 124.844,342.601 123.956,342.226 123.362 C 341.851 122.769,341.544 122.136,341.544 121.957 C 341.544 121.778,347.468 115.716,354.707 108.487 C 368.555 94.658,368.750 94.437,368.478 92.949 C 368.280 91.867,324.271 47.487,322.732 46.818 C 321.148 46.129,320.936 46.307,307.110 59.987 C 293.631 73.322,293.496 73.436,292.254 72.518 C 291.857 72.224,291.473 71.985,291.400 71.985 C 291.327 71.985,290.653 71.592,289.903 71.112 C 288.604 70.281,287.829 69.822,285.514 68.512 C 280.409 65.625,271.256 61.392,265.093 59.068 C 263.408 58.433,261.800 57.814,261.519 57.692 C 261.238 57.570,260.549 57.339,259.987 57.179 C 259.426 57.019,258.736 56.789,258.456 56.666 C 257.993 56.465,254.603 55.436,251.308 54.497 C 249.421 53.959,246.831 53.329,245.862 53.172 C 245.117 53.051,245.037 52.966,245.219 52.490 C 245.334 52.191,245.460 43.529,245.499 33.242 C 245.579 12.566,245.651 13.530,243.957 12.498 C 242.678 11.718,180.044 11.716,178.765 12.495 M239.821 34.716 L 239.821 51.691 238.800 51.647 C 238.239 51.623,236.286 51.366,234.461 51.076 C 232.636 50.786,229.592 50.382,227.696 50.177 C 225.801 49.971,222.929 49.660,221.315 49.485 C 213.214 48.604,197.893 49.245,187.109 50.915 C 185.775 51.121,184.311 51.294,183.854 51.299 L 183.025 51.308 183.025 34.460 L 183.025 17.611 211.423 17.676 L 239.821 17.741 239.821 34.716 M115.308 53.257 C 132.246 70.286,132.406 70.463,131.398 70.991 C 130.736 71.337,129.078 72.394,125.463 74.772 C 112.432 83.346,100.385 94.295,90.040 106.966 L 89.334 107.831 86.767 105.288 C 85.355 103.889,78.287 96.834,71.060 89.611 L 57.921 76.477 77.907 56.490 C 88.899 45.497,98.062 36.503,98.269 36.503 C 98.475 36.503,106.143 44.042,115.308 53.257 M341.896 73.446 C 352.724 84.319,361.614 93.349,361.651 93.513 C 361.734 93.871,338.732 116.911,338.291 116.911 C 338.121 116.911,337.780 116.595,337.533 116.209 C 336.215 114.150,328.323 103.799,327.752 103.382 C 327.656 103.312,326.962 102.508,326.210 101.595 C 320.584 94.768,307.440 82.912,299.609 77.601 C 299.091 77.250,298.619 76.836,298.559 76.681 C 298.389 76.244,321.520 53.250,321.895 53.482 C 322.068 53.589,331.068 62.572,341.896 73.446 M224.505 56.133 C 225.348 56.292,227.473 56.591,229.228 56.798 C 233.839 57.343,238.723 58.232,245.054 59.680 C 247.095 60.147,248.235 60.462,252.585 61.762 C 253.567 62.056,254.544 62.341,254.754 62.396 C 256.470 62.845,264.455 65.747,266.369 66.617 C 266.650 66.745,267.741 67.206,268.794 67.642 C 272.947 69.362,282.281 74.160,285.926 76.448 C 286.152 76.591,286.814 76.968,287.396 77.288 C 302.361 85.502,321.368 103.803,333.062 121.256 C 338.116 128.800,341.340 134.563,344.982 142.565 C 345.493 143.689,346.017 144.837,346.147 145.118 C 347.140 147.273,350.189 155.459,350.758 157.498 C 350.934 158.130,351.158 158.762,351.256 158.902 C 351.353 159.043,351.578 159.789,351.755 160.562 C 351.932 161.334,352.148 162.080,352.234 162.221 C 352.387 162.471,352.808 164.014,353.833 168.092 C 355.179 173.444,356.245 179.240,356.766 184.046 C 356.972 185.941,357.243 187.837,357.370 188.258 C 358.213 191.063,358.208 215.419,357.363 219.128 C 357.233 219.699,356.960 221.602,356.756 223.357 C 356.097 229.041,354.367 237.720,352.812 243.140 C 352.530 244.123,352.114 245.616,351.886 246.458 C 351.658 247.301,351.318 248.334,351.130 248.756 C 350.942 249.177,350.704 249.920,350.601 250.406 C 350.498 250.893,350.315 251.468,350.195 251.683 C 350.074 251.898,349.735 252.821,349.440 253.733 C 348.897 255.412,346.284 262.138,345.879 262.895 C 345.759 263.121,345.308 264.081,344.879 265.029 C 333.036 291.136,314.029 312.992,289.981 328.152 C 289.489 328.462,288.456 329.114,287.683 329.602 C 283.716 332.107,276.199 336.105,271.474 338.222 C 270.772 338.536,269.591 339.068,268.850 339.403 C 268.109 339.738,267.420 340.017,267.319 340.021 C 267.217 340.026,266.675 340.252,266.114 340.523 C 265.552 340.795,264.995 341.020,264.876 341.025 C 264.757 341.030,264.297 341.192,263.855 341.386 C 262.640 341.918,256.521 344.053,255.648 344.250 C 255.227 344.345,254.767 344.507,254.627 344.609 C 254.486 344.712,253.740 344.944,252.967 345.124 C 252.195 345.305,251.391 345.548,251.181 345.666 C 250.815 345.870,249.853 346.122,245.565 347.134 C 244.512 347.382,243.478 347.655,243.267 347.739 C 243.057 347.823,241.851 348.079,240.587 348.307 C 239.324 348.536,237.026 348.953,235.482 349.236 C 233.937 349.518,231.123 349.912,229.228 350.112 C 227.332 350.312,224.978 350.619,223.995 350.796 C 222.079 351.139,203.100 351.261,199.234 350.955 C 196.138 350.709,189.601 349.988,189.024 349.828 C 188.743 349.751,187.192 349.470,185.578 349.205 C 181.337 348.507,174.306 347.029,173.452 346.655 C 173.172 346.532,172.310 346.298,171.538 346.135 C 170.766 345.972,169.675 345.684,169.113 345.495 C 168.551 345.306,167.058 344.845,165.795 344.470 C 164.531 344.095,163.153 343.640,162.731 343.459 C 162.310 343.278,161.594 343.051,161.139 342.956 C 160.684 342.860,160.247 342.675,160.167 342.546 C 160.086 342.416,159.846 342.310,159.633 342.310 C 159.245 342.310,156.791 341.392,154.768 340.490 C 154.179 340.228,153.627 340.013,153.542 340.013 C 153.396 340.013,152.699 339.715,149.840 338.432 C 147.008 337.161,141.575 334.425,139.197 333.071 C 137.765 332.256,136.542 331.589,136.479 331.589 C 136.322 331.589,133.265 329.745,131.078 328.331 C 128.383 326.588,125.749 324.849,125.463 324.623 C 125.322 324.513,124.001 323.548,122.527 322.479 C 121.053 321.410,119.445 320.205,118.953 319.800 C 118.462 319.395,117.912 318.944,117.731 318.798 C 104.664 308.246,92.384 294.377,84.306 281.047 C 80.920 275.457,76.893 267.832,74.669 262.795 C 74.483 262.374,74.100 261.512,73.817 260.881 C 73.535 260.249,73.007 258.957,72.644 258.009 C 72.281 257.061,71.698 255.548,71.347 254.647 C 70.996 253.746,70.708 252.850,70.708 252.656 C 70.708 252.462,70.611 252.195,70.492 252.061 C 70.373 251.928,69.900 250.613,69.442 249.138 C 68.984 247.664,68.454 245.999,68.265 245.437 C 67.532 243.261,66.449 239.132,65.955 236.631 C 65.748 235.578,65.506 234.544,65.418 234.333 C 65.118 233.616,63.622 224.995,63.181 221.442 C 62.072 212.522,61.830 198.898,62.632 190.555 C 62.889 187.888,63.137 185.303,63.184 184.812 C 63.268 183.929,64.008 179.037,64.206 178.047 C 64.262 177.766,64.537 176.331,64.816 174.856 C 65.573 170.855,66.223 167.869,66.400 167.581 C 66.486 167.441,66.640 166.867,66.741 166.305 C 66.945 165.173,68.079 160.978,68.397 160.179 C 68.509 159.898,69.212 157.773,69.960 155.456 C 70.708 153.140,71.397 151.130,71.491 150.989 C 71.586 150.849,71.808 150.274,71.985 149.713 C 72.162 149.151,72.391 148.577,72.495 148.437 C 72.599 148.296,72.826 147.739,73.000 147.199 C 73.174 146.659,73.476 145.913,73.670 145.540 C 73.865 145.168,74.024 144.780,74.025 144.679 C 74.030 144.174,79.292 133.559,81.185 130.238 C 84.057 125.198,86.889 120.816,91.005 115.043 C 94.308 110.408,99.783 104.139,105.536 98.403 C 112.318 91.641,116.810 87.865,124.825 82.192 C 126.296 81.150,130.251 78.556,131.824 77.601 C 132.634 77.109,133.658 76.474,134.102 76.189 C 136.456 74.674,143.913 70.742,147.798 68.966 C 151.677 67.194,156.133 65.365,157.881 64.829 C 158.443 64.656,159.017 64.432,159.158 64.329 C 159.298 64.227,161.136 63.601,163.242 62.939 C 165.348 62.276,167.530 61.576,168.092 61.383 C 168.653 61.190,169.860 60.849,170.772 60.626 C 171.685 60.403,173.350 59.988,174.474 59.704 C 177.228 59.008,180.782 58.268,184.174 57.685 C 185.718 57.419,187.269 57.138,187.620 57.060 C 188.449 56.875,194.757 56.152,197.703 55.903 C 201.202 55.607,222.697 55.792,224.505 56.133 M206.486 139.989 C 206.404 140.074,205.659 140.201,204.833 140.272 C 201.703 140.538,198.705 140.936,198.213 141.151 C 197.932 141.274,196.956 141.509,196.043 141.675 C 193.797 142.082,189.321 143.474,186.981 144.493 C 186.420 144.737,185.271 145.229,184.429 145.584 C 170.350 151.531,156.780 165.800,151.127 180.600 C 150.805 181.442,150.388 182.534,150.201 183.025 C 150.013 183.516,149.736 184.435,149.584 185.067 C 149.433 185.699,149.198 186.445,149.064 186.726 C 148.730 187.421,148.093 190.529,147.651 193.618 C 147.450 195.022,147.171 196.810,147.032 197.590 C 146.709 199.392,146.699 208.445,147.018 209.888 C 147.151 210.487,147.425 212.183,147.627 213.657 C 150.304 233.155,163.420 251.069,181.621 260.085 C 184.555 261.538,189.105 263.433,189.660 263.433 C 189.805 263.433,190.123 263.546,190.367 263.684 C 190.922 263.998,193.319 264.650,195.660 265.123 C 196.643 265.322,197.792 265.593,198.213 265.726 C 198.935 265.954,201.496 266.227,207.403 266.708 C 208.807 266.822,211.104 266.822,212.508 266.708 C 217.659 266.289,220.695 265.959,221.442 265.736 C 221.863 265.610,223.012 265.339,223.995 265.133 C 226.048 264.703,228.610 264.023,229.355 263.711 C 229.636 263.593,230.900 263.122,232.163 262.665 C 242.379 258.965,252.231 251.734,259.637 242.502 C 261.381 240.328,263.944 236.756,263.944 236.500 C 263.944 236.445,264.281 235.902,264.692 235.292 C 265.556 234.012,268.398 228.268,268.826 226.937 C 268.985 226.442,269.201 225.922,269.304 225.782 C 269.408 225.641,269.633 225.067,269.804 224.505 C 269.974 223.944,270.267 223.140,270.454 222.719 C 270.641 222.297,270.876 221.493,270.976 220.932 C 271.076 220.370,271.250 219.794,271.362 219.651 C 271.474 219.508,271.696 218.589,271.854 217.609 C 272.012 216.628,272.255 215.552,272.393 215.216 C 272.723 214.416,273.641 205.638,273.637 203.329 C 273.629 198.749,272.217 188.283,271.362 186.471 C 271.229 186.190,271.045 185.558,270.952 185.067 C 270.858 184.576,270.632 183.829,270.448 183.408 C 270.265 182.987,269.974 182.183,269.804 181.621 C 269.633 181.059,269.408 180.485,269.304 180.345 C 269.201 180.204,268.971 179.639,268.793 179.089 C 268.051 176.786,264.073 169.484,262.108 166.816 C 258.794 162.316,254.242 157.365,251.070 154.811 C 250.378 154.253,249.459 153.498,249.028 153.132 C 247.369 151.723,241.998 148.318,239.438 147.051 C 237.964 146.322,236.571 145.625,236.343 145.503 C 236.115 145.381,234.966 144.917,233.790 144.471 C 232.615 144.026,231.251 143.508,230.759 143.322 C 227.449 142.062,221.348 140.758,216.465 140.265 C 214.136 140.030,206.648 139.822,206.486 139.989 M216.209 146.767 C 222.689 147.620,229.859 149.557,233.294 151.383 C 233.515 151.500,234.760 152.123,236.062 152.766 C 245.670 157.519,253.956 165.395,259.564 175.107 C 260.920 177.455,262.849 181.482,263.079 182.444 C 263.172 182.834,263.333 183.267,263.437 183.408 C 263.540 183.548,263.989 184.869,264.434 186.343 C 264.880 187.817,265.349 189.368,265.478 189.789 C 265.707 190.539,266.310 193.762,266.745 196.554 C 267.585 201.953,266.709 216.009,265.449 217.345 C 265.323 217.479,265.220 217.844,265.220 218.158 C 265.220 218.761,263.752 223.561,263.435 223.995 C 263.332 224.135,263.167 224.595,263.068 225.016 C 262.786 226.213,259.590 232.435,257.990 234.902 C 251.891 244.307,241.392 252.829,231.477 256.421 C 211.805 263.549,193.088 261.079,176.278 249.138 C 171.639 245.844,166.195 240.094,162.703 234.802 C 160.873 232.030,157.243 225.106,157.243 224.389 C 157.243 224.158,157.147 223.860,157.030 223.727 C 156.597 223.234,155.082 218.363,154.334 215.061 C 151.940 204.483,153.671 187.838,158.006 179.746 C 158.131 179.513,158.627 178.519,159.110 177.537 C 162.432 170.769,166.671 165.228,172.304 160.291 C 174.014 158.792,178.503 155.456,178.811 155.456 C 178.877 155.456,179.536 155.074,180.276 154.606 C 181.908 153.574,184.655 152.138,186.726 151.234 C 187.569 150.866,188.488 150.460,188.768 150.332 C 191.424 149.123,197.945 147.494,202.936 146.794 C 204.885 146.521,214.195 146.501,216.209 146.767 M390.748 189.853 L 390.813 218.251 377.253 218.251 L 363.693 218.251 363.834 216.528 C 364.606 207.071,364.678 196.892,364.013 191.278 C 363.866 190.038,363.573 187.415,363.361 185.450 C 362.595 178.336,361.379 171.690,359.436 164.008 C 359.152 162.884,358.916 161.821,358.911 161.645 C 358.904 161.389,362.161 161.337,374.793 161.389 L 390.683 161.455 390.748 189.853 M61.008 164.182 C 61.008 164.349,60.840 165.124,60.634 165.905 C 59.689 169.493,59.014 172.732,57.837 179.324 C 57.441 181.544,56.956 185.352,56.357 190.938 C 55.801 196.126,56.055 217.279,56.706 220.038 C 56.786 220.376,54.212 220.429,34.907 220.486 L 13.019 220.552 13.019 192.216 L 13.019 163.880 37.013 163.880 C 55.330 163.880,61.008 163.952,61.008 164.182 M355.513 290.551 C 361.589 296.621,366.560 301.697,366.560 301.831 C 366.560 302.166,326.706 341.800,326.369 341.800 C 326.049 341.800,307.180 322.977,307.350 322.829 C 307.414 322.773,308.328 322.001,309.381 321.113 C 314.834 316.517,322.791 308.577,327.250 303.284 C 327.881 302.534,328.516 301.790,328.660 301.630 C 329.367 300.845,332.631 296.712,333.759 295.172 C 334.461 294.214,335.123 293.315,335.230 293.173 C 337.108 290.702,340.722 285.275,342.339 282.498 C 344.033 279.590,344.082 279.515,344.297 279.515 C 344.390 279.515,349.437 284.481,355.513 290.551 M78.472 284.046 C 80.804 287.844,87.951 298.093,88.841 298.915 C 88.916 298.985,90.238 300.593,91.777 302.489 C 94.360 305.669,104.679 316.320,108.000 319.233 C 109.208 320.293,112.562 323.064,114.856 324.896 L 115.480 325.396 103.834 337.044 C 97.428 343.450,92.093 348.692,91.978 348.692 C 91.736 348.692,51.819 308.825,51.819 308.583 C 51.819 308.337,77.181 282.921,77.473 282.875 C 77.613 282.852,78.063 283.380,78.472 284.046 M175.763 353.808 C 181.597 355.139,188.676 356.238,194.639 356.738 C 197.167 356.950,200.159 357.236,201.290 357.374 C 204.020 357.709,215.960 357.701,219.017 357.363 C 223.717 356.843,229.613 356.421,229.804 356.591 C 229.910 356.685,229.968 363.992,229.932 372.829 L 229.866 388.896 201.588 388.961 C 179.099 389.013,173.285 388.960,173.191 388.706 C 172.925 387.988,172.944 353.286,173.210 353.286 C 173.358 353.287,174.506 353.521,175.763 353.808 " stroke="none" fill="#dce3e4" fill-rule="evenodd"></path><path id="path2" d="M183.025 34.446 C 183.025 52.544,182.927 51.539,184.640 51.075 C 185.226 50.917,187.141 50.609,188.896 50.390 C 190.651 50.171,192.884 49.891,193.859 49.767 C 202.451 48.676,218.354 48.682,226.930 49.780 C 227.843 49.896,230.026 50.175,231.780 50.399 C 233.535 50.622,235.799 50.976,236.811 51.184 C 237.823 51.393,238.886 51.563,239.172 51.563 C 239.692 51.563,239.694 51.509,239.694 34.716 L 239.694 17.869 211.359 17.869 L 183.025 17.869 183.025 34.446 M78.302 56.534 C 67.387 67.406,58.456 76.393,58.456 76.505 C 58.456 76.617,65.382 83.634,73.848 92.099 L 89.239 107.489 92.673 103.461 C 103.204 91.110,117.177 79.245,130.938 70.972 L 131.986 70.341 115.196 53.550 C 105.962 44.314,98.348 36.760,98.278 36.762 C 98.207 36.765,89.218 45.662,78.302 56.534 M310.056 65.055 L 298.609 76.505 302.527 79.430 C 314.162 88.117,324.924 98.794,333.278 109.939 C 335.364 112.722,337.650 115.865,337.979 116.401 C 338.164 116.703,339.490 115.519,344.282 110.774 C 347.620 107.468,352.849 102.305,355.903 99.299 C 358.957 96.293,361.455 93.714,361.455 93.567 C 361.455 93.308,321.892 53.606,321.633 53.606 C 321.562 53.606,316.353 58.758,310.056 65.055 M200.511 102.491 C 192.496 103.267,184.348 105.062,177.256 107.615 C 175.866 108.115,174.442 108.618,174.091 108.732 C 168.590 110.516,157.779 116.402,151.372 121.101 C 123.929 141.228,108.850 170.595,108.893 203.829 C 108.908 215.294,110.171 223.751,113.409 234.078 C 121.997 261.462,142.334 284.330,168.347 295.855 C 169.049 296.166,170.105 296.637,170.694 296.902 C 171.283 297.167,171.840 297.384,171.932 297.384 C 172.024 297.384,172.461 297.551,172.903 297.755 C 176.313 299.330,183.110 301.284,191.193 303.014 C 194.738 303.773,201.152 304.465,206.637 304.681 C 211.046 304.855,219.812 304.481,222.208 304.016 C 222.910 303.880,224.633 303.599,226.037 303.390 C 231.820 302.533,235.887 301.548,241.608 299.618 C 245.829 298.194,246.963 297.771,249.266 296.760 C 249.687 296.575,250.779 296.098,251.691 295.699 C 254.127 294.634,259.568 291.806,260.799 290.965 C 261.386 290.564,261.933 290.236,262.015 290.236 C 262.257 290.236,269.046 285.673,270.706 284.394 C 286.289 272.390,298.117 256.824,304.577 239.821 C 305.004 238.698,305.450 237.549,305.569 237.269 C 306.534 234.985,308.211 229.126,309.150 224.761 C 309.598 222.678,309.841 221.354,310.647 216.592 C 312.434 206.040,311.320 188.466,308.141 177.026 C 307.868 176.043,307.456 174.550,307.227 173.708 C 306.997 172.865,306.711 171.946,306.590 171.666 C 306.469 171.385,306.055 170.236,305.670 169.113 C 305.285 167.990,304.718 166.496,304.409 165.795 C 304.101 165.093,303.575 163.829,303.241 162.987 C 294.138 140.065,271.656 118.288,247.607 109.098 C 246.694 108.749,245.603 108.308,245.182 108.119 C 235.333 103.678,214.877 101.101,200.511 102.491 M220.166 108.749 C 226.991 109.588,235.354 111.449,240.714 113.322 C 242.899 114.086,245.615 115.113,246.458 115.495 C 246.879 115.686,247.913 116.132,248.756 116.487 C 269.098 125.060,288.417 144.448,297.254 165.156 C 297.763 166.350,298.287 167.556,298.418 167.837 C 300.479 172.265,303.086 181.946,304.398 190.045 C 306.778 204.742,304.192 226.485,298.538 239.311 C 298.352 239.732,297.820 240.938,297.356 241.991 C 288.227 262.683,272.711 278.845,252.435 288.781 C 246.886 291.501,244.637 292.389,237.848 294.544 C 226.060 298.286,210.659 299.525,197.958 297.752 C 193.289 297.100,186.227 295.628,184.046 294.851 C 183.695 294.725,182.374 294.309,181.110 293.925 C 161.511 287.974,142.468 273.530,130.854 255.807 C 127.082 250.051,122.900 242.109,121.765 238.545 C 121.586 237.983,121.359 237.409,121.261 237.269 C 120.678 236.437,118.269 228.514,117.186 223.867 C 114.274 211.369,114.303 194.915,117.259 182.004 C 126.714 140.714,161.045 111.477,203.701 108.389 C 206.039 108.220,217.983 108.481,220.166 108.749 M359.230 162.285 C 359.302 162.671,359.709 164.365,360.134 166.050 C 361.478 171.379,362.491 176.552,362.983 180.600 C 363.136 181.863,363.375 183.463,363.513 184.154 C 363.651 184.845,363.878 187.200,364.018 189.387 C 364.158 191.574,364.385 194.419,364.523 195.709 C 364.840 198.677,364.848 207.157,364.537 209.618 C 364.407 210.646,364.233 212.951,364.150 214.742 L 364.000 217.996 377.277 217.996 L 390.555 217.996 390.555 189.789 L 390.555 161.583 374.827 161.583 L 359.100 161.583 359.230 162.285 M13.391 164.199 C 13.325 164.375,13.300 177.096,13.336 192.470 L 13.401 220.421 34.936 220.486 L 56.471 220.552 56.342 218.827 C 55.682 210.014,55.598 207.527,55.729 200.511 C 55.807 196.299,55.994 191.934,56.144 190.810 C 56.294 189.687,56.594 187.218,56.810 185.322 C 57.548 178.859,59.175 169.942,60.364 165.854 C 60.597 165.053,60.715 164.281,60.627 164.139 C 60.372 163.726,13.549 163.786,13.391 164.199 M343.075 281.749 C 342.457 282.837,341.861 283.842,341.750 283.982 C 341.640 284.123,340.499 285.846,339.215 287.811 C 331.386 299.798,320.179 312.407,309.184 321.601 C 308.450 322.215,307.849 322.825,307.849 322.956 C 307.849 323.327,326.193 341.599,326.468 341.502 C 326.714 341.416,365.932 302.375,366.186 301.964 C 366.318 301.752,344.707 279.770,344.366 279.770 C 344.274 279.770,343.693 280.660,343.075 281.749 M64.584 295.894 L 51.949 308.618 71.922 328.590 L 91.894 348.563 103.482 336.977 L 115.070 325.391 112.226 323.074 C 109.097 320.526,108.746 320.219,104.310 316.146 C 95.209 307.788,84.646 294.779,77.935 283.663 C 77.447 282.853,78.396 281.984,64.584 295.894 M173.325 371.155 L 173.325 388.768 201.532 388.768 L 229.738 388.768 229.738 372.654 L 229.738 356.540 228.526 356.689 C 227.859 356.771,226.394 356.956,225.271 357.100 C 219.152 357.886,201.234 357.902,194.767 357.127 C 193.714 357.001,191.359 356.718,189.534 356.500 C 187.709 356.281,185.929 356.027,185.578 355.936 C 185.227 355.844,183.733 355.563,182.259 355.310 C 177.136 354.434,175.237 354.048,174.796 353.796 C 173.223 352.895,173.325 351.697,173.325 371.155 " stroke="none" fill="#acacb3" fill-rule="evenodd"></path></g></svg>