<svg id="svg" version="1.1" xmlns="http://www.w3.org/2000/svg" xmlns:xlink="http://www.w3.org/1999/xlink" width="400" height="384.2105263157895" viewBox="0, 0, 400,384.2105263157895"><g id="svgg"><path id="path0" d="M197.244 16.791 C 196.240 17.866,195.215 20.473,191.260 32.012 C 189.334 37.632,186.629 45.501,185.249 49.499 C 183.868 53.496,181.558 60.207,180.115 64.411 C 154.766 138.255,153.221 142.565,151.582 143.967 C 149.684 145.591,155.020 145.464,82.957 145.608 C 10.516 145.753,15.633 145.636,15.153 147.148 C 14.586 148.935,15.655 149.993,27.820 159.682 C 33.264 164.018,46.685 174.716,57.644 183.454 C 68.603 192.192,81.685 202.624,86.717 206.636 C 121.024 233.990,120.470 233.539,121.339 234.893 C 122.948 237.402,123.090 236.751,115.304 262.657 C 111.555 275.132,107.037 290.188,105.263 296.115 C 103.490 302.043,98.525 318.622,94.229 332.957 C 85.880 360.818,85.221 363.157,85.216 364.928 C 85.210 367.119,86.649 367.732,89.014 366.544 C 90.689 365.703,90.819 365.614,115.539 348.371 C 127.462 340.054,139.756 331.484,142.857 329.325 C 150.892 323.732,167.521 312.134,189.177 297.018 C 199.022 290.147,198.092 290.116,209.217 297.692 C 220.358 305.280,275.949 343.103,286.090 349.995 C 291.190 353.462,298.352 358.336,302.005 360.828 C 311.508 367.310,312.857 367.977,314.174 366.843 C 314.778 366.324,314.870 366.068,314.846 364.981 C 314.797 362.872,316.161 367.392,297.699 308.145 C 291.772 289.123,286.380 271.811,285.718 269.674 C 285.056 267.538,282.684 259.925,280.446 252.757 C 274.622 234.100,273.859 236.877,287.845 225.805 C 292.256 222.312,298.289 217.521,301.253 215.156 C 304.217 212.792,316.341 203.150,328.195 193.729 C 340.050 184.309,352.400 174.493,355.639 171.917 C 358.878 169.340,365.815 163.827,371.053 159.665 C 383.451 149.813,384.470 148.813,383.744 147.219 C 383.018 145.627,388.356 145.752,315.414 145.614 C 242.023 145.475,248.560 145.642,246.520 143.851 C 245.359 142.832,244.746 141.623,243.285 137.469 C 242.152 134.249,232.591 107.109,223.684 81.830 C 221.159 74.662,215.975 59.944,212.166 49.123 C 202.435 21.484,202.031 20.364,201.170 18.588 C 199.906 15.980,198.572 15.369,197.244 16.791 M200.465 33.835 C 201.015 35.420,202.152 38.662,202.992 41.039 C 206.585 51.217,207.581 54.046,207.776 54.637 C 207.890 54.981,208.546 56.842,209.232 58.772 C 210.462 62.230,212.441 67.833,215.295 75.940 C 216.096 78.214,217.279 81.541,217.924 83.333 C 218.569 85.125,219.188 86.873,219.300 87.218 C 219.546 87.978,222.706 97.035,223.759 100.000 C 224.938 103.319,227.455 110.454,229.196 115.414 C 230.067 117.895,231.065 120.714,231.415 121.679 C 232.063 123.468,235.719 133.849,238.363 141.409 C 240.368 147.141,240.995 148.256,242.970 149.616 C 245.557 151.395,239.734 151.239,308.521 151.381 C 342.500 151.452,370.329 151.536,370.363 151.569 C 370.733 151.923,369.614 152.982,364.827 156.806 C 359.609 160.974,343.020 174.171,327.218 186.724 C 323.482 189.692,314.956 196.473,308.271 201.793 C 301.585 207.113,294.073 213.088,291.576 215.069 C 271.011 231.391,271.931 230.604,270.968 232.699 C 269.278 236.375,269.434 237.430,273.677 251.003 C 274.065 252.243,274.742 254.442,275.182 255.890 C 275.621 257.337,276.130 258.972,276.313 259.524 C 276.645 260.528,277.866 264.453,279.743 270.551 C 280.294 272.343,280.953 274.430,281.206 275.188 C 281.460 275.946,282.131 278.089,282.698 279.950 C 283.780 283.501,285.780 289.897,286.342 291.604 C 286.524 292.155,287.123 294.073,287.672 295.865 C 288.971 300.096,290.617 305.399,291.367 307.769 C 293.002 312.930,293.767 315.391,294.485 317.794 C 294.917 319.242,295.368 320.708,295.488 321.053 C 295.608 321.397,296.228 323.371,296.866 325.439 C 297.505 327.506,298.177 329.649,298.360 330.201 C 298.543 330.752,298.995 332.218,299.363 333.459 C 299.732 334.699,300.190 336.165,300.381 336.717 C 300.572 337.268,301.121 339.016,301.600 340.602 C 302.079 342.187,302.937 344.950,303.505 346.742 C 304.593 350.167,305.591 353.536,305.865 354.705 C 306.187 356.083,305.369 355.744,300.699 352.570 C 294.212 348.161,272.572 333.437,266.165 329.073 C 253.146 320.204,246.190 315.471,242.049 312.662 C 235.044 307.910,225.661 301.527,216.416 295.225 C 201.697 285.191,202.513 285.631,198.622 285.621 C 194.991 285.611,194.597 285.820,183.083 293.857 C 177.569 297.705,171.197 302.146,168.922 303.727 C 165.498 306.106,157.542 311.657,141.855 322.611 C 140.683 323.429,136.397 326.418,132.331 329.252 C 114.234 341.867,107.231 346.750,101.378 350.840 C 97.932 353.248,94.843 355.272,94.514 355.339 C 93.712 355.501,93.785 355.141,96.159 347.243 C 97.194 343.797,98.358 339.906,98.744 338.596 C 100.408 332.959,105.645 315.457,108.268 306.767 C 109.080 304.079,110.323 299.906,111.032 297.494 C 111.740 295.081,112.472 292.657,112.660 292.105 C 113.008 291.078,113.789 288.481,114.882 284.712 C 115.680 281.962,117.518 275.823,118.972 271.053 C 119.603 268.985,120.207 266.955,120.314 266.541 C 120.422 266.128,120.745 265.028,121.032 264.098 C 122.082 260.693,122.532 259.205,123.509 255.890 C 124.846 251.356,126.350 246.307,127.305 243.148 C 129.096 237.221,128.788 233.569,126.252 230.661 C 125.804 230.148,120.758 225.994,115.038 221.430 C 100.152 209.553,66.700 182.875,53.634 172.462 C 26.374 150.733,27.981 152.079,28.785 151.649 C 29.143 151.458,46.866 151.376,89.395 151.370 C 154.739 151.360,151.985 151.419,154.643 149.972 C 157.448 148.446,157.183 149.063,166.090 123.308 C 167.258 119.931,169.171 114.405,170.341 111.028 C 171.512 107.650,173.069 103.139,173.803 101.003 C 174.537 98.866,176.058 94.467,177.184 91.228 C 178.310 87.989,179.668 84.041,180.201 82.456 C 180.735 80.871,181.920 77.431,182.834 74.812 C 183.748 72.193,184.702 69.430,184.954 68.672 C 185.770 66.214,188.888 57.140,190.595 52.256 C 191.510 49.637,192.579 46.535,192.971 45.363 C 195.725 37.120,197.984 30.788,198.317 30.375 C 198.787 29.791,199.409 30.793,200.465 33.835 " stroke="none" fill="#f79818" fill-rule="evenodd"></path><path id="path1" d="M0.000 192.105 L 0.000 384.211 200.000 384.211 L 400.000 384.211 400.000 192.105 L 400.000 0.000 200.000 0.000 L 0.000 0.000 0.000 192.105 M200.368 1.860 C 201.190 2.204,202.383 3.585,203.183 5.117 C 203.393 5.519,208.635 20.237,214.831 37.824 C 221.028 55.411,228.244 75.890,230.867 83.333 C 251.421 141.662,249.878 137.532,251.489 138.508 C 252.229 138.956,254.673 138.977,322.682 139.098 C 400.143 139.236,394.498 139.116,396.266 140.659 C 399.562 143.535,398.117 146.187,389.599 152.897 C 387.256 154.743,382.068 158.856,378.070 162.038 C 374.073 165.219,362.231 174.633,351.754 182.959 C 341.278 191.284,325.263 204.016,316.165 211.253 C 307.068 218.489,297.707 225.931,295.363 227.789 C 284.339 236.532,283.923 236.908,283.467 238.559 C 283.084 239.942,283.428 241.168,291.138 265.910 C 315.430 343.857,323.891 371.188,324.221 372.771 C 325.311 377.999,322.263 380.801,317.726 378.739 C 316.868 378.349,305.395 370.699,292.231 361.739 C 247.129 331.041,207.142 303.849,204.511 302.087 C 198.344 297.956,198.906 297.845,188.221 305.301 C 175.929 313.877,156.567 327.380,150.000 331.956 C 137.443 340.705,107.594 361.520,102.381 365.163 C 81.364 379.849,82.227 379.308,79.780 379.318 C 76.416 379.330,74.985 376.610,76.027 372.180 C 76.238 371.284,79.115 361.529,82.420 350.501 C 85.725 339.474,89.914 325.489,91.728 319.424 C 95.266 307.593,103.234 280.964,110.403 257.018 C 115.175 241.073,115.435 240.083,115.186 238.757 C 114.845 236.938,117.682 239.273,57.895 191.608 C 40.321 177.597,8.818 152.506,6.266 150.487 C 0.509 145.932,-0.487 142.101,3.579 140.155 C 5.738 139.123,6.380 139.113,76.693 139.105 C 120.337 139.101,145.299 139.009,145.844 138.853 C 148.118 138.201,147.667 139.322,159.656 104.511 C 161.009 100.583,163.712 92.744,165.663 87.093 C 167.614 81.441,171.675 69.655,174.687 60.902 C 177.699 52.149,182.440 38.390,185.221 30.326 C 188.003 22.262,190.929 13.747,191.724 11.404 C 193.645 5.743,193.915 5.097,194.946 3.667 C 196.443 1.590,198.268 0.983,200.368 1.860 " stroke="none" fill="#fbfbfb" fill-rule="evenodd"></path><path id="path2" d="" stroke="none" fill="#bcbcbc" fill-rule="evenodd"></path><path id="path3" d="M198.317 30.375 C 197.984 30.788,195.725 37.120,192.971 45.363 C 192.579 46.535,191.510 49.637,190.595 52.256 C 188.888 57.140,185.770 66.214,184.954 68.672 C 184.702 69.430,183.748 72.193,182.834 74.812 C 181.920 77.431,180.735 80.871,180.201 82.456 C 179.668 84.041,178.310 87.989,177.184 91.228 C 176.058 94.467,174.537 98.866,173.803 101.003 C 173.069 103.139,171.512 107.650,170.341 111.028 C 169.171 114.405,167.258 119.931,166.090 123.308 C 157.183 149.063,157.448 148.446,154.643 149.972 C 151.985 151.419,154.739 151.360,89.395 151.370 C 46.866 151.376,29.143 151.458,28.785 151.649 C 27.981 152.079,26.374 150.733,53.634 172.462 C 66.700 182.875,100.152 209.553,115.038 221.430 C 120.758 225.994,125.804 230.148,126.252 230.661 C 128.788 233.569,129.096 237.221,127.305 243.148 C 126.350 246.307,124.846 251.356,123.509 255.890 C 122.532 259.205,122.082 260.693,121.032 264.098 C 120.745 265.028,120.422 266.128,120.314 266.541 C 120.207 266.955,119.603 268.985,118.972 271.053 C 117.518 275.823,115.680 281.962,114.882 284.712 C 113.789 288.481,113.008 291.078,112.660 292.105 C 112.472 292.657,111.740 295.081,111.032 297.494 C 110.323 299.906,109.080 304.079,108.268 306.767 C 105.645 315.457,100.408 332.959,98.744 338.596 C 98.358 339.906,97.194 343.797,96.159 347.243 C 93.785 355.141,93.712 355.501,94.514 355.339 C 94.843 355.272,97.932 353.248,101.378 350.840 C 107.231 346.750,114.234 341.867,132.331 329.252 C 136.397 326.418,140.683 323.429,141.855 322.611 C 157.542 311.657,165.498 306.106,168.922 303.727 C 171.197 302.146,177.569 297.705,183.083 293.857 C 194.597 285.820,194.991 285.611,198.622 285.621 C 202.513 285.631,201.697 285.191,216.416 295.225 C 225.661 301.527,235.044 307.910,242.049 312.662 C 246.190 315.471,253.146 320.204,266.165 329.073 C 272.572 333.437,294.212 348.161,300.699 352.570 C 305.369 355.744,306.187 356.083,305.865 354.705 C 305.591 353.536,304.593 350.167,303.505 346.742 C 302.937 344.950,302.079 342.187,301.600 340.602 C 301.121 339.016,300.572 337.268,300.381 336.717 C 300.190 336.165,299.732 334.699,299.363 333.459 C 298.995 332.218,298.543 330.752,298.360 330.201 C 298.177 329.649,297.505 327.506,296.866 325.439 C 296.228 323.371,295.608 321.397,295.488 321.053 C 295.368 320.708,294.917 319.242,294.485 317.794 C 293.767 315.391,293.002 312.930,291.367 307.769 C 290.617 305.399,288.971 300.096,287.672 295.865 C 287.123 294.073,286.524 292.155,286.342 291.604 C 285.780 289.897,283.780 283.501,282.698 279.950 C 282.131 278.089,281.460 275.946,281.206 275.188 C 280.953 274.430,280.294 272.343,279.743 270.551 C 277.866 264.453,276.645 260.528,276.313 259.524 C 276.130 258.972,275.621 257.337,275.182 255.890 C 274.742 254.442,274.065 252.243,273.677 251.003 C 269.876 238.843,269.651 237.835,270.177 235.291 C 270.941 231.589,271.351 231.128,279.980 224.275 C 283.862 221.193,289.080 217.051,291.576 215.069 C 294.073 213.088,301.585 207.113,308.271 201.793 C 314.956 196.473,323.482 189.692,327.218 186.724 C 343.020 174.171,359.609 160.974,364.827 156.806 C 369.614 152.982,370.733 151.923,370.363 151.569 C 370.329 151.536,342.500 151.452,308.521 151.381 C 239.734 151.239,245.557 151.395,242.970 149.616 C 240.995 148.256,240.368 147.141,238.363 141.409 C 235.719 133.849,232.063 123.468,231.415 121.679 C 231.065 120.714,230.067 117.895,229.196 115.414 C 227.455 110.454,224.938 103.319,223.759 100.000 C 222.706 97.035,219.546 87.978,219.300 87.218 C 219.188 86.873,218.569 85.125,217.924 83.333 C 217.279 81.541,216.096 78.214,215.295 75.940 C 212.441 67.833,210.462 62.230,209.232 58.772 C 208.546 56.842,207.890 54.981,207.776 54.637 C 207.581 54.046,206.585 51.217,202.992 41.039 C 202.152 38.662,201.015 35.420,200.465 33.835 C 199.409 30.793,198.787 29.791,198.317 30.375 " stroke="none" fill="#faa424" fill-rule="evenodd"></path><path id="path4" d="M197.545 8.163 C 196.529 8.875,195.777 10.867,188.059 33.299 C 175.668 69.313,162.757 106.753,158.187 119.925 C 150.909 140.899,151.478 139.434,149.961 141.113 C 148.251 143.006,154.311 142.857,78.789 142.857 C 7.125 142.857,9.031 142.826,7.826 144.031 C 6.328 145.529,7.139 146.477,15.915 153.495 C 23.400 159.480,26.085 161.622,74.060 199.873 C 89.637 212.292,105.721 225.119,109.802 228.377 C 119.095 235.794,119.693 236.549,119.088 240.100 C 118.935 240.996,113.728 258.703,107.516 279.449 C 101.305 300.194,92.998 327.939,89.056 341.103 C 79.887 371.726,80.451 369.737,80.451 371.443 C 80.451 375.386,82.108 374.885,92.058 367.937 C 161.247 319.625,194.434 296.577,195.836 295.865 C 199.311 294.098,199.181 294.037,215.198 304.936 C 321.178 377.052,316.522 373.926,317.994 373.932 C 320.174 373.942,320.256 371.780,318.312 365.539 C 317.582 363.195,312.669 347.406,307.393 330.451 C 302.117 313.496,293.673 286.372,288.628 270.175 C 278.740 238.426,278.801 238.659,279.798 236.558 C 280.526 235.023,282.722 233.181,303.383 216.774 C 314.549 207.908,332.481 193.660,343.233 185.111 C 353.985 176.563,368.590 164.957,375.689 159.321 C 391.628 146.667,392.166 146.157,391.403 144.436 C 390.708 142.867,396.525 142.995,320.050 142.857 C 264.651 142.757,250.607 142.668,250.030 142.412 C 248.695 141.821,247.903 141.097,247.154 139.780 C 246.436 138.517,242.346 126.993,210.668 36.967 C 200.445 7.916,201.049 9.506,199.817 8.364 C 199.071 7.673,198.337 7.608,197.545 8.163 M199.791 16.520 C 201.058 17.517,200.777 16.777,212.166 49.123 C 215.975 59.944,221.159 74.662,223.684 81.830 C 232.591 107.109,242.152 134.249,243.285 137.469 C 244.746 141.623,245.359 142.832,246.520 143.851 C 248.560 145.642,242.023 145.475,315.414 145.614 C 388.356 145.752,383.018 145.627,383.744 147.219 C 384.470 148.813,383.451 149.813,371.053 159.665 C 365.815 163.827,358.878 169.340,355.639 171.917 C 352.400 174.493,340.050 184.309,328.195 193.729 C 316.341 203.150,304.217 212.792,301.253 215.156 C 298.289 217.521,292.256 222.312,287.845 225.805 C 273.859 236.877,274.622 234.100,280.446 252.757 C 282.684 259.925,285.056 267.538,285.718 269.674 C 286.380 271.811,291.772 289.123,297.699 308.145 C 316.161 367.392,314.797 362.872,314.846 364.981 C 314.870 366.068,314.778 366.324,314.174 366.843 C 312.857 367.977,311.508 367.310,302.005 360.828 C 298.352 358.336,291.190 353.462,286.090 349.995 C 275.949 343.103,220.358 305.280,209.217 297.692 C 198.092 290.116,199.022 290.147,189.177 297.018 C 167.521 312.134,150.892 323.732,142.857 329.325 C 139.756 331.484,127.462 340.054,115.539 348.371 C 90.819 365.614,90.689 365.703,89.014 366.544 C 86.649 367.732,85.210 367.119,85.216 364.928 C 85.221 363.157,85.880 360.818,94.229 332.957 C 98.525 318.622,103.490 302.043,105.263 296.115 C 107.037 290.188,111.555 275.132,115.304 262.657 C 123.090 236.751,122.948 237.402,121.339 234.893 C 120.470 233.539,121.024 233.990,86.717 206.636 C 81.685 202.624,68.603 192.192,57.644 183.454 C 46.685 174.716,33.264 164.018,27.820 159.682 C 15.655 149.993,14.586 148.935,15.153 147.148 C 15.633 145.636,10.516 145.753,82.957 145.608 C 155.020 145.464,149.684 145.591,151.582 143.967 C 153.221 142.565,154.766 138.255,180.115 64.411 C 181.558 60.207,183.868 53.496,185.249 49.499 C 186.629 45.501,189.334 37.632,191.260 32.012 C 196.723 16.074,197.479 14.701,199.791 16.520 " stroke="none" fill="#c49a8c" fill-rule="evenodd"></path><path id="path5" d="M197.474 5.885 C 196.436 6.450,195.405 8.745,193.018 15.806 C 191.786 19.450,189.065 27.393,186.972 33.459 C 184.879 39.524,181.889 48.208,180.329 52.757 C 174.932 68.488,164.087 99.923,158.020 117.419 C 156.872 120.727,154.977 126.197,153.808 129.574 C 150.435 139.317,150.033 140.108,147.937 141.141 L 146.742 141.729 77.193 141.855 C 2.972 141.988,6.913 141.916,5.576 143.168 C 3.732 144.896,4.855 146.075,19.048 157.312 C 24.217 161.405,31.435 167.138,35.088 170.051 C 38.741 172.963,48.791 180.978,57.421 187.861 C 66.051 194.744,81.603 207.143,91.979 215.414 C 120.431 238.090,117.920 235.777,117.920 239.310 C 117.920 241.396,117.755 242.026,113.577 255.890 C 111.189 263.816,106.469 279.549,103.087 290.852 C 89.617 335.881,87.802 341.938,84.166 354.010 C 78.927 371.406,78.930 371.394,78.912 372.900 C 78.863 376.785,81.484 376.622,87.469 372.366 C 89.708 370.773,120.927 348.997,170.551 314.412 C 177.306 309.705,185.610 303.916,189.005 301.549 C 199.094 294.515,198.153 294.509,208.647 301.671 C 211.679 303.740,222.281 310.958,232.206 317.710 C 263.190 338.790,311.307 371.533,313.485 373.020 C 317.411 375.701,319.273 376.275,320.586 375.209 C 321.900 374.143,321.566 372.526,317.058 358.145 C 314.833 351.046,312.068 342.193,310.913 338.471 C 309.758 334.749,307.495 327.475,305.883 322.306 C 304.272 317.137,302.412 311.159,301.750 309.023 C 300.003 303.379,287.939 264.654,284.457 253.509 C 278.835 235.516,278.236 238.045,290.416 228.361 C 294.240 225.321,302.556 218.706,308.897 213.662 C 315.238 208.618,326.347 199.788,333.584 194.041 C 340.821 188.293,350.576 180.537,355.263 176.804 C 359.950 173.072,369.367 165.594,376.190 160.187 C 393.494 146.476,393.734 146.262,393.734 144.595 C 393.734 143.495,393.492 143.124,392.388 142.533 L 391.353 141.980 321.303 141.855 L 251.253 141.729 250.185 141.159 C 248.120 140.056,247.761 139.355,244.451 129.950 C 243.141 126.228,241.110 120.476,239.938 117.168 C 238.765 113.860,235.964 105.909,233.714 99.499 C 229.528 87.575,222.013 66.251,211.104 35.338 C 207.723 25.758,204.281 15.948,203.456 13.539 C 200.905 6.092,199.768 4.638,197.474 5.885 M199.817 8.364 C 201.049 9.506,200.445 7.916,210.668 36.967 C 242.346 126.993,246.436 138.517,247.154 139.780 C 247.903 141.097,248.695 141.821,250.030 142.412 C 250.607 142.668,264.651 142.757,320.050 142.857 C 396.525 142.995,390.708 142.867,391.403 144.436 C 392.166 146.157,391.628 146.667,375.689 159.321 C 368.590 164.957,353.985 176.563,343.233 185.111 C 332.481 193.660,314.549 207.908,303.383 216.774 C 282.722 233.181,280.526 235.023,279.798 236.558 C 278.801 238.659,278.740 238.426,288.628 270.175 C 293.673 286.372,302.117 313.496,307.393 330.451 C 312.669 347.406,317.582 363.195,318.312 365.539 C 320.256 371.780,320.174 373.942,317.994 373.932 C 316.522 373.926,321.178 377.052,215.198 304.936 C 199.181 294.037,199.311 294.098,195.836 295.865 C 194.434 296.577,161.247 319.625,92.058 367.937 C 82.108 374.885,80.451 375.386,80.451 371.443 C 80.451 369.737,79.887 371.726,89.056 341.103 C 122.418 229.680,119.612 239.365,119.087 237.463 C 118.574 235.606,117.309 234.368,109.802 228.377 C 105.721 225.119,89.637 212.292,74.060 199.873 C 26.085 161.622,23.400 159.480,15.915 153.495 C 7.139 146.477,6.328 145.529,7.826 144.031 C 9.031 142.826,7.125 142.857,78.789 142.857 C 154.311 142.857,148.251 143.006,149.961 141.113 C 151.478 139.434,150.909 140.899,158.187 119.925 C 162.757 106.753,175.668 69.313,188.059 33.299 C 192.262 21.082,195.990 10.516,196.342 9.821 C 197.390 7.754,198.607 7.243,199.817 8.364 " stroke="none" fill="#c0b3ae" fill-rule="evenodd"></path><path id="path6" d="M197.087 3.758 C 195.692 5.325,194.877 7.402,189.269 23.684 C 186.231 32.506,179.630 51.679,174.599 66.291 C 149.424 139.418,150.071 137.599,148.713 139.102 C 146.997 141.002,153.138 140.852,77.008 140.852 C 29.147 140.852,8.204 140.934,6.940 141.124 C 4.271 141.528,1.785 142.832,1.762 143.840 C 1.749 144.433,4.499 146.963,9.273 150.752 C 10.996 152.120,20.414 159.621,30.201 167.422 C 39.987 175.224,52.788 185.427,58.647 190.096 C 119.267 238.412,116.283 235.957,116.823 237.957 C 117.302 239.727,116.978 240.951,108.936 267.794 C 104.600 282.268,99.112 300.595,96.742 308.521 C 94.372 316.447,89.779 331.786,86.536 342.607 C 76.850 374.923,77.603 372.183,77.669 374.838 C 77.717 376.775,79.278 377.767,81.361 377.184 C 82.807 376.779,84.309 375.773,104.386 361.757 C 113.484 355.406,128.258 345.097,137.218 338.849 C 202.817 293.099,196.466 297.386,198.633 297.386 C 200.587 297.386,201.079 297.690,220.301 310.779 C 237.896 322.760,308.096 370.534,313.663 374.315 C 321.251 379.470,324.155 377.842,321.716 369.799 C 321.067 367.658,315.331 349.233,296.321 288.221 C 289.771 267.199,283.792 248.026,283.033 245.614 C 281.347 240.254,281.202 238.612,282.254 236.822 C 283.090 235.400,282.838 235.611,298.496 223.177 C 305.595 217.539,318.509 207.279,327.193 200.375 C 335.877 193.472,354.035 179.045,367.544 168.316 C 391.118 149.592,394.156 147.098,395.283 145.540 C 396.083 144.434,395.992 143.252,395.040 142.403 C 393.338 140.883,398.667 140.996,322.035 140.856 L 251.715 140.727 250.482 139.965 C 248.691 138.860,248.371 138.102,241.756 119.298 C 234.320 98.162,228.904 82.785,215.669 45.238 C 209.838 28.697,204.476 13.471,203.754 11.404 C 201.036 3.630,199.139 1.454,197.087 3.758 M199.506 5.690 C 200.870 6.631,201.556 7.993,203.456 13.539 C 204.281 15.948,207.723 25.758,211.104 35.338 C 222.013 66.251,229.528 87.575,233.714 99.499 C 235.964 105.909,238.765 113.860,239.938 117.168 C 241.110 120.476,243.141 126.228,244.451 129.950 C 247.761 139.355,248.120 140.056,250.185 141.159 L 251.253 141.729 321.303 141.855 L 391.353 141.980 392.429 142.554 C 394.341 143.575,394.373 144.879,392.538 146.910 C 391.562 147.991,391.640 147.927,377.318 159.282 C 371.253 164.091,361.892 171.528,356.516 175.808 C 351.140 180.089,340.821 188.293,333.584 194.041 C 326.347 199.788,315.238 208.618,308.897 213.662 C 302.556 218.706,294.240 225.321,290.416 228.361 C 278.236 238.045,278.835 235.516,284.457 253.509 C 287.939 264.654,300.003 303.379,301.750 309.023 C 302.412 311.159,304.272 317.137,305.883 322.306 C 307.495 327.475,309.758 334.749,310.913 338.471 C 312.068 342.193,314.833 351.046,317.058 358.145 C 321.535 372.430,321.861 373.986,320.628 375.221 C 319.484 376.368,317.486 375.752,313.485 373.020 C 311.307 371.533,263.190 338.790,232.206 317.710 C 222.281 310.958,211.679 303.740,208.647 301.671 C 198.153 294.509,199.094 294.515,189.005 301.549 C 185.610 303.916,177.306 309.705,170.551 314.412 C 120.927 348.997,89.708 370.773,87.469 372.366 C 81.328 376.732,78.891 376.905,78.916 372.974 C 78.926 371.391,78.863 371.618,84.166 354.010 C 87.802 341.938,89.617 335.881,103.087 290.852 C 106.469 279.549,111.189 263.816,113.577 255.890 C 117.755 242.026,117.920 241.396,117.920 239.310 C 117.920 235.777,120.431 238.091,91.980 215.414 C 81.603 207.143,67.236 195.689,60.053 189.961 C 30.352 166.275,21.859 159.516,15.664 154.634 C 5.902 146.941,3.983 144.862,5.313 143.419 C 6.746 141.863,0.812 141.992,77.193 141.855 L 146.742 141.729 147.937 141.141 C 150.033 140.108,150.435 139.317,153.808 129.574 C 154.977 126.197,156.872 120.727,158.020 117.419 C 164.087 99.923,174.932 68.488,180.329 52.757 C 181.889 48.208,184.879 39.524,186.972 33.459 C 189.065 27.393,191.786 19.450,193.018 15.806 C 196.245 6.262,197.499 4.307,199.506 5.690 " stroke="none" fill="#d4d4d3" fill-rule="evenodd"></path><path id="path7" d="M196.597 1.976 C 194.847 3.043,194.017 4.650,191.724 11.404 C 190.929 13.747,188.003 22.262,185.221 30.326 C 182.440 38.390,177.699 52.149,174.687 60.902 C 171.675 69.655,167.614 81.441,165.663 87.093 C 163.712 92.744,161.009 100.583,159.656 104.511 C 147.667 139.322,148.118 138.201,145.844 138.853 C 145.299 139.009,120.337 139.101,76.693 139.105 C 6.380 139.113,5.738 139.123,3.579 140.155 C -0.487 142.101,0.509 145.932,6.266 150.487 C 8.818 152.506,40.321 177.597,57.895 191.608 C 117.682 239.273,114.845 236.938,115.186 238.757 C 115.435 240.083,115.175 241.073,110.403 257.018 C 103.234 280.964,95.266 307.593,91.728 319.424 C 89.914 325.489,85.725 339.474,82.420 350.501 C 79.115 361.529,76.238 371.284,76.027 372.180 C 74.985 376.610,76.416 379.330,79.780 379.318 C 82.227 379.308,81.364 379.849,102.381 365.163 C 107.594 361.520,137.443 340.705,150.000 331.956 C 156.567 327.380,175.929 313.877,188.221 305.301 C 198.906 297.845,198.344 297.956,204.511 302.087 C 207.142 303.849,247.129 331.041,292.231 361.739 C 305.395 370.699,316.868 378.349,317.726 378.739 C 322.263 380.801,325.311 377.999,324.221 372.771 C 323.891 371.188,315.430 343.857,291.138 265.910 C 283.428 241.168,283.084 239.942,283.467 238.559 C 283.923 236.908,284.339 236.532,295.363 227.789 C 297.707 225.931,307.068 218.489,316.165 211.253 C 325.263 204.016,341.278 191.284,351.754 182.959 C 362.231 174.633,374.073 165.219,378.070 162.038 C 382.068 158.856,387.256 154.743,389.599 152.897 C 398.117 146.187,399.562 143.535,396.266 140.659 C 394.498 139.116,400.143 139.236,322.682 139.098 C 254.673 138.977,252.229 138.956,251.489 138.508 C 250.095 137.664,249.473 136.130,242.525 116.416 C 232.149 86.973,227.180 72.873,214.831 37.824 C 203.128 4.607,203.299 5.069,202.012 3.302 C 200.737 1.552,198.280 0.950,196.597 1.976 M200.471 3.439 C 202.146 5.398,203.138 7.805,208.244 22.306 C 251.908 146.299,248.824 137.659,249.781 138.687 C 251.337 140.360,244.925 140.212,322.306 140.352 C 376.499 140.449,392.549 140.547,393.208 140.784 C 396.718 142.043,397.147 144.279,394.444 147.229 C 393.591 148.160,387.431 153.255,380.240 158.978 C 361.307 174.046,326.974 201.337,304.887 218.878 C 294.135 227.416,284.794 234.923,284.128 235.559 C 281.425 238.144,281.458 238.581,285.275 250.752 C 286.874 255.852,292.470 273.784,297.710 290.602 C 324.777 377.473,323.058 371.818,323.058 373.987 C 323.058 377.539,320.455 378.692,316.685 376.809 C 315.710 376.322,304.762 369.015,292.356 360.571 C 191.414 291.870,200.590 297.992,198.567 298.000 C 196.839 298.006,196.949 297.935,175.313 313.028 C 164.561 320.529,152.832 328.711,149.248 331.209 C 145.664 333.708,134.104 341.768,123.559 349.122 C 78.418 380.600,82.826 377.687,80.319 377.692 C 77.142 377.698,76.340 374.943,77.912 369.424 C 78.324 367.976,82.610 353.596,87.437 337.469 C 92.264 321.341,100.718 293.089,106.223 274.687 C 116.953 238.825,116.718 239.681,116.292 238.099 C 115.855 236.478,115.097 235.842,85.464 212.243 C 70.370 200.222,51.140 184.902,42.732 178.198 C 34.323 171.494,22.650 162.190,16.792 157.523 C -0.197 143.989,-0.778 143.128,5.514 140.806 C 6.220 140.546,20.024 140.457,76.190 140.354 C 133.149 140.249,146.128 140.165,146.742 139.896 C 147.758 139.450,148.577 138.653,149.131 137.573 C 149.857 136.158,156.081 118.235,180.197 48.120 C 194.104 7.686,194.896 5.557,196.836 3.362 C 198.273 1.735,199.029 1.751,200.471 3.439 " stroke="none" fill="#dcdcdc" fill-rule="evenodd"></path><path id="path8" d="M196.836 3.362 C 194.896 5.557,194.104 7.686,180.197 48.120 C 156.081 118.235,149.857 136.158,149.131 137.573 C 148.577 138.653,147.758 139.450,146.742 139.896 C 146.128 140.165,133.149 140.249,76.190 140.354 C 20.024 140.457,6.220 140.546,5.514 140.806 C 3.500 141.549,1.883 142.501,1.810 142.987 C 1.744 143.418,1.777 143.434,2.058 143.108 C 2.666 142.401,5.137 141.397,6.940 141.124 C 8.204 140.934,29.147 140.852,77.008 140.852 C 153.138 140.852,146.997 141.002,148.713 139.102 C 150.071 137.599,149.424 139.418,174.599 66.291 C 197.252 0.491,195.395 5.652,197.090 3.759 C 199.150 1.459,201.033 3.619,203.754 11.404 C 204.476 13.471,209.838 28.697,215.669 45.238 C 228.904 82.785,234.320 98.162,241.756 119.298 C 248.371 138.102,248.691 138.860,250.482 139.965 L 251.715 140.727 322.035 140.856 C 398.667 140.996,393.338 140.883,395.040 142.403 C 395.992 143.252,396.083 144.434,395.283 145.540 C 394.156 147.098,391.118 149.592,367.544 168.316 C 354.035 179.045,335.877 193.472,327.193 200.375 C 318.509 207.279,305.595 217.539,298.496 223.177 C 282.838 235.611,283.090 235.400,282.254 236.822 C 281.202 238.612,281.347 240.254,283.033 245.614 C 283.792 248.026,289.771 267.199,296.321 288.221 C 315.331 349.233,321.067 367.658,321.716 369.799 C 324.155 377.842,321.251 379.470,313.663 374.315 C 308.096 370.534,237.896 322.760,220.301 310.779 C 201.079 297.690,200.587 297.386,198.633 297.386 C 196.676 297.386,196.712 297.363,174.172 313.079 C 138.664 337.838,121.492 349.816,104.386 361.757 C 84.309 375.773,82.807 376.779,81.361 377.184 C 79.278 377.767,77.717 376.775,77.669 374.838 C 77.603 372.183,76.850 374.923,86.536 342.607 C 89.779 331.786,94.372 316.447,96.742 308.521 C 99.112 300.595,104.600 282.268,108.936 267.794 C 116.978 240.951,117.302 239.727,116.823 237.957 C 116.283 235.957,119.267 238.412,58.647 190.096 C 52.788 185.427,39.987 175.224,30.201 167.422 C 20.414 159.621,10.996 152.120,9.273 150.752 C 7.550 149.385,5.758 147.923,5.291 147.504 C 4.823 147.085,4.309 146.629,4.148 146.491 C 3.987 146.353,3.413 145.846,2.873 145.363 C 2.332 144.881,2.114 144.756,2.386 145.086 C 4.184 147.260,7.386 150.024,16.792 157.520 C 22.650 162.188,34.323 171.494,42.732 178.198 C 51.140 184.902,70.370 200.222,85.464 212.243 C 115.097 235.842,115.855 236.478,116.292 238.099 C 116.718 239.681,116.953 238.825,106.223 274.687 C 100.718 293.089,92.264 321.341,87.437 337.469 C 82.610 353.596,78.324 367.976,77.912 369.424 C 76.340 374.943,77.142 377.698,80.319 377.692 C 82.826 377.687,78.418 380.600,123.559 349.122 C 134.104 341.768,145.664 333.708,149.248 331.209 C 152.832 328.711,164.561 320.529,175.313 313.028 C 196.949 297.935,196.839 298.006,198.567 298.000 C 200.590 297.992,191.414 291.870,292.356 360.571 C 304.762 369.015,315.710 376.322,316.685 376.809 C 320.455 378.692,323.058 377.539,323.058 373.987 C 323.058 371.818,324.777 377.473,297.710 290.602 C 292.470 273.784,286.874 255.852,285.275 250.752 C 281.458 238.581,281.425 238.144,284.128 235.559 C 284.794 234.923,294.135 227.416,304.887 218.878 C 326.974 201.337,361.307 174.046,380.240 158.978 C 387.431 153.255,393.591 148.160,394.444 147.229 C 397.147 144.279,396.718 142.043,393.208 140.784 C 392.549 140.547,376.499 140.449,322.306 140.352 C 244.925 140.212,251.337 140.360,249.781 138.687 C 248.824 137.659,251.908 146.299,208.244 22.306 C 201.155 2.176,199.829 -0.026,196.836 3.362 " stroke="none" fill="#dcdcd4" fill-rule="evenodd"></path></g></svg>