<svg id="svg" version="1.1" xmlns="http://www.w3.org/2000/svg" xmlns:xlink="http://www.w3.org/1999/xlink" width="400" height="403.3376123234916" viewBox="0, 0, 400,403.3376123234916"><g id="svgg"><path id="path0" d="M6.969 3.105 C 5.833 3.548,4.867 4.407,4.338 5.444 C 3.739 6.617,3.183 81.872,3.770 82.235 C 3.941 82.340,4.077 69.699,4.176 44.599 C 4.333 4.524,4.284 5.920,5.579 4.563 C 6.800 3.282,5.041 3.316,55.983 3.588 C 115.600 3.905,124.005 3.910,124.005 3.625 C 124.005 3.180,8.100 2.664,6.969 3.105 M142.490 3.851 C 142.490 4.021,152.080 4.108,170.747 4.108 C 189.519 4.108,198.950 4.022,198.845 3.851 C 198.625 3.496,142.490 3.496,142.490 3.851 M203.851 4.058 C 203.851 4.192,216.522 4.358,234.082 4.455 C 317.729 4.914,332.221 4.949,332.221 4.690 C 332.221 4.365,309.757 4.173,248.460 3.973 C 222.177 3.887,203.851 3.922,203.851 4.058 M350.706 4.878 C 350.706 5.047,358.970 5.135,374.983 5.135 C 391.102 5.135,399.207 5.049,399.101 4.878 C 398.882 4.523,350.706 4.523,350.706 4.878 M12.234 11.674 C 11.945 12.426,12.036 66.031,12.326 65.852 C 12.497 65.746,12.583 56.622,12.578 38.815 L 12.572 11.938 34.848 11.967 C 47.100 11.983,77.978 12.085,103.466 12.194 L 149.807 12.393 147.625 13.019 C 143.706 14.143,138.007 15.935,137.552 16.186 C 137.306 16.321,136.987 16.431,136.843 16.431 C 135.957 16.431,124.582 20.955,118.614 23.681 C 72.239 44.860,34.612 84.592,16.436 131.579 C 14.404 136.831,14.164 137.479,13.208 140.308 C 12.683 141.861,12.220 143.172,12.178 143.221 C 12.136 143.270,12.171 125.969,12.254 104.775 C 12.369 75.629,12.333 66.239,12.108 66.239 C 11.884 66.239,11.810 71.695,11.810 88.126 C 11.810 100.164,11.733 118.071,11.639 127.920 C 11.537 138.694,11.562 145.826,11.704 145.824 C 11.833 145.822,12.537 144.002,13.268 141.781 C 15.377 135.377,18.163 128.226,20.576 123.027 C 21.121 121.854,21.566 120.831,21.566 120.754 C 21.566 120.447,26.808 110.186,28.379 107.420 C 32.226 100.643,36.838 93.498,41.146 87.641 C 42.450 85.868,43.691 84.164,43.902 83.854 C 48.403 77.280,63.128 61.642,71.630 54.406 C 90.729 38.152,108.707 27.575,133.119 18.230 C 135.588 17.285,139.768 15.912,144.128 14.615 C 146.546 13.896,149.265 13.086,150.172 12.815 C 151.078 12.545,152.060 12.320,152.354 12.316 C 152.782 12.309,152.812 12.263,152.503 12.084 C 152.137 11.871,135.000 11.757,49.782 11.397 C 14.812 11.250,12.390 11.268,12.234 11.674 M254.656 12.740 C 254.884 12.898,255.475 13.112,255.969 13.214 C 257.265 13.482,265.327 15.966,268.935 17.210 C 304.742 29.551,337.083 52.753,360.358 82.798 C 374.499 101.054,384.812 120.409,392.090 142.356 C 392.932 144.894,393.724 147.147,393.850 147.362 C 393.989 147.599,394.082 144.925,394.087 140.614 C 394.092 135.918,394.007 133.528,393.838 133.633 C 393.681 133.730,393.574 135.947,393.561 139.360 C 393.542 144.725,393.526 144.887,393.144 143.774 C 391.796 139.853,389.620 133.773,389.331 133.119 C 389.143 132.696,388.586 131.309,388.092 130.039 C 382.156 114.753,370.823 95.066,360.769 82.576 C 359.958 81.569,358.994 80.340,358.627 79.846 C 347.756 65.228,325.600 45.826,306.804 34.465 C 295.835 27.835,282.560 21.515,271.374 17.596 C 269.467 16.929,267.677 16.285,267.394 16.166 C 266.939 15.975,260.916 14.069,258.537 13.365 C 257.602 13.088,324.791 13.180,371.223 13.520 L 394.179 13.687 393.999 64.482 C 393.875 99.505,393.902 115.276,394.085 115.276 C 394.266 115.276,394.358 110.982,394.370 101.990 C 394.380 94.682,394.480 71.778,394.592 51.091 C 394.705 30.404,394.725 13.403,394.638 13.310 C 394.475 13.135,314.602 12.592,275.965 12.502 C 259.842 12.465,254.348 12.526,254.656 12.740 M196.919 14.377 C 196.919 14.535,198.165 14.634,200.144 14.634 C 202.228 14.634,203.312 14.543,203.209 14.377 C 203.118 14.229,201.752 14.121,199.985 14.121 C 198.112 14.121,196.919 14.221,196.919 14.377 M187.035 14.640 C 182.291 14.924,180.231 15.174,180.231 15.467 C 180.231 15.642,180.835 15.681,181.964 15.581 C 182.917 15.496,185.892 15.293,188.575 15.129 C 191.258 14.965,193.563 14.728,193.697 14.604 C 193.972 14.349,191.691 14.361,187.035 14.640 M207.587 14.593 C 207.721 14.712,210.661 14.954,214.121 15.131 C 217.580 15.308,221.248 15.513,222.272 15.586 C 224.814 15.768,224.697 15.270,222.144 15.037 C 216.040 14.482,207.155 14.211,207.587 14.593 M177.022 15.585 C 174.263 15.840,160.265 18.340,159.975 18.631 C 159.565 19.040,160.600 18.970,163.464 18.392 C 167.724 17.533,173.776 16.535,177.022 16.156 C 180.881 15.706,180.881 15.229,177.022 15.585 M224.785 15.639 C 224.931 15.788,226.606 16.091,228.507 16.311 C 235.179 17.084,242.744 18.535,251.733 20.766 C 256.806 22.025,265.647 24.736,268.164 25.804 C 268.588 25.983,269.223 26.208,269.576 26.303 C 269.929 26.399,270.449 26.578,270.732 26.701 C 271.014 26.825,272.978 27.613,275.096 28.453 C 283.013 31.593,290.286 35.145,298.716 39.989 C 303.474 42.723,311.068 47.562,314.121 49.805 C 314.827 50.324,316.560 51.596,317.972 52.634 C 342.440 70.603,365.394 99.456,377.408 127.343 C 379.400 131.967,379.644 132.563,381.089 136.329 C 382.342 139.595,385.078 147.661,385.748 150.064 C 389.166 162.330,391.292 172.761,392.316 182.285 C 392.695 185.808,393.218 186.845,392.963 183.569 C 392.761 180.956,391.631 173.021,391.155 170.860 C 390.968 170.013,390.737 168.742,390.643 168.036 C 390.548 167.330,390.312 166.117,390.118 165.340 C 389.925 164.564,389.455 162.542,389.074 160.847 C 387.559 154.103,385.539 147.316,382.275 137.997 C 369.788 102.356,340.906 66.234,307.959 45.056 C 300.438 40.221,284.330 31.322,283.100 31.322 C 283.030 31.322,282.125 30.927,281.088 30.443 C 275.284 27.736,267.952 25.039,257.735 21.854 C 253.063 20.397,240.104 17.443,235.173 16.711 C 229.390 15.851,228.176 15.688,226.444 15.536 C 225.090 15.417,224.598 15.447,224.785 15.639 M154.814 19.783 C 136.204 24.482,117.867 32.176,102.059 41.920 C 67.265 63.367,40.308 95.041,25.085 132.363 C 20.786 142.903,13.881 166.282,15.746 163.981 C 15.952 163.727,16.193 163.034,16.282 162.440 C 16.575 160.490,19.693 148.624,20.276 147.240 C 20.395 146.958,20.858 145.571,21.304 144.159 C 22.055 141.783,22.628 140.140,23.498 137.869 C 23.687 137.375,24.200 136.013,24.637 134.843 C 27.493 127.191,33.826 114.289,38.335 106.932 C 51.168 85.993,65.644 69.526,83.954 55.037 C 97.278 44.494,116.340 33.525,131.043 27.940 C 132.185 27.507,133.466 27.002,133.890 26.818 C 134.313 26.635,134.949 26.405,135.302 26.308 C 135.655 26.210,136.290 25.979,136.714 25.794 C 139.560 24.553,151.626 20.997,157.079 19.792 C 158.254 19.533,159.346 19.190,159.505 19.031 C 159.978 18.559,159.112 18.697,154.814 19.783 M3.546 101.155 C 3.382 101.515,3.047 162.437,2.652 264.121 C 2.523 297.112,2.555 307.574,2.782 307.574 C 3.006 307.574,3.082 303.978,3.086 293.261 C 3.089 285.388,3.151 272.824,3.224 265.340 C 3.297 257.856,3.361 242.664,3.367 231.579 C 3.373 220.494,3.490 188.607,3.626 160.719 C 3.878 109.436,3.866 100.458,3.546 101.155 M14.936 165.918 C 14.403 168.374,14.282 169.604,14.604 169.304 C 14.846 169.078,15.661 165.609,15.661 164.804 C 15.661 164.044,15.184 164.776,14.936 165.918 M14.121 169.822 C 14.121 169.886,13.829 171.747,13.472 173.957 C 10.773 190.679,10.524 213.643,12.865 229.846 C 13.023 230.940,13.255 231.836,13.380 231.836 C 13.671 231.836,13.705 232.314,12.980 226.208 C 11.384 212.755,11.384 195.177,12.981 181.544 C 13.334 178.525,13.563 175.994,13.489 175.920 C 13.415 175.846,13.466 175.651,13.602 175.487 C 13.738 175.324,14.026 174.014,14.242 172.577 C 14.707 169.479,14.696 169.705,14.377 169.705 C 14.236 169.705,14.121 169.757,14.121 169.822 M393.000 189.538 C 393.258 194.338,393.252 213.449,392.992 218.356 C 392.860 220.855,392.876 222.116,393.038 221.950 C 394.049 220.918,394.050 185.879,393.040 185.879 C 392.898 185.879,392.883 187.346,393.000 189.538 M392.751 222.593 C 392.669 222.805,392.409 224.653,392.175 226.701 C 391.096 236.134,388.827 247.182,385.954 256.996 C 384.158 263.135,380.850 272.630,379.449 275.671 C 379.173 276.270,378.947 276.911,378.947 277.096 C 378.947 277.281,378.849 277.542,378.729 277.677 C 378.609 277.811,378.331 278.383,378.110 278.947 C 374.884 287.215,366.833 301.542,358.993 312.965 C 340.379 340.086,311.167 363.853,279.461 377.672 C 278.755 377.980,277.831 378.386,277.407 378.575 C 265.871 383.718,246.410 389.059,231.065 391.293 C 229.865 391.468,228.773 391.708,228.639 391.826 C 228.290 392.134,229.283 392.087,232.092 391.664 C 257.644 387.815,282.301 378.832,303.388 365.690 C 304.263 365.145,305.881 364.135,306.983 363.447 C 325.240 352.038,347.691 330.663,358.687 314.221 C 359.028 313.712,360.240 311.921,361.382 310.242 C 378.349 285.274,389.577 255.206,392.825 226.032 C 393.107 223.495,393.070 221.776,392.751 222.593 M13.350 232.604 C 13.350 233.714,14.199 237.997,14.419 237.997 C 14.705 237.997,14.698 237.877,14.233 234.978 C 13.851 232.596,13.350 231.249,13.350 232.604 M14.377 238.599 C 14.377 239.156,15.155 242.965,15.299 243.111 C 15.646 243.463,15.642 242.669,15.286 240.792 C 14.909 238.807,14.377 237.523,14.377 238.599 M15.553 244.416 C 16.543 251.066,22.225 268.897,26.435 278.567 C 47.936 327.954,88.263 365.501,138.768 383.158 C 141.902 384.254,146.214 385.585,151.220 387.004 C 154.694 387.989,163.507 389.987,164.376 389.987 C 165.122 389.987,164.070 389.462,162.832 389.216 C 151.257 386.919,135.707 382.047,125.802 377.613 C 125.167 377.329,124.243 376.922,123.748 376.709 C 121.905 375.916,113.281 371.642,111.425 370.602 C 110.366 370.009,108.979 369.234,108.344 368.880 C 78.244 352.120,52.616 326.483,35.719 296.231 C 33.591 292.421,28.920 283.131,27.739 280.359 C 27.288 279.300,26.752 278.066,26.548 277.615 C 25.235 274.711,22.869 268.352,21.408 263.800 C 20.909 262.246,20.402 260.745,20.280 260.462 C 19.707 259.126,16.579 247.235,16.282 245.262 C 16.193 244.668,15.954 243.975,15.750 243.721 C 15.420 243.309,15.399 243.383,15.553 244.416 M11.040 275.747 C 11.040 286.159,11.126 291.416,11.294 291.247 C 11.455 291.087,11.573 285.790,11.615 276.932 L 11.682 262.870 13.184 267.314 C 17.616 280.421,26.305 298.932,31.841 307.060 C 32.081 307.413,33.116 309.031,34.140 310.655 C 55.367 344.319,89.874 372.941,126.829 387.539 C 128.877 388.348,130.783 389.113,131.065 389.239 C 132.586 389.920,141.351 392.897,142.683 393.185 C 144.318 393.539,143.478 392.929,141.525 392.345 C 133.120 389.830,120.121 384.517,111.425 380.043 C 107.034 377.783,103.989 376.160,103.594 375.868 C 103.453 375.764,102.818 375.392,102.182 375.042 C 62.373 353.124,28.399 311.439,13.244 265.919 C 12.222 262.849,11.307 260.259,11.212 260.164 C 11.117 260.069,11.040 267.081,11.040 275.747 M391.362 267.599 C 377.228 309.555,347.322 347.582,310.270 370.711 C 309.281 371.328,308.184 372.025,307.831 372.261 C 307.478 372.496,306.512 373.086,305.684 373.572 C 304.857 374.057,303.875 374.637,303.502 374.861 C 291.900 381.821,274.570 389.270,259.949 393.584 C 258.395 394.042,257.015 394.518,256.881 394.641 C 256.741 394.769,261.802 394.865,268.691 394.865 C 275.320 394.865,293.684 394.938,309.499 395.027 C 329.289 395.137,338.174 395.105,337.997 394.922 C 337.825 394.744,324.957 394.595,298.588 394.468 C 259.671 394.280,259.444 394.276,260.976 393.794 C 282.115 387.127,298.451 379.375,314.891 368.208 C 317.953 366.128,318.029 366.074,321.823 363.281 C 350.931 341.857,375.605 310.075,388.092 277.920 C 388.586 276.650,389.143 275.263,389.331 274.840 C 389.518 274.416,390.364 272.105,391.209 269.705 C 392.055 267.304,392.818 265.167,392.905 264.955 C 392.992 264.743,392.993 281.813,392.907 302.888 C 392.809 327.074,392.841 341.207,392.996 341.207 C 393.148 341.207,393.304 330.663,393.411 313.286 C 393.633 276.935,393.627 262.128,393.389 262.143 C 393.283 262.150,392.371 264.605,391.362 267.599 M10.697 338.040 C 10.603 353.525,10.526 372.344,10.526 379.859 L 10.526 393.523 17.522 393.674 C 29.767 393.939,130.167 394.123,130.167 393.881 C 130.167 393.749,114.846 393.582,94.031 393.488 C 74.156 393.398,47.336 393.250,34.431 393.161 L 10.967 392.997 11.158 351.441 C 11.276 325.658,11.257 309.884,11.108 309.884 C 10.961 309.884,10.801 320.840,10.697 338.040 M2.485 326.508 C 2.195 327.002,2.017 398.099,2.303 398.845 C 2.701 399.882,4.041 401.242,5.107 401.691 C 5.850 402.004,16.662 402.096,78.919 402.314 C 119.037 402.455,162.086 402.673,174.583 402.799 C 187.080 402.924,214.576 403.039,235.687 403.054 C 256.797 403.069,296.367 403.131,323.620 403.191 L 373.171 403.299 307.060 402.950 C 270.700 402.758,229.223 402.552,214.891 402.492 C 67.592 401.879,5.752 401.465,4.928 401.087 C 4.461 400.873,3.768 400.289,3.387 399.790 L 2.696 398.882 2.792 362.599 C 2.844 342.643,2.822 326.316,2.743 326.316 C 2.663 326.316,2.547 326.402,2.485 326.508 M392.726 359.093 C 392.632 359.187,392.555 367.274,392.555 377.065 L 392.555 394.865 374.454 394.865 C 362.559 394.865,356.354 394.953,356.354 395.122 C 356.354 395.291,362.644 395.379,374.711 395.379 L 393.068 395.379 393.068 377.150 C 393.068 367.125,393.030 358.922,392.982 358.922 C 392.935 358.922,392.820 358.999,392.726 359.093 M164.827 389.987 C 164.827 390.128,164.916 390.244,165.026 390.244 C 165.136 390.244,167.186 390.583,169.583 390.997 C 174.916 391.918,178.069 392.233,177.813 391.818 C 177.714 391.658,177.310 391.528,176.916 391.528 C 176.088 391.528,170.520 390.689,167.564 390.119 C 165.195 389.662,164.827 389.644,164.827 389.987 M178.177 391.982 C 178.177 392.289,179.355 392.466,183.697 392.814 C 187.536 393.121,189.136 393.132,188.819 392.852 C 188.685 392.733,186.842 392.494,184.724 392.322 C 182.606 392.149,180.266 391.941,179.525 391.860 C 178.666 391.767,178.177 391.811,178.177 391.982 M222.015 392.257 C 219.791 392.475,217.972 392.747,217.972 392.861 C 217.972 393.155,219.339 393.112,223.748 392.681 C 225.866 392.474,227.744 392.303,227.920 392.301 C 228.097 392.299,228.241 392.182,228.241 392.041 C 228.241 391.719,227.100 391.759,222.015 392.257 M190.244 393.068 C 190.244 393.209,190.562 393.335,190.950 393.346 C 191.746 393.371,201.528 393.814,201.926 393.844 C 202.837 393.912,216.781 393.318,216.892 393.206 C 217.262 392.836,216.201 392.809,209.084 393.006 C 204.864 393.122,200.026 393.137,198.331 393.038 C 193.637 392.763,190.244 392.776,190.244 393.068 M143.774 393.298 C 143.774 393.731,144.699 394.096,145.747 394.077 L 146.727 394.059 145.828 393.728 C 144.125 393.102,143.774 393.029,143.774 393.298 M399.743 402.066 C 399.743 402.215,399.252 402.559,398.652 402.831 L 397.561 403.326 398.780 403.332 C 399.966 403.337,400.000 403.316,400.000 402.567 C 400.000 402.144,399.942 401.797,399.872 401.797 C 399.801 401.797,399.743 401.918,399.743 402.066 " stroke="none" fill="#b0fc9f" fill-rule="evenodd"></path><path id="path1" d="M6.804 3.685 C 5.838 4.133,5.000 5.034,4.618 6.033 C 4.405 6.593,4.284 17.154,4.176 44.599 C 4.094 65.386,3.932 82.335,3.815 82.263 C 3.698 82.191,3.630 94.990,3.663 110.706 C 3.758 156.167,3.137 307.343,2.853 307.574 C 2.767 307.644,2.696 328.218,2.696 353.293 L 2.696 398.884 3.387 399.791 C 3.768 400.290,4.461 400.873,4.928 401.087 C 5.749 401.464,58.599 401.820,209.884 402.470 C 221.463 402.520,268.394 402.736,314.175 402.951 C 404.821 403.376,399.002 403.438,399.751 402.040 C 400.130 401.331,400.090 5.723,399.710 5.317 C 399.487 5.078,393.836 5.022,375.063 5.073 C 356.613 5.124,350.706 5.067,350.706 4.840 C 350.706 4.612,347.062 4.583,335.623 4.720 C 319.038 4.918,204.018 4.418,203.915 4.148 C 203.880 4.055,190.045 4.017,173.171 4.062 C 156.297 4.107,142.490 4.050,142.490 3.934 C 142.490 3.818,122.648 3.708,98.395 3.691 C 74.143 3.673,43.787 3.585,30.937 3.493 C 11.264 3.354,7.452 3.384,6.804 3.685 M119.641 11.708 C 137.503 11.792,152.291 11.961,152.503 12.084 C 152.812 12.263,152.782 12.309,152.354 12.316 C 152.060 12.320,151.078 12.545,150.172 12.815 C 149.265 13.086,146.546 13.896,144.128 14.615 C 139.768 15.912,135.588 17.285,133.119 18.230 C 108.707 27.575,90.729 38.152,71.630 54.406 C 63.128 61.642,48.403 77.280,43.902 83.854 C 43.691 84.164,42.450 85.868,41.146 87.641 C 36.838 93.498,32.226 100.643,28.379 107.420 C 26.808 110.186,21.566 120.447,21.566 120.754 C 21.566 120.831,21.121 121.854,20.576 123.027 C 18.163 128.226,15.377 135.377,13.268 141.781 C 12.537 144.002,11.856 145.822,11.755 145.824 C 11.534 145.829,11.820 66.395,12.041 66.303 C 12.126 66.268,12.163 54.137,12.124 39.345 C 12.085 24.554,12.119 12.179,12.200 11.846 L 12.348 11.239 49.755 11.397 C 70.330 11.484,101.778 11.624,119.641 11.708 M346.085 12.846 C 372.702 13.008,394.551 13.216,394.638 13.310 C 394.927 13.619,394.322 115.133,394.030 115.315 C 393.846 115.429,393.816 120.524,393.934 131.618 C 394.042 141.761,394.016 147.608,393.863 147.362 C 393.730 147.147,392.932 144.894,392.090 142.356 C 373.421 86.064,331.331 41.583,276.252 19.936 C 269.968 17.467,259.071 13.855,255.969 13.214 C 251.739 12.339,258.186 12.313,346.085 12.846 M203.188 14.313 C 203.294 14.419,206.404 14.516,210.098 14.529 C 217.007 14.553,223.879 15.012,224.169 15.468 C 224.259 15.611,224.457 15.650,224.609 15.556 C 225.968 14.716,248.706 19.039,257.735 21.854 C 267.952 25.039,275.284 27.736,281.088 30.443 C 282.125 30.927,283.030 31.322,283.100 31.322 C 284.330 31.322,300.438 40.221,307.959 45.056 C 340.906 66.234,369.788 102.356,382.275 137.997 C 385.539 147.316,387.559 154.103,389.074 160.847 C 389.455 162.542,389.925 164.564,390.118 165.340 C 390.312 166.117,390.548 167.330,390.643 168.036 C 390.737 168.742,390.968 170.013,391.155 170.860 C 391.752 173.560,392.839 181.626,392.890 183.725 C 392.918 184.839,393.016 185.809,393.109 185.880 C 394.044 186.593,394.083 219.501,393.151 221.823 C 393.066 222.035,393.018 222.555,393.045 222.978 C 393.104 223.933,392.486 229.067,391.778 233.504 C 389.253 249.341,384.568 265.250,377.866 280.745 C 374.208 289.201,367.393 301.396,361.382 310.242 C 360.240 311.921,359.028 313.712,358.687 314.221 C 347.691 330.663,325.240 352.038,306.983 363.447 C 305.881 364.135,304.263 365.145,303.388 365.690 C 291.861 372.874,278.010 379.376,264.827 383.791 C 255.383 386.953,247.647 388.890,235.430 391.148 C 232.424 391.704,229.035 392.105,228.637 391.952 C 228.437 391.876,228.238 391.916,228.194 392.041 C 228.081 392.360,219.355 393.150,218.124 392.953 C 217.509 392.854,217.049 392.899,216.945 393.068 C 216.813 393.281,203.716 393.961,201.926 393.847 C 201.784 393.838,199.137 393.722,196.042 393.589 C 192.948 393.455,190.348 393.255,190.266 393.143 C 190.183 393.031,188.614 392.923,186.778 392.902 C 183.250 392.862,178.422 392.410,178.188 392.098 C 178.111 391.996,177.125 391.879,175.995 391.838 C 173.563 391.751,164.993 390.308,164.869 389.965 C 164.822 389.834,164.679 389.791,164.553 389.869 C 164.152 390.117,156.098 388.387,151.220 387.004 C 143.951 384.944,139.263 383.422,133.761 381.335 C 77.674 360.063,34.486 312.987,18.278 255.456 C 17.018 250.984,15.655 245.296,15.592 244.247 C 15.559 243.705,15.455 243.202,15.360 243.130 C 15.084 242.920,14.314 238.791,14.473 238.375 C 14.553 238.167,14.524 237.997,14.409 237.997 C 14.129 237.997,13.259 232.985,13.427 232.342 C 13.500 232.063,13.468 231.836,13.356 231.836 C 13.244 231.836,13.023 230.940,12.865 229.846 C 10.972 216.743,10.747 196.926,12.328 182.542 C 12.995 176.482,13.128 175.601,13.361 175.744 C 13.470 175.812,13.500 175.641,13.428 175.365 C 13.258 174.714,14.080 169.858,14.378 169.752 C 14.503 169.708,14.543 169.509,14.467 169.310 C 14.312 168.907,15.091 164.778,15.360 164.573 C 15.455 164.501,15.558 164.011,15.588 163.486 C 15.816 159.589,21.266 141.728,25.085 132.363 C 40.308 95.041,67.265 63.367,102.059 41.920 C 112.106 35.728,125.741 29.179,136.842 25.215 C 144.424 22.507,158.699 18.503,159.573 18.838 C 159.761 18.911,159.952 18.868,159.996 18.744 C 160.174 18.245,174.701 15.718,178.049 15.603 C 179.178 15.564,180.162 15.455,180.235 15.359 C 180.496 15.014,186.885 14.570,191.849 14.551 C 194.637 14.541,196.919 14.439,196.919 14.326 C 196.919 14.066,202.928 14.053,203.188 14.313 M13.244 265.919 C 28.399 311.439,62.373 353.124,102.182 375.042 C 102.818 375.392,103.453 375.764,103.594 375.868 C 103.989 376.160,107.034 377.783,111.425 380.043 C 120.074 384.493,132.196 389.456,141.463 392.340 C 142.522 392.670,143.428 393.027,143.475 393.134 C 143.522 393.241,143.652 393.272,143.764 393.203 C 143.875 393.134,144.588 393.291,145.347 393.552 C 146.769 394.041,37.340 394.157,17.485 393.687 L 10.451 393.521 10.639 351.767 C 10.756 325.863,10.919 309.979,11.070 309.924 C 11.223 309.869,11.250 300.546,11.141 284.892 C 11.047 271.173,11.063 260.036,11.177 260.143 C 11.292 260.249,12.222 262.849,13.244 265.919 M393.463 301.605 C 393.354 324.366,393.177 341.114,393.045 341.163 C 392.911 341.213,392.885 352.475,392.984 368.313 L 393.153 395.379 374.754 395.379 C 360.968 395.379,356.354 395.304,356.354 395.081 C 356.354 394.856,352.712 394.828,341.545 394.964 C 324.680 395.170,256.615 394.877,256.922 394.599 C 257.033 394.499,258.395 394.042,259.949 393.584 C 274.570 389.270,291.900 381.821,303.502 374.861 C 303.875 374.637,304.857 374.057,305.684 373.572 C 306.512 373.086,307.478 372.496,307.831 372.261 C 308.184 372.025,309.281 371.328,310.270 370.711 C 347.322 347.582,377.228 309.555,391.362 267.599 C 392.371 264.605,393.299 262.150,393.424 262.143 C 393.557 262.136,393.573 278.642,393.463 301.605 " stroke="none" fill="#2cfc04" fill-rule="evenodd"></path></g></svg>