<svg id="svg" version="1.1" xmlns="http://www.w3.org/2000/svg" xmlns:xlink="http://www.w3.org/1999/xlink" width="400" height="392.6535782140595" viewBox="0, 0, 400,392.6535782140595"><g id="svgg"><path id="path0" d="M47.118 18.237 C 7.740 18.382,10.818 18.219,9.567 20.230 L 8.993 21.153 8.993 132.996 L 8.993 244.839 9.513 245.724 C 9.800 246.211,10.415 246.867,10.881 247.181 L 11.728 247.752 68.182 247.752 L 124.636 247.752 124.636 309.037 L 124.636 370.322 125.292 371.102 L 125.948 371.881 200.255 371.881 C 241.124 371.881,274.747 371.810,274.973 371.724 C 276.181 371.260,276.124 374.347,276.124 308.942 L 276.124 247.752 334.526 247.752 C 400.707 247.752,394.298 247.964,395.437 245.732 C 395.946 244.734,395.947 244.481,395.947 132.916 L 395.947 21.101 395.367 20.240 C 395.048 19.767,394.279 19.094,393.657 18.746 L 392.527 18.113 237.365 18.110 C 152.027 18.109,66.415 18.166,47.118 18.237 M387.714 69.158 L 387.714 112.350 236.985 112.350 L 86.257 112.350 86.192 69.411 C 86.156 45.795,86.181 26.330,86.248 26.156 C 86.344 25.902,116.635 25.851,237.041 25.902 L 387.714 25.966 387.714 69.158 M306.396 177.201 L 306.396 205.573 291.260 205.638 L 276.124 205.704 276.124 194.970 C 276.124 184.494,276.111 184.219,275.599 183.568 L 275.074 182.901 200.401 182.901 L 125.728 182.901 125.245 183.434 C 124.789 183.938,124.759 184.558,124.691 194.833 L 124.620 205.700 113.482 205.700 L 102.343 205.700 102.343 177.370 C 102.343 161.788,102.419 148.963,102.512 148.870 C 102.606 148.777,148.517 148.730,204.539 148.765 L 306.396 148.828 306.396 177.201 M271.755 277.327 L 271.691 367.701 200.887 367.770 C 161.944 367.808,129.826 367.778,129.512 367.702 L 128.942 367.565 128.942 277.259 L 128.942 186.954 200.380 186.954 L 271.818 186.954 271.755 277.327 M141.614 215.770 C 140.348 216.406,139.582 217.671,139.582 219.126 C 139.582 220.581,140.348 221.846,141.614 222.482 C 142.445 222.900,145.771 222.925,200.263 222.926 L 258.031 222.926 259.142 222.356 C 261.861 220.962,261.770 216.837,258.995 215.677 C 257.546 215.072,142.823 215.162,141.614 215.770 M164.455 237.868 C 161.284 238.625,160.646 243.000,163.456 244.713 C 164.756 245.506,249.431 245.506,250.731 244.713 C 253.161 243.231,253.151 240.084,250.710 238.275 L 249.995 237.745 207.645 237.706 C 184.352 237.685,164.917 237.757,164.455 237.868 M142.749 270.673 C 139.711 272.104,139.495 276.007,142.374 277.454 C 143.582 278.061,235.255 278.151,236.702 277.546 C 239.195 276.505,239.489 272.884,237.222 271.154 L 236.265 270.424 189.887 270.370 C 150.372 270.323,143.396 270.368,142.749 270.673 M151.050 296.381 C 148.223 297.664,148.193 301.661,150.999 303.112 C 152.058 303.660,250.956 303.674,252.008 303.127 C 254.824 301.662,254.814 297.663,251.990 296.381 C 250.310 295.618,152.730 295.618,151.050 296.381 M146.168 328.972 C 143.388 330.176,143.151 333.897,145.746 335.615 L 146.765 336.289 203.670 336.269 C 259.287 336.251,260.597 336.239,261.570 335.763 C 264.430 334.362,264.458 330.350,261.616 329.060 C 260.131 328.386,147.721 328.300,146.168 328.972 " stroke="none" fill="#141515" fill-rule="evenodd"></path><path id="path1" d="M86.248 26.156 C 86.181 26.330,86.156 45.795,86.192 69.411 L 86.257 112.350 236.985 112.350 L 387.714 112.350 387.714 69.158 L 387.714 25.966 237.041 25.902 C 116.635 25.851,86.344 25.902,86.248 26.156 M306.392 177.201 C 306.392 192.806,306.423 199.152,306.460 191.304 C 306.497 183.456,306.497 170.689,306.460 162.932 C 306.423 155.175,306.392 161.596,306.392 177.201 M163.331 182.837 C 183.708 182.873,217.052 182.873,237.429 182.837 C 257.806 182.801,241.134 182.772,200.380 182.772 C 159.626 182.772,142.954 182.801,163.331 182.837 M186.110 245.408 C 197.559 245.445,216.369 245.445,227.909 245.408 C 239.450 245.372,230.082 245.342,207.093 245.342 C 184.104 245.342,174.662 245.372,186.110 245.408 M204.258 328.499 C 206.182 328.542,209.260 328.542,211.098 328.498 C 212.936 328.455,211.362 328.420,207.600 328.420 C 203.838 328.420,202.334 328.455,204.258 328.499 M164.998 367.764 C 184.620 367.800,216.653 367.800,236.183 367.764 C 255.712 367.729,239.658 367.699,200.507 367.699 C 161.355 367.699,145.377 367.729,164.998 367.764 M163.585 372.071 C 183.822 372.107,216.938 372.107,237.175 372.071 C 257.413 372.035,240.855 372.006,200.380 372.006 C 159.905 372.006,143.347 372.035,163.585 372.071 " stroke="none" fill="#04c3eb" fill-rule="evenodd"></path><path id="path2" d="M0.000 196.327 L 0.000 392.654 200.000 392.654 L 400.000 392.654 400.000 196.327 L 400.000 0.000 200.000 0.000 L 0.000 0.000 0.000 196.327 M392.835 18.392 C 394.175 18.840,395.051 19.532,395.591 20.570 C 396.262 21.860,396.108 244.770,395.436 245.859 C 394.231 247.808,400.574 247.610,334.896 247.752 L 276.251 247.878 276.124 309.334 C 276.018 360.600,275.940 370.859,275.653 371.204 C 274.888 372.126,274.462 372.131,200.380 372.131 C 126.298 372.131,125.872 372.126,125.107 371.204 C 124.820 370.859,124.742 360.600,124.636 309.334 L 124.509 247.878 67.973 247.752 L 11.437 247.625 10.737 247.103 C 10.352 246.816,9.803 246.266,9.515 245.881 L 8.993 245.181 8.993 133.040 L 8.993 20.899 9.583 20.072 C 10.898 18.229,7.805 18.381,46.992 18.237 C 147.224 17.870,391.603 17.979,392.835 18.392 M102.460 149.018 C 102.394 149.193,102.369 161.989,102.405 177.454 L 102.470 205.573 113.545 205.639 L 124.620 205.705 124.691 194.816 L 124.763 183.928 125.340 183.351 L 125.917 182.774 200.409 182.774 L 274.901 182.774 275.513 183.485 L 276.124 184.195 276.124 194.948 L 276.124 205.700 291.197 205.700 L 306.270 205.700 306.270 177.201 L 306.270 148.702 204.425 148.702 C 123.183 148.702,102.556 148.766,102.460 149.018 M129.111 187.123 C 129.018 187.216,128.942 227.855,128.942 277.433 L 128.942 367.574 200.380 367.574 L 271.818 367.574 271.818 277.264 L 271.818 186.954 200.549 186.954 C 161.351 186.954,129.204 187.030,129.111 187.123 M259.146 215.770 C 260.412 216.406,261.178 217.671,261.178 219.126 C 261.178 220.581,260.412 221.846,259.146 222.482 C 257.940 223.088,143.215 223.180,141.770 222.577 C 138.787 221.330,138.766 217.004,141.735 215.684 C 143.071 215.090,257.961 215.174,259.146 215.770 M250.828 238.319 C 253.694 240.102,252.875 244.425,249.525 245.197 C 247.943 245.561,166.243 245.561,164.661 245.197 C 160.842 244.317,160.568 239.044,164.281 237.896 C 164.738 237.755,181.984 237.678,207.473 237.703 L 249.905 237.745 250.828 238.319 M237.015 270.947 C 239.505 272.806,239.416 276.140,236.841 277.454 C 235.391 278.193,143.391 278.133,142.176 277.392 C 139.666 275.862,139.733 272.181,142.294 270.826 C 143.247 270.322,143.646 270.318,189.785 270.371 L 236.315 270.424 237.015 270.947 M252.171 296.458 C 254.736 297.911,254.799 301.594,252.284 303.079 C 251.232 303.701,152.144 303.698,150.834 303.076 C 148.952 302.183,148.251 299.039,149.581 297.458 C 151.006 295.765,146.684 295.895,201.520 295.893 L 251.172 295.892 252.171 296.458 M261.681 329.031 C 264.441 330.338,264.398 334.372,261.608 335.824 C 260.330 336.490,147.216 336.515,146.001 335.851 C 143.240 334.340,143.192 330.531,145.915 329.037 C 147.317 328.267,260.056 328.261,261.681 329.031 " stroke="none" fill="#fbfbf6" fill-rule="evenodd"></path></g></svg>