<svg id="svg" version="1.1" xmlns="http://www.w3.org/2000/svg" xmlns:xlink="http://www.w3.org/1999/xlink" width="400" height="397.19745222929936" viewBox="0, 0, 400,397.19745222929936"><g id="svgg"><path id="path0" d="M95.414 115.671 C 93.452 115.791,91.217 116.012,90.446 116.163 C 89.675 116.314,88.013 116.608,86.752 116.818 C 83.638 117.335,80.183 118.055,79.873 118.253 C 79.732 118.342,78.930 118.555,78.089 118.725 C 77.248 118.896,76.446 119.122,76.306 119.227 C 76.166 119.331,75.479 119.557,74.780 119.727 C 74.082 119.898,73.394 120.128,73.252 120.239 C 73.110 120.349,72.650 120.521,72.229 120.621 C 71.809 120.722,71.121 120.959,70.701 121.148 C 70.280 121.338,69.076 121.832,68.025 122.248 C 64.160 123.776,59.544 126.175,54.439 129.309 C 43.111 136.262,31.719 148.248,24.665 160.637 C 23.530 162.630,20.382 168.971,20.382 169.264 C 20.382 169.345,20.112 170.017,19.782 170.757 C 17.962 174.839,16.034 181.103,15.056 186.115 C 14.810 187.376,14.541 188.580,14.459 188.790 C 14.376 189.000,14.181 190.318,14.025 191.720 C 13.869 193.121,13.686 194.726,13.618 195.287 C 12.773 202.227,13.294 216.937,14.507 220.382 C 14.630 220.732,14.873 221.936,15.046 223.057 C 15.220 224.178,15.444 225.210,15.546 225.350 C 15.647 225.490,15.807 226.064,15.901 226.624 C 16.076 227.661,17.195 231.556,17.585 232.484 C 17.703 232.764,17.934 233.435,18.099 233.974 C 18.265 234.513,18.558 235.258,18.752 235.630 C 18.946 236.002,19.107 236.478,19.108 236.688 C 19.110 236.898,19.295 237.414,19.518 237.834 C 19.742 238.255,20.076 239.017,20.261 239.528 C 21.078 241.794,24.644 248.646,26.476 251.471 C 26.978 252.245,27.503 253.073,27.643 253.311 C 28.081 254.054,29.889 256.635,30.825 257.852 C 31.317 258.493,32.006 259.405,32.357 259.880 C 39.102 269.028,52.728 279.857,64.076 285.092 C 65.338 285.674,66.556 286.249,66.784 286.370 C 67.011 286.490,68.158 286.955,69.331 287.403 C 70.505 287.851,71.809 288.360,72.229 288.536 C 72.650 288.711,74.025 289.166,75.287 289.547 C 76.548 289.927,77.866 290.341,78.217 290.467 C 79.210 290.823,82.153 291.466,85.223 291.997 C 86.764 292.264,88.599 292.600,89.299 292.742 C 94.410 293.784,108.808 293.709,116.051 292.602 C 119.502 292.075,125.658 290.722,125.975 290.421 C 126.108 290.295,126.421 290.191,126.671 290.191 C 127.195 290.191,131.456 288.821,132.650 288.269 C 133.092 288.065,133.565 287.898,133.702 287.898 C 133.839 287.898,134.624 287.602,135.447 287.241 C 136.270 286.879,137.172 286.484,137.452 286.363 C 143.609 283.699,150.861 279.489,155.541 275.861 C 162.515 270.456,169.550 263.444,173.301 258.158 C 174.209 256.879,177.416 252.154,177.761 251.589 C 180.057 247.821,183.393 241.441,183.822 240.000 C 183.926 239.650,184.113 239.235,184.238 239.078 C 184.699 238.500,186.774 232.439,188.066 227.898 C 191.102 217.226,191.901 203.669,190.212 191.465 C 189.979 189.783,189.722 188.236,189.640 188.025 C 189.558 187.815,189.289 186.611,189.042 185.350 C 187.441 177.186,182.969 165.816,178.636 158.898 C 171.040 146.766,163.527 138.824,152.055 130.798 C 148.708 128.456,139.076 123.057,138.245 123.057 C 138.168 123.057,137.478 122.771,136.712 122.420 C 135.946 122.070,135.226 121.783,135.112 121.782 C 134.998 121.781,134.600 121.622,134.228 121.428 C 133.857 121.234,133.111 120.940,132.572 120.774 C 132.033 120.609,131.363 120.375,131.083 120.255 C 130.803 120.134,130.115 119.905,129.554 119.745 C 128.994 119.586,128.306 119.351,128.025 119.225 C 127.021 118.771,120.556 117.280,116.943 116.668 C 110.879 115.641,102.357 115.246,95.414 115.671 " stroke="none" fill="#dc5424" fill-rule="evenodd"></path><path id="path1" d="M294.268 116.217 C 293.497 116.338,291.376 116.601,289.554 116.801 C 285.151 117.284,278.220 118.649,277.137 119.247 C 276.894 119.381,276.523 119.490,276.313 119.490 C 275.920 119.490,271.609 120.852,270.701 121.263 C 270.420 121.389,269.732 121.631,269.172 121.799 C 268.611 121.967,268.038 122.189,267.898 122.293 C 267.758 122.397,267.193 122.627,266.643 122.804 C 256.563 126.054,240.244 138.291,231.742 148.975 C 230.540 150.485,229.457 151.842,229.334 151.992 C 226.821 155.055,221.912 163.401,219.753 168.280 C 219.381 169.121,218.962 170.019,218.823 170.275 C 218.683 170.532,218.107 172.022,217.541 173.587 C 215.536 179.141,214.937 181.162,214.057 185.350 C 213.822 186.471,213.559 187.503,213.473 187.643 C 213.387 187.783,213.181 189.045,213.016 190.446 C 212.850 191.847,212.602 193.395,212.463 193.885 C 211.767 196.350,211.779 213.521,212.479 216.561 C 212.624 217.191,212.906 218.796,213.106 220.127 C 213.787 224.670,215.303 230.716,216.683 234.395 C 216.867 234.885,217.382 236.261,217.828 237.452 C 225.067 256.802,241.175 274.677,260.125 284.386 C 264.671 286.716,271.548 289.550,273.913 290.070 C 274.379 290.172,274.936 290.357,275.151 290.481 C 276.048 290.997,283.417 292.605,287.898 293.262 C 294.905 294.290,306.697 294.553,310.134 293.758 C 310.726 293.621,312.529 293.345,314.140 293.144 C 317.275 292.752,319.958 292.243,322.420 291.572 C 326.544 290.447,329.376 289.601,330.102 289.276 C 330.544 289.079,331.027 288.917,331.176 288.917 C 331.326 288.917,331.824 288.751,332.284 288.547 C 332.745 288.343,334.497 287.580,336.178 286.852 C 355.912 278.299,371.997 262.760,381.191 243.366 C 382.007 241.644,382.675 240.181,382.675 240.115 C 382.675 240.049,382.899 239.508,383.173 238.914 C 383.699 237.773,384.028 236.878,385.205 233.376 C 386.144 230.584,386.931 227.879,387.132 226.752 C 387.219 226.261,387.392 225.631,387.515 225.350 C 387.833 224.629,388.503 220.788,388.937 217.197 C 389.140 215.516,389.428 213.395,389.576 212.484 C 390.142 209.014,389.486 193.553,388.636 190.318 C 388.544 189.968,388.265 188.650,388.016 187.389 C 387.345 183.990,386.761 181.585,386.486 181.086 C 386.352 180.843,386.242 180.460,386.242 180.235 C 386.242 179.841,384.910 175.689,384.449 174.650 C 384.325 174.369,383.807 173.051,383.297 171.720 C 376.634 154.312,362.041 137.539,345.096 127.813 C 342.512 126.329,335.337 122.815,334.851 122.794 C 334.740 122.789,334.191 122.564,333.631 122.293 C 333.070 122.022,332.514 121.797,332.395 121.792 C 332.276 121.787,331.818 121.621,331.376 121.423 C 330.218 120.904,325.650 119.490,325.130 119.490 C 324.887 119.490,324.579 119.387,324.446 119.260 C 323.938 118.778,316.497 117.315,311.975 116.809 C 310.153 116.605,307.886 116.323,306.938 116.181 C 304.903 115.877,296.279 115.902,294.268 116.217 " stroke="none" fill="#3c5404" fill-rule="evenodd"></path><path id="path2" d="M293.299 108.563 C 293.201 108.648,291.459 108.908,289.427 109.140 C 256.145 112.946,226.500 135.222,213.266 166.369 C 212.819 167.420,212.347 168.510,212.217 168.790 C 210.326 172.845,207.129 184.833,206.374 190.696 C 206.212 191.955,206.002 193.044,205.906 193.117 C 205.352 193.537,205.346 216.648,205.901 217.071 C 206.145 217.257,206.927 223.155,206.747 223.448 C 206.663 223.583,206.701 223.694,206.831 223.694 C 206.961 223.694,207.205 224.411,207.372 225.287 C 208.358 230.438,211.822 241.341,213.490 244.541 C 213.612 244.776,214.258 246.115,214.925 247.516 C 222.370 263.160,234.132 276.628,248.662 286.149 C 254.751 290.139,259.180 292.459,265.796 295.126 C 270.278 296.933,277.511 299.098,281.720 299.893 C 282.596 300.058,283.312 300.300,283.312 300.430 C 283.312 300.561,283.424 300.598,283.560 300.514 C 283.835 300.344,289.989 301.149,290.191 301.382 C 290.345 301.559,290.854 301.571,300.255 301.612 C 307.511 301.645,310.579 301.561,311.338 301.311 C 312.170 301.036,317.728 300.365,317.965 300.511 C 318.103 300.597,318.217 300.561,318.217 300.430 C 318.217 300.300,318.933 300.056,319.809 299.887 C 334.087 297.139,351.482 288.787,361.529 279.857 C 387.105 257.124,399.100 227.580,395.792 195.470 C 394.959 187.385,393.791 181.940,391.162 173.885 C 379.743 138.891,347.628 112.761,311.465 109.041 C 309.783 108.868,308.329 108.681,308.233 108.626 C 307.941 108.458,293.490 108.397,293.299 108.563 M306.938 116.181 C 307.886 116.323,310.153 116.605,311.975 116.809 C 316.497 117.315,323.938 118.778,324.446 119.260 C 324.579 119.387,324.887 119.490,325.130 119.490 C 325.650 119.490,330.218 120.904,331.376 121.423 C 331.818 121.621,332.276 121.787,332.395 121.792 C 332.514 121.797,333.070 122.022,333.631 122.293 C 334.191 122.564,334.740 122.789,334.851 122.794 C 335.337 122.815,342.512 126.329,345.096 127.813 C 362.041 137.539,376.634 154.312,383.297 171.720 C 383.807 173.051,384.325 174.369,384.449 174.650 C 384.910 175.689,386.242 179.841,386.242 180.235 C 386.242 180.460,386.352 180.843,386.486 181.086 C 386.761 181.585,387.345 183.990,388.016 187.389 C 388.265 188.650,388.544 189.968,388.636 190.318 C 389.486 193.553,390.142 209.014,389.576 212.484 C 389.428 213.395,389.140 215.516,388.937 217.197 C 388.503 220.788,387.833 224.629,387.515 225.350 C 387.392 225.631,387.219 226.261,387.132 226.752 C 386.931 227.879,386.144 230.584,385.205 233.376 C 384.028 236.878,383.699 237.773,383.173 238.914 C 382.899 239.508,382.675 240.049,382.675 240.115 C 382.675 240.181,382.007 241.644,381.191 243.366 C 371.997 262.760,355.912 278.299,336.178 286.852 C 334.497 287.580,332.745 288.343,332.284 288.547 C 331.824 288.751,331.326 288.917,331.176 288.917 C 331.027 288.917,330.544 289.079,330.102 289.276 C 329.376 289.601,326.544 290.447,322.420 291.572 C 319.958 292.243,317.275 292.752,314.140 293.144 C 312.529 293.345,310.726 293.621,310.134 293.758 C 306.697 294.553,294.905 294.290,287.898 293.262 C 283.417 292.605,276.048 290.997,275.151 290.481 C 274.936 290.357,274.379 290.172,273.913 290.070 C 271.548 289.550,264.671 286.716,260.125 284.386 C 241.175 274.677,225.067 256.802,217.828 237.452 C 217.382 236.261,216.867 234.885,216.683 234.395 C 215.303 230.716,213.787 224.670,213.106 220.127 C 212.906 218.796,212.624 217.191,212.479 216.561 C 211.779 213.521,211.767 196.350,212.463 193.885 C 212.602 193.395,212.850 191.847,213.016 190.446 C 213.181 189.045,213.387 187.783,213.473 187.643 C 213.559 187.503,213.822 186.471,214.057 185.350 C 214.937 181.162,215.536 179.141,217.541 173.587 C 218.107 172.022,218.683 170.532,218.823 170.275 C 218.962 170.019,219.381 169.121,219.753 168.280 C 221.912 163.401,226.821 155.055,229.334 151.992 C 229.457 151.842,230.540 150.485,231.742 148.975 C 240.244 138.291,256.563 126.054,266.643 122.804 C 267.193 122.627,267.758 122.397,267.898 122.293 C 268.038 122.189,268.611 121.967,269.172 121.799 C 269.732 121.631,270.420 121.389,270.701 121.263 C 271.609 120.852,275.920 119.490,276.313 119.490 C 276.523 119.490,276.894 119.381,277.137 119.247 C 278.220 118.649,285.151 117.284,289.554 116.801 C 291.376 116.601,293.497 116.338,294.268 116.217 C 296.279 115.902,304.903 115.877,306.938 116.181 " stroke="none" fill="#74844b" fill-rule="evenodd"></path><path id="path3" d="M95.723 107.515 C 89.522 107.874,92.340 108.153,102.166 108.153 C 112.271 108.153,114.658 107.885,107.983 107.500 C 103.817 107.259,100.053 107.264,95.723 107.515 M88.535 108.303 C 83.332 109.038,76.430 110.710,71.465 112.438 C 67.521 113.811,67.125 113.961,66.892 114.174 C 66.759 114.295,66.504 114.395,66.326 114.395 C 65.630 114.395,58.985 117.585,55.334 119.672 C 40.613 128.087,28.753 139.693,19.901 154.348 C 18.455 156.742,14.268 164.829,14.268 165.228 C 14.268 165.320,13.882 166.274,13.410 167.347 C 12.462 169.505,10.022 176.617,9.682 178.217 C 9.562 178.777,9.298 179.866,9.095 180.637 C 7.245 187.640,5.547 201.820,6.718 200.488 C 6.769 200.430,6.880 199.293,6.964 197.962 C 9.807 152.881,43.643 115.624,87.742 109.016 C 89.930 108.689,91.720 108.331,91.720 108.223 C 91.720 107.984,90.593 108.013,88.535 108.303 M112.357 108.217 C 112.357 108.322,114.164 108.666,116.373 108.981 C 151.450 113.989,180.740 138.886,192.730 173.885 C 193.062 174.854,193.917 177.842,194.734 180.892 C 196.416 187.167,198.296 203.863,197.583 206.201 C 197.338 207.008,197.191 215.138,197.426 214.904 C 198.284 214.050,198.373 201.355,197.574 193.885 C 194.077 161.225,174.377 132.567,145.144 117.615 C 143.436 116.742,141.637 115.874,141.146 115.687 C 140.267 115.352,139.083 114.849,137.314 114.060 C 131.149 111.308,112.357 106.908,112.357 108.217 M294.140 108.280 C 294.037 108.448,296.351 108.535,300.892 108.535 C 305.433 108.535,307.747 108.448,307.643 108.280 C 307.545 108.121,305.013 108.025,300.892 108.025 C 296.770 108.025,294.239 108.121,294.140 108.280 M289.936 108.454 C 282.467 109.227,270.701 112.333,264.076 115.280 C 263.656 115.467,262.569 115.930,261.661 116.309 C 245.606 123.011,230.149 136.703,218.965 154.133 C 217.818 155.919,213.889 163.481,212.938 165.732 C 211.873 168.254,211.615 168.890,211.033 170.446 C 210.691 171.357,210.243 172.675,210.035 173.376 C 209.828 174.076,209.553 174.879,209.425 175.159 C 209.183 175.686,208.647 177.596,207.996 180.255 C 207.790 181.096,207.509 182.145,207.370 182.587 C 207.232 183.029,206.951 184.290,206.745 185.389 C 206.540 186.489,206.269 187.904,206.144 188.535 C 205.708 190.731,205.549 193.121,205.840 193.121 C 205.991 193.121,206.117 192.978,206.119 192.803 C 206.180 188.678,210.050 173.437,212.217 168.790 C 212.347 168.510,212.819 167.420,213.266 166.369 C 222.992 143.478,242.006 124.761,264.968 115.478 C 273.208 112.146,281.163 110.085,289.427 109.140 C 293.181 108.711,294.764 108.246,292.217 108.321 C 291.453 108.343,290.427 108.403,289.936 108.454 M308.104 108.455 C 308.191 108.597,309.671 108.856,311.392 109.032 C 347.587 112.730,379.735 138.865,391.162 173.885 C 393.791 181.940,394.959 187.385,395.792 195.470 C 399.100 227.580,387.105 257.124,361.529 279.857 C 351.482 288.787,334.087 297.139,319.809 299.887 C 318.450 300.149,317.558 300.665,318.535 300.624 C 321.183 300.512,329.527 298.118,335.796 295.671 C 363.847 284.723,386.422 259.145,393.587 230.191 C 395.056 224.256,395.382 222.536,396.246 216.178 C 396.655 213.163,396.644 196.571,396.231 193.758 C 394.981 185.244,393.060 176.806,391.591 173.376 C 391.471 173.096,391.233 172.408,391.061 171.847 C 384.263 149.660,362.313 125.910,339.618 116.187 C 338.567 115.737,337.241 115.149,336.671 114.882 C 336.101 114.614,335.465 114.395,335.257 114.395 C 335.049 114.395,334.770 114.292,334.637 114.166 C 332.743 112.375,307.117 106.859,308.104 108.455 M205.499 193.658 C 204.561 196.464,204.693 215.777,205.655 216.688 C 205.844 216.866,205.877 216.483,205.767 215.414 C 205.401 211.853,205.302 202.692,205.582 198.246 C 205.850 193.993,205.826 192.677,205.499 193.658 M6.285 200.934 C 6.006 201.212,6.086 208.360,6.369 208.535 C 6.535 208.637,6.624 207.306,6.624 204.728 C 6.624 202.548,6.586 200.764,6.539 200.764 C 6.493 200.764,6.378 200.841,6.285 200.934 M6.370 210.255 C 6.372 213.259,7.815 224.470,8.301 225.256 C 8.363 225.356,8.527 226.049,8.666 226.796 C 8.913 228.120,9.054 228.648,10.358 233.121 C 20.485 267.868,52.485 295.875,87.516 300.651 C 88.637 300.804,90.185 301.038,90.955 301.171 C 95.064 301.882,110.698 301.702,115.032 300.894 C 115.732 300.764,117.223 300.529,118.344 300.374 C 119.465 300.218,120.726 299.992,121.146 299.870 C 121.567 299.749,123.287 299.336,124.968 298.952 C 132.482 297.239,144.767 292.268,150.446 288.642 C 163.823 280.101,172.441 272.116,180.457 260.835 C 189.182 248.555,196.103 230.685,197.331 217.261 C 197.598 214.345,197.069 214.772,196.700 217.771 C 194.904 232.349,189.005 247.621,180.263 260.316 C 164.605 283.058,138.422 298.321,110.828 300.792 C 103.838 301.418,91.366 301.068,87.643 300.141 C 87.153 300.019,86.178 299.845,85.478 299.754 C 84.061 299.569,79.227 298.492,77.452 297.964 C 72.808 296.584,71.624 296.209,70.917 295.897 C 70.475 295.701,70.036 295.541,69.941 295.541 C 69.846 295.541,69.004 295.246,68.069 294.885 C 37.236 282.971,14.447 255.495,8.389 222.930 C 7.852 220.043,6.887 211.765,6.882 210.000 C 6.880 209.404,6.764 208.917,6.624 208.917 C 6.484 208.917,6.370 209.519,6.370 210.255 M205.606 217.771 C 205.608 219.016,206.335 222.997,206.611 223.273 C 206.959 223.621,206.950 223.407,206.494 220.255 C 206.291 218.854,206.122 217.564,206.120 217.389 C 206.117 217.213,206.000 217.070,205.860 217.070 C 205.720 217.070,205.606 217.385,205.606 217.771 M206.633 224.140 C 206.638 224.385,206.804 225.274,207.002 226.115 C 207.200 226.955,207.521 228.331,207.715 229.172 C 207.909 230.013,208.199 231.102,208.360 231.592 C 208.520 232.083,209.016 233.688,209.461 235.159 C 210.200 237.601,212.185 242.996,212.726 244.031 C 212.849 244.266,213.656 245.947,214.519 247.766 C 223.508 266.708,239.061 282.587,257.962 292.117 C 263.788 295.055,266.236 296.024,274.650 298.723 C 276.580 299.342,282.222 300.636,282.994 300.637 C 283.928 300.638,283.099 300.153,281.720 299.893 C 273.564 298.353,262.908 294.435,255.159 290.128 C 237.536 280.331,223.434 265.395,214.925 247.516 C 214.258 246.115,213.612 244.776,213.490 244.541 C 211.822 241.341,208.358 230.438,207.372 225.287 C 207.093 223.827,206.612 223.081,206.633 224.140 M283.729 300.627 C 284.010 300.926,288.070 301.651,289.490 301.654 C 291.047 301.658,290.046 301.219,287.834 300.927 C 286.538 300.756,285.019 300.549,284.459 300.467 C 283.666 300.350,283.504 300.386,283.729 300.627 M314.095 300.859 C 311.278 301.288,310.255 301.669,311.996 301.639 C 313.758 301.610,317.446 301.000,317.760 300.686 C 318.152 300.294,317.649 300.318,314.095 300.859 M290.869 301.654 C 291.723 302.558,309.809 302.556,310.663 301.651 C 310.892 301.408,310.551 301.379,309.088 301.516 C 306.684 301.741,294.833 301.740,292.422 301.514 C 290.965 301.377,290.636 301.407,290.869 301.654 " stroke="none" fill="#d9c4ae" fill-rule="evenodd"></path><path id="path4" d="M91.667 108.260 C 91.626 108.355,89.873 108.691,87.771 109.008 C 43.598 115.663,9.864 152.796,6.961 197.962 C 6.875 199.293,6.736 200.439,6.651 200.510 C 6.426 200.696,6.462 208.918,6.688 208.917 C 6.793 208.917,6.880 209.404,6.882 210.000 C 6.931 226.411,15.010 248.607,26.334 263.439 C 36.122 276.261,49.638 286.980,63.694 293.069 C 66.602 294.329,69.666 295.541,69.941 295.541 C 70.036 295.541,70.475 295.701,70.917 295.897 C 71.624 296.209,72.808 296.584,77.452 297.964 C 79.227 298.492,84.061 299.569,85.478 299.754 C 86.178 299.845,87.153 300.019,87.643 300.141 C 91.366 301.068,103.838 301.418,110.828 300.792 C 138.422 298.321,164.605 283.058,180.263 260.316 C 189.005 247.621,194.904 232.349,196.700 217.771 C 196.868 216.404,197.095 215.287,197.205 215.287 C 197.315 215.287,197.352 215.086,197.289 214.841 C 197.225 214.596,197.277 212.331,197.403 209.809 C 197.897 199.955,196.875 188.878,194.734 180.892 C 193.299 175.540,192.970 174.476,191.496 170.446 C 179.631 138.004,150.111 113.827,116.471 108.999 C 114.278 108.685,112.427 108.352,112.357 108.259 C 112.188 108.037,91.763 108.037,91.667 108.260 M111.847 115.933 C 114.725 116.250,119.362 117.043,122.038 117.676 C 126.432 118.716,127.527 119.000,128.025 119.225 C 128.306 119.351,128.994 119.586,129.554 119.745 C 130.115 119.905,130.803 120.134,131.083 120.255 C 131.363 120.375,132.033 120.609,132.572 120.774 C 133.111 120.940,133.857 121.234,134.228 121.428 C 134.600 121.622,134.998 121.781,135.112 121.782 C 135.226 121.783,135.946 122.070,136.712 122.420 C 137.478 122.771,138.168 123.057,138.245 123.057 C 139.076 123.057,148.708 128.456,152.055 130.798 C 163.527 138.824,171.040 146.766,178.636 158.898 C 182.969 165.816,187.441 177.186,189.042 185.350 C 189.289 186.611,189.558 187.815,189.640 188.025 C 189.722 188.236,189.979 189.783,190.212 191.465 C 191.901 203.669,191.102 217.226,188.066 227.898 C 186.774 232.439,184.699 238.500,184.238 239.078 C 184.113 239.235,183.926 239.650,183.822 240.000 C 183.393 241.441,180.057 247.821,177.761 251.589 C 177.416 252.154,174.209 256.879,173.301 258.158 C 169.550 263.444,162.515 270.456,155.541 275.861 C 150.861 279.489,143.609 283.699,137.452 286.363 C 137.172 286.484,136.270 286.879,135.447 287.241 C 134.624 287.602,133.839 287.898,133.702 287.898 C 133.565 287.898,133.092 288.065,132.650 288.269 C 131.456 288.821,127.195 290.191,126.671 290.191 C 126.421 290.191,126.108 290.295,125.975 290.421 C 125.658 290.722,119.502 292.075,116.051 292.602 C 108.808 293.709,94.410 293.784,89.299 292.742 C 88.599 292.600,86.764 292.264,85.223 291.997 C 82.153 291.466,79.210 290.823,78.217 290.467 C 77.866 290.341,76.548 289.927,75.287 289.547 C 74.025 289.166,72.650 288.711,72.229 288.536 C 71.809 288.360,70.505 287.851,69.331 287.403 C 68.158 286.955,67.011 286.490,66.784 286.370 C 66.556 286.249,65.338 285.674,64.076 285.092 C 52.728 279.857,39.102 269.028,32.357 259.880 C 32.006 259.405,31.317 258.493,30.825 257.852 C 29.889 256.635,28.081 254.054,27.643 253.311 C 27.503 253.073,26.978 252.245,26.476 251.471 C 24.644 248.646,21.078 241.794,20.261 239.528 C 20.076 239.017,19.742 238.255,19.518 237.834 C 19.295 237.414,19.110 236.898,19.108 236.688 C 19.107 236.478,18.946 236.002,18.752 235.630 C 18.558 235.258,18.265 234.513,18.099 233.974 C 17.934 233.435,17.703 232.764,17.585 232.484 C 17.195 231.556,16.076 227.661,15.901 226.624 C 15.807 226.064,15.647 225.490,15.546 225.350 C 15.444 225.210,15.220 224.178,15.046 223.057 C 14.873 221.936,14.630 220.732,14.507 220.382 C 13.294 216.937,12.773 202.227,13.618 195.287 C 13.686 194.726,13.869 193.121,14.025 191.720 C 14.181 190.318,14.376 189.000,14.459 188.790 C 14.541 188.580,14.810 187.376,15.056 186.115 C 15.477 183.957,16.043 181.668,16.882 178.726 C 17.374 177.002,19.045 172.411,19.782 170.757 C 20.112 170.017,20.382 169.345,20.382 169.264 C 20.382 169.182,21.085 167.667,21.943 165.895 C 28.577 152.210,38.247 140.775,50.763 131.814 C 55.979 128.080,62.715 124.347,68.025 122.248 C 69.076 121.832,70.280 121.338,70.701 121.148 C 71.121 120.959,71.809 120.722,72.229 120.621 C 72.650 120.521,73.110 120.349,73.252 120.239 C 73.394 120.128,74.082 119.898,74.780 119.727 C 75.479 119.557,76.166 119.331,76.306 119.227 C 76.446 119.122,77.248 118.896,78.089 118.725 C 78.930 118.555,79.732 118.342,79.873 118.253 C 80.183 118.055,83.638 117.335,86.752 116.818 C 88.013 116.608,89.675 116.314,90.446 116.163 C 94.027 115.463,106.366 115.331,111.847 115.933 " stroke="none" fill="#e4835c" fill-rule="evenodd"></path></g></svg>