<svg id="svg" version="1.1" xmlns="http://www.w3.org/2000/svg" xmlns:xlink="http://www.w3.org/1999/xlink" width="400" height="394.66666666666663" viewBox="0, 0, 400,394.66666666666663"><g id="svgg"><path id="path0" d="M0.127 59.175 C 0.022 59.344,66.711 59.429,200.000 59.429 C 333.289 59.429,399.978 59.344,399.873 59.175 C 399.769 59.006,332.870 58.921,200.000 58.921 C 67.130 58.921,0.231 59.006,0.127 59.175 M0.171 60.559 C 0.261 60.971,1.531 63.142,2.994 65.384 C 5.863 69.781,7.998 73.070,10.785 77.387 C 11.758 78.894,13.593 81.727,14.864 83.683 C 16.134 85.638,17.966 88.469,18.936 89.973 C 19.905 91.478,21.644 94.163,22.800 95.942 C 25.867 100.660,27.797 103.641,34.973 114.743 C 36.120 116.517,38.139 119.625,39.461 121.651 C 40.782 123.676,43.967 128.590,46.538 132.571 C 49.108 136.552,52.104 141.181,53.195 142.857 C 55.080 145.754,55.806 146.872,60.561 154.213 C 61.673 155.929,63.399 158.590,64.396 160.127 C 68.623 166.641,70.849 170.077,72.739 173.010 C 73.845 174.724,75.228 176.870,75.814 177.778 C 76.399 178.686,77.996 181.143,79.363 183.238 C 80.729 185.333,82.440 187.962,83.164 189.079 C 85.044 191.981,87.291 195.443,89.710 199.168 C 90.865 200.946,92.838 204.003,94.095 205.962 C 95.352 207.921,97.981 211.979,99.937 214.980 C 101.892 217.981,104.173 221.495,105.005 222.790 C 107.078 226.013,115.895 239.617,123.567 251.429 C 124.701 253.175,126.534 256.009,127.640 257.726 C 128.746 259.444,130.669 262.415,131.912 264.329 C 133.156 266.243,134.766 268.724,135.489 269.841 C 136.958 272.111,138.989 275.240,147.855 288.889 C 151.212 294.057,154.375 298.947,154.884 299.756 C 155.393 300.565,157.295 303.507,159.111 306.294 C 162.289 311.173,163.786 313.484,167.496 319.238 C 168.442 320.705,169.924 322.990,170.790 324.317 C 171.656 325.644,172.880 327.530,173.510 328.508 C 175.783 332.036,180.015 338.549,183.082 343.238 C 183.996 344.635,184.872 346.006,185.030 346.286 C 185.187 346.565,186.434 348.508,187.801 350.603 C 193.047 358.645,193.754 359.730,197.301 365.182 C 201.253 371.258,201.316 371.314,202.325 369.714 C 202.700 369.121,204.087 366.978,205.409 364.952 C 206.730 362.927,208.180 360.698,208.631 360.000 C 212.601 353.848,213.838 351.936,215.778 348.952 C 217.005 347.067,218.860 344.210,219.903 342.603 C 220.945 340.997,222.504 338.597,223.368 337.270 C 224.232 335.943,226.113 333.029,227.548 330.794 C 230.565 326.093,230.833 325.679,234.710 319.746 C 236.307 317.302,238.748 313.530,240.134 311.365 C 241.520 309.200,243.685 305.859,244.946 303.942 C 246.207 302.024,247.995 299.281,248.919 297.846 C 253.044 291.447,259.763 281.060,261.203 278.857 C 262.869 276.309,265.681 271.969,267.043 269.841 C 268.571 267.455,271.462 262.987,275.013 257.524 C 282.062 246.677,293.353 229.260,296.087 225.016 C 296.851 223.829,298.185 221.771,299.051 220.444 C 299.917 219.117,301.528 216.626,302.630 214.908 C 303.733 213.189,305.843 209.932,307.320 207.670 C 308.797 205.407,311.817 200.756,314.031 197.333 C 320.014 188.088,320.520 187.306,322.584 184.127 C 323.627 182.521,324.997 180.406,325.628 179.429 C 326.813 177.591,328.154 175.521,331.549 170.286 C 332.636 168.610,333.949 166.610,334.467 165.841 C 334.985 165.073,335.456 164.330,335.514 164.190 C 335.572 164.051,336.296 162.908,337.123 161.651 C 338.786 159.122,340.455 156.553,344.380 150.476 C 345.823 148.241,347.713 145.327,348.580 144.000 C 350.196 141.524,352.386 138.153,356.002 132.571 C 357.133 130.825,359.060 127.854,360.284 125.968 C 364.880 118.887,366.180 116.881,367.853 114.286 C 368.799 112.819,370.868 109.619,372.451 107.175 C 374.033 104.730,376.103 101.530,377.051 100.063 C 377.998 98.597,379.964 95.568,381.420 93.333 C 382.875 91.098,384.470 88.641,384.965 87.873 C 385.459 87.105,386.456 85.562,387.180 84.444 C 387.905 83.327,389.901 80.241,391.615 77.587 C 393.330 74.933,395.330 71.848,396.059 70.730 C 399.273 65.801,399.729 65.043,399.888 64.351 C 400.033 63.721,399.953 63.779,399.311 64.762 C 398.598 65.854,397.420 67.671,393.222 74.159 C 392.182 75.765,390.442 78.451,389.354 80.127 C 386.256 84.904,384.296 87.930,381.461 92.317 C 380.016 94.552,378.014 97.638,377.010 99.175 C 376.007 100.711,373.671 104.311,371.819 107.175 C 366.965 114.681,366.074 116.055,363.810 119.535 C 362.692 121.252,360.984 123.887,360.014 125.392 C 359.045 126.896,357.433 129.384,356.433 130.921 C 353.807 134.956,351.249 138.906,347.801 144.254 C 346.134 146.838,343.969 150.179,342.989 151.677 C 342.008 153.176,340.449 155.576,339.524 157.011 C 337.870 159.576,336.492 161.701,329.933 171.810 C 328.120 174.603,325.287 178.977,323.636 181.528 C 321.985 184.080,319.835 187.402,318.857 188.911 C 317.879 190.421,316.570 192.447,315.947 193.415 C 315.325 194.383,313.550 197.117,312.003 199.492 C 307.133 206.967,302.405 214.257,300.844 216.696 C 300.017 217.989,297.003 222.648,294.147 227.048 C 291.291 231.448,288.477 235.790,287.893 236.698 C 286.489 238.882,283.029 244.218,279.660 249.397 C 276.388 254.426,271.137 262.527,269.206 265.524 C 266.608 269.558,261.499 277.444,259.664 280.254 C 258.660 281.790,255.586 286.533,252.832 290.794 C 247.906 298.413,246.452 300.658,242.413 306.877 C 241.295 308.597,239.295 311.686,237.968 313.741 C 236.641 315.795,234.184 319.587,232.508 322.166 C 230.832 324.745,228.089 328.975,226.413 331.568 C 224.737 334.160,222.609 337.446,221.686 338.870 C 220.763 340.295,217.859 344.775,215.233 348.825 C 212.608 352.876,209.715 357.333,208.806 358.730 C 207.897 360.127,205.901 363.213,204.371 365.587 C 202.841 367.962,201.507 369.995,201.407 370.105 C 201.307 370.215,200.726 369.529,200.115 368.581 C 199.505 367.633,197.965 365.257,196.694 363.302 C 195.423 361.346,193.589 358.517,192.620 357.015 C 191.650 355.512,189.371 351.999,187.556 349.206 C 185.740 346.414,183.495 342.958,182.567 341.525 C 180.257 337.958,168.324 319.527,166.905 317.333 C 166.272 316.356,164.935 314.298,163.934 312.762 C 162.932 311.225,161.449 308.940,160.638 307.683 C 158.506 304.379,157.157 302.298,154.547 298.286 C 153.275 296.330,150.944 292.730,149.367 290.286 C 147.789 287.841,144.495 282.756,142.046 278.984 C 139.596 275.213,136.855 270.984,135.953 269.587 C 135.051 268.190,133.150 265.246,131.728 263.043 C 130.306 260.841,127.604 256.669,125.723 253.773 C 123.843 250.877,120.712 246.051,118.767 243.048 C 116.821 240.044,114.360 236.250,113.297 234.616 C 110.065 229.644,103.555 219.595,91.778 201.397 C 89.292 197.556,86.181 192.756,84.865 190.730 C 83.549 188.705,81.621 185.733,80.581 184.127 C 79.540 182.521,77.413 179.240,75.853 176.837 C 74.292 174.434,71.644 170.346,69.968 167.753 C 68.292 165.159,66.047 161.697,64.979 160.059 C 63.911 158.420,60.931 153.822,58.356 149.841 C 46.043 130.807,41.454 123.724,38.476 119.161 C 37.219 117.234,35.682 114.863,35.060 113.892 C 33.853 112.007,32.165 109.399,27.177 101.714 C 25.454 99.060,22.487 94.489,20.583 91.556 C 18.679 88.622,16.440 85.162,15.608 83.867 C 14.776 82.572,13.109 80.001,11.903 78.153 C 10.697 76.305,7.669 71.631,5.173 67.765 C -0.584 58.847,-0.028 59.649,0.171 60.559 " stroke="none" fill="#f3d8a5" fill-rule="evenodd"></path><path id="path1" d="M0.000 59.558 C 0.000 59.788,3.825 65.762,11.905 78.153 C 13.110 80.001,14.776 82.572,15.608 83.867 C 16.440 85.162,18.679 88.622,20.583 91.556 C 22.487 94.489,25.454 99.060,27.177 101.714 C 32.165 109.399,33.853 112.007,35.060 113.892 C 35.682 114.863,37.219 117.234,38.476 119.161 C 41.454 123.724,46.043 130.807,58.356 149.841 C 60.931 153.822,63.911 158.420,64.979 160.059 C 66.047 161.697,68.292 165.159,69.968 167.753 C 71.644 170.346,74.292 174.434,75.853 176.837 C 77.413 179.240,79.540 182.521,80.581 184.127 C 81.621 185.733,83.549 188.705,84.865 190.730 C 86.181 192.756,89.292 197.556,91.778 201.397 C 103.555 219.595,110.065 229.644,113.297 234.616 C 114.360 236.250,116.821 240.044,118.767 243.048 C 120.712 246.051,123.843 250.877,125.723 253.773 C 127.604 256.669,130.306 260.841,131.728 263.043 C 133.150 265.246,135.051 268.190,135.953 269.587 C 136.855 270.984,139.596 275.213,142.046 278.984 C 144.495 282.756,147.789 287.841,149.367 290.286 C 150.944 292.730,153.275 296.330,154.547 298.286 C 157.216 302.388,159.336 305.660,160.967 308.190 C 161.598 309.168,162.933 311.225,163.934 312.762 C 164.935 314.298,166.272 316.356,166.905 317.333 C 168.324 319.527,180.257 337.958,182.567 341.525 C 183.495 342.958,185.740 346.414,187.556 349.206 C 189.371 351.999,191.650 355.512,192.620 357.015 C 193.589 358.517,195.423 361.346,196.694 363.302 C 197.965 365.257,199.505 367.633,200.115 368.581 C 200.726 369.529,201.307 370.215,201.407 370.105 C 201.507 369.995,202.841 367.962,204.371 365.587 C 205.901 363.213,207.897 360.127,208.806 358.730 C 209.715 357.333,212.608 352.876,215.233 348.825 C 217.859 344.775,220.763 340.295,221.686 338.870 C 222.609 337.446,224.737 334.160,226.413 331.568 C 228.089 328.975,230.832 324.745,232.508 322.166 C 234.184 319.587,236.641 315.795,237.968 313.741 C 239.295 311.686,241.295 308.597,242.413 306.877 C 246.452 300.658,247.906 298.413,252.832 290.794 C 255.586 286.533,258.660 281.790,259.664 280.254 C 261.499 277.444,266.608 269.558,269.206 265.524 C 271.137 262.527,276.388 254.426,279.660 249.397 C 283.029 244.218,286.489 238.882,287.893 236.698 C 288.477 235.790,291.291 231.448,294.147 227.048 C 297.003 222.648,300.017 217.989,300.844 216.696 C 302.405 214.257,307.133 206.967,312.003 199.492 C 313.550 197.117,315.325 194.383,315.947 193.415 C 316.570 192.447,317.879 190.421,318.857 188.911 C 319.835 187.402,321.985 184.080,323.636 181.528 C 325.287 178.977,328.120 174.603,329.933 171.810 C 336.492 161.701,337.870 159.576,339.524 157.011 C 340.449 155.576,342.008 153.176,342.989 151.677 C 343.969 150.179,346.134 146.838,347.801 144.254 C 351.249 138.906,353.807 134.956,356.433 130.921 C 357.433 129.384,359.045 126.896,360.014 125.392 C 360.984 123.887,362.692 121.252,363.810 119.535 C 366.074 116.055,366.965 114.681,371.819 107.175 C 373.671 104.311,376.007 100.711,377.010 99.175 C 378.014 97.638,380.016 94.552,381.461 92.317 C 384.296 87.930,386.256 84.904,389.354 80.127 C 390.442 78.451,392.181 75.765,393.220 74.159 C 394.259 72.552,396.084 69.737,397.275 67.903 C 400.133 63.504,400.000 63.818,400.000 61.477 L 400.000 59.429 200.000 59.429 C 90.000 59.429,0.000 59.487,0.000 59.558 " stroke="none" fill="#ec9c04" fill-rule="evenodd"></path></g></svg>