<svg id="svg" version="1.1" xmlns="http://www.w3.org/2000/svg" xmlns:xlink="http://www.w3.org/1999/xlink" width="400" height="392.1518987341772" viewBox="0, 0, 400,392.1518987341772"><g id="svgg"><path id="path0" d="M188.922 14.114 L 188.987 26.709 293.291 26.709 L 397.595 26.709 397.661 14.114 L 397.726 1.519 293.291 1.519 L 188.856 1.519 188.922 14.114 M286.709 66.496 C 279.261 69.198,272.125 71.813,270.506 72.434 C 269.810 72.701,261.380 75.774,251.772 79.262 C 226.890 88.297,200.451 97.912,198.228 98.736 C 197.184 99.123,189.835 101.804,181.899 104.694 C 173.962 107.585,166.614 110.261,165.570 110.642 C 164.525 111.023,162.646 111.698,161.392 112.144 C 160.139 112.589,158.886 113.054,158.608 113.177 C 158.329 113.301,150.525 116.151,141.266 119.510 C 122.639 126.268,92.074 137.386,89.114 138.480 C 88.070 138.866,83.684 140.461,79.367 142.025 C 75.051 143.589,71.425 144.955,71.310 145.061 C 71.101 145.253,71.565 145.664,79.652 152.442 C 82.036 154.441,86.650 158.314,89.905 161.050 C 101.330 170.652,114.108 181.377,119.937 186.257 C 123.174 188.967,125.823 191.275,125.823 191.385 C 125.823 191.495,124.484 193.180,122.848 195.130 C 119.143 199.544,111.080 209.158,106.448 214.684 C 104.522 216.981,101.175 220.968,99.011 223.544 C 96.846 226.120,92.680 231.088,89.752 234.584 C 86.825 238.080,80.044 246.166,74.684 252.553 C 69.323 258.941,62.310 267.302,59.099 271.134 C 51.631 280.046,49.346 282.771,46.461 286.203 C 37.899 296.388,32.911 302.404,32.911 302.546 C 32.911 302.636,37.155 306.270,42.342 310.621 C 47.528 314.972,54.449 320.786,57.722 323.542 C 60.994 326.298,69.424 333.379,76.456 339.278 C 83.487 345.178,91.309 351.741,93.838 353.863 C 96.366 355.985,98.545 357.722,98.680 357.722 C 98.815 357.722,100.625 355.699,102.701 353.228 C 106.264 348.987,122.925 329.120,127.063 324.177 C 128.112 322.924,130.745 319.791,132.914 317.215 C 136.810 312.588,144.009 303.998,150.614 296.093 C 152.484 293.856,158.175 287.070,163.260 281.013 C 172.722 269.745,177.480 264.072,183.645 256.709 C 185.569 254.411,187.387 252.245,187.685 251.894 C 187.984 251.543,189.061 250.259,190.080 249.041 C 191.246 247.646,192.043 246.894,192.232 247.009 C 192.397 247.110,196.120 250.212,200.506 253.903 C 204.892 257.594,210.523 262.327,213.018 264.421 C 223.700 273.384,229.939 278.622,239.863 286.962 C 252.195 297.325,251.599 296.840,251.776 296.663 C 251.903 296.536,252.697 292.210,254.301 282.911 C 254.637 280.962,255.208 277.715,255.570 275.696 C 256.377 271.191,257.139 266.863,257.597 264.177 C 257.787 263.063,258.238 260.500,258.599 258.481 C 259.349 254.291,260.378 248.416,260.883 245.443 C 261.072 244.329,261.529 241.766,261.899 239.747 C 262.268 237.728,262.724 235.165,262.911 234.051 C 263.099 232.937,263.839 228.722,264.557 224.684 C 265.275 220.646,266.016 216.430,266.206 215.316 C 266.395 214.203,266.849 211.639,267.214 209.620 C 267.580 207.601,268.091 204.696,268.349 203.165 C 268.608 201.633,269.350 197.418,269.999 193.797 C 270.648 190.177,271.390 185.962,271.650 184.430 C 271.909 182.899,272.418 179.994,272.782 177.975 C 273.473 174.136,274.219 169.887,274.805 166.456 C 275.161 164.374,276.911 154.469,278.742 144.177 C 279.312 140.975,279.943 137.329,280.144 136.076 C 280.346 134.823,280.625 133.285,280.764 132.658 C 280.904 132.032,281.367 129.468,281.793 126.962 C 282.531 122.625,282.923 120.384,284.051 114.051 C 284.893 109.317,285.506 105.846,286.174 102.025 C 286.946 97.609,288.684 87.778,289.374 83.924 C 291.362 72.817,292.680 64.996,292.612 64.715 C 292.554 64.478,290.876 64.984,286.709 66.496 " stroke="none" fill="#141414" fill-rule="evenodd"></path><path id="path1" d="M0.000 196.076 L 0.000 392.152 200.000 392.152 L 400.000 392.152 400.000 196.076 L 400.000 0.000 200.000 0.000 L 0.000 0.000 0.000 196.076 M397.661 14.114 L 397.595 26.709 293.291 26.709 L 188.987 26.709 188.922 14.114 L 188.856 1.519 293.291 1.519 L 397.726 1.519 397.661 14.114 M291.282 73.093 C 290.507 77.518,289.648 82.392,289.374 83.924 C 288.684 87.778,286.946 97.609,286.174 102.025 C 285.506 105.846,284.893 109.317,284.051 114.051 C 282.923 120.384,282.531 122.625,281.793 126.962 C 281.367 129.468,280.904 132.032,280.764 132.658 C 280.625 133.285,280.346 134.823,280.144 136.076 C 279.943 137.329,279.312 140.975,278.742 144.177 C 276.911 154.469,275.161 164.374,274.805 166.456 C 274.219 169.887,273.473 174.136,272.782 177.975 C 272.418 179.994,271.909 182.899,271.650 184.430 C 271.390 185.962,270.648 190.177,269.999 193.797 C 269.350 197.418,268.608 201.633,268.349 203.165 C 268.091 204.696,267.580 207.601,267.214 209.620 C 266.849 211.639,266.395 214.203,266.206 215.316 C 266.016 216.430,265.275 220.646,264.557 224.684 C 263.839 228.722,263.099 232.937,262.911 234.051 C 262.724 235.165,262.268 237.728,261.899 239.747 C 261.529 241.766,261.072 244.329,260.883 245.443 C 260.378 248.416,259.349 254.291,258.599 258.481 C 258.238 260.500,257.787 263.063,257.597 264.177 C 257.139 266.863,256.377 271.191,255.570 275.696 C 255.208 277.715,254.637 280.962,254.301 282.911 C 252.697 292.210,251.903 296.536,251.776 296.663 C 251.599 296.840,252.195 297.325,239.863 286.962 C 229.939 278.622,223.700 273.384,213.018 264.421 C 210.523 262.327,204.892 257.594,200.506 253.903 C 196.120 250.212,192.397 247.110,192.232 247.009 C 192.043 246.894,191.246 247.646,190.080 249.041 C 189.061 250.259,187.984 251.543,187.685 251.894 C 187.387 252.245,185.569 254.411,183.645 256.709 C 177.480 264.072,172.722 269.745,163.260 281.013 C 158.175 287.070,152.484 293.856,150.614 296.093 C 144.009 303.998,136.810 312.588,132.914 317.215 C 130.745 319.791,128.112 322.924,127.063 324.177 C 122.925 329.120,106.264 348.987,102.701 353.228 C 100.625 355.699,98.815 357.722,98.680 357.722 C 98.545 357.722,96.366 355.985,93.838 353.863 C 91.309 351.741,83.487 345.178,76.456 339.278 C 69.424 333.379,60.994 326.298,57.722 323.542 C 54.449 320.786,47.528 314.972,42.342 310.621 C 37.155 306.270,32.911 302.636,32.911 302.546 C 32.911 302.404,37.899 296.388,46.461 286.203 C 49.346 282.771,51.631 280.046,59.099 271.134 C 62.310 267.302,69.323 258.941,74.684 252.553 C 80.044 246.166,86.825 238.080,89.752 234.584 C 92.680 231.088,96.846 226.120,99.011 223.544 C 101.175 220.968,104.522 216.981,106.448 214.684 C 111.080 209.158,119.143 199.544,122.848 195.130 C 124.484 193.180,125.823 191.495,125.823 191.385 C 125.823 191.275,123.174 188.967,119.937 186.257 C 114.108 181.377,101.330 170.652,89.905 161.050 C 86.650 158.314,82.036 154.441,79.652 152.442 C 71.565 145.664,71.101 145.253,71.310 145.061 C 71.425 144.955,75.051 143.589,79.367 142.025 C 83.684 140.461,88.070 138.866,89.114 138.480 C 92.074 137.386,122.639 126.268,141.266 119.510 C 150.525 116.151,158.329 113.301,158.608 113.177 C 158.886 113.054,160.139 112.589,161.392 112.144 C 162.646 111.698,164.525 111.023,165.570 110.642 C 166.614 110.261,173.962 107.585,181.899 104.694 C 189.835 101.804,197.184 99.123,198.228 98.736 C 200.451 97.912,226.890 88.297,251.772 79.262 C 261.380 75.774,269.810 72.701,270.506 72.434 C 272.125 71.813,279.261 69.198,286.709 66.496 C 290.876 64.984,292.554 64.478,292.612 64.715 C 292.656 64.898,292.058 68.668,291.282 73.093 " stroke="none" fill="#fbfbf4" fill-rule="evenodd"></path></g></svg>