<svg id="svg" version="1.1" xmlns="http://www.w3.org/2000/svg" xmlns:xlink="http://www.w3.org/1999/xlink" width="400" height="401.79372197309414" viewBox="0, 0, 400,401.79372197309414"><g id="svgg"><path id="path0" d="M62.817 0.340 C 61.695 1.692,61.755 -6.555,61.755 144.818 C 61.755 286.215,61.758 287.096,62.264 288.132 C 62.544 288.705,63.198 289.462,63.718 289.814 L 64.664 290.455 78.264 290.533 C 93.370 290.619,93.269 290.628,94.650 289.015 C 95.817 287.652,96.042 286.376,95.378 284.899 C 94.153 282.173,93.928 282.130,80.910 282.128 L 70.211 282.127 70.211 144.651 L 70.211 7.175 177.578 7.175 L 284.946 7.175 284.946 55.439 C 284.946 107.240,284.879 104.758,286.309 106.276 L 287.092 107.107 210.600 107.173 L 134.107 107.239 133.044 107.943 C 132.459 108.330,131.776 109.021,131.525 109.480 C 130.824 110.763,130.814 395.560,131.514 396.841 C 131.759 397.288,132.335 397.922,132.796 398.250 L 133.632 398.847 246.765 398.847 L 359.898 398.847 360.734 398.250 C 361.194 397.922,361.771 397.288,362.015 396.841 C 362.541 395.879,362.855 112.383,362.332 110.442 C 362.009 109.244,361.245 108.257,360.195 107.682 C 359.440 107.269,357.047 107.234,325.211 107.170 L 291.038 107.102 291.740 106.550 C 293.529 105.142,293.390 109.636,293.396 53.161 L 293.402 2.415 292.825 1.271 L 292.249 0.128 177.674 0.064 C 82.687 0.010,63.051 0.058,62.817 0.340 M97.502 41.101 C 93.655 42.801,94.330 48.479,98.448 49.064 C 99.055 49.150,126.996 49.187,160.538 49.146 L 221.525 49.071 222.347 48.484 C 225.005 46.589,225.076 43.549,222.508 41.591 L 221.565 40.871 159.917 40.816 C 109.194 40.771,98.134 40.822,97.502 41.101 M99.199 76.617 C 95.698 77.447,94.701 81.802,97.519 83.951 L 98.487 84.689 183.177 84.755 C 267.474 84.819,267.872 84.817,268.928 84.306 C 271.870 82.882,271.842 78.445,268.882 76.974 C 267.841 76.458,101.352 76.107,99.199 76.617 M354.132 253.171 L 354.132 390.775 246.765 390.775 L 139.398 390.775 139.398 253.171 L 139.398 115.567 246.765 115.567 L 354.132 115.567 354.132 253.171 M166.944 176.917 C 163.462 178.471,163.609 183.278,167.180 184.626 C 168.115 184.979,176.570 185.014,246.893 184.951 L 325.561 184.881 326.529 184.279 C 329.277 182.571,329.037 178.362,326.113 176.974 C 324.891 176.394,168.241 176.338,166.944 176.917 M166.291 222.743 C 163.716 224.478,163.799 228.285,166.446 229.784 L 167.457 230.357 250.609 230.357 L 333.760 230.357 334.785 229.783 C 337.542 228.241,337.610 224.576,334.916 222.742 L 334.069 222.165 250.609 222.165 L 167.148 222.165 166.291 222.743 M199.977 267.493 C 197.145 269.220,197.220 273.086,200.115 274.617 L 201.243 275.213 238.719 275.147 L 276.196 275.080 276.919 274.544 C 279.495 272.635,279.404 268.768,276.751 267.395 C 275.456 266.726,201.080 266.820,199.977 267.493 M192.555 316.966 C 189.579 318.171,189.499 322.779,192.427 324.328 L 193.553 324.923 266.521 324.858 L 339.488 324.792 340.212 324.256 C 342.788 322.347,342.697 318.479,340.044 317.107 C 339.203 316.672,193.624 316.533,192.555 316.966 " stroke="none" fill="#171717" fill-rule="evenodd"></path><path id="path1" d="M0.000 200.897 L 0.000 401.794 200.000 401.794 L 400.000 401.794 400.000 200.897 L 400.000 0.000 346.095 -0.000 L 292.190 -0.000 292.796 1.197 L 293.402 2.393 293.396 53.150 C 293.390 109.638,293.529 105.142,291.740 106.550 L 291.038 107.102 325.211 107.170 C 357.047 107.234,359.440 107.269,360.195 107.682 C 361.245 108.257,362.009 109.244,362.332 110.442 C 362.855 112.383,362.541 395.879,362.015 396.841 C 361.771 397.288,361.194 397.922,360.734 398.250 L 359.898 398.847 246.765 398.847 L 133.632 398.847 132.796 398.250 C 132.335 397.922,131.759 397.288,131.514 396.841 C 130.814 395.560,130.824 110.763,131.525 109.480 C 131.776 109.021,132.459 108.330,133.044 107.943 L 134.107 107.239 210.600 107.173 L 287.092 107.107 286.309 106.276 C 284.879 104.758,284.946 107.240,284.946 55.439 L 284.946 7.175 177.578 7.175 L 70.211 7.175 70.211 144.651 L 70.211 282.127 80.910 282.128 C 93.928 282.130,94.153 282.173,95.378 284.899 C 96.042 286.376,95.817 287.652,94.650 289.015 C 93.269 290.628,93.370 290.619,78.264 290.533 L 64.664 290.455 63.718 289.814 C 63.198 289.462,62.544 288.705,62.264 288.132 C 61.758 287.096,61.755 286.215,61.755 144.742 L 61.755 2.393 62.361 1.197 L 62.967 0.000 31.483 0.000 L 0.000 0.000 0.000 200.897 M222.508 41.591 C 225.076 43.549,225.005 46.589,222.347 48.484 L 221.525 49.071 160.538 49.146 C 126.996 49.187,99.055 49.150,98.448 49.064 C 95.205 48.604,93.751 44.450,96.028 42.152 C 97.501 40.665,93.120 40.757,159.917 40.816 L 221.565 40.871 222.508 41.591 M268.882 76.974 C 271.842 78.445,271.870 82.882,268.928 84.306 C 267.872 84.817,267.474 84.819,183.177 84.755 L 98.487 84.689 97.519 83.951 C 94.701 81.802,95.698 77.447,99.199 76.617 C 101.352 76.107,267.841 76.458,268.882 76.974 M139.398 253.171 L 139.398 390.775 246.765 390.775 L 354.132 390.775 354.132 253.171 L 354.132 115.567 246.765 115.567 L 139.398 115.567 139.398 253.171 M326.113 176.974 C 329.037 178.362,329.277 182.571,326.529 184.279 L 325.561 184.881 246.893 184.951 C 176.570 185.014,168.115 184.979,167.180 184.626 C 163.609 183.278,163.462 178.471,166.944 176.917 C 168.241 176.338,324.891 176.394,326.113 176.974 M334.916 222.742 C 337.610 224.576,337.542 228.241,334.785 229.783 L 333.760 230.357 250.609 230.357 L 167.457 230.357 166.446 229.784 C 163.799 228.285,163.716 224.478,166.291 222.743 L 167.148 222.165 250.609 222.165 L 334.069 222.165 334.916 222.742 M276.751 267.395 C 279.404 268.768,279.495 272.635,276.919 274.544 L 276.196 275.080 238.719 275.147 L 201.243 275.213 200.115 274.617 C 197.220 273.086,197.145 269.220,199.977 267.493 C 201.080 266.820,275.456 266.726,276.751 267.395 M340.044 317.107 C 342.697 318.479,342.788 322.347,340.212 324.256 L 339.488 324.792 266.521 324.858 L 193.553 324.923 192.427 324.328 C 189.499 322.779,189.579 318.171,192.555 316.966 C 193.624 316.533,339.203 316.672,340.044 317.107 " stroke="none" fill="#fbfbf4" fill-rule="evenodd"></path></g></svg>