<svg id="svg" version="1.1" xmlns="http://www.w3.org/2000/svg" xmlns:xlink="http://www.w3.org/1999/xlink" width="400" height="392.6535782140595" viewBox="0, 0, 400,392.6535782140595"><g id="svgg"><path id="path0" d="M18.366 0.735 C 17.076 1.489,16.017 3.118,15.841 4.618 C 15.754 5.352,15.717 67.340,15.758 142.369 L 15.833 278.784 16.593 280.014 C 17.094 280.825,17.739 281.450,18.489 281.850 L 19.625 282.457 92.736 282.457 L 165.848 282.457 166.965 281.869 C 167.613 281.527,168.400 280.809,168.841 280.159 L 169.601 279.037 169.678 269.158 C 169.782 255.896,169.655 255.459,165.315 254.119 L 163.563 253.578 105.595 253.578 L 47.627 253.578 47.563 128.459 L 47.498 3.340 46.715 2.367 C 46.284 1.831,45.555 1.137,45.094 0.823 L 44.257 0.253 31.691 0.272 C 20.193 0.289,19.062 0.328,18.366 0.735 M44.880 1.320 C 45.428 1.628,46.128 2.284,46.434 2.777 L 46.992 3.673 47.056 128.876 L 47.121 254.079 105.701 254.152 C 163.306 254.225,164.302 254.234,165.553 254.725 C 169.072 256.107,168.966 255.682,168.967 268.347 C 168.968 280.097,169.008 279.795,167.278 281.114 L 166.347 281.824 93.243 281.893 C 11.799 281.970,18.722 282.121,17.285 280.238 L 16.593 279.330 16.529 141.477 L 16.465 3.624 17.041 2.768 C 17.359 2.297,18.003 1.653,18.473 1.336 L 19.328 0.760 31.605 0.760 C 43.806 0.760,43.889 0.764,44.880 1.320 M186.311 129.512 C 186.000 130.332,186.325 392.486,186.637 392.590 C 186.890 392.675,186.954 366.284,186.954 261.199 C 186.954 188.876,187.010 129.702,187.078 129.702 C 187.146 129.702,188.884 130.849,190.941 132.251 C 192.998 133.653,197.473 136.681,200.887 138.980 C 204.300 141.279,210.114 145.207,213.806 147.710 C 225.740 155.799,247.711 170.644,255.098 175.609 C 257.815 177.435,260.893 179.519,261.938 180.240 C 262.983 180.961,266.688 183.473,270.171 185.822 C 273.654 188.171,278.670 191.559,281.317 193.351 C 283.965 195.143,288.923 198.491,292.337 200.791 C 295.750 203.090,300.481 206.287,302.850 207.894 C 305.218 209.502,314.167 215.557,322.736 221.349 C 331.305 227.141,339.854 232.924,341.735 234.200 C 343.616 235.475,347.663 238.210,350.728 240.278 C 353.794 242.345,358.182 245.315,360.481 246.876 C 366.189 250.754,376.314 257.592,379.159 259.491 C 380.446 260.349,381.465 261.155,381.426 261.282 C 381.386 261.409,379.650 262.667,377.567 264.077 C 373.193 267.038,363.211 273.785,356.428 278.364 C 353.851 280.104,349.861 282.800,347.562 284.355 C 345.263 285.911,340.532 289.107,337.049 291.459 C 333.566 293.810,329.063 296.857,327.042 298.229 C 325.022 299.601,320.576 302.607,317.163 304.908 C 313.749 307.210,308.733 310.597,306.016 312.436 C 303.300 314.275,298.227 317.706,294.744 320.060 C 291.260 322.415,286.700 325.500,284.611 326.916 C 282.521 328.332,278.645 330.954,275.997 332.742 C 273.350 334.530,269.132 337.380,266.624 339.074 C 264.117 340.768,259.728 343.733,256.871 345.662 C 254.015 347.591,250.139 350.214,248.258 351.491 C 243.190 354.931,237.848 358.543,229.237 364.353 C 224.999 367.212,219.453 370.959,216.911 372.679 C 214.370 374.400,207.902 378.771,202.538 382.394 C 187.762 392.373,187.252 392.731,188.067 392.542 C 188.470 392.449,190.009 391.543,191.487 390.529 C 192.964 389.516,196.681 386.995,199.747 384.927 C 202.812 382.859,206.688 380.237,208.360 379.099 C 210.032 377.961,213.737 375.454,216.593 373.527 C 219.449 371.599,223.325 368.979,225.206 367.703 C 233.967 361.759,244.341 354.738,250.412 350.642 C 253.198 348.762,257.499 345.846,259.968 344.163 C 262.438 342.479,264.913 340.817,265.468 340.469 C 266.023 340.120,267.993 338.802,269.844 337.539 C 271.696 336.277,276.232 333.209,279.924 330.723 C 283.616 328.237,288.176 325.157,290.057 323.878 C 291.938 322.599,295.586 320.128,298.163 318.386 C 300.741 316.644,312.597 308.628,324.509 300.571 C 336.422 292.515,348.277 284.498,350.855 282.755 C 353.433 281.012,357.593 278.198,360.101 276.501 C 362.609 274.804,366.941 271.877,369.728 269.997 C 382.756 261.208,382.267 261.552,382.267 261.160 C 382.267 261.055,379.731 259.258,376.631 257.168 C 373.531 255.079,368.600 251.747,365.674 249.765 C 362.749 247.783,356.194 243.347,351.108 239.907 C 335.870 229.599,330.945 226.265,326.156 223.017 C 315.690 215.920,305.173 208.824,304.244 208.233 C 303.697 207.885,301.392 206.340,299.123 204.800 C 296.854 203.260,292.489 200.305,289.424 198.232 C 274.510 188.147,271.050 185.804,265.484 182.017 C 263.604 180.738,260.013 178.309,257.505 176.621 C 254.997 174.932,249.753 171.388,245.852 168.745 C 241.951 166.102,235.966 162.057,232.552 159.755 C 229.139 157.454,224.807 154.524,222.926 153.244 C 221.045 151.964,216.200 148.688,212.160 145.965 C 208.119 143.241,202.875 139.701,200.507 138.097 C 198.138 136.493,194.661 134.139,192.780 132.866 C 190.899 131.592,188.917 130.246,188.375 129.873 C 187.316 129.145,186.504 129.003,186.311 129.512 " stroke="none" fill="#b4b4b2" fill-rule="evenodd"></path><path id="path1" d="M18.473 1.336 C 18.003 1.653,17.359 2.297,17.041 2.768 L 16.465 3.624 16.529 141.477 L 16.593 279.330 17.285 280.238 C 18.722 282.121,11.799 281.970,93.243 281.893 L 166.347 281.824 167.278 281.114 C 169.008 279.795,168.968 280.097,168.967 268.347 C 168.966 255.682,169.072 256.107,165.553 254.725 C 164.302 254.234,163.306 254.225,105.701 254.152 L 47.121 254.079 47.056 128.876 L 46.992 3.673 46.434 2.777 C 45.155 0.720,45.447 0.760,31.605 0.760 L 19.328 0.760 18.473 1.336 M186.954 261.178 C 186.954 333.490,187.039 392.654,187.144 392.654 C 187.328 392.654,194.202 388.047,212.286 375.804 C 217.093 372.550,223.819 368.005,227.232 365.705 C 234.523 360.792,241.198 356.281,247.878 351.752 C 253.958 347.631,259.630 343.794,266.244 339.329 C 275.275 333.232,280.694 329.570,284.611 326.916 C 286.700 325.500,291.260 322.415,294.744 320.060 C 298.227 317.706,303.300 314.275,306.016 312.436 C 308.733 310.597,313.749 307.210,317.163 304.908 C 320.576 302.607,325.022 299.601,327.042 298.229 C 329.063 296.857,333.566 293.810,337.049 291.459 C 340.532 289.107,345.263 285.911,347.562 284.355 C 349.861 282.800,353.851 280.104,356.428 278.364 C 363.211 273.785,373.193 267.038,377.567 264.077 C 379.650 262.667,381.386 261.409,381.426 261.282 C 381.465 261.155,380.446 260.349,379.159 259.491 C 376.314 257.592,366.189 250.754,360.481 246.876 C 358.182 245.315,353.794 242.345,350.728 240.278 C 347.663 238.210,343.616 235.475,341.735 234.200 C 339.854 232.924,331.305 227.141,322.736 221.349 C 314.167 215.557,305.218 209.502,302.850 207.894 C 300.481 206.287,295.750 203.090,292.337 200.791 C 288.923 198.491,283.965 195.143,281.317 193.351 C 278.670 191.559,273.654 188.171,270.171 185.822 C 266.688 183.473,262.983 180.961,261.938 180.240 C 260.893 179.519,257.815 177.435,255.098 175.609 C 247.711 170.644,225.740 155.799,213.806 147.710 C 210.114 145.207,204.300 141.279,200.887 138.980 C 197.473 136.681,192.998 133.653,190.941 132.251 C 188.884 130.849,187.146 129.702,187.078 129.702 C 187.010 129.702,186.954 188.866,186.954 261.178 " stroke="none" fill="#141414" fill-rule="evenodd"></path></g></svg>