<svg id="svg" version="1.1" xmlns="http://www.w3.org/2000/svg" xmlns:xlink="http://www.w3.org/1999/xlink" width="400" height="399.74440894568687" viewBox="0, 0, 400,399.74440894568687"><g id="svgg"><path id="path0" d="M179.847 87.297 C 173.767 88.505,174.854 87.579,147.647 114.727 C 134.598 127.749,123.433 139.035,122.837 139.808 C 121.656 141.340,120.128 143.916,120.128 144.376 C 120.128 145.067,120.589 144.544,121.362 142.975 C 121.820 142.046,122.812 140.522,123.566 139.589 C 125.455 137.250,170.556 92.313,172.141 91.191 C 174.183 89.745,176.520 88.684,179.118 88.025 L 181.535 87.412 211.087 87.414 C 239.477 87.416,240.720 87.435,242.713 87.913 C 247.528 89.067,251.878 91.982,254.842 96.038 L 255.635 97.125 281.010 97.125 C 307.983 97.125,308.074 97.129,310.621 98.401 C 321.345 103.760,320.996 118.481,310.035 123.128 L 308.371 123.834 283.834 123.962 L 259.297 124.089 259.297 142.875 L 259.297 161.661 288.435 161.789 L 317.572 161.917 319.015 162.500 C 331.760 167.654,332.069 184.763,319.513 190.025 C 316.921 191.111,315.146 191.173,286.326 191.178 L 259.169 191.182 259.169 207.401 L 259.169 223.619 282.236 223.702 C 303.567 223.778,305.406 223.819,306.666 224.241 C 318.248 228.118,319.677 243.450,308.981 249.071 C 305.785 250.750,306.192 250.725,281.496 250.730 L 259.221 250.735 259.104 257.061 C 258.895 268.327,255.628 274.013,247.009 278.108 C 244.963 279.080,244.322 279.226,237.955 280.166 C 235.075 280.592,188.010 280.793,183.131 280.401 C 178.298 280.012,175.460 279.048,172.141 276.666 C 169.856 275.027,123.452 228.448,122.331 226.669 C 119.625 222.372,119.294 220.943,119.123 212.780 L 118.978 205.879 89.457 205.736 C 68.795 205.636,59.668 205.508,59.042 205.308 C 58.550 205.151,57.689 204.886,57.129 204.719 C 54.510 203.939,51.276 201.963,48.855 199.664 L 47.997 198.850 30.168 198.850 C 11.191 198.850,10.740 198.824,8.076 197.565 C 5.547 196.370,2.229 193.003,1.457 190.849 C 1.397 190.681,1.261 190.624,1.154 190.723 C 0.905 190.954,2.096 193.012,3.365 194.543 C 4.709 196.165,7.426 197.966,9.680 198.728 L 11.551 199.361 29.756 199.361 L 47.962 199.361 48.582 200.028 C 50.779 202.396,54.855 204.665,58.628 205.622 L 61.152 206.262 89.716 206.262 L 118.280 206.262 118.403 212.332 C 118.524 218.314,118.941 221.373,119.871 223.090 C 119.997 223.323,120.393 224.125,120.750 224.871 C 121.107 225.618,122.026 227.055,122.792 228.066 C 124.199 229.924,169.483 275.285,171.374 276.730 C 173.694 278.503,175.896 279.557,179.169 280.459 C 181.774 281.177,232.051 281.466,236.550 280.789 C 237.955 280.578,239.911 280.338,240.895 280.255 C 248.715 279.602,256.016 273.677,258.691 265.815 C 259.513 263.399,259.518 263.356,259.622 257.358 L 259.727 251.330 293.250 251.160 C 311.688 251.067,336.899 250.991,349.275 250.991 C 368.505 250.990,371.993 250.934,373.257 250.605 C 383.861 247.843,387.390 235.236,379.697 227.604 C 375.278 223.220,376.468 223.387,349.509 223.387 C 337.262 223.387,312.040 223.310,293.461 223.217 L 259.681 223.046 259.681 207.412 L 259.681 191.778 301.895 191.608 C 325.114 191.514,354.241 191.436,366.624 191.434 C 390.776 191.430,390.685 191.434,393.561 190.124 C 395.628 189.183,398.875 186.442,399.636 184.997 C 400.089 184.138,400.173 169.179,399.732 168.019 C 399.267 166.795,396.154 164.029,394.095 163.009 C 390.342 161.152,395.450 161.278,323.972 161.278 L 259.681 161.278 259.681 143.003 L 259.681 124.728 278.147 124.695 C 288.304 124.677,314.211 124.586,335.719 124.493 L 374.824 124.324 376.486 123.769 C 388.309 119.815,389.409 103.522,378.213 98.179 C 375.055 96.672,379.124 96.768,315.098 96.682 L 255.882 96.603 254.988 95.394 C 251.984 91.333,247.085 88.248,242.086 87.269 C 239.390 86.740,182.518 86.766,179.847 87.297 M119.643 145.495 C 119.241 146.562,119.062 147.732,119.300 147.732 C 119.430 147.732,119.677 147.260,119.850 146.683 C 120.023 146.106,120.226 145.473,120.301 145.277 C 120.376 145.081,120.308 144.920,120.149 144.920 C 119.990 144.920,119.762 145.179,119.643 145.495 M118.818 148.540 C 118.578 148.977,118.461 151.216,118.385 156.865 L 118.280 164.592 89.321 164.660 C 64.339 164.719,59.467 164.805,60.085 165.176 C 60.144 165.211,73.419 165.182,89.585 165.112 L 118.978 164.984 119.105 156.550 C 119.248 147.171,119.267 147.725,118.818 148.540 M56.730 165.727 C 53.943 166.719,51.802 168.013,49.117 170.327 L 47.754 171.502 30.011 171.502 C 18.353 171.502,12.268 171.589,12.268 171.757 C 12.268 171.925,18.398 172.013,30.146 172.013 L 48.023 172.013 48.995 171.094 C 51.617 168.617,55.171 166.554,57.955 165.891 C 58.693 165.716,59.297 165.468,59.297 165.342 C 59.297 164.973,58.520 165.089,56.730 165.727 M10.096 171.941 C 8.028 172.447,4.523 174.764,3.131 176.545 C 2.007 177.985,0.934 179.935,1.154 180.139 C 1.261 180.238,1.397 180.182,1.457 180.014 C 2.529 177.024,7.510 172.849,10.607 172.347 C 11.099 172.267,11.502 172.102,11.502 171.979 C 11.502 171.746,10.956 171.731,10.096 171.941 M0.505 181.103 C 0.368 181.463,0.269 182.412,0.286 183.212 L 0.316 184.665 0.511 183.514 C 0.619 182.882,0.826 181.933,0.972 181.406 C 1.274 180.311,0.899 180.067,0.505 181.103 M0.341 188.046 C 0.373 189.067,0.537 190.032,0.707 190.202 C 1.176 190.671,1.311 190.331,1.005 189.453 C 0.854 189.019,0.629 188.109,0.506 187.431 C 0.296 186.268,0.286 186.303,0.341 188.046 " stroke="none" fill="#bcbcbc" fill-rule="evenodd"></path><path id="path1" d="M180.447 87.921 C 178.534 88.254,174.812 89.610,173.930 90.294 C 173.789 90.403,173.100 90.863,172.399 91.317 C 171.031 92.201,125.663 137.392,123.583 139.942 C 120.103 144.210,119.300 147.430,119.177 157.627 L 119.084 165.349 89.382 165.427 C 61.368 165.500,59.601 165.531,58.275 165.973 C 54.484 167.238,51.749 168.802,49.343 171.080 L 48.088 172.268 29.986 172.275 C 9.007 172.282,9.523 172.227,5.970 174.851 C -2.945 181.437,-0.075 195.555,10.735 198.286 C 12.182 198.651,14.722 198.715,30.411 198.783 L 48.426 198.860 49.452 199.834 C 50.975 201.277,52.341 202.258,54.058 203.139 C 58.808 205.579,57.506 205.495,90.641 205.495 L 119.105 205.495 119.105 211.490 C 119.105 214.786,119.207 217.748,119.332 218.071 C 119.457 218.394,119.694 219.390,119.859 220.285 C 120.025 221.179,120.258 222.100,120.378 222.329 C 120.498 222.559,120.746 223.150,120.929 223.642 C 122.042 226.635,123.546 228.246,147.778 252.424 C 162.926 267.537,171.877 276.283,172.780 276.852 C 173.553 277.340,174.473 277.909,174.824 278.118 C 175.785 278.690,178.337 279.555,180.064 279.895 C 182.284 280.333,231.121 280.528,234.866 280.114 C 236.354 279.950,238.665 279.724,240.000 279.613 C 247.494 278.987,253.543 274.971,256.740 268.498 C 258.566 264.801,258.683 264.103,258.905 255.591 C 259.182 244.900,258.984 113.257,258.682 108.243 C 258.249 101.037,257.149 98.491,252.395 93.692 C 249.710 90.982,247.496 89.602,243.874 88.383 L 242.173 87.810 211.885 87.766 C 195.227 87.741,181.080 87.811,180.447 87.921 " stroke="none" fill="#141414" fill-rule="evenodd"></path><path id="path2" d="M180.590 87.634 C 180.176 87.723,193.914 87.796,211.118 87.796 C 228.323 87.796,242.061 87.723,241.647 87.634 C 241.233 87.545,227.495 87.473,211.118 87.473 C 194.741 87.473,181.003 87.545,180.590 87.634 M243.951 88.447 C 244.788 88.710,245.519 88.880,245.573 88.825 C 245.692 88.706,243.097 87.913,242.701 87.947 C 242.551 87.959,243.113 88.185,243.951 88.447 M176.613 88.772 C 175.840 89.092,174.978 89.500,174.696 89.680 C 174.105 90.058,174.415 89.966,176.358 89.186 C 177.131 88.876,177.994 88.530,178.275 88.418 C 178.601 88.288,178.647 88.209,178.403 88.202 C 178.192 88.196,177.387 88.453,176.613 88.772 M245.879 89.049 C 245.879 89.105,246.684 89.561,247.668 90.061 C 249.900 91.195,250.004 91.066,247.835 89.853 C 246.287 88.987,245.879 88.819,245.879 89.049 M172.241 91.140 C 170.384 92.486,125.660 136.998,123.584 139.567 C 122.839 140.488,121.857 141.984,121.402 142.890 C 120.946 143.796,120.502 144.594,120.414 144.665 C 120.327 144.735,120.227 145.080,120.192 145.431 C 120.158 145.783,120.626 145.035,121.234 143.770 C 122.860 140.383,122.876 140.366,147.976 115.278 C 168.247 95.016,172.557 90.878,173.889 90.400 C 174.052 90.341,174.115 90.218,174.030 90.125 C 173.945 90.032,173.140 90.489,172.241 91.140 M249.712 91.172 C 249.712 91.293,250.030 91.579,250.418 91.808 C 250.806 92.037,251.812 92.967,252.654 93.874 C 258.554 100.231,259.121 102.765,258.959 122.045 C 258.914 127.387,258.957 145.128,259.055 161.470 L 259.232 191.182 286.357 191.178 C 315.146 191.173,316.921 191.111,319.513 190.025 C 332.069 184.763,331.760 167.654,319.015 162.500 L 317.572 161.917 288.435 161.789 L 259.297 161.661 259.297 142.875 L 259.297 124.089 283.834 123.962 L 308.371 123.834 310.035 123.128 C 320.996 118.481,321.345 103.760,310.621 98.401 C 308.074 97.129,307.983 97.125,281.018 97.125 L 255.652 97.125 254.636 95.783 C 253.164 93.839,249.712 90.607,249.712 91.172 M119.617 147.348 C 119.617 147.559,119.530 147.733,119.425 147.734 C 119.319 147.735,119.215 148.339,119.193 149.075 C 119.167 149.936,119.223 150.232,119.349 149.904 C 119.623 149.192,119.934 146.965,119.760 146.965 C 119.681 146.965,119.617 147.137,119.617 147.348 M118.812 164.979 C 118.745 165.047,105.326 165.109,88.993 165.117 C 71.908 165.126,59.297 165.229,59.297 165.359 C 59.297 165.484,59.153 165.635,58.978 165.695 C 58.802 165.756,58.888 165.740,59.169 165.661 C 59.450 165.582,73.051 165.479,89.393 165.433 C 108.244 165.380,119.105 165.259,119.105 165.103 C 119.105 164.833,119.002 164.789,118.812 164.979 M56.997 166.121 C 54.317 166.955,49.520 170.075,48.697 171.519 C 48.582 171.720,48.994 171.412,49.612 170.833 C 51.762 168.819,54.227 167.419,58.019 166.057 C 58.658 165.827,57.760 165.884,56.997 166.121 M11.502 172.044 C 11.502 172.131,11.026 172.279,10.445 172.372 C 9.864 172.465,9.446 172.599,9.517 172.669 C 9.587 172.740,10.149 172.681,10.765 172.539 C 11.462 172.378,18.765 172.279,30.096 172.275 C 40.112 172.271,48.307 172.182,48.307 172.077 C 48.307 171.971,40.025 171.885,29.904 171.885 C 19.783 171.885,11.502 171.957,11.502 172.044 M8.243 173.161 C 7.786 173.359,7.412 173.582,7.412 173.656 C 7.412 173.814,8.707 173.288,9.061 172.987 C 9.396 172.701,9.210 172.740,8.243 173.161 M5.710 174.781 C 4.153 176.012,3.042 177.275,2.138 178.840 C 1.749 179.513,1.367 180.121,1.290 180.192 C 1.213 180.262,1.117 180.607,1.076 180.958 C 1.035 181.312,1.408 180.775,1.912 179.757 C 2.795 177.971,4.802 175.631,6.518 174.386 C 6.939 174.081,7.208 173.824,7.116 173.816 C 7.023 173.808,6.390 174.242,5.710 174.781 M0.425 184.345 C 0.346 185.224,0.366 186.460,0.470 187.093 C 0.614 187.966,0.662 187.582,0.671 185.495 C 0.683 182.343,0.630 182.095,0.425 184.345 M1.084 189.904 C 1.120 190.256,1.213 190.601,1.290 190.671 C 1.367 190.741,1.762 191.372,2.167 192.073 C 3.466 194.320,6.179 196.860,8.032 197.565 C 9.144 197.988,8.763 197.617,7.348 196.901 C 5.431 195.931,3.133 193.483,1.979 191.181 C 1.427 190.082,1.046 189.537,1.084 189.904 M259.034 207.412 C 259.034 216.268,259.066 219.854,259.105 215.381 C 259.145 210.907,259.144 203.661,259.105 199.279 C 259.066 194.896,259.034 198.556,259.034 207.412 M9.585 198.181 C 10.378 198.541,13.021 199.013,12.760 198.748 C 12.679 198.665,11.989 198.480,11.227 198.336 C 10.464 198.192,9.610 198.020,9.329 197.954 C 9.048 197.887,9.163 197.989,9.585 198.181 M49.235 200.009 C 50.563 201.247,53.527 203.330,54.336 203.594 C 54.604 203.682,54.422 203.496,53.930 203.180 C 51.630 201.707,50.934 201.194,49.694 200.064 C 48.962 199.396,48.279 198.850,48.177 198.850 C 48.074 198.850,48.551 199.372,49.235 200.009 M55.719 204.194 C 55.930 204.313,56.390 204.487,56.741 204.580 L 57.380 204.750 56.741 204.365 C 56.390 204.153,55.930 203.979,55.719 203.978 C 55.378 203.977,55.378 204.001,55.719 204.194 M58.064 204.994 C 58.299 205.131,59.219 205.299,60.108 205.366 L 61.725 205.489 59.936 205.129 C 57.759 204.691,57.514 204.673,58.064 204.994 M71.949 205.684 C 98.853 205.859,119.105 205.860,119.105 205.687 C 119.105 205.581,106.195 205.523,90.415 205.556 C 74.636 205.590,66.326 205.647,71.949 205.684 M119.123 217.969 C 119.097 218.465,119.905 221.905,120.021 221.790 C 120.076 221.735,119.993 221.008,119.838 220.174 C 119.545 218.599,119.153 217.391,119.123 217.969 M120.257 222.652 C 120.522 223.528,120.854 223.800,120.705 223.019 C 120.635 222.655,120.464 222.286,120.325 222.201 C 120.168 222.104,120.142 222.274,120.257 222.652 M259.151 236.091 C 259.132 248.402,258.824 262.406,258.538 263.898 C 258.394 264.654,258.396 264.655,258.697 264.026 C 258.898 263.605,259.040 261.222,259.112 257.061 L 259.221 250.735 281.496 250.730 C 306.192 250.725,305.785 250.750,308.981 249.071 C 319.677 243.450,318.248 228.118,306.666 224.241 C 305.406 223.819,303.567 223.778,282.236 223.702 L 259.169 223.619 259.151 236.091 M120.895 224.026 C 120.895 225.604,123.036 227.892,146.805 251.713 C 169.149 274.106,172.320 277.129,174.569 278.182 C 175.560 278.647,175.268 278.428,172.946 276.965 C 171.826 276.259,164.630 269.244,147.907 252.556 C 124.702 229.399,123.527 228.171,121.785 225.278 C 121.295 224.465,120.895 223.902,120.895 224.026 M257.768 266.219 C 257.495 267.022,256.790 268.524,256.201 269.558 C 255.612 270.591,255.231 271.374,255.354 271.298 C 256.004 270.897,258.533 265.568,258.344 265.000 C 258.300 264.868,258.041 265.417,257.768 266.219 M253.930 272.710 C 253.508 273.256,252.329 274.363,251.310 275.170 C 249.595 276.527,249.002 277.100,249.776 276.650 C 250.165 276.424,251.916 275.079,252.736 274.377 C 253.547 273.682,255.164 271.690,254.905 271.705 C 254.790 271.712,254.351 272.164,253.930 272.710 M246.680 277.989 C 246.206 278.195,245.879 278.424,245.953 278.498 C 246.026 278.571,246.528 278.398,247.069 278.113 C 248.201 277.515,247.949 277.435,246.680 277.989 M176.230 278.949 C 176.652 279.141,177.284 279.368,177.636 279.455 C 178.149 279.580,178.124 279.543,177.508 279.262 C 177.086 279.070,176.454 278.842,176.102 278.756 C 175.589 278.630,175.614 278.668,176.230 278.949 M243.502 279.034 C 241.663 279.516,241.736 279.730,243.605 279.337 C 245.034 279.036,246.136 278.592,245.367 278.627 C 245.157 278.637,244.317 278.820,243.502 279.034 M179.143 279.872 C 180.895 280.636,228.821 281.045,235.272 280.351 C 236.677 280.200,238.633 279.981,239.617 279.864 L 241.406 279.652 239.233 279.760 C 238.038 279.819,236.141 279.977,235.016 280.112 C 230.036 280.706,182.550 280.385,179.197 279.734 L 178.530 279.605 179.143 279.872 " stroke="none" fill="#444443" fill-rule="evenodd"></path></g></svg>