<svg id="svg" version="1.1" xmlns="http://www.w3.org/2000/svg" xmlns:xlink="http://www.w3.org/1999/xlink" width="400" height="325.3164556962025" viewBox="0, 0, 400,325.3164556962025"><g id="svgg"><path id="path0" d="M172.682 16.428 C 164.450 19.721,160.842 29.892,163.018 43.671 C 167.600 72.687,171.593 87.145,181.502 110.601 L 187.317 124.366 178.529 138.449 C 166.775 157.284,162.896 167.470,162.781 179.807 C 162.500 209.846,194.727 231.728,220.664 219.110 C 227.998 215.541,227.985 215.530,232.215 229.050 C 240.177 254.500,236.665 285.443,225.814 285.443 C 222.257 285.443,222.128 285.215,221.161 277.215 C 219.301 261.828,210.698 250.763,201.899 252.439 C 180.045 256.601,200.671 301.266,224.447 301.266 C 243.355 301.266,248.508 263.546,234.926 224.563 L 230.604 212.159 235.562 206.527 C 256.546 182.687,239.198 142.805,210.716 149.409 C 207.955 150.049,205.323 150.586,204.867 150.603 C 203.825 150.641,196.676 131.025,195.556 125.056 C 194.884 121.476,195.574 118.924,199.114 111.890 C 211.314 87.647,212.201 64.624,201.810 41.872 C 194.224 25.262,180.520 13.292,172.682 16.428 M187.369 28.165 C 204.935 40.081,209.841 79.234,197.207 106.691 C 192.563 116.783,192.587 116.796,187.568 101.266 C 180.622 79.774,177.249 58.892,177.226 37.236 C 177.212 23.974,178.928 22.439,187.369 28.165 M195.504 142.767 L 200.183 153.255 196.356 157.613 C 184.321 171.320,195.180 193.183,211.242 187.584 C 216.266 185.833,223.641 200.312,219.386 203.573 C 201.234 217.483,172.287 201.821,172.180 178.031 C 172.127 166.393,186.666 127.737,189.806 131.166 C 190.366 131.778,192.930 136.998,195.504 142.767 M223.811 168.680 C 229.377 173.300,231.071 190.990,226.395 195.666 C 224.179 197.882,218.088 186.447,219.511 182.740 C 219.896 181.737,219.365 180.592,218.332 180.196 C 216.889 179.642,211.392 169.708,211.392 167.653 C 211.392 165.561,221.011 166.357,223.811 168.680 M211.004 179.291 C 209.644 180.651,206.329 177.887,206.329 175.392 C 206.329 170.748,208.109 170.416,209.869 174.730 C 210.777 176.955,211.288 179.007,211.004 179.291 M210.830 275.080 C 212.641 278.824,212.633 278.932,210.728 276.582 C 207.611 272.738,205.779 269.131,207.478 270.181 C 208.248 270.657,209.757 272.862,210.830 275.080 " stroke="none" fill="#ff00ff" fill-rule="evenodd"></path></g></svg>
