<svg id="svg" version="1.1" xmlns="http://www.w3.org/2000/svg" xmlns:xlink="http://www.w3.org/1999/xlink" width="400" height="387.1698113207547" viewBox="0, 0, 400,387.1698113207547"><g id="svgg"><path id="path0" d="M104.434 19.258 C 104.014 19.610,103.530 20.290,103.357 20.767 L 103.044 21.635 80.742 21.635 L 58.440 21.635 57.459 22.364 C 55.877 23.540,0.000 79.591,0.000 80.002 C 0.000 80.208,13.076 67.301,29.057 51.320 L 58.114 22.264 80.872 22.197 L 103.631 22.131 103.897 21.142 C 104.043 20.598,104.459 19.920,104.820 19.636 L 105.477 19.119 197.656 19.119 C 276.946 19.119,289.933 19.170,290.530 19.478 C 291.254 19.852,291.824 20.808,291.824 21.647 C 291.824 22.131,292.173 22.138,314.409 22.138 C 334.885 22.138,337.053 22.177,337.617 22.549 C 337.959 22.775,350.659 35.365,365.839 50.526 C 381.019 65.687,393.508 78.022,393.594 77.937 C 393.771 77.760,338.936 22.762,337.905 22.082 C 337.276 21.667,335.800 21.638,314.780 21.637 L 292.327 21.635 292.327 21.102 C 292.327 20.809,291.888 20.130,291.350 19.593 L 290.374 18.616 197.785 18.616 L 105.196 18.616 104.434 19.258 M292.138 27.376 C 291.887 27.537,291.836 47.363,291.886 125.675 L 291.950 223.774 313.572 223.838 L 335.195 223.902 363.950 195.118 L 392.704 166.334 392.704 125.613 L 392.704 84.893 364.100 56.265 C 348.368 40.519,335.305 27.534,335.071 27.409 C 334.542 27.126,292.579 27.094,292.138 27.376 M31.509 56.164 L 2.767 84.906 2.767 125.535 L 2.767 166.164 31.637 195.033 L 60.507 223.902 82.014 223.838 L 103.522 223.774 103.585 125.597 L 103.648 27.421 81.950 27.421 L 60.251 27.421 31.509 56.164 M103.145 125.535 L 103.145 223.145 81.801 223.145 L 60.457 223.145 31.990 194.664 L 3.522 166.183 3.522 125.531 L 3.522 84.878 32.013 56.402 L 60.503 27.926 81.824 27.925 L 103.145 27.925 103.145 125.535 M363.712 56.418 L 392.201 84.911 392.201 125.535 L 392.201 166.158 363.712 194.651 L 335.223 223.145 313.775 223.145 L 292.327 223.145 292.327 125.535 L 292.327 27.925 313.775 27.925 L 335.223 27.925 363.712 56.418 M399.497 31.824 C 399.497 32.170,399.610 32.453,399.748 32.453 C 399.887 32.453,400.000 32.170,400.000 31.824 C 400.000 31.478,399.887 31.195,399.748 31.195 C 399.610 31.195,399.497 31.478,399.497 31.824 M259.339 51.825 C 257.668 52.708,256.087 55.399,255.199 58.868 C 254.408 61.964,254.459 98.790,255.259 101.763 C 257.971 111.837,264.938 111.817,267.344 101.729 C 267.871 99.520,268.154 66.607,267.685 62.077 C 266.870 54.194,263.256 49.756,259.339 51.825 M397.987 101.887 C 397.987 104.526,398.075 105.887,398.239 105.786 C 398.388 105.694,398.491 104.111,398.491 101.887 C 398.491 99.662,398.388 98.080,398.239 97.987 C 398.075 97.886,397.987 99.248,397.987 101.887 M397.987 129.686 C 397.987 135.595,398.073 138.593,398.239 138.491 C 398.399 138.392,398.491 135.181,398.491 129.686 C 398.491 124.191,398.399 120.979,398.239 120.881 C 398.073 120.778,397.987 123.776,397.987 129.686 M259.497 145.791 C 257.740 146.673,256.043 149.494,255.185 152.956 C 254.396 156.138,254.472 193.679,255.273 196.661 C 258.320 208.003,266.410 206.045,267.672 193.661 C 268.141 189.058,267.883 155.603,267.362 153.459 C 265.812 147.080,262.792 144.136,259.497 145.791 M397.987 164.025 C 397.987 164.652,398.087 165.000,398.239 164.906 C 398.377 164.820,398.491 164.424,398.491 164.025 C 398.491 163.626,398.377 163.230,398.239 163.145 C 398.087 163.051,397.987 163.399,397.987 164.025 M0.000 171.072 C 0.000 171.832,57.899 229.357,58.836 229.530 C 59.303 229.615,69.464 229.686,81.415 229.686 L 103.145 229.686 103.146 232.642 C 103.146 235.063,103.230 235.734,103.607 236.353 C 103.861 236.769,104.134 237.599,104.214 238.199 C 104.300 238.838,104.734 239.852,105.262 240.647 C 105.758 241.394,106.164 242.065,106.164 242.138 C 106.164 242.212,106.545 242.864,107.011 243.589 C 107.818 244.843,108.777 246.433,111.447 250.943 C 112.102 252.050,113.268 253.975,114.038 255.220 C 114.807 256.465,116.073 258.560,116.850 259.874 C 117.628 261.189,118.986 263.453,119.868 264.906 C 120.751 266.358,122.110 268.623,122.888 269.937 C 123.666 271.252,125.648 274.535,127.292 277.233 C 128.937 279.931,130.914 283.214,131.686 284.528 C 132.459 285.843,134.900 289.913,137.111 293.573 C 139.323 297.233,141.132 300.312,141.132 300.414 C 141.132 300.517,136.575 303.909,131.006 307.953 C 125.437 311.996,119.975 315.969,118.868 316.783 C 117.761 317.596,115.157 319.493,113.082 321.000 C 111.006 322.506,108.445 324.369,107.391 325.140 C 106.336 325.910,105.232 326.541,104.938 326.541 C 104.279 326.541,102.539 328.078,102.020 329.118 C 101.683 329.793,101.635 332.779,101.636 353.058 C 101.637 379.048,101.502 377.175,103.457 378.366 C 104.585 379.054,290.284 379.170,291.927 378.484 C 293.971 377.630,293.834 379.459,293.836 352.882 L 293.836 329.287 292.673 328.043 C 292.029 327.354,291.153 326.700,290.711 326.578 C 290.272 326.457,286.748 324.058,282.881 321.247 C 279.013 318.436,274.208 314.949,272.201 313.498 C 270.195 312.047,267.761 310.276,266.792 309.561 C 265.824 308.847,262.711 306.587,259.874 304.539 C 257.038 302.490,254.621 300.728,254.504 300.622 C 254.388 300.517,256.652 296.515,259.536 291.731 C 262.420 286.946,266.052 280.906,267.607 278.308 C 269.161 275.710,270.736 273.101,271.107 272.509 C 271.477 271.917,272.865 269.625,274.192 267.415 C 275.518 265.206,278.528 260.202,280.881 256.295 C 283.233 252.389,285.270 248.997,285.409 248.757 C 285.547 248.517,286.337 247.213,287.164 245.859 C 290.664 240.129,291.405 238.734,291.401 237.888 C 291.398 237.459,291.606 236.837,291.862 236.507 C 292.259 235.994,292.327 235.435,292.327 232.670 L 292.327 229.434 314.780 229.432 C 335.721 229.431,337.275 229.401,337.862 228.992 C 338.833 228.315,392.460 174.514,392.312 174.366 C 392.240 174.294,379.987 186.417,365.084 201.305 C 350.181 216.194,337.740 228.501,337.438 228.653 C 337.049 228.849,330.287 228.931,314.356 228.931 L 291.824 228.931 291.818 232.390 C 291.813 235.436,291.754 235.924,291.321 236.478 C 291.050 236.824,290.826 237.483,290.823 237.942 C 290.817 238.822,288.987 241.907,258.668 292.159 C 256.011 296.563,253.836 300.301,253.836 300.464 C 253.836 300.628,254.770 301.433,255.912 302.254 C 257.053 303.075,259.006 304.497,260.252 305.414 C 267.408 310.687,289.261 326.498,289.686 326.710 C 289.962 326.849,290.638 327.179,291.187 327.443 C 291.736 327.708,292.444 328.309,292.760 328.779 L 293.333 329.634 293.333 352.880 C 293.333 378.658,293.423 377.283,291.689 378.007 C 290.318 378.580,104.977 378.542,103.768 377.968 C 102.059 377.157,102.138 378.373,102.138 353.123 C 102.138 337.674,102.224 330.119,102.405 329.639 C 102.788 328.625,104.104 327.346,104.958 327.158 C 105.360 327.070,109.729 324.059,114.668 320.466 C 119.607 316.874,126.014 312.214,128.905 310.112 C 131.797 308.009,135.839 305.069,137.888 303.578 C 139.937 302.087,141.672 300.774,141.742 300.659 C 141.813 300.545,140.884 298.811,139.678 296.805 C 138.471 294.800,134.049 287.453,129.850 280.479 C 122.623 268.476,119.492 263.279,109.197 246.204 C 106.083 241.039,104.815 238.714,104.795 238.133 C 104.779 237.683,104.549 236.986,104.283 236.582 C 103.888 235.984,103.773 235.226,103.660 232.453 L 103.522 229.057 80.839 228.931 C 68.363 228.862,58.061 228.720,57.945 228.616 C 57.830 228.512,44.745 215.438,28.868 199.562 C 12.991 183.687,0.000 170.867,0.000 171.072 " stroke="none" fill="#f8e39c" fill-rule="evenodd"></path><path id="path1" d="M341.761 26.667 C 343.833 28.742,345.585 30.440,345.654 30.440 C 345.723 30.440,344.085 28.742,342.013 26.667 C 339.941 24.591,338.189 22.893,338.119 22.893 C 338.050 22.893,339.689 24.591,341.761 26.667 M109.099 24.318 C 109.006 24.411,108.931 72.037,108.931 130.154 L 108.931 235.822 109.536 236.716 C 109.868 237.208,112.008 240.723,114.290 244.528 C 116.571 248.333,121.238 256.088,124.660 261.761 C 128.082 267.434,132.720 275.132,134.967 278.868 C 144.518 294.747,146.917 298.668,147.529 299.395 C 148.270 300.276,148.398 301.710,147.810 302.549 C 147.516 302.969,139.257 309.153,136.936 310.692 C 136.623 310.899,134.750 312.249,132.774 313.691 C 130.799 315.133,125.991 318.635,122.090 321.474 C 118.189 324.312,115.054 326.727,115.123 326.839 C 115.340 327.190,280.563 327.097,280.446 326.746 C 280.391 326.581,275.089 322.628,268.664 317.959 C 262.238 313.291,256.698 309.266,256.352 309.015 C 256.006 308.764,254.252 307.493,252.453 306.191 C 246.717 302.040,246.382 301.398,248.526 298.666 C 248.928 298.154,250.783 295.189,252.649 292.075 C 254.515 288.962,259.523 280.642,263.778 273.585 C 268.033 266.528,272.672 258.830,274.086 256.478 C 283.680 240.521,285.646 237.275,286.126 236.604 L 286.667 235.849 286.541 130.063 L 286.415 24.277 197.841 24.213 C 149.125 24.179,109.191 24.226,109.099 24.318 M103.648 125.585 C 103.579 179.644,103.607 223.789,103.711 223.685 C 103.815 223.581,103.872 179.351,103.837 125.396 L 103.774 27.296 103.648 125.585 M349.057 33.962 C 350.851 35.761,352.376 37.233,352.446 37.233 C 352.515 37.233,351.103 35.761,349.308 33.962 C 347.513 32.164,345.988 30.692,345.919 30.692 C 345.850 30.692,347.262 32.164,349.057 33.962 M339.874 32.028 C 339.874 32.072,340.242 32.440,340.692 32.846 L 341.509 33.585 340.771 32.767 C 340.082 32.005,339.874 31.834,339.874 32.028 M343.899 36.054 C 343.899 36.097,344.267 36.465,344.717 36.871 L 345.535 37.610 344.796 36.792 C 344.107 36.030,343.899 35.859,343.899 36.054 M354.969 39.874 C 356.278 41.189,357.405 42.264,357.474 42.264 C 357.544 42.264,356.529 41.189,355.220 39.874 C 353.911 38.560,352.784 37.484,352.714 37.484 C 352.645 37.484,353.660 38.560,354.969 39.874 M347.925 40.126 C 349.095 41.302,350.108 42.264,350.178 42.264 C 350.247 42.264,349.346 41.302,348.176 40.126 C 347.006 38.950,345.992 37.987,345.923 37.987 C 345.854 37.987,346.755 38.950,347.925 40.126 M361.887 46.792 C 363.126 48.038,364.197 49.057,364.266 49.057 C 364.335 49.057,363.378 48.038,362.138 46.792 C 360.899 45.547,359.828 44.528,359.759 44.528 C 359.690 44.528,360.647 45.547,361.887 46.792 M354.843 47.044 C 356.082 48.289,357.153 49.308,357.222 49.308 C 357.291 49.308,356.334 48.289,355.094 47.044 C 353.855 45.799,352.784 44.780,352.715 44.780 C 352.646 44.780,353.603 45.799,354.843 47.044 M365.535 50.440 C 366.004 50.925,366.445 51.321,366.514 51.321 C 366.583 51.321,366.256 50.925,365.786 50.440 C 365.317 49.956,364.876 49.560,364.807 49.560 C 364.738 49.560,365.065 49.956,365.535 50.440 M262.862 51.682 C 265.354 52.970,267.142 56.824,267.685 62.077 C 268.154 66.607,267.871 99.520,267.344 101.729 C 264.938 111.817,257.971 111.837,255.259 101.763 C 254.459 98.790,254.408 61.964,255.199 58.868 C 256.673 53.107,259.852 50.125,262.862 51.682 M360.252 52.453 C 360.721 52.937,361.162 53.333,361.231 53.333 C 361.300 53.333,360.973 52.937,360.503 52.453 C 360.034 51.969,359.593 51.572,359.524 51.572 C 359.455 51.572,359.782 51.969,360.252 52.453 M369.811 54.717 C 371.537 56.447,373.005 57.862,373.074 57.862 C 373.143 57.862,371.788 56.447,370.063 54.717 C 368.337 52.987,366.869 51.572,366.800 51.572 C 366.731 51.572,368.086 52.987,369.811 54.717 M362.767 54.969 C 363.519 55.730,364.190 56.352,364.260 56.352 C 364.329 56.352,363.770 55.730,363.019 54.969 C 362.267 54.208,361.596 53.585,361.527 53.585 C 361.457 53.585,362.016 54.208,362.767 54.969 M368.176 60.377 C 369.693 61.899,370.991 63.145,371.061 63.145 C 371.130 63.145,369.945 61.899,368.428 60.377 C 366.910 58.855,365.612 57.610,365.543 57.610 C 365.474 57.610,366.659 58.855,368.176 60.377 M376.600 61.447 C 378.466 63.349,380.023 64.906,380.059 64.906 C 380.240 64.906,379.880 64.532,376.667 61.380 L 373.208 57.987 376.600 61.447 M383.522 68.428 C 385.317 70.226,386.842 71.698,386.911 71.698 C 386.980 71.698,385.568 70.226,383.774 68.428 C 381.979 66.629,380.454 65.157,380.385 65.157 C 380.315 65.157,381.727 66.629,383.522 68.428 M374.088 66.289 C 374.557 66.774,374.998 67.170,375.067 67.170 C 375.136 67.170,374.809 66.774,374.340 66.289 C 373.870 65.805,373.430 65.409,373.360 65.409 C 373.291 65.409,373.619 65.805,374.088 66.289 M376.101 68.245 C 376.101 68.283,376.978 69.161,378.050 70.195 L 380.000 72.075 378.120 70.126 C 376.373 68.315,376.101 68.061,376.101 68.245 M387.170 72.019 C 387.170 72.057,388.047 72.934,389.119 73.969 L 391.069 75.849 389.189 73.899 C 387.442 72.089,387.170 71.835,387.170 72.019 M383.393 75.535 C 386.544 78.748,386.918 79.108,386.918 78.927 C 386.918 78.891,385.362 77.334,383.459 75.468 L 380.000 72.075 383.393 75.535 M392.075 76.981 C 392.616 77.535,393.115 77.987,393.184 77.987 C 393.253 77.987,392.867 77.535,392.327 76.981 C 391.787 76.428,391.288 75.975,391.219 75.975 C 391.149 75.975,391.535 76.428,392.075 76.981 M387.170 79.324 C 387.170 79.367,387.538 79.735,387.987 80.142 L 388.805 80.881 388.066 80.063 C 387.377 79.301,387.170 79.130,387.170 79.324 M389.811 82.013 C 390.352 82.566,390.851 83.019,390.920 83.019 C 390.989 83.019,390.603 82.566,390.063 82.013 C 389.522 81.459,389.024 81.006,388.954 81.006 C 388.885 81.006,389.271 81.459,389.811 82.013 M391.195 83.349 C 391.195 83.392,391.563 83.760,392.013 84.167 L 392.830 84.906 392.091 84.088 C 391.403 83.326,391.195 83.155,391.195 83.349 M392.827 125.409 C 392.827 147.686,392.857 156.762,392.893 145.578 C 392.929 134.394,392.929 116.167,392.893 105.075 C 392.857 93.982,392.827 103.132,392.827 125.409 M397.736 103.103 C 397.736 107.234,397.834 110.440,397.960 110.440 C 398.197 110.440,398.110 96.139,397.872 95.901 C 397.797 95.826,397.736 99.067,397.736 103.103 M397.740 133.354 C 397.742 141.823,397.833 147.154,397.972 146.934 C 398.192 146.587,398.062 119.742,397.840 119.518 C 397.783 119.460,397.738 125.687,397.740 133.354 M263.431 146.025 C 265.073 147.140,266.468 149.779,267.362 153.459 C 267.883 155.603,268.141 189.058,267.672 193.661 C 266.410 206.045,258.320 208.003,255.273 196.661 C 254.472 193.679,254.396 156.138,255.185 152.956 C 256.688 146.890,260.272 143.878,263.431 146.025 M397.740 156.038 C 397.737 158.011,397.833 159.245,397.987 159.245 C 398.316 159.245,398.316 153.716,397.987 153.208 C 397.823 152.953,397.742 153.874,397.740 156.038 M397.736 164.361 C 397.736 165.145,397.844 165.786,397.976 165.786 C 398.116 165.786,398.153 165.239,398.066 164.465 C 397.864 162.679,397.736 162.638,397.736 164.361 M385.519 180.692 L 384.780 181.509 385.597 180.771 C 386.360 180.082,386.531 179.874,386.336 179.874 C 386.293 179.874,385.925 180.242,385.519 180.692 M377.217 188.994 L 376.478 189.811 377.296 189.072 C 378.058 188.384,378.229 188.176,378.034 188.176 C 377.991 188.176,377.623 188.544,377.217 188.994 M103.647 232.024 L 103.771 235.094 103.844 232.222 C 103.884 230.643,103.828 229.261,103.719 229.152 C 103.611 229.043,103.578 230.336,103.647 232.024 M151.006 378.302 C 176.708 378.337,218.764 378.337,244.465 378.302 C 270.167 378.267,249.138 378.238,197.736 378.238 C 146.333 378.238,125.305 378.267,151.006 378.302 " stroke="none" fill="#fbc404" fill-rule="evenodd"></path><path id="path2" d="M105.274 19.358 C 104.554 19.651,104.114 20.248,103.920 21.197 L 103.753 22.013 80.996 22.143 C 68.480 22.215,58.184 22.300,58.116 22.332 C 58.048 22.364,44.944 35.436,28.996 51.382 L -0.000 80.374 -0.000 125.536 L 0.000 170.697 29.123 199.813 L 58.246 228.928 81.010 228.992 L 103.774 229.057 103.899 232.616 C 104.002 235.535,104.104 236.263,104.465 236.661 C 104.715 236.936,104.906 237.543,104.906 238.061 C 104.906 238.796,105.713 240.315,109.042 245.840 C 111.317 249.615,114.984 255.704,117.190 259.371 C 119.397 263.038,124.682 271.811,128.936 278.868 C 133.189 285.925,137.850 293.659,139.293 296.055 C 140.736 298.451,141.882 300.509,141.839 300.627 C 141.796 300.745,135.818 305.155,128.553 310.426 C 121.289 315.697,113.987 321.011,112.327 322.233 C 107.241 325.978,105.803 326.954,105.108 327.128 C 104.166 327.364,102.886 328.510,102.482 329.477 C 102.200 330.150,102.138 334.389,102.138 352.956 C 102.138 377.342,102.109 376.781,103.426 377.703 C 103.965 378.080,111.498 378.113,197.788 378.113 L 291.564 378.113 292.386 377.379 L 293.208 376.645 293.208 352.989 L 293.208 329.332 292.210 328.311 C 291.661 327.749,290.865 327.193,290.440 327.076 C 290.016 326.959,287.804 325.508,285.526 323.852 C 283.248 322.196,275.327 316.449,267.925 311.080 C 260.522 305.712,254.268 301.133,254.026 300.905 C 253.610 300.513,253.946 299.893,260.027 289.805 C 263.569 283.928,268.988 274.931,272.069 269.811 C 275.150 264.692,280.629 255.593,284.244 249.592 C 289.103 241.528,290.818 238.476,290.819 237.894 C 290.820 237.461,291.046 236.767,291.321 236.352 C 291.756 235.695,291.821 235.167,291.822 232.264 L 291.824 228.931 314.348 228.931 C 335.327 228.931,336.920 228.901,337.556 228.493 C 337.932 228.252,350.424 215.884,365.317 201.009 C 380.210 186.133,392.749 173.698,393.181 173.375 C 393.613 173.053,393.891 172.667,393.800 172.519 C 393.708 172.371,393.749 172.321,393.890 172.408 C 394.216 172.610,395.034 171.728,394.780 171.449 C 394.676 171.334,394.723 171.316,394.884 171.408 C 395.327 171.661,397.651 168.924,397.802 167.971 C 397.871 167.530,397.886 163.943,397.835 160.000 C 397.768 154.922,397.818 152.940,398.006 153.208 C 398.223 153.515,398.248 153.492,398.144 153.082 C 397.918 152.193,397.870 147.565,398.082 147.044 C 398.243 146.647,398.229 146.620,398.015 146.918 C 397.820 147.190,397.744 143.389,397.744 133.333 C 397.744 123.278,397.820 119.477,398.015 119.748 C 398.237 120.057,398.258 120.038,398.128 119.641 C 397.887 118.905,397.670 95.680,397.907 96.014 C 398.020 96.175,398.079 93.292,398.038 89.610 C 397.952 81.856,398.108 82.395,395.183 79.748 C 394.189 78.849,380.834 65.607,365.505 50.322 C 350.176 35.037,337.430 22.450,337.182 22.352 C 336.933 22.254,326.626 22.166,314.277 22.156 L 291.824 22.138 291.824 21.513 C 291.824 21.170,291.494 20.519,291.090 20.067 L 290.356 19.245 198.071 19.198 C 147.314 19.172,105.556 19.244,105.274 19.358 M286.541 130.063 L 286.667 235.849 286.126 236.604 C 285.646 237.275,283.680 240.521,274.086 256.478 C 272.672 258.830,268.033 266.528,263.778 273.585 C 259.523 280.642,254.515 288.962,252.649 292.075 C 250.783 295.189,248.928 298.154,248.526 298.666 C 246.382 301.398,246.717 302.040,252.453 306.191 C 254.252 307.493,256.006 308.764,256.352 309.015 C 256.698 309.266,262.238 313.291,268.664 317.959 C 275.089 322.628,280.391 326.581,280.446 326.746 C 280.563 327.097,115.340 327.190,115.123 326.839 C 115.054 326.727,118.189 324.312,122.090 321.474 C 125.991 318.635,130.799 315.133,132.774 313.691 C 134.750 312.249,136.623 310.899,136.936 310.692 C 139.257 309.153,147.516 302.969,147.810 302.549 C 148.398 301.710,148.270 300.276,147.529 299.395 C 146.917 298.668,144.518 294.747,134.967 278.868 C 132.720 275.132,128.082 267.434,124.660 261.761 C 121.238 256.088,116.571 248.333,114.290 244.528 C 112.008 240.723,109.868 237.208,109.536 236.716 L 108.931 235.822 108.931 130.154 C 108.931 72.037,109.006 24.411,109.099 24.318 C 109.191 24.226,149.125 24.179,197.841 24.213 L 286.415 24.277 286.541 130.063 M364.089 56.041 L 392.961 84.913 392.895 125.601 L 392.830 166.289 364.026 195.094 L 335.221 223.899 313.522 223.899 L 291.824 223.899 291.824 125.702 C 291.824 71.694,291.899 27.430,291.992 27.338 C 292.084 27.245,301.847 27.170,313.688 27.170 L 335.218 27.170 364.089 56.041 M103.837 125.597 L 103.774 223.774 82.077 223.838 L 60.380 223.902 31.574 195.069 L 2.767 166.235 2.767 125.571 L 2.767 84.906 31.509 56.164 L 60.251 27.421 82.075 27.421 L 103.900 27.421 103.837 125.597 " stroke="none" fill="#ec9c04" fill-rule="evenodd"></path></g></svg>